<svg width="1240" height="547" viewBox="0 0 1240 547" fill="none" xmlns="http://www.w3.org/2000/svg">
<path opacity="0.2" fill-rule="evenodd" clip-rule="evenodd" d="M0 547L1236.91 547V543.91L1240 543.91V3.09039L1236.91 3.09045V6.10352e-05L0 0L0 547ZM1190.52 49.4464H1236.91V3.09045L1190.52 3.09039V49.4464ZM1187.43 49.4464V3.09039H1141.05V49.4464H1187.43ZM1187.43 52.5368V98.8927H1141.05V52.5368H1187.43ZM1190.52 98.8927V52.5368H1236.91V98.8927H1190.52ZM1187.43 101.983H1141.05V148.339H1187.43V101.983ZM1190.52 148.339V101.983H1236.91V148.339H1190.52ZM1187.43 151.429H1141.05V197.785H1187.43V151.429ZM1190.52 197.785V151.429H1236.91V197.785H1190.52ZM1187.43 200.876H1141.05V247.232H1187.43V200.876ZM1190.52 247.232V200.876H1236.91V247.232H1190.52ZM1187.43 250.322H1141.05V296.678L1187.43 296.678V250.322ZM1190.52 296.678V250.322H1236.91V296.678H1190.52ZM1187.43 299.768L1141.05 299.768V346.124L1187.43 346.124V299.768ZM1190.52 346.124V299.768H1236.91V346.124H1190.52ZM1187.43 349.215L1141.05 349.215V395.571L1187.43 395.571V349.215ZM1190.52 395.571V349.215H1236.91V395.571H1190.52ZM1187.43 398.661L1141.05 398.661V445.017H1187.43V398.661ZM1190.52 445.017V398.661H1236.91V445.017H1190.52ZM1187.43 448.107H1141.05V494.463H1187.43V448.107ZM1190.52 494.463V448.107H1236.91V494.463H1190.52ZM1190.52 497.554H1236.91V543.91L1190.52 543.91V497.554ZM1187.43 497.554H1141.05V543.91H1187.43V497.554ZM3.09227 543.91H49.4763V497.554H3.09227L3.09227 543.91ZM3.09227 494.463H49.4763L49.4763 448.107H3.09227L3.09227 494.463ZM3.09227 445.017H49.4763V398.661H3.09227L3.09227 445.017ZM3.09227 395.571H49.4763L49.4763 349.215H3.09227L3.09227 395.571ZM3.09227 346.124H49.4763V299.768H3.09227L3.09227 346.124ZM3.09227 296.678H49.4763L49.4763 250.322H3.09227L3.09227 296.678ZM3.09227 247.232H49.4763V200.876H3.09227L3.09227 247.232ZM3.09227 197.785H49.4763V151.429H3.09227L3.09227 197.785ZM3.09227 148.339H49.4763L49.4763 101.983H3.09227L3.09227 148.339ZM3.09227 98.8926H49.4763V52.5367H3.09227L3.09227 98.8926ZM3.09227 49.4463H49.4763L49.4763 3.09039H3.09227L3.09227 49.4463ZM1137.96 3.09039H1091.57V49.4463H1137.96V3.09039ZM1042.09 3.09039H1088.48V49.4463H1042.09V3.09039ZM1042.09 52.5367H1088.48V98.8926H1042.09V52.5367ZM1091.57 98.8926V52.5367H1137.96V98.8926H1091.57ZM1137.96 101.983H1091.57V148.339H1137.96V101.983ZM1088.48 148.339V101.983H1042.09V148.339H1088.48ZM1042.09 151.429H1088.48V197.785H1042.09V151.429ZM1091.57 197.785V151.429H1137.96V197.785H1091.57ZM1137.96 200.876H1091.57V247.232H1137.96V200.876ZM1088.48 247.232V200.876H1042.09V247.232H1088.48ZM1042.09 250.322H1088.48V296.678H1042.09V250.322ZM1091.57 296.678V250.322H1137.96V296.678H1091.57ZM1137.96 299.768H1091.57V346.124H1137.96V299.768ZM1088.48 346.124V299.768H1042.09V346.124H1088.48ZM1042.09 349.215H1088.48V395.571H1042.09V349.215ZM1091.57 395.571V349.215H1137.96V395.571H1091.57ZM1137.96 398.661H1091.57V445.017H1137.96V398.661ZM1088.48 445.017V398.661H1042.09V445.017H1088.48ZM1042.09 448.107H1088.48V494.463H1042.09V448.107ZM1091.57 494.463V448.107H1137.96V494.463H1091.57ZM1137.96 497.554H1091.57V543.91H1137.96V497.554ZM1042.09 497.554H1088.48V543.91H1042.09V497.554ZM1039 497.554V543.91H992.618V497.554H1039ZM989.526 497.554V543.91H943.142V497.554H989.526ZM989.526 494.463H943.142V448.107H989.526V494.463ZM992.618 494.463V448.107H1039V494.463H992.618ZM992.618 445.017H1039V398.661H992.618V445.017ZM989.526 445.017V398.661H943.142V445.017H989.526ZM989.526 395.571H943.142V349.215H989.526V395.571ZM992.618 395.571V349.215H1039V395.571H992.618ZM992.618 346.124H1039V299.768H992.618V346.124ZM989.526 346.124V299.768H943.142V346.124H989.526ZM989.526 296.678H943.142V250.322H989.526V296.678ZM992.618 296.678V250.322H1039V296.678H992.618ZM992.618 247.232H1039V200.876H992.618V247.232ZM989.526 247.232V200.876H943.142V247.232H989.526ZM989.526 197.785H943.142V151.429H989.526V197.785ZM992.618 197.785V151.429H1039V197.785H992.618ZM992.618 148.339H1039V101.983H992.618V148.339ZM989.526 148.339V101.983H943.142V148.339H989.526ZM989.526 98.8926H943.142V52.5367H989.526V98.8926ZM992.618 98.8926V52.5367H1039V98.8926H992.618ZM992.618 49.4463H1039V3.09039H992.618V49.4463ZM989.526 3.09039H943.142V49.4463H989.526V3.09039ZM940.05 3.09039L893.666 3.09039V49.4463H940.05V3.09039ZM844.19 3.09039H890.574V49.4463H844.19V3.09039ZM844.19 52.5367H890.574V98.8926H844.19V52.5367ZM893.666 98.8926V52.5367H940.05V98.8926H893.666ZM940.05 101.983H893.666V148.339H940.05V101.983ZM890.574 148.339V101.983H844.19V148.339H890.574ZM844.19 151.429H890.574V197.785H844.19V151.429ZM893.666 197.785V151.429H940.05V197.785H893.666ZM940.05 200.876H893.666V247.232H940.05V200.876ZM890.574 247.232V200.876H844.19V247.232H890.574ZM844.19 250.322H890.574V296.678H844.19V250.322ZM893.666 296.678V250.322H940.05V296.678H893.666ZM940.05 299.768H893.666V346.124H940.05V299.768ZM890.574 346.124V299.768H844.19V346.124H890.574ZM844.19 349.215H890.574V395.571H844.19V349.215ZM893.666 395.571V349.215H940.05V395.571H893.666ZM940.05 398.661H893.666V445.017H940.05V398.661ZM890.574 445.017V398.661H844.19V445.017H890.574ZM844.19 448.107H890.574V494.463H844.19V448.107ZM893.666 494.463V448.107H940.05V494.463H893.666ZM940.05 497.554H893.666V543.91L940.05 543.91V497.554ZM890.574 543.91V497.554H844.19V543.91H890.574ZM841.097 497.554V543.91H794.713V497.554H841.097ZM791.621 497.554V543.91H745.237V497.554H791.621ZM791.621 494.463H745.237V448.107H791.621V494.463ZM794.713 494.463V448.107H841.097V494.463H794.713ZM794.713 445.017H841.097V398.661H794.713V445.017ZM791.621 445.017V398.661H745.237V445.017H791.621ZM791.621 395.571H745.237V349.215H791.621V395.571ZM794.713 395.571V349.215H841.097V395.571H794.713ZM794.713 346.124H841.097V299.768H794.713V346.124ZM791.621 346.124V299.768H745.237V346.124H791.621ZM791.621 296.678H745.237V250.322H791.621V296.678ZM794.713 296.678V250.322H841.097V296.678H794.713ZM794.713 247.232H841.097V200.876H794.713V247.232ZM791.621 247.232V200.876H745.237V247.232H791.621ZM791.621 197.785H745.237V151.429H791.621V197.785ZM794.713 197.785V151.429H841.097V197.785H794.713ZM794.713 148.339H841.097V101.983H794.713V148.339ZM791.621 148.339V101.983H745.237V148.339H791.621ZM791.621 98.8926H745.237V52.5367H791.621V98.8926ZM794.713 98.8926V52.5367H841.097V98.8926H794.713ZM794.713 49.4463H841.097V3.09039H794.713V49.4463ZM791.621 49.4463V3.09039H745.237V49.4463H791.621ZM742.145 3.09039H695.761V49.4463H742.145V3.09039ZM646.284 3.09039H692.668V49.4463H646.284V3.09039ZM646.284 52.5367H692.668V98.8926H646.284V52.5367ZM695.761 98.8926V52.5367H742.145V98.8926H695.761ZM742.145 101.983H695.761V148.339H742.145V101.983ZM692.668 148.339V101.983H646.284V148.339H692.668ZM646.284 151.429H692.668V197.785H646.284V151.429ZM695.761 197.785V151.429H742.145V197.785H695.761ZM742.145 200.876H695.761V247.232H742.145V200.876ZM692.668 247.232V200.876H646.284V247.232H692.668ZM646.284 250.322H692.668V296.678H646.284V250.322ZM695.761 296.678V250.322H742.145V296.678L695.761 296.678ZM742.145 299.768L695.761 299.768V346.124L742.145 346.124V299.768ZM692.668 346.124V299.768H646.284V346.124H692.668ZM646.284 349.215H692.668V395.571H646.284V349.215ZM695.761 395.571V349.215L742.145 349.215V395.571L695.761 395.571ZM742.145 398.661L695.761 398.661V445.017H742.145V398.661ZM692.668 445.017V398.661H646.284V445.017H692.668ZM646.284 448.107H692.668V494.463H646.284V448.107ZM695.761 494.463V448.107H742.145V494.463H695.761ZM742.145 497.554H695.761V543.91H742.145V497.554ZM692.668 543.91V497.554H646.284V543.91H692.668ZM643.192 497.554V543.91H596.808V497.554H643.192ZM593.716 497.554V543.91H547.332V497.554H593.716ZM593.716 494.463H547.332V448.107L593.716 448.107V494.463ZM596.808 494.463V448.107H643.192V494.463H596.808ZM596.808 445.017H643.192V398.661H596.808V445.017ZM593.716 445.017V398.661H547.332V445.017L593.716 445.017ZM593.716 395.571H547.332V349.215H593.716V395.571ZM596.808 395.571V349.215H643.192V395.571H596.808ZM596.808 346.124H643.192V299.768H596.808V346.124ZM593.716 346.124V299.768H547.332V346.124H593.716ZM593.716 296.678H547.332V250.322H593.716V296.678ZM596.808 296.678V250.322H643.192V296.678H596.808ZM596.808 247.232H643.192V200.876H596.808V247.232ZM593.716 247.232V200.876H547.332V247.232H593.716ZM593.716 197.785H547.332V151.429H593.716V197.785ZM596.808 197.785V151.429H643.192V197.785H596.808ZM596.808 148.339H643.192V101.983H596.808V148.339ZM593.716 148.339V101.983H547.332V148.339H593.716ZM593.716 98.8926H547.332V52.5367H593.716V98.8926ZM596.808 98.8926V52.5367H643.192V98.8926H596.808ZM596.808 49.4463H643.192V3.09039H596.808V49.4463ZM593.716 49.4463V3.09039H547.332V49.4463H593.716ZM544.239 3.09039H497.855V49.4463H544.239V3.09039ZM448.379 3.09039H494.763V49.4463L448.379 49.4463V3.09039ZM448.379 52.5367L494.763 52.5367L494.763 98.8926L448.379 98.8926L448.379 52.5367ZM497.855 98.8926L497.855 52.5367H544.239V98.8926H497.855ZM544.239 101.983H497.855V148.339H544.239V101.983ZM494.763 148.339V101.983L448.379 101.983V148.339L494.763 148.339ZM448.379 151.429L494.763 151.429V197.785L448.379 197.785V151.429ZM497.855 197.785V151.429H544.239V197.785H497.855ZM544.239 200.876H497.855V247.232H544.239V200.876ZM494.763 247.232V200.876L448.379 200.876V247.232L494.763 247.232ZM448.379 250.322L494.763 250.322V296.678H448.379V250.322ZM497.855 296.678V250.322H544.239V296.678H497.855ZM544.239 299.768H497.855V346.124H544.239V299.768ZM494.763 346.124V299.768H448.379V346.124H494.763ZM448.379 349.215H494.763V395.571H448.379V349.215ZM497.855 395.571V349.215H544.239V395.571H497.855ZM544.239 398.661H497.855V445.017H544.239V398.661ZM494.763 445.017V398.661H448.379V445.017H494.763ZM448.379 448.107H494.763V494.463H448.379V448.107ZM497.855 494.463V448.107H544.239V494.463L497.855 494.463ZM544.239 497.554L497.855 497.554V543.91H544.239V497.554ZM494.763 543.91V497.554H448.379V543.91H494.763ZM445.287 497.554V543.91H398.903V497.554H445.287ZM395.81 497.554V543.91H349.426V497.554H395.81ZM395.81 494.463H349.426V448.107H395.81V494.463ZM398.903 494.463V448.107H445.287V494.463H398.903ZM398.903 445.017H445.287V398.661H398.903V445.017ZM395.81 445.017V398.661H349.426V445.017H395.81ZM395.81 395.571H349.426V349.215H395.81V395.571ZM398.903 395.571V349.215H445.287V395.571H398.903ZM398.903 346.124H445.287V299.768H398.903V346.124ZM395.81 346.124V299.768H349.426V346.124H395.81ZM395.81 296.678H349.426V250.322H395.81V296.678ZM398.903 296.678V250.322H445.287V296.678H398.903ZM398.903 247.232H445.287V200.876H398.903V247.232ZM395.81 247.232V200.876H349.426V247.232H395.81ZM395.81 197.785H349.426V151.429H395.81V197.785ZM398.903 197.785V151.429H445.287V197.785H398.903ZM398.903 148.339H445.287V101.983H398.903V148.339ZM395.81 148.339V101.983H349.426V148.339H395.81ZM395.81 98.8926H349.426L349.426 52.5367H395.81L395.81 98.8926ZM398.903 98.8926L398.903 52.5367H445.287L445.287 98.8926H398.903ZM398.903 49.4463H445.287V3.09039H398.903V49.4463ZM395.81 49.4463V3.09039H349.426V49.4463H395.81ZM346.334 3.09039H299.95V49.4463H346.334V3.09039ZM250.474 3.09039H296.858V49.4463H250.474V3.09039ZM250.474 52.5367H296.858L296.858 98.8926H250.474V52.5367ZM299.95 98.8926L299.95 52.5367H346.334L346.334 98.8926H299.95ZM346.334 101.983H299.95V148.339H346.334V101.983ZM296.858 148.339V101.983H250.474V148.339H296.858ZM250.474 151.429H296.858V197.785H250.474V151.429ZM299.95 197.785V151.429H346.334V197.785H299.95ZM346.334 200.876H299.95V247.232H346.334V200.876ZM296.858 247.232V200.876H250.474V247.232H296.858ZM250.474 250.322H296.858V296.678H250.474V250.322ZM299.95 296.678V250.322H346.334V296.678H299.95ZM346.334 299.768H299.95V346.124H346.334V299.768ZM296.858 346.124V299.768H250.474L250.474 346.124H296.858ZM250.474 349.215H296.858V395.571H250.474V349.215ZM299.95 395.571V349.215H346.334V395.571H299.95ZM346.334 398.661H299.95V445.017H346.334V398.661ZM296.858 445.017V398.661H250.474V445.017H296.858ZM250.474 448.107H296.858V494.463H250.474V448.107ZM299.95 494.463V448.107H346.334V494.463H299.95ZM346.334 497.554H299.95V543.91H346.334V497.554ZM296.858 543.91V497.554H250.474V543.91H296.858ZM247.382 497.554V543.91H200.998V497.554H247.382ZM197.905 497.554V543.91H151.521V497.554H197.905ZM197.905 494.463H151.521V448.107H197.905V494.463ZM200.998 494.463V448.107H247.382V494.463H200.998ZM200.998 445.017H247.382V398.661H200.998V445.017ZM197.905 445.017V398.661H151.521V445.017H197.905ZM197.905 395.571H151.521V349.215H197.905V395.571ZM200.998 395.571V349.215H247.382V395.571H200.998ZM200.998 346.124H247.382L247.382 299.768H200.998L200.998 346.124ZM197.905 346.124L197.905 299.768H151.521L151.521 346.124H197.905ZM197.905 296.678H151.521V250.322H197.905V296.678ZM200.998 296.678V250.322H247.382V296.678H200.998ZM200.998 247.232H247.382V200.876H200.998V247.232ZM197.905 247.232V200.876H151.521V247.232H197.905ZM197.905 197.785H151.521V151.429H197.905V197.785ZM200.998 197.785V151.429H247.382V197.785H200.998ZM200.998 148.339H247.382V101.983H200.998V148.339ZM197.905 148.339V101.983H151.521V148.339H197.905ZM197.905 98.8926H151.521V52.5367H197.905V98.8926ZM200.998 98.8926V52.5367H247.382V98.8926H200.998ZM200.998 49.4463H247.382V3.09039H200.998V49.4463ZM197.905 49.4463V3.09039H151.521V49.4463H197.905ZM148.429 3.09039H102.045V49.4463H148.429V3.09039ZM52.5686 3.09039H98.9526V49.4463H52.5686L52.5686 3.09039ZM52.5686 52.5367H98.9526V98.8926H52.5686V52.5367ZM102.045 98.8926V52.5367H148.429V98.8926H102.045ZM148.429 101.983H102.045V148.339H148.429V101.983ZM98.9526 148.339V101.983H52.5686L52.5686 148.339H98.9526ZM52.5686 151.429H98.9526V197.785H52.5686V151.429ZM102.045 197.785V151.429H148.429V197.785H102.045ZM148.429 200.876H102.045V247.232H148.429V200.876ZM98.9526 247.232V200.876H52.5686V247.232H98.9526ZM52.5686 250.322H98.9526V296.678H52.5686L52.5686 250.322ZM102.045 296.678V250.322H148.429V296.678H102.045ZM148.429 299.768H102.045V346.124H148.429L148.429 299.768ZM98.9526 346.124V299.768H52.5686V346.124H98.9526ZM52.5686 349.215H98.9526V395.571H52.5686L52.5686 349.215ZM102.045 395.571V349.215H148.429V395.571H102.045ZM148.429 398.661H102.045L102.045 445.017H148.429V398.661ZM98.9526 445.017L98.9526 398.661H52.5686V445.017H98.9526ZM52.5686 448.107H98.9526V494.463H52.5686L52.5686 448.107ZM102.045 494.463V448.107H148.429V494.463H102.045ZM148.429 497.554H102.045V543.91H148.429V497.554ZM98.9526 543.91V497.554H52.5686V543.91H98.9526Z" fill="url(#paint0_radial_459_267)"/>
<defs>
<radialGradient id="paint0_radial_459_267" cx="0" cy="0" r="1" gradientUnits="userSpaceOnUse" gradientTransform="translate(620 816) rotate(-90) scale(816 875.395)">
<stop stop-color="white"/>
<stop offset="1" stop-color="white" stop-opacity="0"/>
</radialGradient>
</defs>
</svg>
