<svg width="1240" height="500" viewBox="0 0 1240 500" fill="none" xmlns="http://www.w3.org/2000/svg">
<path opacity="0.2" fill-rule="evenodd" clip-rule="evenodd" d="M0 -46.9999L1236.91 -47V-43.9096L1240 -43.9096V496.91L1236.91 496.91V500L0 500L0 -46.9999ZM1190.52 450.554H1236.91V496.91L1190.52 496.91V450.554ZM1187.43 450.554V496.91H1141.05V450.554H1187.43ZM1187.43 447.463V401.107H1141.05V447.463H1187.43ZM1190.52 401.107V447.463H1236.91V401.107H1190.52ZM1187.43 398.017H1141.05V351.661H1187.43V398.017ZM1190.52 351.661V398.017H1236.91V351.661H1190.52ZM1187.43 348.571H1141.05V302.215H1187.43V348.571ZM1190.52 302.215V348.571H1236.91V302.215H1190.52ZM1187.43 299.124H1141.05V252.768H1187.43V299.124ZM1190.52 252.768V299.124H1236.91V252.768H1190.52ZM1187.43 249.678H1141.05V203.322L1187.43 203.322V249.678ZM1190.52 203.322V249.678H1236.91V203.322H1190.52ZM1187.43 200.232L1141.05 200.232V153.876L1187.43 153.876V200.232ZM1190.52 153.876V200.232H1236.91V153.876H1190.52ZM1187.43 150.785L1141.05 150.785V104.429L1187.43 104.429V150.785ZM1190.52 104.429V150.785H1236.91V104.429H1190.52ZM1187.43 101.339L1141.05 101.339V54.983H1187.43V101.339ZM1190.52 54.983V101.339H1236.91V54.983H1190.52ZM1187.43 51.8926H1141.05V5.53672H1187.43V51.8926ZM1190.52 5.53672V51.8926H1236.91V5.53672L1190.52 5.53672ZM1190.52 2.44632L1236.91 2.44632V-43.9096L1190.52 -43.9096V2.44632ZM1187.43 2.44633H1141.05V-43.9096H1187.43V2.44633ZM3.09227 -43.9096H49.4763V2.44638H3.09227L3.09227 -43.9096ZM3.09227 5.53677H49.4763L49.4763 51.8927H3.09227L3.09227 5.53677ZM3.09227 54.9831H49.4763V101.339H3.09227L3.09227 54.9831ZM3.09227 104.429H49.4763L49.4763 150.785H3.09227L3.09227 104.429ZM3.09227 153.876H49.4763V200.232H3.09227L3.09227 153.876ZM3.09227 203.322H49.4763L49.4763 249.678H3.09227L3.09227 203.322ZM3.09227 252.768H49.4763V299.124H3.09227L3.09227 252.768ZM3.09227 302.215H49.4763V348.571H3.09227L3.09227 302.215ZM3.09227 351.661H49.4763L49.4763 398.017H3.09227L3.09227 351.661ZM3.09227 401.107H49.4763V447.463H3.09227L3.09227 401.107ZM3.09227 450.554H49.4763L49.4763 496.91H3.09227L3.09227 450.554ZM1137.96 496.91H1091.57V450.554H1137.96V496.91ZM1042.09 496.91H1088.48V450.554H1042.09V496.91ZM1042.09 447.463H1088.48V401.107H1042.09V447.463ZM1091.57 401.107V447.463H1137.96V401.107H1091.57ZM1137.96 398.017H1091.57V351.661H1137.96V398.017ZM1088.48 351.661V398.017H1042.09V351.661H1088.48ZM1042.09 348.571H1088.48V302.215H1042.09V348.571ZM1091.57 302.215V348.571H1137.96V302.215H1091.57ZM1137.96 299.124H1091.57V252.768H1137.96V299.124ZM1088.48 252.768V299.124H1042.09V252.768H1088.48ZM1042.09 249.678H1088.48V203.322H1042.09V249.678ZM1091.57 203.322V249.678H1137.96V203.322H1091.57ZM1137.96 200.232H1091.57V153.876H1137.96V200.232ZM1088.48 153.876V200.232H1042.09V153.876H1088.48ZM1042.09 150.785H1088.48V104.429H1042.09V150.785ZM1091.57 104.429V150.785H1137.96V104.429H1091.57ZM1137.96 101.339H1091.57V54.9831H1137.96V101.339ZM1088.48 54.9831V101.339H1042.09V54.9831L1088.48 54.9831ZM1042.09 51.8927L1088.48 51.8927V5.53672H1042.09V51.8927ZM1091.57 5.53672V51.8927H1137.96V5.53672L1091.57 5.53672ZM1137.96 2.44633L1091.57 2.44633V-43.9096L1137.96 -43.9096V2.44633ZM1042.09 2.44633H1088.48V-43.9096H1042.09V2.44633ZM1039 2.44633V-43.9096H992.618V2.44633H1039ZM989.526 2.44633V-43.9096H943.142V2.44633L989.526 2.44633ZM989.526 5.53672L943.142 5.53672V51.8927H989.526V5.53672ZM992.618 5.53672V51.8927H1039V5.53672H992.618ZM992.618 54.9831H1039V101.339H992.618V54.9831ZM989.526 54.9831V101.339H943.142V54.9831H989.526ZM989.526 104.429H943.142V150.785H989.526V104.429ZM992.618 104.429V150.785H1039V104.429H992.618ZM992.618 153.876H1039V200.232H992.618V153.876ZM989.526 153.876V200.232H943.142V153.876H989.526ZM989.526 203.322H943.142V249.678H989.526V203.322ZM992.618 203.322V249.678H1039V203.322H992.618ZM992.618 252.768H1039V299.124H992.618V252.768ZM989.526 252.768V299.124H943.142V252.768H989.526ZM989.526 302.215H943.142V348.571H989.526V302.215ZM992.618 302.215V348.571H1039V302.215H992.618ZM992.618 351.661H1039V398.017H992.618V351.661ZM989.526 351.661V398.017H943.142V351.661H989.526ZM989.526 401.107H943.142V447.463H989.526V401.107ZM992.618 401.107V447.463H1039V401.107H992.618ZM992.618 450.554H1039V496.91H992.618V450.554ZM989.526 496.91H943.142V450.554H989.526V496.91ZM940.05 496.91L893.666 496.91V450.554H940.05V496.91ZM844.19 496.91H890.574V450.554H844.19V496.91ZM844.19 447.463H890.574V401.107H844.19V447.463ZM893.666 401.107V447.463H940.05V401.107H893.666ZM940.05 398.017H893.666V351.661H940.05V398.017ZM890.574 351.661V398.017H844.19V351.661H890.574ZM844.19 348.571H890.574V302.215H844.19V348.571ZM893.666 302.215V348.571H940.05V302.215H893.666ZM940.05 299.124H893.666V252.768H940.05V299.124ZM890.574 252.768V299.124H844.19V252.768H890.574ZM844.19 249.678H890.574V203.322H844.19V249.678ZM893.666 203.322V249.678H940.05V203.322H893.666ZM940.05 200.232H893.666V153.876H940.05V200.232ZM890.574 153.876V200.232H844.19V153.876H890.574ZM844.19 150.785H890.574V104.429H844.19V150.785ZM893.666 104.429V150.785H940.05V104.429H893.666ZM940.05 101.339H893.666V54.9831H940.05V101.339ZM890.574 54.9831V101.339H844.19V54.9831H890.574ZM844.19 51.8927H890.574V5.53673L844.19 5.53673V51.8927ZM893.666 5.53673V51.8927H940.05V5.53673H893.666ZM940.05 2.44634H893.666V-43.9096H940.05V2.44634ZM890.574 -43.9096V2.44634L844.19 2.44634V-43.9096L890.574 -43.9096ZM841.097 2.44634V-43.9096H794.713V2.44634H841.097ZM791.621 2.44635V-43.9096L745.237 -43.9096V2.44635L791.621 2.44635ZM791.621 5.53673L745.237 5.53673V51.8927H791.621V5.53673ZM794.713 5.53673V51.8927L841.097 51.8927V5.53673H794.713ZM794.713 54.9831L841.097 54.9831V101.339H794.713V54.9831ZM791.621 54.9831V101.339H745.237V54.9831H791.621ZM791.621 104.429H745.237V150.785H791.621V104.429ZM794.713 104.429V150.785H841.097V104.429H794.713ZM794.713 153.876H841.097V200.232H794.713V153.876ZM791.621 153.876V200.232H745.237V153.876H791.621ZM791.621 203.322H745.237V249.678H791.621V203.322ZM794.713 203.322V249.678H841.097V203.322H794.713ZM794.713 252.768H841.097V299.124H794.713V252.768ZM791.621 252.768V299.124H745.237V252.768H791.621ZM791.621 302.215H745.237V348.571H791.621V302.215ZM794.713 302.215V348.571H841.097V302.215H794.713ZM794.713 351.661H841.097V398.017H794.713V351.661ZM791.621 351.661V398.017H745.237V351.661H791.621ZM791.621 401.107H745.237V447.463H791.621V401.107ZM794.713 401.107V447.463H841.097V401.107H794.713ZM794.713 450.554H841.097V496.91H794.713V450.554ZM791.621 450.554V496.91H745.237V450.554H791.621ZM742.145 496.91H695.761V450.554H742.145V496.91ZM646.284 496.91H692.668V450.554H646.284V496.91ZM646.284 447.463H692.668V401.107H646.284V447.463ZM695.761 401.107V447.463H742.145V401.107H695.761ZM742.145 398.017H695.761V351.661H742.145V398.017ZM692.668 351.661V398.017H646.284V351.661H692.668ZM646.284 348.571H692.668V302.215H646.284V348.571ZM695.761 302.215V348.571H742.145V302.215H695.761ZM742.145 299.124H695.761V252.768H742.145V299.124ZM692.668 252.768V299.124H646.284V252.768H692.668ZM646.284 249.678H692.668V203.322H646.284V249.678ZM695.761 203.322V249.678H742.145V203.322L695.761 203.322ZM742.145 200.232L695.761 200.232V153.876L742.145 153.876V200.232ZM692.668 153.876V200.232H646.284V153.876H692.668ZM646.284 150.785H692.668V104.429H646.284V150.785ZM695.761 104.429V150.785L742.145 150.785V104.429L695.761 104.429ZM742.145 101.339L695.761 101.339V54.9831H742.145V101.339ZM692.668 54.9831V101.339H646.284V54.9831H692.668ZM646.284 51.8927H692.668V5.53674H646.284V51.8927ZM695.761 5.53674V51.8927H742.145V5.53674H695.761ZM742.145 2.44635H695.761V-43.9096H742.145V2.44635ZM692.668 -43.9096V2.44635H646.284V-43.9096H692.668ZM643.192 2.44635V-43.9096L596.808 -43.9096V2.44635L643.192 2.44635ZM593.716 2.44635V-43.9096H547.332V2.44635H593.716ZM593.716 5.53674H547.332V51.8927L593.716 51.8927V5.53674ZM596.808 5.53674V51.8927H643.192V5.53674L596.808 5.53674ZM596.808 54.9831H643.192V101.339H596.808V54.9831ZM593.716 54.9831V101.339H547.332V54.9831L593.716 54.9831ZM593.716 104.429H547.332V150.785H593.716V104.429ZM596.808 104.429V150.785H643.192V104.429H596.808ZM596.808 153.876H643.192V200.232H596.808V153.876ZM593.716 153.876V200.232H547.332V153.876H593.716ZM593.716 203.322H547.332V249.678H593.716V203.322ZM596.808 203.322V249.678H643.192V203.322H596.808ZM596.808 252.768H643.192V299.124H596.808V252.768ZM593.716 252.768V299.124H547.332V252.768H593.716ZM593.716 302.215H547.332V348.571H593.716V302.215ZM596.808 302.215V348.571H643.192V302.215H596.808ZM596.808 351.661H643.192V398.017H596.808V351.661ZM593.716 351.661V398.017H547.332V351.661H593.716ZM593.716 401.107H547.332V447.463H593.716V401.107ZM596.808 401.107V447.463H643.192V401.107H596.808ZM596.808 450.554H643.192V496.91H596.808V450.554ZM593.716 450.554V496.91H547.332V450.554H593.716ZM544.239 496.91H497.855V450.554H544.239V496.91ZM448.379 496.91H494.763V450.554L448.379 450.554V496.91ZM448.379 447.463L494.763 447.463L494.763 401.107L448.379 401.107L448.379 447.463ZM497.855 401.107L497.855 447.463H544.239V401.107H497.855ZM544.239 398.017H497.855V351.661H544.239V398.017ZM494.763 351.661V398.017L448.379 398.017V351.661L494.763 351.661ZM448.379 348.571L494.763 348.571V302.215L448.379 302.215V348.571ZM497.855 302.215V348.571H544.239V302.215H497.855ZM544.239 299.124H497.855V252.768H544.239V299.124ZM494.763 252.768V299.124L448.379 299.124V252.768L494.763 252.768ZM448.379 249.678L494.763 249.678V203.322H448.379V249.678ZM497.855 203.322V249.678H544.239V203.322H497.855ZM544.239 200.232H497.855V153.876H544.239V200.232ZM494.763 153.876V200.232H448.379V153.876H494.763ZM448.379 150.785H494.763V104.429H448.379V150.785ZM497.855 104.429V150.785H544.239V104.429H497.855ZM544.239 101.339H497.855V54.9831H544.239V101.339ZM494.763 54.9831V101.339H448.379V54.9831H494.763ZM448.379 51.8927H494.763V5.53675H448.379V51.8927ZM497.855 5.53674V51.8927H544.239V5.53674L497.855 5.53674ZM544.239 2.44636L497.855 2.44636V-43.9096L544.239 -43.9096V2.44636ZM494.763 -43.9096V2.44636H448.379V-43.9096H494.763ZM445.287 2.44636V-43.9096L398.903 -43.9096V2.44636L445.287 2.44636ZM395.81 2.44637V-43.9096H349.426V2.44637H395.81ZM395.81 5.53675H349.426V51.8927H395.81V5.53675ZM398.903 5.53675V51.8927H445.287V5.53675L398.903 5.53675ZM398.903 54.9831H445.287V101.339H398.903V54.9831ZM395.81 54.9831V101.339H349.426V54.9831H395.81ZM395.81 104.429H349.426V150.785H395.81V104.429ZM398.903 104.429V150.785H445.287V104.429H398.903ZM398.903 153.876H445.287V200.232H398.903V153.876ZM395.81 153.876V200.232H349.426V153.876H395.81ZM395.81 203.322H349.426V249.678H395.81V203.322ZM398.903 203.322V249.678H445.287V203.322H398.903ZM398.903 252.768H445.287V299.124H398.903V252.768ZM395.81 252.768V299.124H349.426V252.768H395.81ZM395.81 302.215H349.426V348.571H395.81V302.215ZM398.903 302.215V348.571H445.287V302.215H398.903ZM398.903 351.661H445.287V398.017H398.903V351.661ZM395.81 351.661V398.017H349.426V351.661H395.81ZM395.81 401.107H349.426L349.426 447.463H395.81L395.81 401.107ZM398.903 401.107L398.903 447.463H445.287L445.287 401.107H398.903ZM398.903 450.554H445.287V496.91H398.903V450.554ZM395.81 450.554V496.91H349.426V450.554H395.81ZM346.334 496.91H299.95V450.554H346.334V496.91ZM250.474 496.91H296.858V450.554H250.474V496.91ZM250.474 447.463H296.858L296.858 401.107H250.474V447.463ZM299.95 401.107L299.95 447.463H346.334L346.334 401.107H299.95ZM346.334 398.017H299.95V351.661H346.334V398.017ZM296.858 351.661V398.017H250.474V351.661H296.858ZM250.474 348.571H296.858V302.215H250.474V348.571ZM299.95 302.215V348.571H346.334V302.215H299.95ZM346.334 299.124H299.95V252.768H346.334V299.124ZM296.858 252.768V299.124H250.474V252.768H296.858ZM250.474 249.678H296.858V203.322H250.474V249.678ZM299.95 203.322V249.678H346.334V203.322H299.95ZM346.334 200.232H299.95V153.876H346.334V200.232ZM296.858 153.876V200.232H250.474L250.474 153.876H296.858ZM250.474 150.785H296.858V104.429H250.474V150.785ZM299.95 104.429V150.785H346.334V104.429H299.95ZM346.334 101.339H299.95V54.9831H346.334V101.339ZM296.858 54.9831V101.339H250.474V54.9831H296.858ZM250.474 51.8927H296.858V5.53676L250.474 5.53676V51.8927ZM299.95 5.53675V51.8927H346.334V5.53675H299.95ZM346.334 2.44637H299.95V-43.9096H346.334V2.44637ZM296.858 -43.9096V2.44637L250.474 2.44637V-43.9096L296.858 -43.9096ZM247.382 2.44637V-43.9096H200.998V2.44637H247.382ZM197.905 2.44637V-43.9096L151.521 -43.9096V2.44637L197.905 2.44637ZM197.905 5.53677L151.521 5.53677V51.8927H197.905V5.53677ZM200.998 5.53676V51.8927H247.382V5.53676H200.998ZM200.998 54.9831H247.382V101.339L200.998 101.339V54.9831ZM197.905 54.9831V101.339H151.521V54.9831H197.905ZM197.905 104.429H151.521V150.785H197.905V104.429ZM200.998 104.429V150.785L247.382 150.785V104.429L200.998 104.429ZM200.998 153.876L247.382 153.876L247.382 200.232L200.998 200.232L200.998 153.876ZM197.905 153.876L197.905 200.232H151.521L151.521 153.876H197.905ZM197.905 203.322H151.521V249.678H197.905V203.322ZM200.998 203.322V249.678H247.382V203.322L200.998 203.322ZM200.998 252.768H247.382V299.124H200.998V252.768ZM197.905 252.768V299.124H151.521V252.768H197.905ZM197.905 302.215H151.521V348.571H197.905V302.215ZM200.998 302.215V348.571H247.382V302.215H200.998ZM200.998 351.661H247.382V398.017H200.998V351.661ZM197.905 351.661V398.017H151.521V351.661H197.905ZM197.905 401.107H151.521V447.463H197.905V401.107ZM200.998 401.107V447.463H247.382V401.107H200.998ZM200.998 450.554H247.382V496.91H200.998V450.554ZM197.905 450.554V496.91H151.521V450.554H197.905ZM148.429 496.91H102.045V450.554H148.429V496.91ZM52.5686 496.91H98.9526V450.554H52.5686L52.5686 496.91ZM52.5686 447.463H98.9526V401.107H52.5686V447.463ZM102.045 401.107V447.463H148.429V401.107H102.045ZM148.429 398.017H102.045V351.661H148.429V398.017ZM98.9526 351.661V398.017H52.5686L52.5686 351.661H98.9526ZM52.5686 348.571H98.9526V302.215H52.5686V348.571ZM102.045 302.215V348.571H148.429V302.215H102.045ZM148.429 299.124H102.045V252.768H148.429V299.124ZM98.9526 252.768V299.124H52.5686V252.768H98.9526ZM52.5686 249.678H98.9526V203.322H52.5686L52.5686 249.678ZM102.045 203.322V249.678H148.429V203.322H102.045ZM148.429 200.232H102.045V153.876H148.429L148.429 200.232ZM98.9526 153.876V200.232H52.5686V153.876H98.9526ZM52.5686 150.785H98.9526V104.429H52.5686L52.5686 150.785ZM102.045 104.429V150.785H148.429V104.429H102.045ZM148.429 101.339H102.045L102.045 54.9831L148.429 54.9831V101.339ZM98.9526 54.9831L98.9526 101.339H52.5686V54.9831H98.9526ZM52.5686 51.8927H98.9526V5.53677L52.5686 5.53677L52.5686 51.8927ZM102.045 5.53677V51.8927L148.429 51.8927V5.53677H102.045ZM148.429 2.44637H102.045V-43.9096H148.429V2.44637ZM98.9526 -43.9096V2.44638L52.5686 2.44638V-43.9096L98.9526 -43.9096Z" fill="url(#paint0_radial_459_268)"/>
<defs>
<radialGradient id="paint0_radial_459_268" cx="0" cy="0" r="1" gradientUnits="userSpaceOnUse" gradientTransform="translate(618.454 -47) rotate(89.8381) scale(547.002 586.817)">
<stop stop-color="white"/>
<stop offset="1" stop-color="white" stop-opacity="0"/>
</radialGradient>
</defs>
</svg>
