<svg width="64" height="64" viewBox="0 0 64 64" fill="none" xmlns="http://www.w3.org/2000/svg">
<path d="M25.3333 51.9999V47.9999H12C10.5333 47.9999 9.19996 47.4133 8.23996 46.4266C7.25329 45.4666 6.66663 44.1333 6.66663 42.6666C6.66663 39.9199 8.79996 37.6266 11.4933 37.3599C11.6533 37.3333 11.8133 37.3333 12 37.3333H52C52.1866 37.3333 52.3466 37.3333 52.5066 37.3599C53.7866 37.4666 54.9066 38.0266 55.76 38.9066C56.8533 39.9733 57.44 41.4933 57.3066 43.1466C57.0666 45.9466 54.5333 47.9999 51.7066 47.9999H38.6666V51.9999C38.6666 55.6799 35.68 58.6666 32 58.6666C28.32 58.6666 25.3333 55.6799 25.3333 51.9999Z" fill="#2A3342"/>
<path opacity="0.4" d="M53.7866 14.1333L52.5066 37.3599C52.3466 37.3333 52.1866 37.3333 51.9999 37.3333H11.9999C11.8133 37.3333 11.6533 37.3333 11.4933 37.3599L10.2133 14.1333C9.73328 9.41325 13.4399 5.33325 18.1599 5.33325H45.84C50.5599 5.33325 54.2666 9.41325 53.7866 14.1333Z" fill="#2A3342"/>
<path d="M23.3066 5.33325V18.6666C23.3066 19.7599 22.4 20.6666 21.3066 20.6666C20.2133 20.6666 19.3066 19.7599 19.3066 18.6666V5.33325H23.3066Z" fill="#2A3342"/>
<path d="M34 5.33325V10.6666C34 11.7599 33.0933 12.6666 32 12.6666C30.9067 12.6666 30 11.7599 30 10.6666V5.33325H34Z" fill="#2A3342"/>
</svg>
