<svg width="180" height="80" viewBox="0 0 180 80" fill="none" xmlns="http://www.w3.org/2000/svg">
<g clip-path="url(#clip0_782_4274)">
<path d="M94.9665 38.7647C94.1439 39.2046 93.2202 39.419 92.2886 39.3863C91.1049 39.3863 90.1716 39.0578 89.4887 38.4007C88.8059 37.7436 88.4644 36.8386 88.4644 35.6855C88.445 35.1604 88.5346 34.637 88.7275 34.1485C88.9204 33.66 89.2124 33.2171 89.585 32.8478C89.9829 32.4746 90.4513 32.1851 90.9625 31.9965C91.4737 31.8078 92.0174 31.7239 92.5615 31.7495C93.2631 31.7358 93.9618 31.8448 94.6261 32.0716V33.6305C93.9821 33.2825 93.2572 33.1135 92.5262 33.1409C92.2145 33.1299 91.904 33.1841 91.6144 33.3C91.3247 33.4159 91.0623 33.591 90.8437 33.8141C90.6236 34.0556 90.4534 34.3385 90.3432 34.6465C90.2329 34.9545 90.1848 35.2814 90.2015 35.6082C90.1609 36.2493 90.3704 36.8811 90.7859 37.37C90.9891 37.5798 91.2345 37.7438 91.5058 37.851C91.7771 37.9582 92.068 38.0061 92.3592 37.9917C92.6826 38.0054 93.005 37.9471 93.3032 37.821V36.3812H91.8294V35.0509H94.96L94.9665 38.7647Z" fill="white"/>
<path d="M102.872 39.2575H101.064L100.553 37.6148H97.9365L97.4196 39.2575H95.6215L98.2993 31.8751H100.264L102.872 39.2575ZM100.162 36.3393L99.3718 33.856C99.3081 33.6397 99.2672 33.4173 99.2498 33.1925H99.208C99.1904 33.4115 99.1473 33.6277 99.0796 33.8367L98.2801 36.3393H100.162Z" fill="white"/>
<path d="M109.727 38.7647C108.904 39.2046 107.981 39.419 107.049 39.3863C105.865 39.3863 104.932 39.0578 104.249 38.4007C103.566 37.7436 103.225 36.8386 103.225 35.6855C103.205 35.1604 103.295 34.637 103.488 34.1485C103.681 33.66 103.973 33.2171 104.345 32.8478C104.743 32.4746 105.212 32.1851 105.723 31.9965C106.234 31.8078 106.778 31.7239 107.322 31.7495C108.024 31.7358 108.722 31.8448 109.386 32.0716V33.6305C108.745 33.2842 108.024 33.1152 107.296 33.1409C106.985 33.1299 106.674 33.1841 106.384 33.3C106.095 33.4159 105.832 33.591 105.614 33.8141C105.394 34.0556 105.223 34.3385 105.113 34.6465C105.003 34.9545 104.955 35.2814 104.972 35.6082C104.931 36.2493 105.14 36.8811 105.556 37.37C105.759 37.5798 106.004 37.7438 106.276 37.851C106.547 37.9582 106.838 38.0061 107.129 37.9917C107.453 38.0054 107.775 37.9471 108.073 37.821V36.3812H106.599V35.0509H109.73L109.727 38.7647Z" fill="white"/>
<path d="M117.16 36.0623C117.16 38.2805 116.13 39.3895 114.071 39.3895C112.072 39.3895 111.072 38.3062 111.072 36.1396V31.8751H112.735V36.1589C112.735 37.3528 113.201 37.9498 114.132 37.9498C115.063 37.9498 115.52 37.3732 115.503 36.2201V31.8751H117.16V36.0623Z" fill="white"/>
<path d="M125.004 39.2575H123.196L122.673 37.6148H120.056L119.539 39.2575H117.741L120.419 31.8751H122.387L125.004 39.2575ZM122.294 36.3393L121.504 33.856C121.441 33.6397 121.4 33.4173 121.382 33.1925H121.341C121.323 33.4115 121.28 33.6277 121.212 33.8367L120.413 36.3393H122.294Z" fill="white"/>
<path d="M93.1009 47.9186C92.5963 48.1442 92.0479 48.2542 91.4955 48.2407C91.0957 48.2466 90.6989 48.1698 90.33 48.0152C89.99 47.8669 89.6856 47.6473 89.4373 47.371C89.1838 47.0909 88.9894 46.7622 88.8658 46.4047C88.7355 46.0256 88.6704 45.6269 88.6732 45.2259C88.6686 44.7873 88.7404 44.3514 88.8851 43.9375C89.0182 43.5558 89.2256 43.2043 89.4951 42.9036C89.764 42.6081 90.0923 42.3731 90.4584 42.2143C90.8578 42.0424 91.2889 41.9568 91.7235 41.9631C92.1945 41.9557 92.6627 42.0366 93.1042 42.2014V42.8037C92.6725 42.5881 92.1961 42.4777 91.7138 42.4816C91.3556 42.4748 91 42.5439 90.6703 42.6846C90.3757 42.814 90.1135 43.0076 89.9029 43.2514C89.6887 43.5026 89.5261 43.7938 89.4245 44.1082C89.312 44.4566 89.2567 44.821 89.2607 45.1872C89.2584 45.5225 89.3082 45.8562 89.4084 46.1761C89.4999 46.4726 89.6482 46.7483 89.8451 46.9877C90.0415 47.2222 90.2871 47.4103 90.5644 47.5385C90.8792 47.6798 91.2214 47.7491 91.5662 47.7414C92.1017 47.7535 92.6314 47.627 93.1042 47.3742L93.1009 47.9186Z" fill="white"/>
<path d="M94.8252 48.1569V42.0694H95.3871V47.6319H97.8209V48.1569H94.8252Z" fill="white"/>
<path d="M99.8374 48.1569H99.269V42.0694H99.8309L99.8374 48.1569Z" fill="white"/>
<path d="M105.993 48.1569L102.631 43.2676L102.506 43.0775C102.467 43.0172 102.434 42.9536 102.406 42.8875H102.384C102.384 42.939 102.384 43.0099 102.384 43.1001C102.384 43.1903 102.384 43.303 102.384 43.4383V48.1569H101.838V42.0694H102.48L105.787 46.9008L105.925 47.1133L106.038 47.2969H106.06C106.049 47.2046 106.041 47.0972 106.034 46.9748C106.028 46.8525 106.028 46.7236 106.034 46.5883V42.079H106.599V48.1569H105.993Z" fill="white"/>
<path d="M109.139 48.1569H108.581V42.0694H109.142L109.139 48.1569Z" fill="white"/>
<path d="M115.217 47.9186C114.713 48.1442 114.164 48.2542 113.612 48.2407C113.212 48.2466 112.815 48.1698 112.446 48.0152C112.106 47.8669 111.802 47.6473 111.554 47.371C111.3 47.0909 111.106 46.7622 110.982 46.4047C110.846 46.0157 110.779 45.6059 110.783 45.1937C110.779 44.7551 110.85 44.3191 110.995 43.9053C111.128 43.5236 111.336 43.1721 111.605 42.8714C111.874 42.5758 112.202 42.3409 112.568 42.1821C112.968 42.0102 113.399 41.9246 113.834 41.9309C114.305 41.9235 114.773 42.0044 115.214 42.1692V42.7715C114.783 42.5559 114.306 42.4455 113.824 42.4494C113.466 42.4426 113.11 42.5117 112.78 42.6524C112.486 42.7818 112.224 42.9754 112.013 43.2192C111.799 43.4704 111.636 43.7616 111.535 44.076C111.422 44.4244 111.367 44.7888 111.371 45.155C111.368 45.4903 111.418 45.824 111.518 46.1438C111.61 46.4404 111.758 46.7161 111.955 46.9555C112.152 47.19 112.397 47.378 112.674 47.5063C112.989 47.6476 113.331 47.7169 113.676 47.7092C114.212 47.7213 114.741 47.5948 115.214 47.342L115.217 47.9186Z" fill="white"/>
<path d="M76.2599 44.936C76.2272 45.8273 75.9756 46.6967 75.5275 47.467C75.0794 48.2374 74.4487 48.8848 73.6912 49.3519C72.8697 49.8661 71.9267 50.1518 70.9588 50.1797H70.6377C69.9495 50.1677 69.2648 50.0802 68.5956 49.9188C69.1326 49.8718 69.6626 49.7638 70.1753 49.5967C71.1386 49.2746 71.2542 48.7077 71.2542 48.7077C70.4981 48.2134 69.9442 47.4631 69.6931 46.5935C69.4421 45.724 69.5106 44.7929 69.8864 43.9697C70.1637 43.246 70.6701 42.6336 71.3278 42.2263C71.9855 41.819 72.7582 41.6394 73.5275 41.7151C74.3154 41.7791 75.0458 42.1543 75.5582 42.7583C76.0705 43.3622 76.3229 44.1455 76.2599 44.936Z" fill="white"/>
<path d="M81.0024 51.5293C78.0501 54.4269 74.0743 56.0342 69.9441 55.9999C68.8655 56.008 67.789 55.9 66.7333 55.6778C64.3381 55.184 62.0881 54.1444 60.1572 52.6394C58.2263 51.1344 56.6662 49.2042 55.5974 46.998C54.5286 44.7918 53.9797 42.3687 53.9932 39.9158C54.0066 37.4629 54.582 35.0459 55.675 32.8517C56.7679 30.6574 58.3491 28.7446 60.2964 27.2609C62.2437 25.7773 64.5049 24.7626 66.9054 24.2953C69.3059 23.828 71.7813 23.9205 74.1404 24.5657C76.4996 25.2109 78.6793 26.3916 80.5111 28.0164C78.3257 26.8278 75.8572 26.2631 73.3742 26.3836C70.8911 26.5042 68.4886 27.3054 66.4278 28.7002C64.367 30.0949 62.727 32.0298 61.686 34.2944C60.645 36.559 60.2429 39.0665 60.5235 41.5444C60.5242 41.5529 60.5242 41.5615 60.5235 41.5701C60.7235 44.1386 61.8705 46.5402 63.7407 48.306C65.6108 50.0718 68.0698 51.0751 70.6377 51.1202H70.9941C72.6546 51.0733 74.2314 50.3788 75.3897 49.1844C76.548 47.99 77.1965 46.3897 77.1975 44.7234C77.2232 42.5396 75.4283 40.8841 73.2546 40.7681C72.7087 40.7391 71.5496 40.8712 70.8689 41.4606L71.1001 40.9871C71.556 40.0853 73.2064 37.5794 77.0402 37.6213C80.7648 37.6599 83.4426 40.5394 83.7637 44.0921C83.8119 44.6364 84.0238 48.5209 81.0024 51.5293Z" fill="white"/>
<path d="M80.0038 28.8088C79.2684 28.41 78.495 28.0863 77.6952 27.8425H77.6727C76.4956 27.4682 75.2663 27.2855 74.0316 27.3014C70.6762 27.3082 67.4605 28.6492 65.0891 31.0304C62.7177 33.4117 61.3841 36.6389 61.3808 40.0047C61.8342 38.8798 62.464 37.8349 63.2463 36.9094C64.5852 35.4632 65.6897 35.1701 65.6897 35.1701C65.6897 35.1701 67.0993 37.9337 69.4914 37.8048C73.6848 37.5794 77.0594 34.9511 78.53 32.3743C79.1446 31.241 79.6386 30.0459 80.0038 28.8088Z" fill="white"/>
</g>
<defs>
<clipPath id="clip0_782_4274">
<rect width="77" height="32" fill="white" transform="translate(51 24)"/>
</clipPath>
</defs>
</svg>
