<svg width="180" height="80" viewBox="0 0 180 80" fill="none" xmlns="http://www.w3.org/2000/svg">
<g clip-path="url(#clip0_170_3224)">
<path d="M94.9666 38.7647C94.144 39.2047 93.2203 39.4191 92.2887 39.3864C91.105 39.3864 90.1717 39.0579 89.4888 38.4008C88.806 37.7437 88.4646 36.8386 88.4646 35.6855C88.4451 35.1605 88.5347 34.6371 88.7276 34.1486C88.9205 33.6601 89.2125 33.2172 89.5852 32.8479C89.983 32.4747 90.4514 32.1852 90.9626 31.9966C91.4738 31.8079 92.0175 31.7239 92.5616 31.7495C93.2633 31.7358 93.9619 31.8448 94.6262 32.0716V33.6306C93.9823 33.2825 93.2573 33.1135 92.5263 33.141C92.2147 33.13 91.9041 33.1841 91.6145 33.3C91.3248 33.4159 91.0624 33.591 90.8438 33.8142C90.6237 34.0556 90.4535 34.3386 90.3433 34.6466C90.2331 34.9545 90.1849 35.2814 90.2017 35.6082C90.161 36.2494 90.3706 36.8812 90.786 37.3701C90.9892 37.5799 91.2346 37.7439 91.5059 37.8511C91.7772 37.9582 92.0681 38.0062 92.3594 37.9917C92.6827 38.0055 93.0051 37.9472 93.3033 37.821V36.3813H91.8296V35.051H94.9602L94.9666 38.7647Z" fill="url(#paint0_linear_170_3224)"/>
<path d="M102.872 39.2575H101.064L100.553 37.6149H97.9366L97.4197 39.2575H95.6216L98.2995 31.8752H100.265L102.872 39.2575ZM100.162 36.3394L99.3719 33.856C99.3082 33.6398 99.2673 33.4174 99.2499 33.1925H99.2081C99.1905 33.4115 99.1474 33.6277 99.0797 33.8367L98.2802 36.3394H100.162Z" fill="url(#paint1_linear_170_3224)"/>
<path d="M109.727 38.7647C108.904 39.2047 107.981 39.4191 107.049 39.3864C105.865 39.3864 104.932 39.0579 104.249 38.4008C103.566 37.7437 103.225 36.8386 103.225 35.6855C103.206 35.1605 103.295 34.6371 103.488 34.1486C103.681 33.6601 103.973 33.2172 104.346 32.8479C104.743 32.4747 105.212 32.1852 105.723 31.9966C106.234 31.8079 106.778 31.7239 107.322 31.7495C108.024 31.7358 108.722 31.8448 109.387 32.0716V33.6306C108.745 33.2842 108.024 33.1153 107.296 33.141C106.985 33.13 106.674 33.1841 106.384 33.3C106.095 33.4159 105.832 33.591 105.614 33.8142C105.394 34.0556 105.224 34.3386 105.113 34.6466C105.003 34.9545 104.955 35.2814 104.972 35.6082C104.931 36.2494 105.141 36.8812 105.556 37.3701C105.759 37.5799 106.005 37.7439 106.276 37.8511C106.547 37.9582 106.838 38.0062 107.129 37.9917C107.453 38.0055 107.775 37.9472 108.073 37.821V36.3813H106.6V35.051H109.73L109.727 38.7647Z" fill="url(#paint2_linear_170_3224)"/>
<path d="M117.16 36.0624C117.16 38.2805 116.131 39.3896 114.071 39.3896C112.072 39.3896 111.072 38.3063 111.072 36.1397V31.8752H112.736V36.159C112.736 37.3529 113.201 37.9499 114.132 37.9499C115.063 37.9499 115.52 37.3733 115.503 36.2202V31.8752H117.16V36.0624Z" fill="url(#paint3_linear_170_3224)"/>
<path d="M125.004 39.2575H123.197L122.673 37.6149H120.056L119.539 39.2575H117.741L120.419 31.8752H122.387L125.004 39.2575ZM122.294 36.3394L121.504 33.856C121.441 33.6398 121.4 33.4174 121.382 33.1925H121.341C121.323 33.4115 121.28 33.6277 121.212 33.8367L120.413 36.3394H122.294Z" fill="url(#paint4_linear_170_3224)"/>
<path d="M93.1011 47.9186C92.5964 48.1442 92.048 48.2543 91.4956 48.2407C91.0958 48.2466 90.6991 48.1699 90.3301 48.0153C89.9901 47.867 89.6857 47.6473 89.4375 47.3711C89.1839 47.0909 88.9895 46.7623 88.8659 46.4048C88.7357 46.0256 88.6705 45.627 88.6733 45.2259C88.6688 44.7874 88.7405 44.3514 88.8852 43.9376C89.0184 43.5558 89.2257 43.2044 89.4953 42.9036C89.7641 42.6081 90.0924 42.3732 90.4585 42.2144C90.858 42.0424 91.289 41.9568 91.7236 41.9631C92.1946 41.9558 92.6628 42.0366 93.1043 42.2015V42.8038C92.6726 42.5881 92.1962 42.4778 91.714 42.4817C91.3558 42.4748 91.0001 42.544 90.6704 42.6846C90.3758 42.814 90.1137 43.0077 89.903 43.2515C89.6888 43.5026 89.5262 43.7938 89.4246 44.1083C89.3121 44.4567 89.2568 44.8211 89.2609 45.1873C89.2585 45.5226 89.3083 45.8562 89.4086 46.1761C89.5 46.4726 89.6483 46.7484 89.8452 46.9878C90.0417 47.2222 90.2873 47.4103 90.5645 47.5386C90.8793 47.6798 91.2215 47.7491 91.5663 47.7415C92.1019 47.7535 92.6315 47.6271 93.1043 47.3743L93.1011 47.9186Z" fill="url(#paint5_linear_170_3224)"/>
<path d="M94.8253 48.157V42.0694H95.3872V47.632H97.821V48.157H94.8253Z" fill="url(#paint6_linear_170_3224)"/>
<path d="M99.8375 48.157H99.2691V42.0694H99.8311L99.8375 48.157Z" fill="url(#paint7_linear_170_3224)"/>
<path d="M105.993 48.157L102.631 43.2676L102.506 43.0776C102.467 43.0172 102.434 42.9537 102.406 42.8875H102.384C102.384 42.9391 102.384 43.0099 102.384 43.1001C102.384 43.1903 102.384 43.303 102.384 43.4383V48.157H101.838V42.0694H102.48L105.787 46.9008L105.925 47.1134L106.038 47.297H106.06C106.049 47.2047 106.041 47.0973 106.034 46.9749C106.028 46.8525 106.028 46.7237 106.034 46.5884V42.0791H106.6V48.157H105.993Z" fill="url(#paint8_linear_170_3224)"/>
<path d="M109.139 48.157H108.581V42.0694H109.143L109.139 48.157Z" fill="url(#paint9_linear_170_3224)"/>
<path d="M115.218 47.9186C114.713 48.1442 114.164 48.2543 113.612 48.2407C113.212 48.2467 112.816 48.1699 112.447 48.0153C112.107 47.867 111.802 47.6473 111.554 47.3711C111.3 47.0909 111.106 46.7623 110.982 46.4048C110.846 46.0158 110.779 45.606 110.783 45.1937C110.779 44.7552 110.851 44.3192 110.995 43.9054C111.128 43.5236 111.336 43.1722 111.605 42.8714C111.874 42.5759 112.202 42.341 112.569 42.1822C112.968 42.0102 113.399 41.9246 113.834 41.9309C114.305 41.9236 114.773 42.0044 115.214 42.1693V42.7716C114.783 42.5559 114.306 42.4456 113.824 42.4495C113.466 42.4426 113.11 42.5118 112.78 42.6524C112.486 42.7818 112.224 42.9755 112.013 43.2193C111.799 43.4704 111.636 43.7616 111.535 44.0761C111.422 44.4245 111.367 44.7889 111.371 45.1551C111.369 45.4904 111.418 45.824 111.519 46.1439C111.61 46.4404 111.758 46.7162 111.955 46.9556C112.152 47.19 112.397 47.3781 112.675 47.5064C112.989 47.6476 113.332 47.7169 113.676 47.7093C114.212 47.7213 114.742 47.5949 115.214 47.3421L115.218 47.9186Z" fill="url(#paint10_linear_170_3224)"/>
<path d="M76.26 44.9361C76.2273 45.8274 75.9758 46.6968 75.5277 47.4671C75.0796 48.2374 74.4488 48.8849 73.6914 49.352C72.8699 49.8661 71.9268 50.1518 70.9589 50.1797H70.6378C69.9497 50.1677 69.2649 50.0802 68.5957 49.9188C69.1328 49.8719 69.6627 49.7638 70.1755 49.5968C71.1387 49.2747 71.2543 48.7078 71.2543 48.7078C70.4983 48.2134 69.9443 47.4632 69.6932 46.5936C69.4422 45.724 69.5108 44.7929 69.8865 43.9698C70.1639 43.2461 70.6702 42.6336 71.3279 42.2264C71.9856 41.8191 72.7584 41.6395 73.5276 41.7151C74.3156 41.7792 75.046 42.1544 75.5583 42.7583C76.0707 43.3623 76.3231 44.1456 76.26 44.9361Z" fill="url(#paint11_linear_170_3224)"/>
<path d="M81.0025 51.5293C78.0502 54.4269 74.0745 56.0342 69.9443 56C68.8656 56.008 67.7891 55.9001 66.7334 55.6779C64.3382 55.1841 62.0882 54.1445 60.1573 52.6395C58.2265 51.1345 56.6663 49.2043 55.5975 46.9981C54.5287 44.7919 53.9798 42.3687 53.9933 39.9158C54.0067 37.463 54.5822 35.046 55.6751 32.8517C56.768 30.6575 58.3492 28.7446 60.2965 27.261C62.2438 25.7774 64.505 24.7627 66.9055 24.2954C69.306 23.828 71.7814 23.9205 74.1406 24.5658C76.4997 25.211 78.6794 26.3916 80.5112 28.0165C78.3258 26.8279 75.8574 26.2632 73.3743 26.3837C70.8913 26.5043 68.4887 27.3055 66.4279 28.7003C64.3672 30.095 62.7271 32.0299 61.6861 34.2945C60.6451 36.559 60.243 39.0666 60.5236 41.5444C60.5244 41.553 60.5244 41.5616 60.5236 41.5702C60.7236 44.1387 61.8707 46.5402 63.7408 48.306C65.6109 50.0719 68.0699 51.0752 70.6378 51.1203H70.9942C72.6547 51.0733 74.2315 50.3789 75.3898 49.1845C76.5481 47.9901 77.1966 46.3898 77.1976 44.7235C77.2233 42.5397 75.4284 40.8841 73.2547 40.7682C72.7088 40.7392 71.5497 40.8712 70.869 41.4607L71.1002 40.9872C71.5561 40.0853 73.2065 37.5794 77.0403 37.6213C80.7649 37.66 83.4428 40.5395 83.7639 44.0922C83.812 44.6365 84.0239 48.521 81.0025 51.5293Z" fill="url(#paint12_linear_170_3224)"/>
<path d="M80.0039 28.8088C79.2685 28.4101 78.4951 28.0864 77.6953 27.8426H77.6728C76.4957 27.4682 75.2664 27.2856 74.0317 27.3014C70.6764 27.3083 67.4606 28.6492 65.0892 31.0305C62.7178 33.4117 61.3843 36.6389 61.3809 40.0048C61.8343 38.8799 62.4641 37.835 63.2464 36.9095C64.5853 35.4633 65.6899 35.1702 65.6899 35.1702C65.6899 35.1702 67.0994 37.9337 69.4915 37.8049C73.6849 37.5794 77.0596 34.9512 78.5301 32.3744C79.1447 31.241 79.6387 30.0459 80.0039 28.8088Z" fill="url(#paint13_linear_170_3224)"/>
</g>
<defs>
<linearGradient id="paint0_linear_170_3224" x1="125.188" y1="39.9834" x2="53.652" y2="39.9834" gradientUnits="userSpaceOnUse">
<stop stop-color="white"/>
<stop offset="1" stop-color="white" stop-opacity="0"/>
</linearGradient>
<linearGradient id="paint1_linear_170_3224" x1="125.188" y1="39.9834" x2="53.652" y2="39.9834" gradientUnits="userSpaceOnUse">
<stop stop-color="white"/>
<stop offset="1" stop-color="white" stop-opacity="0"/>
</linearGradient>
<linearGradient id="paint2_linear_170_3224" x1="125.188" y1="39.9834" x2="53.652" y2="39.9834" gradientUnits="userSpaceOnUse">
<stop stop-color="white"/>
<stop offset="1" stop-color="white" stop-opacity="0"/>
</linearGradient>
<linearGradient id="paint3_linear_170_3224" x1="125.188" y1="39.9834" x2="53.652" y2="39.9834" gradientUnits="userSpaceOnUse">
<stop stop-color="white"/>
<stop offset="1" stop-color="white" stop-opacity="0"/>
</linearGradient>
<linearGradient id="paint4_linear_170_3224" x1="125.188" y1="39.9834" x2="53.652" y2="39.9834" gradientUnits="userSpaceOnUse">
<stop stop-color="white"/>
<stop offset="1" stop-color="white" stop-opacity="0"/>
</linearGradient>
<linearGradient id="paint5_linear_170_3224" x1="125.188" y1="39.9834" x2="53.652" y2="39.9834" gradientUnits="userSpaceOnUse">
<stop stop-color="white"/>
<stop offset="1" stop-color="white" stop-opacity="0"/>
</linearGradient>
<linearGradient id="paint6_linear_170_3224" x1="125.188" y1="39.9834" x2="53.652" y2="39.9834" gradientUnits="userSpaceOnUse">
<stop stop-color="white"/>
<stop offset="1" stop-color="white" stop-opacity="0"/>
</linearGradient>
<linearGradient id="paint7_linear_170_3224" x1="125.188" y1="39.9834" x2="53.652" y2="39.9834" gradientUnits="userSpaceOnUse">
<stop stop-color="white"/>
<stop offset="1" stop-color="white" stop-opacity="0"/>
</linearGradient>
<linearGradient id="paint8_linear_170_3224" x1="125.188" y1="39.9834" x2="53.652" y2="39.9834" gradientUnits="userSpaceOnUse">
<stop stop-color="white"/>
<stop offset="1" stop-color="white" stop-opacity="0"/>
</linearGradient>
<linearGradient id="paint9_linear_170_3224" x1="125.188" y1="39.9834" x2="53.652" y2="39.9834" gradientUnits="userSpaceOnUse">
<stop stop-color="white"/>
<stop offset="1" stop-color="white" stop-opacity="0"/>
</linearGradient>
<linearGradient id="paint10_linear_170_3224" x1="125.188" y1="39.9834" x2="53.652" y2="39.9834" gradientUnits="userSpaceOnUse">
<stop stop-color="white"/>
<stop offset="1" stop-color="white" stop-opacity="0"/>
</linearGradient>
<linearGradient id="paint11_linear_170_3224" x1="125.188" y1="39.9834" x2="53.652" y2="39.9834" gradientUnits="userSpaceOnUse">
<stop stop-color="white"/>
<stop offset="1" stop-color="white" stop-opacity="0"/>
</linearGradient>
<linearGradient id="paint12_linear_170_3224" x1="125.188" y1="39.9834" x2="53.652" y2="39.9834" gradientUnits="userSpaceOnUse">
<stop stop-color="white"/>
<stop offset="1" stop-color="white" stop-opacity="0"/>
</linearGradient>
<linearGradient id="paint13_linear_170_3224" x1="125.188" y1="39.9834" x2="53.652" y2="39.9834" gradientUnits="userSpaceOnUse">
<stop stop-color="white"/>
<stop offset="1" stop-color="white" stop-opacity="0"/>
</linearGradient>
<clipPath id="clip0_170_3224">
<rect width="77" height="32" fill="white" transform="translate(51 24)"/>
</clipPath>
</defs>
</svg>
