<svg width="180" height="80" viewBox="0 0 180 80" fill="none" xmlns="http://www.w3.org/2000/svg">
<path d="M155.98 39.961C155.98 41.9086 155.829 43.8641 155.702 45.8037C155.577 47.7075 154.521 49.1756 152.938 50.1444C150.12 51.8711 147.272 53.5521 144.392 55.1675C142.475 56.2437 140.467 56.3054 138.516 55.1834C135.625 53.5183 132.724 51.8672 129.874 50.1285C127.973 48.9687 127.058 47.1743 127.03 44.9045C127.007 42.953 126.897 41.0034 126.897 39.0539C126.897 37.4684 126.958 35.8789 127.081 34.2994C127.228 32.4255 128.166 30.9454 129.718 29.9885C132.642 28.1862 135.606 26.4435 138.601 24.7626C140.471 23.7122 142.461 23.7679 144.316 24.8004C147.231 26.4217 150.118 28.1026 152.952 29.8652C154.934 31.0986 155.822 33.062 155.892 35.3895C155.937 36.9114 155.984 38.3974 155.984 39.9232C155.929 39.9232 156.039 39.963 155.984 39.963L155.98 39.961ZM143.094 41.2123C143.094 40.9477 143.123 40.6792 143.088 40.4186C142.961 39.4657 143.339 39.0897 144.289 39.1951C144.9 39.2628 145.525 39.1931 146.144 39.2091C146.972 39.2329 147.158 38.8271 146.962 38.0751C146.496 36.2867 144.818 34.9678 142.912 34.9201C141.196 34.8783 139.419 36.2708 138.939 38.0393C138.442 39.8636 139.268 41.8907 140.884 42.8137C142.636 43.8144 143.094 43.5438 143.096 41.5087C143.096 41.4093 143.096 41.3098 143.096 41.2103L143.094 41.2123ZM136.117 39.7362C136.34 40.3748 136.589 41.638 137.192 42.6924C138.271 44.5783 139.936 45.7778 142.154 45.933C142.44 45.9529 142.967 45.551 143.004 45.2904C143.045 45.006 142.667 44.6379 142.424 44.3455C142.342 44.246 142.118 44.262 141.96 44.2321C139.131 43.7069 137.288 40.8224 137.978 37.9995C138.534 35.7178 140.05 34.4864 142.248 34.0388C142.896 33.9075 143.155 33.5395 143.053 32.9228C142.941 32.2484 142.455 32.2524 141.925 32.3538C138.601 32.9844 136.215 35.7755 136.121 39.7382L136.117 39.7362ZM133.537 39.9093C134.009 44.5703 137.557 48.3182 142.189 48.7061C142.457 48.728 143.021 48.2307 143 48.0278C142.961 47.6736 142.626 47.2738 142.306 47.0589C142.04 46.8799 141.605 46.9873 141.266 46.8899C137.921 45.929 135.809 43.8144 135.259 40.2375C135.173 39.6746 135.155 38.8808 134.301 39.0937C133.937 39.1852 133.686 39.7422 133.539 39.9093H133.537Z" fill="white"/>
<path d="M25.0223 38.841C25.0223 36.6886 25.0438 34.5341 25.0105 32.3837C24.9988 31.6576 25.2397 31.3671 25.9683 31.4009C27.075 31.4527 28.1856 31.4009 29.2923 31.4527C31.2393 31.5422 32.8748 32.9944 33.1255 34.7987C33.482 37.361 32.5418 39.1673 30.3892 39.8456C29.5959 40.0963 28.736 40.1759 27.8996 40.2196C27.2768 40.2515 27.028 40.4404 27.0417 41.089C27.0731 42.5133 27.0221 43.9377 27.0613 45.3601C27.0809 46.0802 26.9497 46.4621 26.1074 46.4383C25.3553 46.4164 24.9811 46.2811 25.0007 45.3999C25.0517 43.2156 25.0184 41.0293 25.0184 38.843L25.0223 38.841ZM27.0535 35.7635C27.0535 36.2589 27.0495 36.7522 27.0535 37.2476C27.0633 38.3517 27.22 38.481 28.3345 38.3079C28.4951 38.284 28.6518 38.2422 28.8124 38.2224C30.4401 38.0214 31.2882 37.162 31.2765 35.7257C31.2628 34.3611 30.2795 33.4221 28.7184 33.2828C27.0966 33.1396 27.0554 33.1754 27.0535 34.7748C27.0535 35.1051 27.0535 35.4353 27.0535 35.7635Z" fill="white"/>
<path d="M102.662 37.6753C102.774 37.5659 103.007 37.1322 103.326 37.0546C104.407 36.794 104.658 37.0407 104.66 38.1746C104.664 40.4962 104.683 42.8157 104.642 45.1373C104.634 45.559 104.454 46.2572 104.202 46.3388C103.594 46.5338 102.815 46.6352 102.603 45.4814C101.291 46.5974 99.8727 47.0928 98.3684 46.5179C97.5869 46.2195 96.8073 45.6366 96.2824 44.9741C94.8036 43.1101 94.9035 40.1361 96.3588 38.3357C97.1462 37.361 98.1471 36.6846 99.3948 36.8258C100.476 36.9492 101.526 37.3709 102.662 37.6793V37.6753ZM102.828 41.8171C102.834 40.2117 102.151 39.0718 100.948 38.6739C99.7728 38.286 98.6133 38.654 97.914 39.6368C97.0737 40.8184 97.062 42.6387 97.8886 43.8223C98.5702 44.7991 99.7121 45.1989 100.811 44.8428C102.143 44.4112 102.825 43.3886 102.83 41.8191L102.828 41.8171Z" fill="white"/>
<path d="M119.619 43.1698C120.155 43.4921 120.62 43.7726 121.072 44.0451C120.324 45.7977 118.469 46.9376 116.724 46.7844C114.528 46.5934 112.806 45.2904 112.471 43.3389C112.291 42.2925 112.279 41.1546 112.477 40.1142C112.933 37.7171 115.035 36.4658 117.709 36.8258C119.66 37.0884 121.103 38.9624 121.119 41.1666C121.125 41.8767 120.851 42.0896 120.193 42.0777C118.594 42.0498 116.994 42.0578 115.396 42.0757C114.365 42.0876 114.193 42.38 114.589 43.3648C115.284 45.0935 117.395 45.5371 118.692 44.2182C118.99 43.9158 119.256 43.5796 119.615 43.1698H119.619ZM118.988 40.526C118.792 39.1613 117.873 38.4094 116.684 38.5088C115.535 38.6043 114.71 39.412 114.692 40.526H118.99H118.988Z" fill="white"/>
<path d="M60.1029 36.7841C62.947 36.7841 65.0467 38.9107 65.0546 41.7773C65.0605 44.2083 63.3387 46.7228 60.0422 46.7486C57.4313 46.7685 55.1807 45.0736 55.0925 41.7097C55.0162 38.7575 57.4939 36.605 60.101 36.7841H60.1029ZM63.0508 41.7992C63.0684 39.9411 61.8188 38.5307 60.1284 38.4989C58.4361 38.469 57.1159 39.8675 57.1022 41.6997C57.0904 43.5995 58.299 44.9543 60.0246 44.9741C61.7581 44.994 63.0332 43.6552 63.0489 41.7972L63.0508 41.7992Z" fill="white"/>
<path d="M75.428 51.6085C75.8726 50.7452 76.2996 49.9057 76.7344 49.0721C77.3592 47.8746 78.0428 46.7048 78.5932 45.4715C78.7715 45.0736 78.7676 44.433 78.5717 44.0471C77.5277 41.9901 76.3936 39.9809 75.2967 37.9538C75.1616 37.7031 75.0538 37.4385 74.9246 37.164C76.7971 36.7761 76.9499 36.8378 77.7725 38.3596C78.368 39.4617 78.9458 40.5717 79.5374 41.6738C79.6705 41.9225 79.8351 42.1513 80.1015 42.571C80.8536 41.0591 81.5215 39.7183 82.1855 38.3735C82.9494 36.8318 83.0219 36.794 84.9689 37.1581C84.5086 38.095 84.0777 39.0081 83.6193 39.9073C81.8408 43.4006 80.0466 46.8879 78.2701 50.3851C77.4807 51.9408 77.3083 52.0342 75.428 51.6085Z" fill="white"/>
<path d="M89.1194 39.8416C89.1194 37.9518 89.0939 36.0619 89.1311 34.172C89.1448 33.4797 88.9235 33.2052 88.2379 33.2649C87.7522 33.3087 87.2586 33.249 86.7709 33.2788C86.1323 33.3186 85.7269 33.2211 85.721 32.3956C85.7171 31.576 86.0442 31.387 86.7748 31.3969C89.0919 31.4287 91.4111 31.4307 93.7282 31.3969C94.4588 31.387 94.6939 31.6575 94.69 32.3836C94.686 33.0918 94.4177 33.2788 93.7557 33.2868C91.2975 33.3146 91.2975 33.3345 91.2975 35.853C91.2975 39.0359 91.2661 42.2189 91.317 45.3998C91.3308 46.297 90.9645 46.4362 90.2143 46.4303C89.4798 46.4263 89.0665 46.3268 89.0998 45.4097C89.1664 43.5557 89.1194 41.6977 89.1194 39.8416Z" fill="white"/>
<path d="M47.5319 39.7721C45.3107 38.2343 43.8475 38.1866 42.686 39.6149C41.6322 40.9119 41.7223 43.0226 42.876 44.1565C44.1296 45.3879 45.769 45.2228 47.6063 43.5657C47.6063 44.3455 47.6514 45.0139 47.5808 45.6704C47.5573 45.8952 47.2792 46.1618 47.052 46.2811C45.3812 47.1564 43.0327 46.7944 41.5813 45.4735C40.0065 44.0392 39.5207 42.016 40.2611 39.959C40.9114 38.1507 42.6723 36.8656 44.6016 36.792C44.7329 36.7881 44.8621 36.7821 44.9934 36.7821C47.4183 36.7761 47.8512 37.2854 47.5319 39.7701V39.7721Z" fill="white"/>
<path d="M109.711 38.2363C109.711 40.6195 109.686 43.0047 109.725 45.3879C109.737 46.1498 109.543 46.4562 108.74 46.4343C108.017 46.4144 107.696 46.2772 107.702 45.4396C107.739 40.5718 107.737 35.7039 107.702 30.838C107.696 30.0084 108.005 29.8552 108.736 29.8393C109.537 29.8214 109.735 30.1218 109.723 30.8837C109.684 33.3326 109.709 35.7834 109.709 38.2343L109.711 38.2363Z" fill="white"/>
<path d="M49.945 42.5989C49.945 41.7375 49.9509 40.8761 49.9431 40.0147C49.9372 39.5094 50.0528 39.0221 49.3731 38.7038C49.1772 38.6122 49.3241 37.6275 49.426 37.0745C49.4906 36.7303 49.8628 36.4419 49.9215 36.0977C50.0097 35.5825 49.9862 35.0374 49.9353 34.5122C49.8589 33.7066 50.1292 33.4082 50.9655 33.4121C51.7647 33.4161 52.0252 33.7006 51.9449 34.4625C51.9057 34.8226 51.9664 35.1926 51.9331 35.5547C51.8489 36.4896 51.9429 37.2118 53.1809 37.0725C53.316 37.0566 53.647 37.6753 53.6529 38.0055C53.6588 38.282 53.2984 38.8231 53.1436 38.8072C51.9606 38.6878 51.9057 39.3762 51.9253 40.2793C51.9664 42.0339 51.9018 43.7925 51.9508 45.5471C51.9743 46.3945 51.5296 46.4263 50.9068 46.4243C50.3094 46.4243 49.8922 46.3647 49.9294 45.5829C49.9783 44.5922 49.9411 43.5955 49.9411 42.6009L49.945 42.5989Z" fill="white"/>
<path d="M69.7379 37.7628C70.9837 36.6706 72.153 36.4677 73.5222 37.2594C73.3302 37.6872 73.2342 38.099 72.9913 38.3755C72.7896 38.6042 72.3802 38.839 72.1158 38.7873C70.7956 38.5306 69.9455 38.9026 69.7673 40.2713C69.5479 41.9622 69.5773 43.6929 69.5851 45.4058C69.5891 46.1895 69.356 46.4442 68.5803 46.4342C67.8399 46.4243 67.5383 46.2472 67.5559 45.4276C67.6049 43.0484 67.552 40.6652 67.5931 38.284C67.601 37.8642 67.8321 37.1142 68.0182 37.0963C68.6156 37.0347 69.4382 36.603 69.7399 37.7628H69.7379Z" fill="white"/>
<path d="M35.4388 41.6121C35.4388 40.3549 35.4721 39.0956 35.427 37.8384C35.3976 37.0466 35.8305 36.9989 36.4162 37.0148C36.9607 37.0287 37.4543 36.967 37.4425 37.7986C37.4112 40.4145 37.4112 43.0305 37.4425 45.6445C37.4523 46.486 36.9411 46.3965 36.4064 46.4183C35.8109 46.4422 35.3996 46.3666 35.427 45.5848C35.4721 44.2619 35.4388 42.937 35.4388 41.6121Z" fill="white"/>
<path d="M37.6462 32.879C37.656 33.5832 37.041 34.2536 36.3887 34.2516C35.7247 34.2496 35.0744 33.5991 35.0588 32.9168C35.0392 32.1648 35.57 31.6317 36.3476 31.6158C37.1389 31.6018 37.6345 32.0853 37.6462 32.879Z" fill="white"/>
</svg>
