<svg width="180" height="80" viewBox="0 0 180 80" fill="none" xmlns="http://www.w3.org/2000/svg">
<g clip-path="url(#clip0_170_3207)">
<path fill-rule="evenodd" clip-rule="evenodd" d="M124.219 45.6614C124.219 43.7952 126.114 42.8377 126.114 42.8377L130.458 40.9725C131.608 40.6281 131.404 39.47 131.404 39.47V38.5105C131.404 37.4279 130.494 37.3545 130.494 37.3545C128.944 37.3373 129.096 39.0923 129.096 39.0923C128.812 40.8647 126.862 40.8647 126.862 40.8647C123.982 40.8647 124.368 38.1457 124.368 38.1457C124.624 35.3129 127.709 34.2385 127.709 34.2385C129.017 33.73 130.762 33.8374 130.762 33.8374C136.788 34.2675 136.87 38.7955 136.87 38.7955V49.5124C136.87 50.9264 135.765 51.8234 134.401 51.8957C132.77 51.982 131.929 51.1703 132 50.4212C131.887 50.2226 131.773 50.3652 131.773 50.3652C131.171 52.1061 128.349 51.9497 128.349 51.9497C124.448 51.8957 124.208 48.3381 124.208 48.3381C124.208 48.3381 124.219 47.7715 124.219 45.6614ZM129.512 44.9726C129.512 44.9726 128.68 45.2619 128.624 46.1339C128.595 46.6002 128.635 46.9272 128.635 46.9272C128.635 47.6731 128.841 48.5139 130.078 48.4599C130.886 48.4264 131.375 48.1112 131.375 46.9477L131.379 44.3767C131.379 44.3767 131.404 44.231 131.288 44.1004C131.21 44.0961 130.988 44.299 130.85 44.354C130.121 44.6414 129.512 44.9726 129.512 44.9726Z" fill="white"/>
<path d="M65.6673 46.4265L65.6579 36.2978C65.6579 34.9573 64.4203 33.9228 63.0546 33.9228C61.6882 33.9228 60.4508 35.0388 60.4508 36.2978V48.3381C60.4508 48.3381 60.2552 51.493 64.6527 51.8222C64.6527 51.8222 67.1442 51.7639 68.1211 50.3855C68.1211 50.3855 68.0984 50.3219 68.2112 50.5204C68.5455 51.4163 69.7866 51.8459 70.87 51.8091C72.7047 51.7466 73.3867 50.7719 73.3867 49.5122V36.2978C73.3867 35.0388 72.1028 33.9556 70.7359 33.9556C69.3702 33.9556 68.1597 35.0388 68.1597 36.2978V46.4449C68.2025 47.2782 67.7287 47.8265 66.9508 47.8265C66.1743 47.8265 65.6673 47.3462 65.6673 46.4265Z" fill="white"/>
<path d="M117.955 39.7896L117.967 49.5448C117.967 50.8054 119.325 51.8254 120.692 51.8254C122.057 51.8254 123.254 50.8054 123.254 49.5448V37.5056C123.254 37.5056 123.173 33.9448 118.957 34.022C118.957 34.022 116.433 34.0441 115.805 36.0571C115.805 36.0571 115.582 35.6377 115.48 35.4391C114.967 34.3084 114.049 33.9765 112.965 33.9765C111.6 33.9765 110.497 35.072 110.497 36.3312V49.5448C110.497 50.8054 111.6 51.8254 112.965 51.8254C114.33 51.8254 115.772 50.8054 115.772 49.5448V39.7701C115.772 39.0523 116.042 38.5537 116.821 38.5537C117.599 38.5537 117.955 39.0718 117.955 39.7896Z" fill="white"/>
<path d="M82.2318 39.6364L82.2364 49.4543C82.2364 50.7129 83.4435 51.7663 84.8087 51.7663C86.1751 51.7663 87.5519 50.7227 87.5975 49.5451V39.7605C87.5975 39.0427 88.0202 38.5506 88.7976 38.5506C89.575 38.5506 89.9391 39.0719 89.9391 39.7897L89.9449 49.5449C89.9941 50.7073 91.1673 51.7791 92.5323 51.7791C93.8987 51.7791 95.3025 50.7299 95.3141 49.5449V37.5056C95.3141 37.5056 95.3001 34.0398 91.1741 34.0398C91.1741 34.0398 88.2367 33.9546 87.3397 36.3227C87.3397 36.3227 87.2882 36.2233 87.1746 36.0258C86.6408 34.9692 85.669 34.0398 83.5826 34.0398C83.5826 34.0398 81.0536 33.8331 80.1041 36.0193C80.1041 36.0193 79.9789 35.7377 79.8663 35.5406C79.5332 34.6442 78.4999 33.9302 77.4158 33.9302C75.8141 33.9302 74.8325 35.0721 74.8325 36.3313V49.5449C74.8325 50.8056 76.09 51.7662 77.4557 51.7662C78.8226 51.7662 80.0479 50.6221 80.0946 49.5449V39.7701C80.1181 39.088 80.3791 38.5515 81.1565 38.5515C81.9339 38.5515 82.2436 39.1128 82.2318 39.6364Z" fill="white"/>
<path fill-rule="evenodd" clip-rule="evenodd" d="M96.4417 45.6614C96.4417 43.7952 98.3384 42.8377 98.3384 42.8377L102.682 40.9725C103.832 40.6281 103.628 39.47 103.628 39.47V38.5105C103.628 37.4279 102.718 37.3545 102.718 37.3545C101.168 37.3373 101.32 39.0923 101.32 39.0923C101.036 40.8647 99.0851 40.8647 99.0851 40.8647C96.206 40.8647 96.5912 38.1457 96.5912 38.1457C96.8464 35.3129 99.9315 34.2385 99.9315 34.2385C101.239 33.73 102.986 33.8374 102.986 33.8374C109.012 34.2675 109.094 38.7955 109.094 38.7955V49.5124C109.094 50.9264 107.989 51.8234 106.624 51.8957C104.993 51.982 104.153 51.1703 104.224 50.4212C104.109 50.2226 103.994 50.3652 103.994 50.3652C103.395 52.1061 100.573 51.9497 100.573 51.9497C96.6719 51.8957 96.4318 48.3381 96.4318 48.3381C96.4318 48.3381 96.4417 47.7715 96.4417 45.6614ZM101.736 44.9726C101.736 44.9726 100.904 45.2619 100.847 46.1339C100.817 46.6002 100.859 46.9272 100.859 46.9272C100.859 47.6731 101.065 48.5139 102.302 48.4599C103.109 48.4264 103.599 48.1112 103.599 46.9477L103.603 44.3767C103.603 44.3767 103.628 44.231 103.512 44.1004C103.434 44.0961 103.212 44.299 103.074 44.354C102.345 44.6414 101.736 44.9726 101.736 44.9726Z" fill="white"/>
<path d="M52.9953 37.6848H49.9296L49.9056 30.9307C49.9056 29.2771 48.5031 28.1622 46.9253 28.1622C45.3459 28.1622 44.0726 29.4752 44.0726 30.9307V49.0655C44.0726 50.5205 45.2909 51.7693 46.8697 51.7693C48.4491 51.7693 49.909 50.6393 49.909 49.085V41.7561H52.9953L52.9912 49.085C52.9912 50.54 54.2744 51.7693 55.8531 51.7693C57.4319 51.7693 58.7976 50.581 58.7976 49.0655V30.9307C58.7978 29.3128 57.4319 28.1465 55.8531 28.1465C54.2744 28.1465 52.9953 29.3393 52.9953 30.9307V37.6848Z" fill="white"/>
</g>
<defs>
<clipPath id="clip0_170_3207">
<rect width="93" height="24" fill="white" transform="translate(44 28)"/>
</clipPath>
</defs>
</svg>
