<svg width="180" height="80" viewBox="0 0 180 80" fill="none" xmlns="http://www.w3.org/2000/svg">
<g clip-path="url(#clip0_782_4270)">
<path fill-rule="evenodd" clip-rule="evenodd" d="M113.992 65.0812C106.213 63.8296 98.2541 63.1786 90.1564 63.1786C82.0577 63.1786 74.0989 63.8296 66.3193 65.0812C74.1551 64.1992 82.1064 63.7474 90.1564 63.7474C98.2053 63.7474 106.157 64.1992 113.992 65.0812Z" fill="white"/>
<path d="M70.161 54.2016H71.1067L73.9362 60.1028H72.9747L72.5885 59.2551H70.7994C70.5314 59.2551 70.2923 59.2733 70.0822 59.3098C69.8772 59.3458 69.7012 59.3924 69.5541 59.4496C69.407 59.5069 69.2888 59.5687 69.1994 59.6361C69.1101 59.7035 69.0497 59.7684 69.0182 59.8307L68.8684 60.1028H67.9384L70.4841 54.9171L70.161 54.2016ZM72.2023 58.4002L70.9176 55.9513L69.6171 58.7266C69.7222 58.6384 69.8956 58.5634 70.1373 58.5011C70.379 58.4337 70.7048 58.4002 71.1146 58.4002H72.2023Z" fill="white"/>
<path d="M75.036 60.1028V54.3029H75.8951V59.2551H79.158V60.1028H75.036Z" fill="white"/>
<path d="M80.1852 60.1028V54.3029H81.0443V59.2551H84.3072V60.1028H80.1852Z" fill="white"/>
<path d="M85.3343 60.1028V54.3029H86.1776V60.1028H85.3343Z" fill="white"/>
<path d="M89.426 54.2016H90.3717L93.2012 60.1028H92.2397L91.8534 59.2551H90.0644C89.7964 59.2551 89.5573 59.2733 89.3472 59.3098C89.1423 59.3458 88.9662 59.3924 88.8191 59.4496C88.672 59.5069 88.5538 59.5687 88.4644 59.6361C88.3751 59.7035 88.3147 59.7684 88.2831 59.8307L88.1334 60.1028H87.2034L89.7491 54.9171L89.426 54.2016ZM91.4673 58.4002L90.1826 55.9513L88.8822 58.7266C88.9873 58.6384 89.1606 58.5634 89.4023 58.5011C89.644 58.4337 89.9698 58.4002 90.3796 58.4002H91.4673Z" fill="white"/>
<path d="M93.7888 54.3029H94.9001L98.6753 58.7342V54.3029H99.5423V60.1028H98.6911L95.3178 56.1144V60.1028H94.4745V55.1193L93.7888 54.3029Z" fill="white"/>
<path d="M105.759 55.6868C105.538 55.4689 105.281 55.2981 104.986 55.1735C104.692 55.0493 104.377 54.987 104.041 54.987C103.715 54.987 103.41 55.0413 103.126 55.1502C102.843 55.2591 102.596 55.4147 102.386 55.6169C102.181 55.8139 102.018 56.0496 101.897 56.3242C101.781 56.5938 101.724 56.8918 101.724 57.2185C101.724 57.5292 101.787 57.8196 101.913 58.0891C102.039 58.3536 102.21 58.5816 102.425 58.7732C102.64 58.9652 102.887 59.1152 103.166 59.2242C103.444 59.3331 103.739 59.3873 104.049 59.3873C104.432 59.3873 104.784 59.3072 105.105 59.1466C105.425 58.9805 105.696 58.7575 105.917 58.4778L106.445 59.1852C106.145 59.512 105.788 59.7684 105.373 59.9549C104.963 60.1418 104.519 60.235 104.041 60.235C103.594 60.235 103.179 60.1545 102.795 59.9939C102.412 59.8332 102.078 59.6128 101.795 59.3331C101.511 59.0529 101.287 58.724 101.125 58.3455C100.962 57.962 100.88 57.5525 100.88 57.1172C100.88 56.6921 100.964 56.2984 101.132 55.9356C101.306 55.5677 101.537 55.2515 101.826 54.987C102.12 54.7175 102.459 54.5077 102.843 54.3572C103.226 54.2072 103.628 54.1317 104.049 54.1317C104.495 54.1317 104.91 54.2148 105.294 54.3805C105.683 54.5411 106.022 54.7641 106.311 55.0493L105.759 55.6868Z" fill="white"/>
<path d="M108.568 59.2551H112.193V60.1028H107.709V54.3029H111.847V55.1583H108.568V56.9151C108.747 56.8117 108.928 56.7494 109.112 56.7286C109.295 56.7027 109.485 56.6896 109.679 56.6896H110.964V57.5525H109.679C109.49 57.5525 109.301 57.5682 109.112 57.5992C108.928 57.625 108.747 57.6848 108.568 57.778V59.2551Z" fill="white"/>
<path d="M81.7417 68.6398C81.5806 68.4787 81.3925 68.3524 81.1776 68.2605C80.9626 68.1689 80.7324 68.1227 80.4867 68.1227C80.2488 68.1227 80.0262 68.163 79.819 68.2435C79.6117 68.3236 79.4313 68.4385 79.2778 68.5881C79.1282 68.7335 79.0092 68.9077 78.9209 69.1107C78.8365 69.3099 78.7943 69.5299 78.7943 69.7715C78.7943 70.0012 78.8403 70.2156 78.9324 70.4144C79.0245 70.6098 79.1492 70.7785 79.3066 70.9201C79.464 71.0616 79.6444 71.1727 79.8478 71.2532C80.0511 71.3337 80.2661 71.374 80.4925 71.374C80.7112 71.374 80.9166 71.3375 81.1085 71.2646C81.3004 71.1922 81.4712 71.0904 81.6208 70.9603V70.1792H81.0682L80.7976 69.5587H82.2426V71.2244C82.0238 71.466 81.7628 71.6554 81.4597 71.7932C81.1603 71.9309 80.836 72 80.4867 72C80.1605 72 79.8574 71.9407 79.5772 71.822C79.297 71.7033 79.0533 71.5406 78.8461 71.3337C78.6388 71.1269 78.4757 70.8836 78.3567 70.6043C78.2378 70.3207 78.1783 70.0181 78.1783 69.6964C78.1783 69.3828 78.2397 69.0916 78.3625 68.8233C78.4891 68.5516 78.658 68.3181 78.8691 68.1227C79.084 67.9235 79.3316 67.7684 79.6117 67.6573C79.8919 67.5463 80.1855 67.4908 80.4925 67.4908C80.8187 67.4908 81.1219 67.5522 81.4021 67.6747C81.6861 67.7934 81.9336 67.9583 82.1447 68.1689L81.7417 68.6398Z" fill="white"/>
<path d="M83.934 69.668C84.0645 69.5913 84.1969 69.5455 84.3312 69.5299C84.4656 69.5108 84.6037 69.5015 84.7457 69.5015H85.5632C85.7819 69.5015 85.9584 69.4497 86.0928 69.3463C86.2271 69.2429 86.2943 69.0763 86.2943 68.8466C86.2943 68.7356 86.2751 68.6415 86.2367 68.5652C86.1983 68.4885 86.1465 68.427 86.0813 68.3812C86.0161 68.3312 85.9393 68.2969 85.851 68.2778C85.7627 68.2549 85.6668 68.2435 85.5632 68.2435H83.934V69.668ZM85.2466 70.1275H84.7457C84.6075 70.1275 84.4694 70.1389 84.3312 70.1618C84.1969 70.1809 84.0645 70.225 83.934 70.294V71.9025H83.3065V67.6171H85.5632C85.7589 67.6171 85.9393 67.6459 86.1043 67.7035C86.2693 67.7569 86.4113 67.8375 86.5303 67.9447C86.6531 68.0519 86.7471 68.1842 86.8124 68.341C86.8815 68.4982 86.916 68.6779 86.916 68.881C86.916 69.2065 86.8277 69.4726 86.6512 69.6795C86.4785 69.8863 86.2367 70.0279 85.9258 70.1046L86.2597 70.7878C86.3288 70.8874 86.3883 70.9679 86.4382 71.0294C86.4881 71.0904 86.5361 71.1404 86.5821 71.1786C86.6282 71.2129 86.6762 71.2379 86.726 71.2532C86.7759 71.2646 86.8354 71.2706 86.9045 71.2706L87.106 71.2646V71.9025C86.9831 71.9025 86.8584 71.8983 86.7318 71.8907C86.609 71.883 86.49 71.8584 86.3749 71.8161C86.2597 71.7741 86.1504 71.7071 86.0467 71.6152C85.9431 71.5232 85.851 71.3931 85.7704 71.2244L85.2466 70.1275Z" fill="white"/>
<path d="M91.8544 69.7312C91.8544 69.4976 91.8083 69.2832 91.7162 69.0878C91.628 68.8886 91.5051 68.7182 91.3478 68.5766C91.1943 68.4308 91.0158 68.3198 90.8124 68.2435C90.609 68.163 90.3922 68.1227 90.1619 68.1227C89.924 68.1227 89.7013 68.163 89.4941 68.2435C89.2869 68.3236 89.1065 68.4385 88.953 68.5881C88.8033 68.7335 88.6843 68.9077 88.5961 69.1107C88.5116 69.3099 88.4694 69.5299 88.4694 69.7714C88.4694 70.0012 88.5155 70.2156 88.6076 70.4144C88.6997 70.6098 88.8244 70.7785 88.9818 70.9201C89.1391 71.0616 89.3195 71.1727 89.5229 71.2532C89.7263 71.3337 89.9412 71.374 90.1677 71.374C90.3979 71.374 90.6147 71.3316 90.8182 71.2477C91.0254 71.1633 91.2039 71.0485 91.3536 70.9027C91.5071 70.7535 91.628 70.5793 91.7162 70.3801C91.8083 70.1809 91.8544 69.9647 91.8544 69.7312ZM92.4761 69.7655C92.4761 70.0834 92.4128 70.3784 92.2861 70.6501C92.1633 70.9222 91.9964 71.1574 91.7853 71.3566C91.5742 71.5558 91.3286 71.7126 91.0484 71.8275C90.7683 71.9424 90.4728 72 90.1619 72C89.8357 72 89.5325 71.9407 89.2524 71.822C88.9722 71.7033 88.7285 71.5406 88.5212 71.3337C88.314 71.1269 88.1509 70.8836 88.0319 70.6043C87.9129 70.3207 87.8534 70.0181 87.8534 69.6964C87.8534 69.3828 87.9149 69.0916 88.0377 68.8233C88.1643 68.5516 88.3332 68.3181 88.5442 68.1227C88.7592 67.9235 89.0067 67.7684 89.2869 67.6573C89.567 67.5463 89.8606 67.4908 90.1677 67.4908C90.4862 67.4908 90.7856 67.5501 91.0657 67.6688C91.3459 67.7836 91.5896 67.9447 91.7968 68.1515C92.0079 68.3545 92.1729 68.5936 92.2919 68.8695C92.4147 69.145 92.4761 69.4438 92.4761 69.7655Z" fill="white"/>
<path d="M95.3249 72C94.7108 72 94.2349 71.847 93.8972 71.5406C93.5633 71.2341 93.3963 70.7993 93.3963 70.2364V67.6171H94.0181V70.2364C94.0181 70.6081 94.1313 70.8912 94.3577 71.0866C94.5841 71.2782 94.9065 71.374 95.3249 71.374C95.7432 71.374 96.0655 71.2782 96.292 71.0866C96.5184 70.8912 96.6316 70.6081 96.6316 70.2364V67.6171H97.2534V70.2364C97.2534 70.7993 97.0845 71.2341 96.7468 71.5406C96.4129 71.847 95.9389 72 95.3249 72Z" fill="white"/>
<path d="M100.668 69.4497C101.09 69.4497 101.301 69.2467 101.301 68.8407C101.301 68.6224 101.247 68.4694 101.14 68.3812C101.032 68.2893 100.875 68.2435 100.668 68.2435H99.0904V69.6218C99.2209 69.5455 99.3533 69.4976 99.4876 69.4781C99.6258 69.4591 99.7658 69.4497 99.9078 69.4497H100.668ZM98.4629 71.9025V67.6171H100.668C100.856 67.6171 101.027 67.6459 101.18 67.7035C101.337 67.7569 101.47 67.8375 101.577 67.9447C101.689 68.0481 101.773 68.1765 101.831 68.3295C101.892 68.4787 101.923 68.6491 101.923 68.8407C101.923 69.0323 101.892 69.2043 101.831 69.3578C101.773 69.507 101.689 69.6371 101.577 69.7481C101.47 69.8554 101.337 69.938 101.18 69.9952C101.027 70.0529 100.856 70.0813 100.668 70.0813H99.9078C99.7697 70.0813 99.6315 70.0931 99.4933 70.116C99.3552 70.1389 99.2209 70.1847 99.0904 70.2538V71.9025H98.4629Z" fill="white"/>
<path fill-rule="evenodd" clip-rule="evenodd" d="M83.1503 16.6115H97.717C100.4 16.6115 102.573 16.3848 102.573 16.1063C102.573 15.8257 100.4 15.5989 97.717 15.5989H83.1503C80.4687 15.5989 78.294 15.8257 78.294 16.1063C78.294 16.3848 80.4687 16.6115 83.1503 16.6115Z" fill="white"/>
<path fill-rule="evenodd" clip-rule="evenodd" d="M82.4206 20.4116H98.4876C101.446 20.4116 103.844 20.1848 103.844 19.9064C103.844 19.6258 101.446 19.399 98.4876 19.399H82.4206C79.4623 19.399 77.0649 19.6258 77.0649 19.9064C77.0649 20.1848 79.4623 20.4116 82.4206 20.4116Z" fill="white"/>
<path fill-rule="evenodd" clip-rule="evenodd" d="M82.2342 35.6083H98.4761C101.466 35.6083 103.89 35.3815 103.89 35.102C103.89 34.8225 101.466 34.5957 98.4761 34.5957H82.2342C79.2441 34.5957 76.8202 34.8225 76.8202 35.102C76.8202 35.3815 79.2441 35.6083 82.2342 35.6083Z" fill="white"/>
<path fill-rule="evenodd" clip-rule="evenodd" d="M102.612 38.9014C102.612 38.6209 100.412 38.3962 97.7 38.3962H82.9605C80.2482 38.3962 78.048 38.6209 78.048 38.9014C78.048 39.182 80.2482 39.4078 82.9605 39.4078H97.7C100.412 39.4078 102.612 39.182 102.612 38.9014Z" fill="white"/>
<path fill-rule="evenodd" clip-rule="evenodd" d="M101.06 42.7004C101.06 42.4209 99.1535 42.1952 96.8017 42.1952H84.027C81.6752 42.1952 79.7687 42.4209 79.7687 42.7004C79.7687 42.981 81.6752 43.2067 84.027 43.2067H96.8017C99.1535 43.2067 101.06 42.981 101.06 42.7004Z" fill="white"/>
<path fill-rule="evenodd" clip-rule="evenodd" d="M99.0888 46.4993C99.0888 46.2197 97.5344 45.994 95.6184 45.994H85.205C83.289 45.994 81.7346 46.2197 81.7346 46.4993C81.7346 46.7798 83.289 47.0055 85.205 47.0055H95.6184C97.5344 47.0055 99.0888 46.7798 99.0888 46.4993Z" fill="white"/>
<path fill-rule="evenodd" clip-rule="evenodd" d="M81.8232 24.2106H99.046C102.216 24.2106 104.787 23.9848 104.787 23.7053C104.787 23.4247 102.216 23.198 99.046 23.198H81.8232C78.6528 23.198 76.0826 23.4247 76.0826 23.7053C76.0826 23.9848 78.6528 24.2106 81.8232 24.2106Z" fill="white"/>
<path fill-rule="evenodd" clip-rule="evenodd" d="M76.0826 31.3026C76.0826 31.5832 78.6528 31.8088 81.8232 31.8088H99.046C102.216 31.8088 104.787 31.5832 104.787 31.3026C104.787 31.022 102.216 30.7962 99.046 30.7962H81.8232C78.6528 30.7962 76.0826 31.022 76.0826 31.3026Z" fill="white"/>
<path fill-rule="evenodd" clip-rule="evenodd" d="M81.3804 28.0661H99.4864C102.82 28.0661 105.522 27.8393 105.522 27.5598C105.522 27.2803 102.82 27.0535 99.4864 27.0535H81.3804C78.0478 27.0535 75.3451 27.2803 75.3451 27.5598C75.3451 27.8393 78.0478 28.0661 81.3804 28.0661Z" fill="white"/>
<path fill-rule="evenodd" clip-rule="evenodd" d="M85.0162 12.8126H95.5113C98.4102 12.8126 100.76 12.5858 100.76 12.3063C100.76 12.0268 98.4102 11.8 95.5113 11.8H85.0162C82.1184 11.8 79.7687 12.0268 79.7687 12.3063C79.7687 12.5858 82.1184 12.8126 85.0162 12.8126Z" fill="white"/>
<path fill-rule="evenodd" clip-rule="evenodd" d="M87.4592 9.01367H93.1839C96.3458 9.01367 98.9096 8.78689 98.9096 8.50736C98.9096 8.22679 96.3458 8 93.1839 8H87.4592C84.2984 8 81.7346 8.22679 81.7346 8.50736C81.7346 8.78689 84.2984 9.01367 87.4592 9.01367Z" fill="white"/>
<path fill-rule="evenodd" clip-rule="evenodd" d="M88.6663 21.2984C86.7376 21.2984 85.1747 21.5252 85.1747 21.8037C85.1747 22.0842 86.7376 22.311 88.6663 22.311H92.158C94.0867 22.311 95.6496 22.0842 95.6496 21.8037C95.6496 21.5252 94.0867 21.2984 92.158 21.2984H88.6663Z" fill="white"/>
<path fill-rule="evenodd" clip-rule="evenodd" d="M88.2897 25.0974C86.027 25.0974 84.1916 25.3242 84.1916 25.6037C84.1916 25.8832 86.027 26.11 88.2897 26.11H92.3879C94.6516 26.11 96.486 25.8832 96.486 25.6037C96.486 25.3242 94.6516 25.0974 92.3879 25.0974H88.2897Z" fill="white"/>
<path fill-rule="evenodd" clip-rule="evenodd" d="M92.9422 29.91C95.6979 29.91 97.932 29.6832 97.932 29.4037C97.932 29.1231 95.6979 28.8974 92.9422 28.8974H87.9523C85.1965 28.8974 82.9624 29.1231 82.9624 29.4037C82.9624 29.6832 85.1965 29.91 87.9523 29.91H92.9422Z" fill="white"/>
<path fill-rule="evenodd" clip-rule="evenodd" d="M87.4779 32.6962C84.4422 32.6962 81.9801 32.923 81.9801 33.2025C81.9801 33.4831 84.4422 33.7088 87.4779 33.7088H92.9767C96.0124 33.7088 98.4745 33.4831 98.4745 33.2025C98.4745 32.923 96.0124 32.6962 92.9767 32.6962H87.4779Z" fill="white"/>
<path fill-rule="evenodd" clip-rule="evenodd" d="M87.7754 36.4961C84.9826 36.4961 82.7177 36.7229 82.7177 37.0024C82.7177 37.2819 84.9826 37.5087 87.7754 37.5087H92.8342C95.6271 37.5087 97.8919 37.2819 97.8919 37.0024C97.8919 36.7229 95.6271 36.4961 92.8342 36.4961H87.7754Z" fill="white"/>
<path fill-rule="evenodd" clip-rule="evenodd" d="M92.4582 41.3088C94.8769 41.3088 96.8374 41.082 96.8374 40.8025C96.8374 40.5219 94.8769 40.2951 92.4582 40.2951H88.0791C85.6606 40.2951 83.7 40.5219 83.7 40.8025C83.7 41.082 85.6606 41.3088 88.0791 41.3088H92.4582Z" fill="white"/>
<path fill-rule="evenodd" clip-rule="evenodd" d="M92.2411 45.1068C94.2599 45.1068 95.8971 44.881 95.8971 44.6015C95.8971 44.3209 94.2599 44.0942 92.2411 44.0942H88.5851C86.5663 44.0942 84.9291 44.3209 84.9291 44.6015C84.9291 44.881 86.5663 45.1068 88.5851 45.1068H92.2411Z" fill="white"/>
</g>
<defs>
<clipPath id="clip0_782_4270">
<rect width="48" height="64" fill="white" transform="translate(66 8)"/>
</clipPath>
</defs>
</svg>
