<svg width="180" height="80" viewBox="0 0 180 80" fill="none" xmlns="http://www.w3.org/2000/svg">
<g clip-path="url(#clip0_170_3220)">
<path fill-rule="evenodd" clip-rule="evenodd" d="M113.992 65.0812C106.213 63.8296 98.2542 63.1786 90.1565 63.1786C82.0578 63.1786 74.099 63.8296 66.3195 65.0812C74.1552 64.1992 82.1065 63.7474 90.1565 63.7474C98.2054 63.7474 106.157 64.1992 113.992 65.0812Z" fill="url(#paint0_linear_170_3220)"/>
<path d="M70.1611 54.2016H71.1069L73.9363 60.1028H72.9748L72.5886 59.2551H70.7995C70.5315 59.2551 70.2924 59.2733 70.0823 59.3098C69.8774 59.3458 69.7013 59.3924 69.5542 59.4496C69.4071 59.5069 69.2889 59.5687 69.1995 59.6361C69.1102 59.7035 69.0498 59.7684 69.0183 59.8307L68.8685 60.1028H67.9385L70.4842 54.9171L70.1611 54.2016ZM72.2024 58.4002L70.9177 55.9513L69.6173 58.7266C69.7224 58.6384 69.8957 58.5634 70.1374 58.5011C70.3791 58.4337 70.7049 58.4002 71.1148 58.4002H72.2024Z" fill="url(#paint1_linear_170_3220)"/>
<path d="M75.0361 60.1028V54.3029H75.8952V59.2551H79.1582V60.1028H75.0361Z" fill="url(#paint2_linear_170_3220)"/>
<path d="M80.1853 60.1028V54.3029H81.0444V59.2551H84.3073V60.1028H80.1853Z" fill="url(#paint3_linear_170_3220)"/>
<path d="M85.3344 60.1028V54.3029H86.1778V60.1028H85.3344Z" fill="url(#paint4_linear_170_3220)"/>
<path d="M89.4261 54.2016H90.3719L93.2013 60.1028H92.2398L91.8536 59.2551H90.0645C89.7965 59.2551 89.5575 59.2733 89.3473 59.3098C89.1424 59.3458 88.9663 59.3924 88.8192 59.4496C88.6721 59.5069 88.5539 59.5687 88.4646 59.6361C88.3752 59.7035 88.3148 59.7684 88.2833 59.8307L88.1335 60.1028H87.2035L89.7492 54.9171L89.4261 54.2016ZM91.4674 58.4002L90.1827 55.9513L88.8823 58.7266C88.9874 58.6384 89.1608 58.5634 89.4025 58.5011C89.6442 58.4337 89.9699 58.4002 90.3798 58.4002H91.4674Z" fill="url(#paint5_linear_170_3220)"/>
<path d="M93.7889 54.3029H94.9002L98.6754 58.7342V54.3029H99.5424V60.1028H98.6912L95.3179 56.1144V60.1028H94.4746V55.1193L93.7889 54.3029Z" fill="url(#paint6_linear_170_3220)"/>
<path d="M105.759 55.6868C105.538 55.4689 105.281 55.2981 104.987 55.1735C104.692 55.0493 104.377 54.987 104.041 54.987C103.715 54.987 103.41 55.0413 103.127 55.1502C102.843 55.2591 102.596 55.4147 102.386 55.6169C102.181 55.8139 102.018 56.0496 101.897 56.3242C101.781 56.5938 101.724 56.8918 101.724 57.2185C101.724 57.5292 101.787 57.8196 101.913 58.0891C102.039 58.3536 102.21 58.5816 102.425 58.7732C102.641 58.9652 102.887 59.1152 103.166 59.2242C103.444 59.3331 103.739 59.3873 104.049 59.3873C104.432 59.3873 104.784 59.3072 105.105 59.1466C105.425 58.9805 105.696 58.7575 105.917 58.4778L106.445 59.1852C106.145 59.512 105.788 59.7684 105.373 59.9549C104.963 60.1418 104.519 60.235 104.041 60.235C103.594 60.235 103.179 60.1545 102.796 59.9939C102.412 59.8332 102.078 59.6128 101.795 59.3331C101.511 59.0529 101.288 58.724 101.125 58.3455C100.962 57.962 100.88 57.5525 100.88 57.1172C100.88 56.6921 100.964 56.2984 101.133 55.9356C101.306 55.5677 101.537 55.2515 101.826 54.987C102.12 54.7175 102.459 54.5077 102.843 54.3572C103.226 54.2072 103.628 54.1317 104.049 54.1317C104.495 54.1317 104.91 54.2148 105.294 54.3805C105.683 54.5411 106.022 54.7641 106.311 55.0493L105.759 55.6868Z" fill="url(#paint7_linear_170_3220)"/>
<path d="M108.568 59.2551H112.193V60.1028H107.709V54.3029H111.847V55.1583H108.568V56.9151C108.747 56.8117 108.928 56.7494 109.112 56.7286C109.296 56.7027 109.485 56.6896 109.679 56.6896H110.964V57.5525H109.679C109.49 57.5525 109.301 57.5682 109.112 57.5992C108.928 57.625 108.747 57.6848 108.568 57.778V59.2551Z" fill="url(#paint8_linear_170_3220)"/>
<path d="M81.7418 68.6398C81.5807 68.4787 81.3926 68.3524 81.1777 68.2605C80.9627 68.1689 80.7325 68.1227 80.4869 68.1227C80.2489 68.1227 80.0263 68.163 79.8191 68.2435C79.6119 68.3236 79.4315 68.4385 79.2779 68.5881C79.1283 68.7335 79.0093 68.9077 78.9211 69.1107C78.8366 69.3099 78.7944 69.5299 78.7944 69.7715C78.7944 70.0012 78.8404 70.2156 78.9326 70.4144C79.0247 70.6098 79.1494 70.7785 79.3067 70.9201C79.4641 71.0616 79.6445 71.1727 79.8479 71.2532C80.0513 71.3337 80.2662 71.374 80.4926 71.374C80.7114 71.374 80.9167 71.3375 81.1086 71.2646C81.3005 71.1922 81.4713 71.0904 81.6209 70.9603V70.1792H81.0683L80.7977 69.5587H82.2427V71.2244C82.0239 71.466 81.7629 71.6554 81.4598 71.7932C81.1604 71.9309 80.8361 72 80.4869 72C80.1606 72 79.8575 71.9407 79.5773 71.822C79.2971 71.7033 79.0535 71.5406 78.8462 71.3337C78.639 71.1269 78.4758 70.8836 78.3569 70.6043C78.2379 70.3207 78.1784 70.0181 78.1784 69.6964C78.1784 69.3828 78.2398 69.0916 78.3626 68.8233C78.4893 68.5516 78.6582 68.3181 78.8692 68.1227C79.0842 67.9235 79.3317 67.7684 79.6119 67.6573C79.892 67.5463 80.1856 67.4908 80.4926 67.4908C80.8188 67.4908 81.122 67.5522 81.4022 67.6747C81.6862 67.7934 81.9338 67.9583 82.1448 68.1689L81.7418 68.6398Z" fill="url(#paint9_linear_170_3220)"/>
<path d="M83.9341 69.668C84.0646 69.5913 84.197 69.5455 84.3313 69.5299C84.4657 69.5108 84.6038 69.5015 84.7458 69.5015H85.5633C85.782 69.5015 85.9586 69.4497 86.0929 69.3463C86.2272 69.2429 86.2944 69.0763 86.2944 68.8466C86.2944 68.7356 86.2752 68.6415 86.2368 68.5652C86.1984 68.4885 86.1466 68.427 86.0814 68.3812C86.0162 68.3312 85.9394 68.2969 85.8511 68.2778C85.7628 68.2549 85.6669 68.2435 85.5633 68.2435H83.9341V69.668ZM85.2467 70.1275H84.7458C84.6076 70.1275 84.4695 70.1389 84.3313 70.1618C84.197 70.1809 84.0646 70.225 83.9341 70.294V71.9025H83.3066V67.6171H85.5633C85.759 67.6171 85.9394 67.6459 86.1044 67.7035C86.2695 67.7569 86.4114 67.8375 86.5304 67.9447C86.6532 68.0519 86.7473 68.1842 86.8125 68.341C86.8816 68.4982 86.9161 68.6779 86.9161 68.881C86.9161 69.2065 86.8278 69.4726 86.6513 69.6795C86.4786 69.8863 86.2368 70.0279 85.9259 70.1046L86.2599 70.7878C86.3289 70.8874 86.3884 70.9679 86.4383 71.0294C86.4882 71.0904 86.5362 71.1404 86.5822 71.1786C86.6283 71.2129 86.6763 71.2379 86.7261 71.2532C86.7761 71.2646 86.8355 71.2706 86.9046 71.2706L87.1061 71.2646V71.9025C86.9833 71.9025 86.8586 71.8983 86.7319 71.8907C86.6091 71.883 86.4901 71.8584 86.375 71.8161C86.2599 71.7741 86.1505 71.7071 86.0468 71.6152C85.9432 71.5232 85.8511 71.3931 85.7705 71.2244L85.2467 70.1275Z" fill="url(#paint10_linear_170_3220)"/>
<path d="M91.8545 69.7312C91.8545 69.4976 91.8085 69.2832 91.7164 69.0878C91.6281 68.8886 91.5052 68.7182 91.3479 68.5766C91.1944 68.4308 91.0159 68.3198 90.8125 68.2435C90.6091 68.163 90.3923 68.1227 90.162 68.1227C89.9241 68.1227 89.7015 68.163 89.4943 68.2435C89.287 68.3236 89.1066 68.4385 88.9531 68.5881C88.8034 68.7335 88.6845 68.9077 88.5962 69.1107C88.5117 69.3099 88.4695 69.5299 88.4695 69.7714C88.4695 70.0012 88.5156 70.2156 88.6077 70.4144C88.6998 70.6098 88.8246 70.7785 88.9819 70.9201C89.1392 71.0616 89.3196 71.1727 89.523 71.2532C89.7264 71.3337 89.9413 71.374 90.1678 71.374C90.3981 71.374 90.6149 71.3316 90.8183 71.2477C91.0255 71.1633 91.204 71.0485 91.3537 70.9027C91.5072 70.7535 91.6281 70.5793 91.7164 70.3801C91.8085 70.1809 91.8545 69.9647 91.8545 69.7312ZM92.4762 69.7655C92.4762 70.0834 92.4129 70.3784 92.2862 70.6501C92.1634 70.9222 91.9965 71.1574 91.7854 71.3566C91.5744 71.5558 91.3287 71.7126 91.0486 71.8275C90.7684 71.9424 90.4729 72 90.162 72C89.8358 72 89.5326 71.9407 89.2525 71.822C88.9723 71.7033 88.7286 71.5406 88.5213 71.3337C88.3141 71.1269 88.151 70.8836 88.032 70.6043C87.9131 70.3207 87.8536 70.0181 87.8536 69.6964C87.8536 69.3828 87.915 69.0916 88.0378 68.8233C88.1644 68.5516 88.3333 68.3181 88.5444 68.1227C88.7593 67.9235 89.0068 67.7684 89.287 67.6573C89.5672 67.5463 89.8608 67.4908 90.1678 67.4908C90.4863 67.4908 90.7857 67.5501 91.0658 67.6688C91.346 67.7836 91.5897 67.9447 91.7969 68.1515C92.008 68.3545 92.173 68.5936 92.292 68.8695C92.4148 69.145 92.4762 69.4438 92.4762 69.7655Z" fill="url(#paint11_linear_170_3220)"/>
<path d="M95.325 72C94.7109 72 94.235 71.847 93.8973 71.5406C93.5634 71.2341 93.3964 70.7993 93.3964 70.2364V67.6171H94.0182V70.2364C94.0182 70.6081 94.1314 70.8912 94.3579 71.0866C94.5843 71.2782 94.9067 71.374 95.325 71.374C95.7433 71.374 96.0657 71.2782 96.2921 71.0866C96.5185 70.8912 96.6317 70.6081 96.6317 70.2364V67.6171H97.2535V70.2364C97.2535 70.7993 97.0846 71.2341 96.7469 71.5406C96.413 71.847 95.939 72 95.325 72Z" fill="url(#paint12_linear_170_3220)"/>
<path d="M100.668 69.4497C101.09 69.4497 101.301 69.2467 101.301 68.8407C101.301 68.6224 101.247 68.4694 101.14 68.3812C101.032 68.2893 100.875 68.2435 100.668 68.2435H99.0905V69.6218C99.221 69.5455 99.3534 69.4976 99.4877 69.4781C99.6259 69.4591 99.766 69.4497 99.908 69.4497H100.668ZM98.463 71.9025V67.6171H100.668C100.856 67.6171 101.027 67.6459 101.18 67.7035C101.338 67.7569 101.47 67.8375 101.577 67.9447C101.689 68.0481 101.773 68.1765 101.831 68.3295C101.892 68.4787 101.923 68.6491 101.923 68.8407C101.923 69.0323 101.892 69.2043 101.831 69.3578C101.773 69.507 101.689 69.6371 101.577 69.7481C101.47 69.8554 101.338 69.938 101.18 69.9952C101.027 70.0529 100.856 70.0813 100.668 70.0813H99.908C99.7698 70.0813 99.6316 70.0931 99.4935 70.116C99.3553 70.1389 99.221 70.1847 99.0905 70.2538V71.9025H98.463Z" fill="url(#paint13_linear_170_3220)"/>
<path fill-rule="evenodd" clip-rule="evenodd" d="M83.1504 16.6115H97.7171C100.4 16.6115 102.573 16.3848 102.573 16.1063C102.573 15.8257 100.4 15.5989 97.7171 15.5989H83.1504C80.4689 15.5989 78.2942 15.8257 78.2942 16.1063C78.2942 16.3848 80.4689 16.6115 83.1504 16.6115Z" fill="url(#paint14_linear_170_3220)"/>
<path fill-rule="evenodd" clip-rule="evenodd" d="M82.4207 20.4116H98.4877C101.446 20.4116 103.844 20.1848 103.844 19.9064C103.844 19.6258 101.446 19.399 98.4877 19.399H82.4207C79.4624 19.399 77.065 19.6258 77.065 19.9064C77.065 20.1848 79.4624 20.4116 82.4207 20.4116Z" fill="url(#paint15_linear_170_3220)"/>
<path fill-rule="evenodd" clip-rule="evenodd" d="M82.2343 35.6083H98.4762C101.466 35.6083 103.89 35.3815 103.89 35.102C103.89 34.8225 101.466 34.5957 98.4762 34.5957H82.2343C79.2442 34.5957 76.8203 34.8225 76.8203 35.102C76.8203 35.3815 79.2442 35.6083 82.2343 35.6083Z" fill="url(#paint16_linear_170_3220)"/>
<path fill-rule="evenodd" clip-rule="evenodd" d="M102.613 38.9014C102.613 38.6209 100.412 38.3962 97.7001 38.3962H82.9606C80.2483 38.3962 78.0482 38.6209 78.0482 38.9014C78.0482 39.182 80.2483 39.4078 82.9606 39.4078H97.7001C100.412 39.4078 102.613 39.182 102.613 38.9014Z" fill="url(#paint17_linear_170_3220)"/>
<path fill-rule="evenodd" clip-rule="evenodd" d="M101.06 42.7004C101.06 42.4209 99.1536 42.1952 96.8018 42.1952H84.0271C81.6753 42.1952 79.7689 42.4209 79.7689 42.7004C79.7689 42.981 81.6753 43.2067 84.0271 43.2067H96.8018C99.1536 43.2067 101.06 42.981 101.06 42.7004Z" fill="url(#paint18_linear_170_3220)"/>
<path fill-rule="evenodd" clip-rule="evenodd" d="M99.089 46.4993C99.089 46.2197 97.5345 45.994 95.6185 45.994H85.2051C83.2891 45.994 81.7347 46.2197 81.7347 46.4993C81.7347 46.7798 83.2891 47.0055 85.2051 47.0055H95.6185C97.5345 47.0055 99.089 46.7798 99.089 46.4993Z" fill="url(#paint19_linear_170_3220)"/>
<path fill-rule="evenodd" clip-rule="evenodd" d="M81.8233 24.2106H99.0461C102.216 24.2106 104.787 23.9848 104.787 23.7053C104.787 23.4247 102.216 23.198 99.0461 23.198H81.8233C78.6529 23.198 76.0827 23.4247 76.0827 23.7053C76.0827 23.9848 78.6529 24.2106 81.8233 24.2106Z" fill="url(#paint20_linear_170_3220)"/>
<path fill-rule="evenodd" clip-rule="evenodd" d="M76.0827 31.3026C76.0827 31.5832 78.6529 31.8088 81.8233 31.8088H99.0461C102.216 31.8088 104.787 31.5832 104.787 31.3026C104.787 31.022 102.216 30.7962 99.0461 30.7962H81.8233C78.6529 30.7962 76.0827 31.022 76.0827 31.3026Z" fill="url(#paint21_linear_170_3220)"/>
<path fill-rule="evenodd" clip-rule="evenodd" d="M81.3805 28.0661H99.4865C102.82 28.0661 105.522 27.8393 105.522 27.5598C105.522 27.2803 102.82 27.0535 99.4865 27.0535H81.3805C78.0479 27.0535 75.3452 27.2803 75.3452 27.5598C75.3452 27.8393 78.0479 28.0661 81.3805 28.0661Z" fill="url(#paint22_linear_170_3220)"/>
<path fill-rule="evenodd" clip-rule="evenodd" d="M85.0164 12.8126H95.5114C98.4103 12.8126 100.76 12.5858 100.76 12.3063C100.76 12.0268 98.4103 11.8 95.5114 11.8H85.0164C82.1185 11.8 79.7689 12.0268 79.7689 12.3063C79.7689 12.5858 82.1185 12.8126 85.0164 12.8126Z" fill="url(#paint23_linear_170_3220)"/>
<path fill-rule="evenodd" clip-rule="evenodd" d="M87.4594 9.01367H93.184C96.3459 9.01367 98.9097 8.78689 98.9097 8.50736C98.9097 8.22679 96.3459 8 93.184 8H87.4594C84.2985 8 81.7347 8.22679 81.7347 8.50736C81.7347 8.78689 84.2985 9.01367 87.4594 9.01367Z" fill="url(#paint24_linear_170_3220)"/>
<path fill-rule="evenodd" clip-rule="evenodd" d="M88.6665 21.2984C86.7377 21.2984 85.1748 21.5252 85.1748 21.8037C85.1748 22.0842 86.7377 22.311 88.6665 22.311H92.1581C94.0868 22.311 95.6497 22.0842 95.6497 21.8037C95.6497 21.5252 94.0868 21.2984 92.1581 21.2984H88.6665Z" fill="url(#paint25_linear_170_3220)"/>
<path fill-rule="evenodd" clip-rule="evenodd" d="M88.2898 25.0974C86.0271 25.0974 84.1917 25.3242 84.1917 25.6037C84.1917 25.8832 86.0271 26.11 88.2898 26.11H92.388C94.6518 26.11 96.4861 25.8832 96.4861 25.6037C96.4861 25.3242 94.6518 25.0974 92.388 25.0974H88.2898Z" fill="url(#paint26_linear_170_3220)"/>
<path fill-rule="evenodd" clip-rule="evenodd" d="M92.9423 29.91C95.6981 29.91 97.9321 29.6832 97.9321 29.4037C97.9321 29.1231 95.6981 28.8974 92.9423 28.8974H87.9524C85.1966 28.8974 82.9626 29.1231 82.9626 29.4037C82.9626 29.6832 85.1966 29.91 87.9524 29.91H92.9423Z" fill="url(#paint27_linear_170_3220)"/>
<path fill-rule="evenodd" clip-rule="evenodd" d="M87.478 32.6962C84.4423 32.6962 81.9803 32.923 81.9803 33.2025C81.9803 33.4831 84.4423 33.7088 87.478 33.7088H92.9768C96.0125 33.7088 98.4746 33.4831 98.4746 33.2025C98.4746 32.923 96.0125 32.6962 92.9768 32.6962H87.478Z" fill="url(#paint28_linear_170_3220)"/>
<path fill-rule="evenodd" clip-rule="evenodd" d="M87.7756 36.4961C84.9827 36.4961 82.7178 36.7229 82.7178 37.0024C82.7178 37.2819 84.9827 37.5087 87.7756 37.5087H92.8343C95.6272 37.5087 97.8921 37.2819 97.8921 37.0024C97.8921 36.7229 95.6272 36.4961 92.8343 36.4961H87.7756Z" fill="url(#paint29_linear_170_3220)"/>
<path fill-rule="evenodd" clip-rule="evenodd" d="M92.4584 41.3088C94.877 41.3088 96.8375 41.082 96.8375 40.8025C96.8375 40.5219 94.877 40.2951 92.4584 40.2951H88.0792C85.6607 40.2951 83.7001 40.5219 83.7001 40.8025C83.7001 41.082 85.6607 41.3088 88.0792 41.3088H92.4584Z" fill="url(#paint30_linear_170_3220)"/>
<path fill-rule="evenodd" clip-rule="evenodd" d="M92.2412 45.1068C94.2601 45.1068 95.8972 44.881 95.8972 44.6015C95.8972 44.3209 94.2601 44.0942 92.2412 44.0942H88.5852C86.5664 44.0942 84.9292 44.3209 84.9292 44.6015C84.9292 44.881 86.5664 45.1068 88.5852 45.1068H92.2412Z" fill="url(#paint31_linear_170_3220)"/>
</g>
<defs>
<linearGradient id="paint0_linear_170_3220" x1="66" y1="40" x2="114" y2="40" gradientUnits="userSpaceOnUse">
<stop stop-color="white"/>
<stop offset="1" stop-color="white" stop-opacity="0"/>
</linearGradient>
<linearGradient id="paint1_linear_170_3220" x1="66" y1="40" x2="114" y2="40" gradientUnits="userSpaceOnUse">
<stop stop-color="white"/>
<stop offset="1" stop-color="white" stop-opacity="0"/>
</linearGradient>
<linearGradient id="paint2_linear_170_3220" x1="66" y1="40" x2="114" y2="40" gradientUnits="userSpaceOnUse">
<stop stop-color="white"/>
<stop offset="1" stop-color="white" stop-opacity="0"/>
</linearGradient>
<linearGradient id="paint3_linear_170_3220" x1="66" y1="40" x2="114" y2="40" gradientUnits="userSpaceOnUse">
<stop stop-color="white"/>
<stop offset="1" stop-color="white" stop-opacity="0"/>
</linearGradient>
<linearGradient id="paint4_linear_170_3220" x1="66" y1="40" x2="114" y2="40" gradientUnits="userSpaceOnUse">
<stop stop-color="white"/>
<stop offset="1" stop-color="white" stop-opacity="0"/>
</linearGradient>
<linearGradient id="paint5_linear_170_3220" x1="66" y1="40" x2="114" y2="40" gradientUnits="userSpaceOnUse">
<stop stop-color="white"/>
<stop offset="1" stop-color="white" stop-opacity="0"/>
</linearGradient>
<linearGradient id="paint6_linear_170_3220" x1="66" y1="40" x2="114" y2="40" gradientUnits="userSpaceOnUse">
<stop stop-color="white"/>
<stop offset="1" stop-color="white" stop-opacity="0"/>
</linearGradient>
<linearGradient id="paint7_linear_170_3220" x1="66" y1="40" x2="114" y2="40" gradientUnits="userSpaceOnUse">
<stop stop-color="white"/>
<stop offset="1" stop-color="white" stop-opacity="0"/>
</linearGradient>
<linearGradient id="paint8_linear_170_3220" x1="66" y1="40" x2="114" y2="40" gradientUnits="userSpaceOnUse">
<stop stop-color="white"/>
<stop offset="1" stop-color="white" stop-opacity="0"/>
</linearGradient>
<linearGradient id="paint9_linear_170_3220" x1="66" y1="40" x2="114" y2="40" gradientUnits="userSpaceOnUse">
<stop stop-color="white"/>
<stop offset="1" stop-color="white" stop-opacity="0"/>
</linearGradient>
<linearGradient id="paint10_linear_170_3220" x1="66" y1="40" x2="114" y2="40" gradientUnits="userSpaceOnUse">
<stop stop-color="white"/>
<stop offset="1" stop-color="white" stop-opacity="0"/>
</linearGradient>
<linearGradient id="paint11_linear_170_3220" x1="66" y1="40" x2="114" y2="40" gradientUnits="userSpaceOnUse">
<stop stop-color="white"/>
<stop offset="1" stop-color="white" stop-opacity="0"/>
</linearGradient>
<linearGradient id="paint12_linear_170_3220" x1="66" y1="40" x2="114" y2="40" gradientUnits="userSpaceOnUse">
<stop stop-color="white"/>
<stop offset="1" stop-color="white" stop-opacity="0"/>
</linearGradient>
<linearGradient id="paint13_linear_170_3220" x1="66" y1="40" x2="114" y2="40" gradientUnits="userSpaceOnUse">
<stop stop-color="white"/>
<stop offset="1" stop-color="white" stop-opacity="0"/>
</linearGradient>
<linearGradient id="paint14_linear_170_3220" x1="66" y1="40" x2="114" y2="40" gradientUnits="userSpaceOnUse">
<stop stop-color="white"/>
<stop offset="1" stop-color="white" stop-opacity="0"/>
</linearGradient>
<linearGradient id="paint15_linear_170_3220" x1="66" y1="40" x2="114" y2="40" gradientUnits="userSpaceOnUse">
<stop stop-color="white"/>
<stop offset="1" stop-color="white" stop-opacity="0"/>
</linearGradient>
<linearGradient id="paint16_linear_170_3220" x1="66" y1="40" x2="114" y2="40" gradientUnits="userSpaceOnUse">
<stop stop-color="white"/>
<stop offset="1" stop-color="white" stop-opacity="0"/>
</linearGradient>
<linearGradient id="paint17_linear_170_3220" x1="66" y1="40" x2="114" y2="40" gradientUnits="userSpaceOnUse">
<stop stop-color="white"/>
<stop offset="1" stop-color="white" stop-opacity="0"/>
</linearGradient>
<linearGradient id="paint18_linear_170_3220" x1="66" y1="40" x2="114" y2="40" gradientUnits="userSpaceOnUse">
<stop stop-color="white"/>
<stop offset="1" stop-color="white" stop-opacity="0"/>
</linearGradient>
<linearGradient id="paint19_linear_170_3220" x1="66" y1="40" x2="114" y2="40" gradientUnits="userSpaceOnUse">
<stop stop-color="white"/>
<stop offset="1" stop-color="white" stop-opacity="0"/>
</linearGradient>
<linearGradient id="paint20_linear_170_3220" x1="66" y1="40" x2="114" y2="40" gradientUnits="userSpaceOnUse">
<stop stop-color="white"/>
<stop offset="1" stop-color="white" stop-opacity="0"/>
</linearGradient>
<linearGradient id="paint21_linear_170_3220" x1="66" y1="40" x2="114" y2="40" gradientUnits="userSpaceOnUse">
<stop stop-color="white"/>
<stop offset="1" stop-color="white" stop-opacity="0"/>
</linearGradient>
<linearGradient id="paint22_linear_170_3220" x1="66" y1="40" x2="114" y2="40" gradientUnits="userSpaceOnUse">
<stop stop-color="white"/>
<stop offset="1" stop-color="white" stop-opacity="0"/>
</linearGradient>
<linearGradient id="paint23_linear_170_3220" x1="66" y1="40" x2="114" y2="40" gradientUnits="userSpaceOnUse">
<stop stop-color="white"/>
<stop offset="1" stop-color="white" stop-opacity="0"/>
</linearGradient>
<linearGradient id="paint24_linear_170_3220" x1="66" y1="40" x2="114" y2="40" gradientUnits="userSpaceOnUse">
<stop stop-color="white"/>
<stop offset="1" stop-color="white" stop-opacity="0"/>
</linearGradient>
<linearGradient id="paint25_linear_170_3220" x1="66" y1="40" x2="114" y2="40" gradientUnits="userSpaceOnUse">
<stop stop-color="white"/>
<stop offset="1" stop-color="white" stop-opacity="0"/>
</linearGradient>
<linearGradient id="paint26_linear_170_3220" x1="66" y1="40" x2="114" y2="40" gradientUnits="userSpaceOnUse">
<stop stop-color="white"/>
<stop offset="1" stop-color="white" stop-opacity="0"/>
</linearGradient>
<linearGradient id="paint27_linear_170_3220" x1="66" y1="40" x2="114" y2="40" gradientUnits="userSpaceOnUse">
<stop stop-color="white"/>
<stop offset="1" stop-color="white" stop-opacity="0"/>
</linearGradient>
<linearGradient id="paint28_linear_170_3220" x1="66" y1="40" x2="114" y2="40" gradientUnits="userSpaceOnUse">
<stop stop-color="white"/>
<stop offset="1" stop-color="white" stop-opacity="0"/>
</linearGradient>
<linearGradient id="paint29_linear_170_3220" x1="66" y1="40" x2="114" y2="40" gradientUnits="userSpaceOnUse">
<stop stop-color="white"/>
<stop offset="1" stop-color="white" stop-opacity="0"/>
</linearGradient>
<linearGradient id="paint30_linear_170_3220" x1="66" y1="40" x2="114" y2="40" gradientUnits="userSpaceOnUse">
<stop stop-color="white"/>
<stop offset="1" stop-color="white" stop-opacity="0"/>
</linearGradient>
<linearGradient id="paint31_linear_170_3220" x1="66" y1="40" x2="114" y2="40" gradientUnits="userSpaceOnUse">
<stop stop-color="white"/>
<stop offset="1" stop-color="white" stop-opacity="0"/>
</linearGradient>
<clipPath id="clip0_170_3220">
<rect width="48" height="64" fill="white" transform="translate(66 8)"/>
</clipPath>
</defs>
</svg>
