<svg width="48" height="48" viewBox="0 0 48 48" fill="none" xmlns="http://www.w3.org/2000/svg">
<path opacity="0.4" d="M24 44C35.0457 44 44 35.0457 44 24C44 12.9543 35.0457 4 24 4C12.9543 4 4 12.9543 4 24C4 35.0457 12.9543 44 24 44Z" fill="#009FA8"/>
<path d="M31.4203 31.86C31.1603 31.86 30.9003 31.8 30.6603 31.64L24.4603 27.94C22.9203 27.02 21.7803 25 21.7803 23.22V15.02C21.7803 14.2 22.4603 13.52 23.2803 13.52C24.1003 13.52 24.7803 14.2 24.7803 15.02V23.22C24.7803 23.94 25.3803 25 26.0003 25.36L32.2003 29.06C32.9203 29.48 33.1403 30.4 32.7203 31.12C32.4203 31.6 31.9203 31.86 31.4203 31.86Z" fill="#009FA8"/>
</svg>
