<svg width="1920" height="1863" viewBox="0 0 1920 1863" fill="none" xmlns="http://www.w3.org/2000/svg">
<rect width="1920" height="1790" fill="white"/>
<g filter="url(#filter0_f_459_256)">
<circle cx="410" cy="410" r="410" transform="matrix(-1 0 0 1 2219 423)" fill="#0A2540"/>
</g>
<g filter="url(#filter1_f_459_256)">
<ellipse cx="506.5" cy="591.5" rx="506.5" ry="591.5" transform="matrix(-1 0 0 1 1428 9)" fill="#11A5AE"/>
</g>
<g filter="url(#filter2_f_459_256)">
<circle cx="410" cy="410" r="410" transform="matrix(-1 0 0 1 2219 423)" fill="#0A2540"/>
</g>
<g filter="url(#filter3_f_459_256)">
<ellipse cx="506.5" cy="591.5" rx="506.5" ry="591.5" transform="matrix(-1 0 0 1 1428 9)" fill="#11A5AE"/>
</g>
<g filter="url(#filter4_f_459_256)">
<ellipse cx="506.5" cy="591.5" rx="506.5" ry="591.5" transform="matrix(-1 0 0 1 1428 9)" fill="#11A5AE"/>
</g>
<g filter="url(#filter5_f_459_256)">
<ellipse cx="506.5" cy="591.5" rx="506.5" ry="591.5" transform="matrix(-1 0 0 1 1428 9)" fill="#11A5AE"/>
</g>
<g filter="url(#filter6_f_459_256)">
<circle cx="410" cy="410" r="410" transform="matrix(-1 0 0 1 2064 423)" fill="#0A2540"/>
</g>
<g filter="url(#filter7_f_459_256)">
<circle cx="410" cy="410" r="410" transform="matrix(-1 0 0 1 1594 23)" fill="#0A2540"/>
</g>
<g filter="url(#filter8_f_459_256)">
<ellipse cx="865" cy="441" rx="865" ry="441" transform="matrix(-1 0 0 1 1745 -790)" fill="#11A5AE"/>
</g>
<path opacity="0.2" fill-rule="evenodd" clip-rule="evenodd" d="M340 1078L1576.91 1078V1074.91L1580 1074.91V534.09L1576.91 534.09V531L340 531L340 1078ZM1530.52 580.446H1576.91V534.09L1530.52 534.09V580.446ZM1527.43 580.446V534.09H1481.05V580.446H1527.43ZM1527.43 583.537V629.893H1481.05V583.537H1527.43ZM1530.52 629.893V583.537H1576.91V629.893H1530.52ZM1527.43 632.983H1481.05V679.339H1527.43V632.983ZM1530.52 679.339V632.983H1576.91V679.339H1530.52ZM1527.43 682.429H1481.05V728.785H1527.43V682.429ZM1530.52 728.785V682.429H1576.91V728.785H1530.52ZM1527.43 731.876H1481.05V778.232H1527.43V731.876ZM1530.52 778.232V731.876H1576.91V778.232H1530.52ZM1527.43 781.322H1481.05V827.678L1527.43 827.678V781.322ZM1530.52 827.678V781.322H1576.91V827.678H1530.52ZM1527.43 830.768L1481.05 830.768V877.124L1527.43 877.124V830.768ZM1530.52 877.124V830.768H1576.91V877.124H1530.52ZM1527.43 880.215L1481.05 880.215V926.571L1527.43 926.571V880.215ZM1530.52 926.571V880.215H1576.91V926.571H1530.52ZM1527.43 929.661L1481.05 929.661V976.017H1527.43V929.661ZM1530.52 976.017V929.661H1576.91V976.017H1530.52ZM1527.43 979.107H1481.05V1025.46H1527.43V979.107ZM1530.52 1025.46V979.107H1576.91V1025.46H1530.52ZM1530.52 1028.55H1576.91V1074.91L1530.52 1074.91V1028.55ZM1527.43 1028.55H1481.05V1074.91H1527.43V1028.55ZM343.092 1074.91H389.476V1028.55H343.092V1074.91ZM343.092 1025.46H389.476V979.107H343.092V1025.46ZM343.092 976.017H389.476V929.661H343.092V976.017ZM343.092 926.571H389.476V880.215H343.092V926.571ZM343.092 877.124H389.476V830.768H343.092V877.124ZM343.092 827.678H389.476V781.322H343.092V827.678ZM343.092 778.232H389.476V731.876H343.092V778.232ZM343.092 728.785H389.476V682.429H343.092V728.785ZM343.092 679.339H389.476V632.983H343.092V679.339ZM343.092 629.893H389.476V583.537H343.092L343.092 629.893ZM343.092 580.446H389.476L389.476 534.09H343.092V580.446ZM1477.96 534.09H1431.57V580.446H1477.96V534.09ZM1382.09 534.09H1428.48V580.446H1382.09V534.09ZM1382.09 583.537H1428.48V629.893H1382.09V583.537ZM1431.57 629.893V583.537H1477.96V629.893H1431.57ZM1477.96 632.983H1431.57V679.339H1477.96V632.983ZM1428.48 679.339V632.983H1382.09V679.339H1428.48ZM1382.09 682.429H1428.48V728.785H1382.09V682.429ZM1431.57 728.785V682.429H1477.96V728.785H1431.57ZM1477.96 731.876H1431.57V778.232H1477.96V731.876ZM1428.48 778.232V731.876H1382.09V778.232H1428.48ZM1382.09 781.322H1428.48V827.678H1382.09V781.322ZM1431.57 827.678V781.322H1477.96V827.678H1431.57ZM1477.96 830.768H1431.57V877.124H1477.96V830.768ZM1428.48 877.124V830.768H1382.09V877.124H1428.48ZM1382.09 880.215H1428.48V926.571H1382.09V880.215ZM1431.57 926.571V880.215H1477.96V926.571H1431.57ZM1477.96 929.661H1431.57V976.017H1477.96V929.661ZM1428.48 976.017V929.661H1382.09V976.017L1428.48 976.017ZM1382.09 979.107L1428.48 979.107V1025.46H1382.09V979.107ZM1431.57 1025.46V979.107H1477.96V1025.46H1431.57ZM1477.96 1028.55H1431.57V1074.91H1477.96V1028.55ZM1382.09 1028.55H1428.48V1074.91H1382.09V1028.55ZM1379 1028.55V1074.91H1332.62V1028.55H1379ZM1329.53 1028.55V1074.91H1283.14V1028.55H1329.53ZM1329.53 1025.46H1283.14V979.107H1329.53V1025.46ZM1332.62 1025.46V979.107H1379V1025.46H1332.62ZM1332.62 976.017H1379V929.661H1332.62V976.017ZM1329.53 976.017V929.661H1283.14V976.017H1329.53ZM1329.53 926.571H1283.14V880.215H1329.53V926.571ZM1332.62 926.571V880.215H1379V926.571H1332.62ZM1332.62 877.124H1379V830.768H1332.62V877.124ZM1329.53 877.124V830.768H1283.14V877.124H1329.53ZM1329.53 827.678H1283.14V781.322H1329.53V827.678ZM1332.62 827.678V781.322H1379V827.678H1332.62ZM1332.62 778.232H1379V731.876H1332.62V778.232ZM1329.53 778.232V731.876H1283.14V778.232H1329.53ZM1329.53 728.785H1283.14V682.429H1329.53V728.785ZM1332.62 728.785V682.429H1379V728.785H1332.62ZM1332.62 679.339H1379V632.983H1332.62V679.339ZM1329.53 679.339V632.983H1283.14V679.339H1329.53ZM1329.53 629.893H1283.14V583.537H1329.53V629.893ZM1332.62 629.893V583.537H1379V629.893H1332.62ZM1332.62 580.446H1379V534.09H1332.62V580.446ZM1329.53 534.09H1283.14V580.446H1329.53V534.09ZM1280.05 534.09L1233.67 534.09V580.446H1280.05V534.09ZM1184.19 534.09H1230.57V580.446H1184.19V534.09ZM1184.19 583.537H1230.57V629.893H1184.19V583.537ZM1233.67 629.893V583.537H1280.05V629.893H1233.67ZM1280.05 632.983H1233.67V679.339H1280.05V632.983ZM1230.57 679.339V632.983H1184.19V679.339H1230.57ZM1184.19 682.429H1230.57V728.785H1184.19V682.429ZM1233.67 728.785V682.429H1280.05V728.785H1233.67ZM1280.05 731.876H1233.67V778.232H1280.05V731.876ZM1230.57 778.232V731.876H1184.19V778.232H1230.57ZM1184.19 781.322H1230.57V827.678H1184.19V781.322ZM1233.67 827.678V781.322H1280.05V827.678H1233.67ZM1280.05 830.768H1233.67V877.124H1280.05V830.768ZM1230.57 877.124V830.768H1184.19V877.124H1230.57ZM1184.19 880.215H1230.57V926.571H1184.19V880.215ZM1233.67 926.571V880.215H1280.05V926.571H1233.67ZM1280.05 929.661H1233.67V976.017H1280.05V929.661ZM1230.57 976.017V929.661H1184.19V976.017H1230.57ZM1184.19 979.107H1230.57V1025.46H1184.19V979.107ZM1233.67 1025.46V979.107H1280.05V1025.46H1233.67ZM1280.05 1028.55H1233.67V1074.91H1280.05V1028.55ZM1230.57 1074.91V1028.55H1184.19V1074.91H1230.57ZM1181.1 1028.55V1074.91H1134.71V1028.55H1181.1ZM1131.62 1028.55V1074.91H1085.24V1028.55H1131.62ZM1131.62 1025.46H1085.24V979.107H1131.62V1025.46ZM1134.71 1025.46V979.107H1181.1V1025.46H1134.71ZM1134.71 976.017H1181.1V929.661H1134.71V976.017ZM1131.62 976.017V929.661H1085.24V976.017H1131.62ZM1131.62 926.571H1085.24V880.215H1131.62V926.571ZM1134.71 926.571V880.215H1181.1V926.571H1134.71ZM1134.71 877.124H1181.1V830.768H1134.71V877.124ZM1131.62 877.124V830.768H1085.24V877.124H1131.62ZM1131.62 827.678H1085.24V781.322H1131.62V827.678ZM1134.71 827.678V781.322H1181.1V827.678H1134.71ZM1134.71 778.232H1181.1V731.876H1134.71V778.232ZM1131.62 778.232V731.876H1085.24V778.232H1131.62ZM1131.62 728.785H1085.24V682.429H1131.62V728.785ZM1134.71 728.785V682.429H1181.1V728.785H1134.71ZM1134.71 679.339H1181.1V632.983H1134.71V679.339ZM1131.62 679.339V632.983H1085.24V679.339H1131.62ZM1131.62 629.893H1085.24V583.537H1131.62V629.893ZM1134.71 629.893V583.537H1181.1V629.893H1134.71ZM1134.71 580.446H1181.1V534.09H1134.71V580.446ZM1131.62 580.446V534.09H1085.24V580.446H1131.62ZM1082.14 534.09H1035.76V580.446H1082.14V534.09ZM986.284 534.09H1032.67V580.446H986.284V534.09ZM986.284 583.537H1032.67V629.893H986.284V583.537ZM1035.76 629.893V583.537H1082.14V629.893H1035.76ZM1082.14 632.983H1035.76V679.339H1082.14V632.983ZM1032.67 679.339V632.983H986.284V679.339H1032.67ZM986.284 682.429H1032.67V728.785H986.284V682.429ZM1035.76 728.785V682.429H1082.14V728.785H1035.76ZM1082.14 731.876H1035.76V778.232H1082.14V731.876ZM1032.67 778.232V731.876H986.284V778.232H1032.67ZM986.284 781.322H1032.67V827.678H986.284V781.322ZM1035.76 827.678V781.322H1082.14V827.678H1035.76ZM1082.14 830.768H1035.76V877.124H1082.14V830.768ZM1032.67 877.124V830.768H986.284V877.124H1032.67ZM986.284 880.215H1032.67V926.571H986.284V880.215ZM1035.76 926.571V880.215H1082.14V926.571H1035.76ZM1082.14 929.661H1035.76V976.017H1082.14V929.661ZM1032.67 976.017V929.661H986.284V976.017H1032.67ZM986.284 979.107H1032.67V1025.46H986.284V979.107ZM1035.76 1025.46V979.107H1082.14V1025.46H1035.76ZM1082.14 1028.55H1035.76V1074.91H1082.14V1028.55ZM1032.67 1074.91V1028.55H986.284V1074.91H1032.67ZM983.192 1028.55V1074.91H936.808V1028.55H983.192ZM933.716 1028.55V1074.91H887.332V1028.55H933.716ZM933.716 1025.46H887.332V979.107H933.716V1025.46ZM936.808 1025.46V979.107H983.192V1025.46H936.808ZM936.808 976.017H983.192V929.661H936.808V976.017ZM933.716 976.017V929.661H887.332V976.017H933.716ZM933.716 926.571H887.332V880.215H933.716V926.571ZM936.808 926.571V880.215H983.192V926.571H936.808ZM936.808 877.124H983.192V830.768H936.808V877.124ZM933.716 877.124V830.768H887.332V877.124H933.716ZM933.716 827.678H887.332V781.322H933.716V827.678ZM936.808 827.678V781.322H983.192V827.678H936.808ZM936.808 778.232H983.192V731.876H936.808V778.232ZM933.716 778.232V731.876H887.332V778.232H933.716ZM933.716 728.785H887.332V682.429H933.716V728.785ZM936.808 728.785V682.429H983.192V728.785H936.808ZM936.808 679.339H983.192V632.983H936.808V679.339ZM933.716 679.339V632.983H887.332V679.339H933.716ZM933.716 629.893H887.332V583.537H933.716V629.893ZM936.808 629.893V583.537H983.192V629.893H936.808ZM936.808 580.446H983.192V534.09H936.808V580.446ZM933.716 580.446V534.09H887.332V580.446H933.716ZM884.239 534.09H837.855V580.446H884.239V534.09ZM788.379 534.09H834.763V580.446H788.379V534.09ZM788.379 583.537H834.763V629.893H788.379V583.537ZM837.855 629.893V583.537H884.239V629.893H837.855ZM884.239 632.983H837.855V679.339H884.239V632.983ZM834.763 679.339V632.983H788.379V679.339H834.763ZM788.379 682.429H834.763V728.785H788.379V682.429ZM837.855 728.785V682.429H884.239V728.785H837.855ZM884.239 731.876H837.855V778.232H884.239V731.876ZM834.763 778.232V731.876H788.379V778.232H834.763ZM788.379 781.322H834.763V827.678H788.379V781.322ZM837.855 827.678V781.322H884.239V827.678H837.855ZM884.239 830.768H837.855V877.124H884.239V830.768ZM834.763 877.124V830.768H788.379V877.124H834.763ZM788.379 880.215H834.763V926.571H788.379V880.215ZM837.855 926.571V880.215H884.239V926.571H837.855ZM884.239 929.661H837.855V976.017H884.239V929.661ZM834.763 976.017V929.661H788.379V976.017H834.763ZM788.379 979.107H834.763V1025.46H788.379V979.107ZM837.855 1025.46V979.107H884.239V1025.46H837.855ZM884.239 1028.55H837.855V1074.91H884.239V1028.55ZM834.763 1074.91V1028.55H788.379V1074.91H834.763ZM785.287 1028.55V1074.91H738.903V1028.55H785.287ZM735.81 1028.55V1074.91H689.426V1028.55H735.81ZM735.81 1025.46H689.426V979.107H735.81V1025.46ZM738.903 1025.46V979.107H785.287V1025.46H738.903ZM738.903 976.017H785.287V929.661H738.903V976.017ZM735.81 976.017V929.661H689.426V976.017H735.81ZM735.81 926.571H689.426V880.215H735.81V926.571ZM738.903 926.571V880.215H785.287V926.571H738.903ZM738.903 877.124H785.287V830.768H738.903V877.124ZM735.81 877.124V830.768H689.426V877.124H735.81ZM735.81 827.678H689.426V781.322H735.81V827.678ZM738.903 827.678V781.322H785.287V827.678H738.903ZM738.903 778.232H785.287V731.876H738.903V778.232ZM735.81 778.232V731.876H689.426V778.232H735.81ZM735.81 728.785H689.426V682.429H735.81V728.785ZM738.903 728.785V682.429H785.287V728.785H738.903ZM738.903 679.339H785.287V632.983H738.903V679.339ZM735.81 679.339V632.983H689.426V679.339H735.81ZM735.81 629.893H689.426V583.537H735.81V629.893ZM738.903 629.893V583.537H785.287V629.893H738.903ZM738.903 580.446H785.287V534.09H738.903V580.446ZM735.81 580.446V534.09H689.426V580.446H735.81ZM686.334 534.09H639.95V580.446H686.334V534.09ZM590.474 534.09H636.858V580.446H590.474V534.09ZM590.474 583.537H636.858V629.893H590.474V583.537ZM639.95 629.893V583.537H686.334V629.893H639.95ZM686.334 632.983H639.95V679.339H686.334V632.983ZM636.858 679.339V632.983H590.474V679.339H636.858ZM590.474 682.429H636.858V728.785H590.474V682.429ZM639.95 728.785V682.429H686.334V728.785H639.95ZM686.334 731.876H639.95V778.232H686.334V731.876ZM636.858 778.232V731.876H590.474V778.232H636.858ZM590.474 781.322H636.858V827.678H590.474V781.322ZM639.95 827.678V781.322H686.334V827.678H639.95ZM686.334 830.768H639.95V877.124H686.334V830.768ZM636.858 877.124V830.768H590.474V877.124H636.858ZM590.474 880.215H636.858V926.571H590.474V880.215ZM639.95 926.571V880.215H686.334V926.571H639.95ZM686.334 929.661H639.95V976.017H686.334V929.661ZM636.858 976.017V929.661H590.474V976.017H636.858ZM590.474 979.107H636.858V1025.46H590.474V979.107ZM639.95 1025.46V979.107H686.334V1025.46H639.95ZM686.334 1028.55H639.95V1074.91H686.334V1028.55ZM636.858 1074.91V1028.55H590.474V1074.91H636.858ZM587.382 1028.55V1074.91H540.998V1028.55H587.382ZM537.905 1028.55V1074.91H491.521V1028.55H537.905ZM537.905 1025.46H491.521V979.107H537.905V1025.46ZM540.998 1025.46V979.107H587.382V1025.46H540.998ZM540.998 976.017H587.382V929.661H540.998V976.017ZM537.905 976.017V929.661H491.521V976.017H537.905ZM537.905 926.571H491.521V880.215H537.905V926.571ZM540.998 926.571V880.215H587.382V926.571H540.998ZM540.998 877.124H587.382V830.768H540.998V877.124ZM537.905 877.124V830.768H491.521V877.124H537.905ZM537.905 827.678H491.521V781.322H537.905V827.678ZM540.998 827.678V781.322H587.382V827.678H540.998ZM540.998 778.232H587.382V731.876H540.998V778.232ZM537.905 778.232V731.876H491.521V778.232H537.905ZM537.905 728.785H491.521V682.429H537.905V728.785ZM540.998 728.785V682.429H587.382V728.785H540.998ZM540.998 679.339H587.382V632.983H540.998V679.339ZM537.905 679.339V632.983H491.521V679.339H537.905ZM537.905 629.893H491.521V583.537H537.905V629.893ZM540.998 629.893V583.537H587.382V629.893H540.998ZM540.998 580.446H587.382V534.09H540.998V580.446ZM537.905 580.446V534.09H491.521V580.446H537.905ZM488.429 534.09H442.045V580.446H488.429V534.09ZM392.569 534.09H438.953V580.446H392.569L392.569 534.09ZM392.569 583.537H438.953V629.893H392.569V583.537ZM442.045 629.893V583.537H488.429V629.893H442.045ZM488.429 632.983H442.045V679.339H488.429V632.983ZM438.953 679.339V632.983H392.569V679.339H438.953ZM392.569 682.429H438.953V728.785H392.569V682.429ZM442.045 728.785V682.429H488.429V728.785H442.045ZM488.429 731.876H442.045V778.232H488.429V731.876ZM438.953 778.232V731.876H392.569V778.232H438.953ZM392.569 781.322H438.953V827.678H392.569V781.322ZM442.045 827.678V781.322H488.429V827.678H442.045ZM488.429 830.768H442.045V877.124H488.429V830.768ZM438.953 877.124V830.768H392.569V877.124H438.953ZM392.569 880.215H438.953V926.571H392.569V880.215ZM442.045 926.571V880.215H488.429V926.571H442.045ZM488.429 929.661H442.045V976.017H488.429V929.661ZM438.953 976.017V929.661H392.569V976.017H438.953ZM392.569 979.107H438.953V1025.46H392.569V979.107ZM442.045 1025.46V979.107H488.429V1025.46H442.045ZM488.429 1028.55H442.045V1074.91H488.429V1028.55ZM438.953 1074.91V1028.55H392.569V1074.91H438.953Z" fill="url(#paint0_radial_459_256)"/>
<path opacity="0.2" fill-rule="evenodd" clip-rule="evenodd" d="M340 -46.9999L1576.91 -47V-43.9096L1580 -43.9096V496.91L1576.91 496.91V500L340 500L340 -46.9999ZM1530.52 450.554H1576.91V496.91L1530.52 496.91V450.554ZM1527.43 450.554V496.91H1481.05V450.554H1527.43ZM1527.43 447.463V401.107H1481.05V447.463H1527.43ZM1530.52 401.107V447.463H1576.91V401.107H1530.52ZM1527.43 398.017H1481.05V351.661H1527.43V398.017ZM1530.52 351.661V398.017H1576.91V351.661H1530.52ZM1527.43 348.571H1481.05V302.215H1527.43V348.571ZM1530.52 302.215V348.571H1576.91V302.215H1530.52ZM1527.43 299.124H1481.05V252.768H1527.43V299.124ZM1530.52 252.768V299.124H1576.91V252.768H1530.52ZM1527.43 249.678H1481.05V203.322L1527.43 203.322V249.678ZM1530.52 203.322V249.678H1576.91V203.322H1530.52ZM1527.43 200.232L1481.05 200.232V153.876L1527.43 153.876V200.232ZM1530.52 153.876V200.232H1576.91V153.876H1530.52ZM1527.43 150.785L1481.05 150.785V104.429L1527.43 104.429V150.785ZM1530.52 104.429V150.785H1576.91V104.429H1530.52ZM1527.43 101.339L1481.05 101.339V54.983H1527.43V101.339ZM1530.52 54.983V101.339H1576.91V54.983H1530.52ZM1527.43 51.8926H1481.05V5.53672H1527.43V51.8926ZM1530.52 5.53672V51.8926H1576.91V5.53672L1530.52 5.53672ZM1530.52 2.44632L1576.91 2.44632V-43.9096L1530.52 -43.9096V2.44632ZM1527.43 2.44633H1481.05V-43.9096H1527.43V2.44633ZM343.092 -43.9096H389.476V2.44638H343.092V-43.9096ZM343.092 5.53677H389.476V51.8927H343.092V5.53677ZM343.092 54.9831H389.476V101.339H343.092V54.9831ZM343.092 104.429H389.476V150.785H343.092V104.429ZM343.092 153.876H389.476V200.232H343.092V153.876ZM343.092 203.322H389.476V249.678H343.092V203.322ZM343.092 252.768H389.476V299.124H343.092V252.768ZM343.092 302.215H389.476V348.571H343.092V302.215ZM343.092 351.661H389.476V398.017H343.092V351.661ZM343.092 401.107H389.476V447.463H343.092L343.092 401.107ZM343.092 450.554H389.476L389.476 496.91H343.092V450.554ZM1477.96 496.91H1431.57V450.554H1477.96V496.91ZM1382.09 496.91H1428.48V450.554H1382.09V496.91ZM1382.09 447.463H1428.48V401.107H1382.09V447.463ZM1431.57 401.107V447.463H1477.96V401.107H1431.57ZM1477.96 398.017H1431.57V351.661H1477.96V398.017ZM1428.48 351.661V398.017H1382.09V351.661H1428.48ZM1382.09 348.571H1428.48V302.215H1382.09V348.571ZM1431.57 302.215V348.571H1477.96V302.215H1431.57ZM1477.96 299.124H1431.57V252.768H1477.96V299.124ZM1428.48 252.768V299.124H1382.09V252.768H1428.48ZM1382.09 249.678H1428.48V203.322H1382.09V249.678ZM1431.57 203.322V249.678H1477.96V203.322H1431.57ZM1477.96 200.232H1431.57V153.876H1477.96V200.232ZM1428.48 153.876V200.232H1382.09V153.876H1428.48ZM1382.09 150.785H1428.48V104.429H1382.09V150.785ZM1431.57 104.429V150.785H1477.96V104.429H1431.57ZM1477.96 101.339H1431.57V54.9831H1477.96V101.339ZM1428.48 54.9831V101.339H1382.09V54.9831L1428.48 54.9831ZM1382.09 51.8927L1428.48 51.8927V5.53672H1382.09V51.8927ZM1431.57 5.53672V51.8927H1477.96V5.53672L1431.57 5.53672ZM1477.96 2.44633L1431.57 2.44633V-43.9096L1477.96 -43.9096V2.44633ZM1382.09 2.44633H1428.48V-43.9096H1382.09V2.44633ZM1379 2.44633V-43.9096H1332.62V2.44633H1379ZM1329.53 2.44633V-43.9096H1283.14V2.44633L1329.53 2.44633ZM1329.53 5.53672L1283.14 5.53672V51.8927H1329.53V5.53672ZM1332.62 5.53672V51.8927H1379V5.53672H1332.62ZM1332.62 54.9831H1379V101.339H1332.62V54.9831ZM1329.53 54.9831V101.339H1283.14V54.9831H1329.53ZM1329.53 104.429H1283.14V150.785H1329.53V104.429ZM1332.62 104.429V150.785H1379V104.429H1332.62ZM1332.62 153.876H1379V200.232H1332.62V153.876ZM1329.53 153.876V200.232H1283.14V153.876H1329.53ZM1329.53 203.322H1283.14V249.678H1329.53V203.322ZM1332.62 203.322V249.678H1379V203.322H1332.62ZM1332.62 252.768H1379V299.124H1332.62V252.768ZM1329.53 252.768V299.124H1283.14V252.768H1329.53ZM1329.53 302.215H1283.14V348.571H1329.53V302.215ZM1332.62 302.215V348.571H1379V302.215H1332.62ZM1332.62 351.661H1379V398.017H1332.62V351.661ZM1329.53 351.661V398.017H1283.14V351.661H1329.53ZM1329.53 401.107H1283.14V447.463H1329.53V401.107ZM1332.62 401.107V447.463H1379V401.107H1332.62ZM1332.62 450.554H1379V496.91H1332.62V450.554ZM1329.53 496.91H1283.14V450.554H1329.53V496.91ZM1280.05 496.91L1233.67 496.91V450.554H1280.05V496.91ZM1184.19 496.91H1230.57V450.554H1184.19V496.91ZM1184.19 447.463H1230.57V401.107H1184.19V447.463ZM1233.67 401.107V447.463H1280.05V401.107H1233.67ZM1280.05 398.017H1233.67V351.661H1280.05V398.017ZM1230.57 351.661V398.017H1184.19V351.661H1230.57ZM1184.19 348.571H1230.57V302.215H1184.19V348.571ZM1233.67 302.215V348.571H1280.05V302.215H1233.67ZM1280.05 299.124H1233.67V252.768H1280.05V299.124ZM1230.57 252.768V299.124H1184.19V252.768H1230.57ZM1184.19 249.678H1230.57V203.322H1184.19V249.678ZM1233.67 203.322V249.678H1280.05V203.322H1233.67ZM1280.05 200.232H1233.67V153.876H1280.05V200.232ZM1230.57 153.876V200.232H1184.19V153.876H1230.57ZM1184.19 150.785H1230.57V104.429H1184.19V150.785ZM1233.67 104.429V150.785H1280.05V104.429H1233.67ZM1280.05 101.339H1233.67V54.9831H1280.05V101.339ZM1230.57 54.9831V101.339H1184.19V54.9831H1230.57ZM1184.19 51.8927H1230.57V5.53673L1184.19 5.53673V51.8927ZM1233.67 5.53673V51.8927H1280.05V5.53673H1233.67ZM1280.05 2.44634H1233.67V-43.9096H1280.05V2.44634ZM1230.57 -43.9096V2.44634L1184.19 2.44634V-43.9096L1230.57 -43.9096ZM1181.1 2.44634V-43.9096H1134.71V2.44634H1181.1ZM1131.62 2.44635V-43.9096L1085.24 -43.9096V2.44635L1131.62 2.44635ZM1131.62 5.53673L1085.24 5.53673V51.8927H1131.62V5.53673ZM1134.71 5.53673V51.8927L1181.1 51.8927V5.53673H1134.71ZM1134.71 54.9831L1181.1 54.9831V101.339H1134.71V54.9831ZM1131.62 54.9831V101.339H1085.24V54.9831H1131.62ZM1131.62 104.429H1085.24V150.785H1131.62V104.429ZM1134.71 104.429V150.785H1181.1V104.429H1134.71ZM1134.71 153.876H1181.1V200.232H1134.71V153.876ZM1131.62 153.876V200.232H1085.24V153.876H1131.62ZM1131.62 203.322H1085.24V249.678H1131.62V203.322ZM1134.71 203.322V249.678H1181.1V203.322H1134.71ZM1134.71 252.768H1181.1V299.124H1134.71V252.768ZM1131.62 252.768V299.124H1085.24V252.768H1131.62ZM1131.62 302.215H1085.24V348.571H1131.62V302.215ZM1134.71 302.215V348.571H1181.1V302.215H1134.71ZM1134.71 351.661H1181.1V398.017H1134.71V351.661ZM1131.62 351.661V398.017H1085.24V351.661H1131.62ZM1131.62 401.107H1085.24V447.463H1131.62V401.107ZM1134.71 401.107V447.463H1181.1V401.107H1134.71ZM1134.71 450.554H1181.1V496.91H1134.71V450.554ZM1131.62 450.554V496.91H1085.24V450.554H1131.62ZM1082.14 496.91H1035.76V450.554H1082.14V496.91ZM986.284 496.91H1032.67V450.554H986.284V496.91ZM986.284 447.463H1032.67V401.107H986.284V447.463ZM1035.76 401.107V447.463H1082.14V401.107H1035.76ZM1082.14 398.017H1035.76V351.661H1082.14V398.017ZM1032.67 351.661V398.017H986.284V351.661H1032.67ZM986.284 348.571H1032.67V302.215H986.284V348.571ZM1035.76 302.215V348.571H1082.14V302.215H1035.76ZM1082.14 299.124H1035.76V252.768H1082.14V299.124ZM1032.67 252.768V299.124H986.284V252.768H1032.67ZM986.284 249.678H1032.67V203.322H986.284V249.678ZM1035.76 203.322V249.678H1082.14V203.322L1035.76 203.322ZM1082.14 200.232L1035.76 200.232V153.876L1082.14 153.876V200.232ZM1032.67 153.876V200.232H986.284V153.876H1032.67ZM986.284 150.785H1032.67V104.429H986.284V150.785ZM1035.76 104.429V150.785L1082.14 150.785V104.429L1035.76 104.429ZM1082.14 101.339L1035.76 101.339V54.9831H1082.14V101.339ZM1032.67 54.9831V101.339H986.284V54.9831H1032.67ZM986.284 51.8927H1032.67V5.53674H986.284V51.8927ZM1035.76 5.53674V51.8927H1082.14V5.53674H1035.76ZM1082.14 2.44635H1035.76V-43.9096H1082.14V2.44635ZM1032.67 -43.9096V2.44635H986.284V-43.9096H1032.67ZM983.192 2.44635V-43.9096L936.808 -43.9096V2.44635L983.192 2.44635ZM933.716 2.44635V-43.9096H887.332V2.44635H933.716ZM933.716 5.53674H887.332V51.8927L933.716 51.8927V5.53674ZM936.808 5.53674V51.8927H983.192V5.53674L936.808 5.53674ZM936.808 54.9831H983.192V101.339H936.808V54.9831ZM933.716 54.9831V101.339H887.332V54.9831L933.716 54.9831ZM933.716 104.429H887.332V150.785H933.716V104.429ZM936.808 104.429V150.785H983.192V104.429H936.808ZM936.808 153.876H983.192V200.232H936.808V153.876ZM933.716 153.876V200.232H887.332V153.876H933.716ZM933.716 203.322H887.332V249.678H933.716V203.322ZM936.808 203.322V249.678H983.192V203.322H936.808ZM936.808 252.768H983.192V299.124H936.808V252.768ZM933.716 252.768V299.124H887.332V252.768H933.716ZM933.716 302.215H887.332V348.571H933.716V302.215ZM936.808 302.215V348.571H983.192V302.215H936.808ZM936.808 351.661H983.192V398.017H936.808V351.661ZM933.716 351.661V398.017H887.332V351.661H933.716ZM933.716 401.107H887.332V447.463H933.716V401.107ZM936.808 401.107V447.463H983.192V401.107H936.808ZM936.808 450.554H983.192V496.91H936.808V450.554ZM933.716 450.554V496.91H887.332V450.554H933.716ZM884.239 496.91H837.855V450.554H884.239V496.91ZM788.379 496.91H834.763V450.554L788.379 450.554V496.91ZM788.379 447.463L834.763 447.463V401.107L788.379 401.107V447.463ZM837.855 401.107V447.463H884.239V401.107H837.855ZM884.239 398.017H837.855V351.661H884.239V398.017ZM834.763 351.661V398.017L788.379 398.017V351.661L834.763 351.661ZM788.379 348.571L834.763 348.571V302.215L788.379 302.215V348.571ZM837.855 302.215V348.571H884.239V302.215H837.855ZM884.239 299.124H837.855V252.768H884.239V299.124ZM834.763 252.768V299.124L788.379 299.124V252.768L834.763 252.768ZM788.379 249.678L834.763 249.678V203.322H788.379V249.678ZM837.855 203.322V249.678H884.239V203.322H837.855ZM884.239 200.232H837.855V153.876H884.239V200.232ZM834.763 153.876V200.232H788.379V153.876H834.763ZM788.379 150.785H834.763V104.429H788.379V150.785ZM837.855 104.429V150.785H884.239V104.429H837.855ZM884.239 101.339H837.855V54.9831H884.239V101.339ZM834.763 54.9831V101.339H788.379V54.9831H834.763ZM788.379 51.8927H834.763V5.53675H788.379V51.8927ZM837.855 5.53674V51.8927H884.239V5.53674L837.855 5.53674ZM884.239 2.44636L837.855 2.44636V-43.9096L884.239 -43.9096V2.44636ZM834.763 -43.9096V2.44636H788.379V-43.9096H834.763ZM785.287 2.44636V-43.9096L738.903 -43.9096V2.44636L785.287 2.44636ZM735.81 2.44637V-43.9096H689.426V2.44637H735.81ZM735.81 5.53675H689.426V51.8927H735.81V5.53675ZM738.903 5.53675V51.8927H785.287V5.53675L738.903 5.53675ZM738.903 54.9831H785.287V101.339H738.903V54.9831ZM735.81 54.9831V101.339H689.426V54.9831H735.81ZM735.81 104.429H689.426V150.785H735.81V104.429ZM738.903 104.429V150.785H785.287V104.429H738.903ZM738.903 153.876H785.287V200.232H738.903V153.876ZM735.81 153.876V200.232H689.426V153.876H735.81ZM735.81 203.322H689.426V249.678H735.81V203.322ZM738.903 203.322V249.678H785.287V203.322H738.903ZM738.903 252.768H785.287V299.124H738.903V252.768ZM735.81 252.768V299.124H689.426V252.768H735.81ZM735.81 302.215H689.426V348.571H735.81V302.215ZM738.903 302.215V348.571H785.287V302.215H738.903ZM738.903 351.661H785.287V398.017H738.903V351.661ZM735.81 351.661V398.017H689.426V351.661H735.81ZM735.81 401.107H689.426V447.463H735.81V401.107ZM738.903 401.107V447.463H785.287V401.107H738.903ZM738.903 450.554H785.287V496.91H738.903V450.554ZM735.81 450.554V496.91H689.426V450.554H735.81ZM686.334 496.91H639.95V450.554H686.334V496.91ZM590.474 496.91H636.858V450.554H590.474V496.91ZM590.474 447.463H636.858V401.107H590.474V447.463ZM639.95 401.107V447.463H686.334V401.107H639.95ZM686.334 398.017H639.95V351.661H686.334V398.017ZM636.858 351.661V398.017H590.474V351.661H636.858ZM590.474 348.571H636.858V302.215H590.474V348.571ZM639.95 302.215V348.571H686.334V302.215H639.95ZM686.334 299.124H639.95V252.768H686.334V299.124ZM636.858 252.768V299.124H590.474V252.768H636.858ZM590.474 249.678H636.858V203.322H590.474V249.678ZM639.95 203.322V249.678H686.334V203.322H639.95ZM686.334 200.232H639.95V153.876H686.334V200.232ZM636.858 153.876V200.232H590.474V153.876H636.858ZM590.474 150.785H636.858V104.429H590.474V150.785ZM639.95 104.429V150.785H686.334V104.429H639.95ZM686.334 101.339H639.95V54.9831H686.334V101.339ZM636.858 54.9831V101.339H590.474V54.9831H636.858ZM590.474 51.8927H636.858V5.53676L590.474 5.53676V51.8927ZM639.95 5.53675V51.8927H686.334V5.53675H639.95ZM686.334 2.44637H639.95V-43.9096H686.334V2.44637ZM636.858 -43.9096V2.44637L590.474 2.44637V-43.9096L636.858 -43.9096ZM587.382 2.44637V-43.9096H540.998V2.44637H587.382ZM537.905 2.44637V-43.9096L491.521 -43.9096V2.44637L537.905 2.44637ZM537.905 5.53677L491.521 5.53677V51.8927H537.905V5.53677ZM540.998 5.53676V51.8927H587.382V5.53676H540.998ZM540.998 54.9831H587.382V101.339L540.998 101.339V54.9831ZM537.905 54.9831V101.339H491.521V54.9831H537.905ZM537.905 104.429H491.521V150.785H537.905V104.429ZM540.998 104.429V150.785L587.382 150.785V104.429L540.998 104.429ZM540.998 153.876L587.382 153.876V200.232L540.998 200.232V153.876ZM537.905 153.876V200.232H491.521V153.876H537.905ZM537.905 203.322H491.521V249.678H537.905V203.322ZM540.998 203.322V249.678H587.382V203.322L540.998 203.322ZM540.998 252.768H587.382V299.124H540.998V252.768ZM537.905 252.768V299.124H491.521V252.768H537.905ZM537.905 302.215H491.521V348.571H537.905V302.215ZM540.998 302.215V348.571H587.382V302.215H540.998ZM540.998 351.661H587.382V398.017H540.998V351.661ZM537.905 351.661V398.017H491.521V351.661H537.905ZM537.905 401.107H491.521V447.463H537.905V401.107ZM540.998 401.107V447.463H587.382V401.107H540.998ZM540.998 450.554H587.382V496.91H540.998V450.554ZM537.905 450.554V496.91H491.521V450.554H537.905ZM488.429 496.91H442.045V450.554H488.429V496.91ZM392.569 496.91H438.953V450.554H392.569L392.569 496.91ZM392.569 447.463H438.953V401.107H392.569V447.463ZM442.045 401.107V447.463H488.429V401.107H442.045ZM488.429 398.017H442.045V351.661H488.429V398.017ZM438.953 351.661V398.017H392.569V351.661H438.953ZM392.569 348.571H438.953V302.215H392.569V348.571ZM442.045 302.215V348.571H488.429V302.215H442.045ZM488.429 299.124H442.045V252.768H488.429V299.124ZM438.953 252.768V299.124H392.569V252.768H438.953ZM392.569 249.678H438.953V203.322H392.569V249.678ZM442.045 203.322V249.678H488.429V203.322H442.045ZM488.429 200.232H442.045V153.876H488.429V200.232ZM438.953 153.876V200.232H392.569V153.876H438.953ZM392.569 150.785H438.953V104.429H392.569V150.785ZM442.045 104.429V150.785H488.429V104.429H442.045ZM488.429 101.339H442.045V54.9831L488.429 54.9831V101.339ZM438.953 54.9831V101.339H392.569V54.9831H438.953ZM392.569 51.8927H438.953V5.53677L392.569 5.53677V51.8927ZM442.045 5.53677V51.8927L488.429 51.8927V5.53677H442.045ZM488.429 2.44637H442.045V-43.9096H488.429V2.44637ZM438.953 -43.9096V2.44638L392.569 2.44638V-43.9096L438.953 -43.9096Z" fill="url(#paint1_radial_459_256)"/>
<defs>
<filter id="filter0_f_459_256" x="779" y="-197" width="2060" height="2060" filterUnits="userSpaceOnUse" color-interpolation-filters="sRGB">
<feFlood flood-opacity="0" result="BackgroundImageFix"/>
<feBlend mode="normal" in="SourceGraphic" in2="BackgroundImageFix" result="shape"/>
<feGaussianBlur stdDeviation="310" result="effect1_foregroundBlur_459_256"/>
</filter>
<filter id="filter1_f_459_256" x="-205" y="-611" width="2253" height="2423" filterUnits="userSpaceOnUse" color-interpolation-filters="sRGB">
<feFlood flood-opacity="0" result="BackgroundImageFix"/>
<feBlend mode="normal" in="SourceGraphic" in2="BackgroundImageFix" result="shape"/>
<feGaussianBlur stdDeviation="310" result="effect1_foregroundBlur_459_256"/>
</filter>
<filter id="filter2_f_459_256" x="779" y="-197" width="2060" height="2060" filterUnits="userSpaceOnUse" color-interpolation-filters="sRGB">
<feFlood flood-opacity="0" result="BackgroundImageFix"/>
<feBlend mode="normal" in="SourceGraphic" in2="BackgroundImageFix" result="shape"/>
<feGaussianBlur stdDeviation="310" result="effect1_foregroundBlur_459_256"/>
</filter>
<filter id="filter3_f_459_256" x="-205" y="-611" width="2253" height="2423" filterUnits="userSpaceOnUse" color-interpolation-filters="sRGB">
<feFlood flood-opacity="0" result="BackgroundImageFix"/>
<feBlend mode="normal" in="SourceGraphic" in2="BackgroundImageFix" result="shape"/>
<feGaussianBlur stdDeviation="310" result="effect1_foregroundBlur_459_256"/>
</filter>
<filter id="filter4_f_459_256" x="-205" y="-611" width="2253" height="2423" filterUnits="userSpaceOnUse" color-interpolation-filters="sRGB">
<feFlood flood-opacity="0" result="BackgroundImageFix"/>
<feBlend mode="normal" in="SourceGraphic" in2="BackgroundImageFix" result="shape"/>
<feGaussianBlur stdDeviation="310" result="effect1_foregroundBlur_459_256"/>
</filter>
<filter id="filter5_f_459_256" x="-205" y="-611" width="2253" height="2423" filterUnits="userSpaceOnUse" color-interpolation-filters="sRGB">
<feFlood flood-opacity="0" result="BackgroundImageFix"/>
<feBlend mode="normal" in="SourceGraphic" in2="BackgroundImageFix" result="shape"/>
<feGaussianBlur stdDeviation="310" result="effect1_foregroundBlur_459_256"/>
</filter>
<filter id="filter6_f_459_256" x="624" y="-197" width="2060" height="2060" filterUnits="userSpaceOnUse" color-interpolation-filters="sRGB">
<feFlood flood-opacity="0" result="BackgroundImageFix"/>
<feBlend mode="normal" in="SourceGraphic" in2="BackgroundImageFix" result="shape"/>
<feGaussianBlur stdDeviation="310" result="effect1_foregroundBlur_459_256"/>
</filter>
<filter id="filter7_f_459_256" x="154" y="-597" width="2060" height="2060" filterUnits="userSpaceOnUse" color-interpolation-filters="sRGB">
<feFlood flood-opacity="0" result="BackgroundImageFix"/>
<feBlend mode="normal" in="SourceGraphic" in2="BackgroundImageFix" result="shape"/>
<feGaussianBlur stdDeviation="310" result="effect1_foregroundBlur_459_256"/>
</filter>
<filter id="filter8_f_459_256" x="-605" y="-1410" width="2970" height="2122" filterUnits="userSpaceOnUse" color-interpolation-filters="sRGB">
<feFlood flood-opacity="0" result="BackgroundImageFix"/>
<feBlend mode="normal" in="SourceGraphic" in2="BackgroundImageFix" result="shape"/>
<feGaussianBlur stdDeviation="310" result="effect1_foregroundBlur_459_256"/>
</filter>
<radialGradient id="paint0_radial_459_256" cx="0" cy="0" r="1" gradientUnits="userSpaceOnUse" gradientTransform="translate(960 1347) rotate(-90) scale(816 875.395)">
<stop stop-color="white"/>
<stop offset="1" stop-color="white" stop-opacity="0"/>
</radialGradient>
<radialGradient id="paint1_radial_459_256" cx="0" cy="0" r="1" gradientUnits="userSpaceOnUse" gradientTransform="translate(958.454 -47) rotate(89.8381) scale(547.002 586.817)">
<stop stop-color="white"/>
<stop offset="1" stop-color="white" stop-opacity="0"/>
</radialGradient>
</defs>
</svg>
