<svg width="48" height="48" viewBox="0 0 48 48" fill="none" xmlns="http://www.w3.org/2000/svg">
<path opacity="0.4" d="M32.4801 7.30005H15.5201C10.5801 7.30005 6.58008 11.32 6.58008 16.24V35.0601C6.58008 39.98 10.6001 44 15.5201 44H32.4601C37.4001 44 41.4001 39.98 41.4001 35.0601V16.24C41.4201 11.3 37.4001 7.30005 32.4801 7.30005Z" fill="#009FA8"/>
<path d="M28.6995 4H19.2995C17.2195 4 15.5195 5.68 15.5195 7.76V9.64C15.5195 11.72 17.1995 13.4 19.2795 13.4H28.6995C30.7795 13.4 32.4595 11.72 32.4595 9.64V7.76C32.4795 5.68 30.7795 4 28.6995 4Z" fill="#009FA8"/>
</svg>
