<svg width="80" height="80" viewBox="0 0 80 80" fill="none" xmlns="http://www.w3.org/2000/svg">
<rect width="80" height="80" rx="40" fill="#8F11AE"/>
<g opacity="0.6" clip-path="url(#clip0_624_493)">
<path d="M55 41.5002H43.75C40.8505 41.5002 38.5 39.1497 38.5 36.2502C38.5 33.3507 40.8505 31.0002 43.75 31.0002H55C56.6575 31.0002 58 32.3427 58 34.0002V38.5002C58 40.1577 56.6575 41.5002 55 41.5002ZM35.5345 35.5002C35.9155 31.3017 39.454 28.0002 43.75 28.0002H51.2065C47.533 23.5407 41.9785 21.3597 36.178 22.1592C29.179 23.1222 23.539 28.6227 22.2715 35.5002H35.5345ZM43.75 44.5002C39.982 44.5002 36.7945 41.9592 35.812 38.5002H22C22.003 42.1227 23.182 45.6282 25.39 48.5112C26.1055 49.4472 26.5 50.7027 26.5 52.0437V53.5002C26.5 55.9812 28.519 58.0002 31 58.0002H41.5C43.981 58.0002 46 55.9812 46 53.5002H46.741C50.4895 53.5002 53.6845 50.6982 54.1765 46.9827L54.505 44.5002H43.7515H43.75Z" fill="white"/>
</g>
<path d="M54.9231 41.5H43.3846C40.4108 41.5 38 39.1495 38 36.25C38 33.3505 40.4108 31 43.3846 31H54.9231C56.6231 31 58 32.3425 58 34V38.5C58 40.1575 56.6231 41.5 54.9231 41.5Z" fill="white"/>
<defs>
<clipPath id="clip0_624_493">
<rect width="36" height="36" fill="white" transform="translate(22 22)"/>
</clipPath>
</defs>
</svg>
