<svg width="374" height="190" viewBox="0 0 374 190" fill="none" xmlns="http://www.w3.org/2000/svg">
<path d="M23.264 119L29.432 101.12H33.656L39.824 119H36.272L35 115.16H28.088L26.792 119H23.264ZM29.024 112.28H34.064L31.088 103.376H32L29.024 112.28ZM44.7716 119.288C43.7636 119.288 42.8836 119.064 42.1316 118.616C41.3956 118.168 40.8276 117.544 40.4276 116.744C40.0436 115.944 39.8516 115.008 39.8516 113.936V105.944H42.9956V113.672C42.9956 114.216 43.0996 114.696 43.3076 115.112C43.5316 115.512 43.8436 115.832 44.2436 116.072C44.6596 116.296 45.1236 116.408 45.6356 116.408C46.1476 116.408 46.6036 116.296 47.0036 116.072C47.4036 115.832 47.7156 115.504 47.9396 115.088C48.1636 114.672 48.2756 114.176 48.2756 113.6V105.944H51.4196V119H48.4436V116.432L48.7076 116.888C48.4036 117.688 47.8996 118.288 47.1956 118.688C46.5076 119.088 45.6996 119.288 44.7716 119.288ZM59.0941 119.144C57.6221 119.144 56.4781 118.744 55.6621 117.944C54.8621 117.128 54.4621 115.984 54.4621 114.512V108.752H52.2061V105.944H52.4461C53.0861 105.944 53.5821 105.776 53.9341 105.44C54.2861 105.104 54.4621 104.616 54.4621 103.976V102.968H57.6061V105.944H60.6061V108.752H57.6061V114.344C57.6061 114.776 57.6781 115.144 57.8221 115.448C57.9821 115.752 58.2221 115.984 58.5421 116.144C58.8781 116.304 59.3021 116.384 59.8141 116.384C59.9261 116.384 60.0541 116.376 60.1981 116.36C60.3581 116.344 60.5101 116.328 60.6541 116.312V119C60.4301 119.032 60.1741 119.064 59.8861 119.096C59.5981 119.128 59.3341 119.144 59.0941 119.144ZM68.123 119.288C66.843 119.288 65.675 118.992 64.619 118.4C63.579 117.808 62.747 117 62.123 115.976C61.515 114.952 61.211 113.784 61.211 112.472C61.211 111.16 61.515 109.992 62.123 108.968C62.747 107.944 63.579 107.136 64.619 106.544C65.659 105.952 66.827 105.656 68.123 105.656C69.403 105.656 70.563 105.952 71.603 106.544C72.643 107.136 73.467 107.944 74.075 108.968C74.699 109.976 75.011 111.144 75.011 112.472C75.011 113.784 74.699 114.952 74.075 115.976C73.451 117 72.619 117.808 71.579 118.4C70.539 118.992 69.387 119.288 68.123 119.288ZM68.123 116.408C68.827 116.408 69.443 116.24 69.971 115.904C70.515 115.568 70.939 115.104 71.243 114.512C71.563 113.904 71.723 113.224 71.723 112.472C71.723 111.704 71.563 111.032 71.243 110.456C70.939 109.864 70.515 109.4 69.971 109.064C69.443 108.712 68.827 108.536 68.123 108.536C67.403 108.536 66.771 108.712 66.227 109.064C65.683 109.4 65.251 109.864 64.931 110.456C64.627 111.032 64.475 111.704 64.475 112.472C64.475 113.224 64.627 113.904 64.931 114.512C65.251 115.104 65.683 115.568 66.227 115.904C66.771 116.24 67.403 116.408 68.123 116.408ZM76.1953 119V105.944H79.1473V108.968L78.8113 108.464C79.0513 107.52 79.5313 106.816 80.2513 106.352C80.9713 105.888 81.8193 105.656 82.7953 105.656C83.8673 105.656 84.8113 105.936 85.6273 106.496C86.4433 107.056 86.9713 107.792 87.2113 108.704L86.3233 108.776C86.7233 107.736 87.3233 106.96 88.1233 106.448C88.9233 105.92 89.8433 105.656 90.8833 105.656C91.8113 105.656 92.6353 105.864 93.3553 106.28C94.0913 106.696 94.6673 107.28 95.0833 108.032C95.4993 108.768 95.7073 109.624 95.7073 110.6V119H92.5633V111.344C92.5633 110.768 92.4593 110.272 92.2513 109.856C92.0433 109.44 91.7553 109.12 91.3873 108.896C91.0193 108.656 90.5713 108.536 90.0433 108.536C89.5473 108.536 89.1073 108.656 88.7233 108.896C88.3393 109.12 88.0433 109.44 87.8353 109.856C87.6273 110.272 87.5233 110.768 87.5233 111.344V119H84.3793V111.344C84.3793 110.768 84.2753 110.272 84.0673 109.856C83.8593 109.44 83.5633 109.12 83.1793 108.896C82.8113 108.656 82.3713 108.536 81.8593 108.536C81.3633 108.536 80.9233 108.656 80.5393 108.896C80.1553 109.12 79.8593 109.44 79.6513 109.856C79.4433 110.272 79.3393 110.768 79.3393 111.344V119H76.1953ZM101.127 119.288C100.215 119.288 99.4231 119.136 98.7511 118.832C98.0791 118.528 97.5591 118.096 97.1911 117.536C96.8231 116.96 96.6391 116.296 96.6391 115.544C96.6391 114.824 96.7991 114.184 97.1191 113.624C97.4391 113.048 97.9351 112.568 98.6071 112.184C99.2791 111.8 100.127 111.528 101.151 111.368L105.423 110.672V113.072L101.751 113.696C101.127 113.808 100.663 114.008 100.359 114.296C100.055 114.584 99.9031 114.96 99.9031 115.424C99.9031 115.872 100.071 116.232 100.407 116.504C100.759 116.76 101.191 116.888 101.703 116.888C102.359 116.888 102.935 116.752 103.431 116.48C103.943 116.192 104.335 115.8 104.607 115.304C104.895 114.808 105.039 114.264 105.039 113.672V110.312C105.039 109.752 104.815 109.288 104.367 108.92C103.935 108.536 103.359 108.344 102.639 108.344C101.967 108.344 101.367 108.528 100.839 108.896C100.327 109.248 99.9511 109.72 99.7111 110.312L97.1431 109.064C97.3991 108.376 97.7991 107.784 98.3431 107.288C98.9031 106.776 99.5591 106.376 100.311 106.088C101.063 105.8 101.879 105.656 102.759 105.656C103.831 105.656 104.775 105.856 105.591 106.256C106.407 106.64 107.039 107.184 107.487 107.888C107.951 108.576 108.183 109.384 108.183 110.312V119H105.207V116.768L105.879 116.72C105.543 117.28 105.143 117.752 104.679 118.136C104.215 118.504 103.687 118.792 103.095 119C102.503 119.192 101.847 119.288 101.127 119.288ZM115.607 119.144C114.135 119.144 112.991 118.744 112.175 117.944C111.375 117.128 110.975 115.984 110.975 114.512V108.752H108.719V105.944H108.959C109.599 105.944 110.095 105.776 110.447 105.44C110.799 105.104 110.975 104.616 110.975 103.976V102.968H114.119V105.944H117.119V108.752H114.119V114.344C114.119 114.776 114.191 115.144 114.335 115.448C114.495 115.752 114.735 115.984 115.055 116.144C115.391 116.304 115.815 116.384 116.327 116.384C116.439 116.384 116.567 116.376 116.711 116.36C116.871 116.344 117.023 116.328 117.167 116.312V119C116.943 119.032 116.687 119.064 116.399 119.096C116.111 119.128 115.847 119.144 115.607 119.144ZM118.369 119V105.944H121.513V119H118.369ZM118.369 104.48V101.12H121.513V104.48H118.369ZM129.6 119.288C128.32 119.288 127.152 118.992 126.096 118.4C125.056 117.808 124.224 117 123.6 115.976C122.992 114.952 122.688 113.784 122.688 112.472C122.688 111.16 122.992 109.992 123.6 108.968C124.224 107.944 125.056 107.136 126.096 106.544C127.136 105.952 128.304 105.656 129.6 105.656C130.88 105.656 132.04 105.952 133.08 106.544C134.12 107.136 134.944 107.944 135.552 108.968C136.176 109.976 136.488 111.144 136.488 112.472C136.488 113.784 136.176 114.952 135.552 115.976C134.928 117 134.096 117.808 133.056 118.4C132.016 118.992 130.864 119.288 129.6 119.288ZM129.6 116.408C130.304 116.408 130.92 116.24 131.448 115.904C131.992 115.568 132.416 115.104 132.72 114.512C133.04 113.904 133.2 113.224 133.2 112.472C133.2 111.704 133.04 111.032 132.72 110.456C132.416 109.864 131.992 109.4 131.448 109.064C130.92 108.712 130.304 108.536 129.6 108.536C128.88 108.536 128.248 108.712 127.704 109.064C127.16 109.4 126.728 109.864 126.408 110.456C126.104 111.032 125.952 111.704 125.952 112.472C125.952 113.224 126.104 113.904 126.408 114.512C126.728 115.104 127.16 115.568 127.704 115.904C128.248 116.24 128.88 116.408 129.6 116.408ZM137.672 119V105.944H140.624V108.512L140.384 108.056C140.688 107.272 141.184 106.68 141.872 106.28C142.576 105.864 143.392 105.656 144.32 105.656C145.28 105.656 146.128 105.864 146.864 106.28C147.616 106.696 148.2 107.28 148.616 108.032C149.032 108.768 149.24 109.624 149.24 110.6V119H146.096V111.344C146.096 110.768 145.984 110.272 145.76 109.856C145.536 109.44 145.224 109.12 144.824 108.896C144.44 108.656 143.984 108.536 143.456 108.536C142.944 108.536 142.488 108.656 142.088 108.896C141.688 109.12 141.376 109.44 141.152 109.856C140.928 110.272 140.816 110.768 140.816 111.344V119H137.672Z" fill="#2A3342"/>
<path opacity="0.6" d="M24.078 155V144.57H25.73V149.162H30.56V144.57H32.198V155H30.56V150.632H25.73V155H24.078ZM35.7733 155.168C35.2599 155.168 34.8073 155.079 34.4153 154.902C34.0326 154.715 33.7339 154.463 33.5193 154.146C33.3046 153.819 33.1973 153.437 33.1973 152.998C33.1973 152.587 33.2859 152.219 33.4633 151.892C33.6499 151.565 33.9346 151.29 34.3173 151.066C34.6999 150.842 35.1806 150.683 35.7593 150.59L38.3913 150.156V151.402L36.0673 151.808C35.6473 151.883 35.3393 152.018 35.1433 152.214C34.9473 152.401 34.8493 152.643 34.8493 152.942C34.8493 153.231 34.9566 153.469 35.1713 153.656C35.3953 153.833 35.6799 153.922 36.0253 153.922C36.4546 153.922 36.8279 153.829 37.1453 153.642C37.4719 153.455 37.7239 153.208 37.9013 152.9C38.0786 152.583 38.1673 152.233 38.1673 151.85V149.904C38.1673 149.531 38.0273 149.227 37.7473 148.994C37.4766 148.751 37.1126 148.63 36.6553 148.63C36.2353 148.63 35.8666 148.742 35.5493 148.966C35.2413 149.181 35.0126 149.461 34.8633 149.806L33.5473 149.148C33.6873 148.775 33.9159 148.448 34.2333 148.168C34.5506 147.879 34.9193 147.655 35.3393 147.496C35.7686 147.337 36.2213 147.258 36.6973 147.258C37.2946 147.258 37.8219 147.37 38.2793 147.594C38.7459 147.818 39.1053 148.131 39.3573 148.532C39.6186 148.924 39.7493 149.381 39.7493 149.904V155H38.2373V153.628L38.5593 153.67C38.3819 153.978 38.1533 154.244 37.8733 154.468C37.6026 154.692 37.2899 154.865 36.9353 154.986C36.5899 155.107 36.2026 155.168 35.7733 155.168ZM40.899 155V147.426H42.411V148.91L42.229 148.714C42.4157 148.238 42.7143 147.879 43.125 147.636C43.5357 147.384 44.0117 147.258 44.553 147.258C45.113 147.258 45.6077 147.379 46.037 147.622C46.4663 147.865 46.8023 148.201 47.045 148.63C47.2877 149.059 47.409 149.554 47.409 150.114V155H45.841V150.534C45.841 150.151 45.771 149.829 45.631 149.568C45.491 149.297 45.2903 149.092 45.029 148.952C44.777 148.803 44.4877 148.728 44.161 148.728C43.8343 148.728 43.5403 148.803 43.279 148.952C43.027 149.092 42.831 149.297 42.691 149.568C42.551 149.839 42.481 150.161 42.481 150.534V155H40.899ZM51.9021 155.168C51.1741 155.168 50.5208 154.995 49.9421 154.65C49.3728 154.295 48.9201 153.819 48.5841 153.222C48.2575 152.625 48.0941 151.953 48.0941 151.206C48.0941 150.459 48.2621 149.787 48.5981 149.19C48.9341 148.593 49.3868 148.121 49.9561 147.776C50.5255 147.431 51.1695 147.258 51.8881 147.258C52.4948 147.258 53.0315 147.379 53.4981 147.622C53.9648 147.865 54.3335 148.201 54.6041 148.63L54.3661 148.994V144.402H55.9341V155H54.4361V153.46L54.6181 153.754C54.3568 154.211 53.9835 154.561 53.4981 154.804C53.0128 155.047 52.4808 155.168 51.9021 155.168ZM52.0561 153.698C52.4948 153.698 52.8868 153.591 53.2321 153.376C53.5868 153.161 53.8621 152.867 54.0581 152.494C54.2635 152.111 54.3661 151.682 54.3661 151.206C54.3661 150.73 54.2635 150.305 54.0581 149.932C53.8621 149.559 53.5868 149.265 53.2321 149.05C52.8868 148.835 52.4948 148.728 52.0561 148.728C51.6175 148.728 51.2208 148.835 50.8661 149.05C50.5115 149.265 50.2361 149.559 50.0401 149.932C49.8441 150.305 49.7461 150.73 49.7461 151.206C49.7461 151.682 49.8441 152.111 50.0401 152.494C50.2361 152.867 50.5068 153.161 50.8521 153.376C51.2068 153.591 51.6081 153.698 52.0561 153.698ZM57.081 155V144.402H58.663V155H57.081ZM63.3687 155.168C62.6127 155.168 61.9407 154.995 61.3527 154.65C60.774 154.295 60.3213 153.819 59.9947 153.222C59.668 152.615 59.5047 151.939 59.5047 151.192C59.5047 150.427 59.668 149.75 59.9947 149.162C60.3307 148.574 60.7787 148.112 61.3387 147.776C61.8987 147.431 62.5333 147.258 63.2427 147.258C63.812 147.258 64.3207 147.356 64.7687 147.552C65.2167 147.748 65.5947 148.019 65.9027 148.364C66.2107 148.7 66.444 149.087 66.6027 149.526C66.7707 149.965 66.8547 150.431 66.8547 150.926C66.8547 151.047 66.85 151.173 66.8407 151.304C66.8313 151.435 66.8127 151.556 66.7847 151.668H60.7507V150.408H65.8887L65.1327 150.982C65.226 150.525 65.1933 150.119 65.0347 149.764C64.8853 149.4 64.652 149.115 64.3347 148.91C64.0267 148.695 63.6627 148.588 63.2427 148.588C62.8227 148.588 62.4493 148.695 62.1227 148.91C61.796 149.115 61.544 149.414 61.3667 149.806C61.1893 150.189 61.1193 150.655 61.1567 151.206C61.11 151.719 61.18 152.167 61.3667 152.55C61.5627 152.933 61.8333 153.231 62.1787 153.446C62.5333 153.661 62.9347 153.768 63.3827 153.768C63.84 153.768 64.2273 153.665 64.5447 153.46C64.8713 153.255 65.128 152.989 65.3147 152.662L66.6027 153.292C66.4533 153.647 66.22 153.969 65.9027 154.258C65.5947 154.538 65.2213 154.762 64.7827 154.93C64.3533 155.089 63.882 155.168 63.3687 155.168ZM70.4986 155.168C69.7239 155.168 69.0426 154.977 68.4546 154.594C67.8759 154.211 67.4699 153.698 67.2366 153.054L68.4546 152.48C68.6599 152.909 68.9399 153.25 69.2946 153.502C69.6586 153.754 70.0599 153.88 70.4986 153.88C70.8719 153.88 71.1753 153.796 71.4086 153.628C71.6419 153.46 71.7586 153.231 71.7586 152.942C71.7586 152.755 71.7073 152.606 71.6046 152.494C71.5019 152.373 71.3713 152.275 71.2126 152.2C71.0633 152.125 70.9093 152.069 70.7506 152.032L69.5606 151.696C68.9073 151.509 68.4173 151.229 68.0906 150.856C67.7733 150.473 67.6146 150.03 67.6146 149.526C67.6146 149.069 67.7313 148.672 67.9646 148.336C68.1979 147.991 68.5199 147.725 68.9306 147.538C69.3413 147.351 69.8033 147.258 70.3166 147.258C71.0073 147.258 71.6233 147.431 72.1646 147.776C72.7059 148.112 73.0886 148.583 73.3126 149.19L72.0946 149.764C71.9453 149.4 71.7073 149.111 71.3806 148.896C71.0633 148.681 70.7039 148.574 70.3026 148.574C69.9573 148.574 69.6819 148.658 69.4766 148.826C69.2713 148.985 69.1686 149.195 69.1686 149.456C69.1686 149.633 69.2153 149.783 69.3086 149.904C69.4019 150.016 69.5233 150.109 69.6726 150.184C69.8219 150.249 69.9759 150.305 70.1346 150.352L71.3666 150.716C71.9919 150.893 72.4726 151.173 72.8086 151.556C73.1446 151.929 73.3126 152.377 73.3126 152.9C73.3126 153.348 73.1913 153.745 72.9486 154.09C72.7153 154.426 72.3886 154.692 71.9686 154.888C71.5486 155.075 71.0586 155.168 70.4986 155.168ZM75.9099 155V147.426H77.4219V148.952L77.2819 148.728C77.4499 148.233 77.7206 147.879 78.0939 147.664C78.4673 147.44 78.9153 147.328 79.4379 147.328H79.8999V148.77H79.2419C78.7193 148.77 78.2946 148.933 77.9679 149.26C77.6506 149.577 77.4919 150.035 77.4919 150.632V155H75.9099ZM83.8382 155.168C83.0822 155.168 82.4102 154.995 81.8222 154.65C81.2435 154.295 80.7909 153.819 80.4642 153.222C80.1375 152.615 79.9742 151.939 79.9742 151.192C79.9742 150.427 80.1375 149.75 80.4642 149.162C80.8002 148.574 81.2482 148.112 81.8082 147.776C82.3682 147.431 83.0029 147.258 83.7122 147.258C84.2815 147.258 84.7902 147.356 85.2382 147.552C85.6862 147.748 86.0642 148.019 86.3722 148.364C86.6802 148.7 86.9135 149.087 87.0722 149.526C87.2402 149.965 87.3242 150.431 87.3242 150.926C87.3242 151.047 87.3195 151.173 87.3102 151.304C87.3009 151.435 87.2822 151.556 87.2542 151.668H81.2202V150.408H86.3582L85.6022 150.982C85.6955 150.525 85.6629 150.119 85.5042 149.764C85.3549 149.4 85.1215 149.115 84.8042 148.91C84.4962 148.695 84.1322 148.588 83.7122 148.588C83.2922 148.588 82.9189 148.695 82.5922 148.91C82.2655 149.115 82.0135 149.414 81.8362 149.806C81.6589 150.189 81.5889 150.655 81.6262 151.206C81.5795 151.719 81.6495 152.167 81.8362 152.55C82.0322 152.933 82.3029 153.231 82.6482 153.446C83.0029 153.661 83.4042 153.768 83.8522 153.768C84.3095 153.768 84.6969 153.665 85.0142 153.46C85.3409 153.255 85.5975 152.989 85.7842 152.662L87.0722 153.292C86.9229 153.647 86.6895 153.969 86.3722 154.258C86.0642 154.538 85.6909 154.762 85.2522 154.93C84.8229 155.089 84.3515 155.168 83.8382 155.168ZM88.1681 157.8V147.426H89.6801V148.994L89.4981 148.63C89.7781 148.201 90.1515 147.865 90.6181 147.622C91.0848 147.379 91.6168 147.258 92.2141 147.258C92.9328 147.258 93.5768 147.431 94.1461 147.776C94.7248 148.121 95.1775 148.593 95.5041 149.19C95.8401 149.787 96.0081 150.459 96.0081 151.206C96.0081 151.953 95.8401 152.625 95.5041 153.222C95.1775 153.819 94.7295 154.295 94.1601 154.65C93.5908 154.995 92.9421 155.168 92.2141 155.168C91.6261 155.168 91.0895 155.047 90.6041 154.804C90.1281 154.561 89.7595 154.211 89.4981 153.754L89.7501 153.46V157.8H88.1681ZM92.0601 153.698C92.5081 153.698 92.9048 153.591 93.2501 153.376C93.5955 153.161 93.8661 152.867 94.0621 152.494C94.2675 152.111 94.3701 151.682 94.3701 151.206C94.3701 150.73 94.2675 150.305 94.0621 149.932C93.8661 149.559 93.5955 149.265 93.2501 149.05C92.9048 148.835 92.5081 148.728 92.0601 148.728C91.6215 148.728 91.2248 148.835 90.8701 149.05C90.5248 149.265 90.2495 149.559 90.0441 149.932C89.8481 150.305 89.7501 150.73 89.7501 151.206C89.7501 151.682 89.8481 152.111 90.0441 152.494C90.2495 152.867 90.5248 153.161 90.8701 153.376C91.2248 153.591 91.6215 153.698 92.0601 153.698ZM100.403 155.168C99.6471 155.168 98.9751 154.995 98.3871 154.65C97.8084 154.295 97.3557 153.819 97.029 153.222C96.7024 152.615 96.539 151.939 96.539 151.192C96.539 150.427 96.7024 149.75 97.029 149.162C97.365 148.574 97.8131 148.112 98.3731 147.776C98.9331 147.431 99.5677 147.258 100.277 147.258C100.846 147.258 101.355 147.356 101.803 147.552C102.251 147.748 102.629 148.019 102.937 148.364C103.245 148.7 103.478 149.087 103.637 149.526C103.805 149.965 103.889 150.431 103.889 150.926C103.889 151.047 103.884 151.173 103.875 151.304C103.866 151.435 103.847 151.556 103.819 151.668H97.785V150.408H102.923L102.167 150.982C102.26 150.525 102.228 150.119 102.069 149.764C101.92 149.4 101.686 149.115 101.369 148.91C101.061 148.695 100.697 148.588 100.277 148.588C99.8571 148.588 99.4837 148.695 99.1571 148.91C98.8304 149.115 98.5784 149.414 98.401 149.806C98.2237 150.189 98.1537 150.655 98.191 151.206C98.1444 151.719 98.2144 152.167 98.401 152.55C98.5971 152.933 98.8677 153.231 99.2131 153.446C99.5677 153.661 99.969 153.768 100.417 153.768C100.874 153.768 101.262 153.665 101.579 153.46C101.906 153.255 102.162 152.989 102.349 152.662L103.637 153.292C103.488 153.647 103.254 153.969 102.937 154.258C102.629 154.538 102.256 154.762 101.817 154.93C101.388 155.089 100.916 155.168 100.403 155.168ZM108.009 155.084C107.216 155.084 106.6 154.86 106.161 154.412C105.722 153.964 105.503 153.334 105.503 152.522V148.854H104.173V147.426H104.383C104.738 147.426 105.013 147.323 105.209 147.118C105.405 146.913 105.503 146.633 105.503 146.278V145.69H107.085V147.426H108.807V148.854H107.085V152.452C107.085 152.713 107.127 152.937 107.211 153.124C107.295 153.301 107.43 153.441 107.617 153.544C107.804 153.637 108.046 153.684 108.345 153.684C108.42 153.684 108.504 153.679 108.597 153.67C108.69 153.661 108.779 153.651 108.863 153.642V155C108.732 155.019 108.588 155.037 108.429 155.056C108.27 155.075 108.13 155.084 108.009 155.084ZM109.707 155V147.426H111.289V155H109.707ZM109.707 146.39V144.57H111.289V146.39H109.707ZM115.714 155.084C114.921 155.084 114.305 154.86 113.866 154.412C113.428 153.964 113.208 153.334 113.208 152.522V148.854H111.878V147.426H112.088C112.443 147.426 112.718 147.323 112.914 147.118C113.11 146.913 113.208 146.633 113.208 146.278V145.69H114.79V147.426H116.512V148.854H114.79V152.452C114.79 152.713 114.832 152.937 114.916 153.124C115 153.301 115.136 153.441 115.322 153.544C115.509 153.637 115.752 153.684 116.05 153.684C116.125 153.684 116.209 153.679 116.302 153.67C116.396 153.661 116.484 153.651 116.568 153.642V155C116.438 155.019 116.293 155.037 116.134 155.056C115.976 155.075 115.836 155.084 115.714 155.084ZM117.412 155V147.426H118.994V155H117.412ZM117.412 146.39V144.57H118.994V146.39H117.412ZM122.342 155L119.374 147.426H121.096L123.378 153.6H122.748L125.03 147.426H126.766L123.784 155H122.342ZM130.56 155.168C129.804 155.168 129.132 154.995 128.544 154.65C127.966 154.295 127.513 153.819 127.186 153.222C126.86 152.615 126.696 151.939 126.696 151.192C126.696 150.427 126.86 149.75 127.186 149.162C127.522 148.574 127.97 148.112 128.53 147.776C129.09 147.431 129.725 147.258 130.434 147.258C131.004 147.258 131.512 147.356 131.96 147.552C132.408 147.748 132.786 148.019 133.094 148.364C133.402 148.7 133.636 149.087 133.794 149.526C133.962 149.965 134.046 150.431 134.046 150.926C134.046 151.047 134.042 151.173 134.032 151.304C134.023 151.435 134.004 151.556 133.976 151.668H127.942V150.408H133.08L132.324 150.982C132.418 150.525 132.385 150.119 132.226 149.764C132.077 149.4 131.844 149.115 131.526 148.91C131.218 148.695 130.854 148.588 130.434 148.588C130.014 148.588 129.641 148.695 129.314 148.91C128.988 149.115 128.736 149.414 128.558 149.806C128.381 150.189 128.311 150.655 128.348 151.206C128.302 151.719 128.372 152.167 128.558 152.55C128.754 152.933 129.025 153.231 129.37 153.446C129.725 153.661 130.126 153.768 130.574 153.768C131.032 153.768 131.419 153.665 131.736 153.46C132.063 153.255 132.32 152.989 132.506 152.662L133.794 153.292C133.645 153.647 133.412 153.969 133.094 154.258C132.786 154.538 132.413 154.762 131.974 154.93C131.545 155.089 131.074 155.168 130.56 155.168ZM139.914 155.084C139.12 155.084 138.504 154.86 138.066 154.412C137.627 153.964 137.408 153.334 137.408 152.522V148.854H136.078V147.426H136.288C136.642 147.426 136.918 147.323 137.114 147.118C137.31 146.913 137.408 146.633 137.408 146.278V145.69H138.99V147.426H140.712V148.854H138.99V152.452C138.99 152.713 139.032 152.937 139.116 153.124C139.2 153.301 139.335 153.441 139.522 153.544C139.708 153.637 139.951 153.684 140.25 153.684C140.324 153.684 140.408 153.679 140.502 153.67C140.595 153.661 140.684 153.651 140.768 153.642V155C140.637 155.019 140.492 155.037 140.334 155.056C140.175 155.075 140.035 155.084 139.914 155.084ZM143.811 155.168C143.298 155.168 142.845 155.079 142.453 154.902C142.07 154.715 141.772 154.463 141.557 154.146C141.342 153.819 141.235 153.437 141.235 152.998C141.235 152.587 141.324 152.219 141.501 151.892C141.688 151.565 141.972 151.29 142.355 151.066C142.738 150.842 143.218 150.683 143.797 150.59L146.429 150.156V151.402L144.105 151.808C143.685 151.883 143.377 152.018 143.181 152.214C142.985 152.401 142.887 152.643 142.887 152.942C142.887 153.231 142.994 153.469 143.209 153.656C143.433 153.833 143.718 153.922 144.063 153.922C144.492 153.922 144.866 153.829 145.183 153.642C145.51 153.455 145.762 153.208 145.939 152.9C146.116 152.583 146.205 152.233 146.205 151.85V149.904C146.205 149.531 146.065 149.227 145.785 148.994C145.514 148.751 145.15 148.63 144.693 148.63C144.273 148.63 143.904 148.742 143.587 148.966C143.279 149.181 143.05 149.461 142.901 149.806L141.585 149.148C141.725 148.775 141.954 148.448 142.271 148.168C142.588 147.879 142.957 147.655 143.377 147.496C143.806 147.337 144.259 147.258 144.735 147.258C145.332 147.258 145.86 147.37 146.317 147.594C146.784 147.818 147.143 148.131 147.395 148.532C147.656 148.924 147.787 149.381 147.787 149.904V155H146.275V153.628L146.597 153.67C146.42 153.978 146.191 154.244 145.911 154.468C145.64 154.692 145.328 154.865 144.973 154.986C144.628 155.107 144.24 155.168 143.811 155.168ZM151.737 155.168C150.962 155.168 150.281 154.977 149.693 154.594C149.114 154.211 148.708 153.698 148.475 153.054L149.693 152.48C149.898 152.909 150.178 153.25 150.533 153.502C150.897 153.754 151.298 153.88 151.737 153.88C152.11 153.88 152.414 153.796 152.647 153.628C152.88 153.46 152.997 153.231 152.997 152.942C152.997 152.755 152.946 152.606 152.843 152.494C152.74 152.373 152.61 152.275 152.451 152.2C152.302 152.125 152.148 152.069 151.989 152.032L150.799 151.696C150.146 151.509 149.656 151.229 149.329 150.856C149.012 150.473 148.853 150.03 148.853 149.526C148.853 149.069 148.97 148.672 149.203 148.336C149.436 147.991 149.758 147.725 150.169 147.538C150.58 147.351 151.042 147.258 151.555 147.258C152.246 147.258 152.862 147.431 153.403 147.776C153.944 148.112 154.327 148.583 154.551 149.19L153.333 149.764C153.184 149.4 152.946 149.111 152.619 148.896C152.302 148.681 151.942 148.574 151.541 148.574C151.196 148.574 150.92 148.658 150.715 148.826C150.51 148.985 150.407 149.195 150.407 149.456C150.407 149.633 150.454 149.783 150.547 149.904C150.64 150.016 150.762 150.109 150.911 150.184C151.06 150.249 151.214 150.305 151.373 150.352L152.605 150.716C153.23 150.893 153.711 151.173 154.047 151.556C154.383 151.929 154.551 152.377 154.551 152.9C154.551 153.348 154.43 153.745 154.187 154.09C153.954 154.426 153.627 154.692 153.207 154.888C152.787 155.075 152.297 155.168 151.737 155.168ZM155.401 155V144.402H156.983V151.5L156.367 151.346L160.161 147.426H162.135L159.279 150.464L162.261 155H160.441L157.781 150.982L158.719 150.856L156.479 153.236L156.983 152.186V155H155.401ZM165.444 155.168C164.67 155.168 163.988 154.977 163.4 154.594C162.822 154.211 162.416 153.698 162.182 153.054L163.4 152.48C163.606 152.909 163.886 153.25 164.24 153.502C164.604 153.754 165.006 153.88 165.444 153.88C165.818 153.88 166.121 153.796 166.354 153.628C166.588 153.46 166.704 153.231 166.704 152.942C166.704 152.755 166.653 152.606 166.55 152.494C166.448 152.373 166.317 152.275 166.158 152.2C166.009 152.125 165.855 152.069 165.696 152.032L164.506 151.696C163.853 151.509 163.363 151.229 163.036 150.856C162.719 150.473 162.56 150.03 162.56 149.526C162.56 149.069 162.677 148.672 162.91 148.336C163.144 147.991 163.466 147.725 163.876 147.538C164.287 147.351 164.749 147.258 165.262 147.258C165.953 147.258 166.569 147.431 167.11 147.776C167.652 148.112 168.034 148.583 168.258 149.19L167.04 149.764C166.891 149.4 166.653 149.111 166.326 148.896C166.009 148.681 165.65 148.574 165.248 148.574C164.903 148.574 164.628 148.658 164.422 148.826C164.217 148.985 164.114 149.195 164.114 149.456C164.114 149.633 164.161 149.783 164.254 149.904C164.348 150.016 164.469 150.109 164.618 150.184C164.768 150.249 164.922 150.305 165.08 150.352L166.312 150.716C166.938 150.893 167.418 151.173 167.754 151.556C168.09 151.929 168.258 152.377 168.258 152.9C168.258 153.348 168.137 153.745 167.894 154.09C167.661 154.426 167.334 154.692 166.914 154.888C166.494 155.075 166.004 155.168 165.444 155.168ZM169.514 157.058V156.288C169.822 156.213 170.06 156.069 170.228 155.854C170.396 155.649 170.499 155.364 170.536 155H169.794V153.18H171.404V154.37C171.404 155.117 171.246 155.719 170.928 156.176C170.611 156.633 170.14 156.927 169.514 157.058ZM177.017 155.168C176.504 155.168 176.051 155.079 175.659 154.902C175.277 154.715 174.978 154.463 174.763 154.146C174.549 153.819 174.441 153.437 174.441 152.998C174.441 152.587 174.53 152.219 174.707 151.892C174.894 151.565 175.179 151.29 175.561 151.066C175.944 150.842 176.425 150.683 177.003 150.59L179.635 150.156V151.402L177.311 151.808C176.891 151.883 176.583 152.018 176.387 152.214C176.191 152.401 176.093 152.643 176.093 152.942C176.093 153.231 176.201 153.469 176.415 153.656C176.639 153.833 176.924 153.922 177.269 153.922C177.699 153.922 178.072 153.829 178.389 153.642C178.716 153.455 178.968 153.208 179.145 152.9C179.323 152.583 179.411 152.233 179.411 151.85V149.904C179.411 149.531 179.271 149.227 178.991 148.994C178.721 148.751 178.357 148.63 177.899 148.63C177.479 148.63 177.111 148.742 176.793 148.966C176.485 149.181 176.257 149.461 176.107 149.806L174.791 149.148C174.931 148.775 175.16 148.448 175.477 148.168C175.795 147.879 176.163 147.655 176.583 147.496C177.013 147.337 177.465 147.258 177.941 147.258C178.539 147.258 179.066 147.37 179.523 147.594C179.99 147.818 180.349 148.131 180.601 148.532C180.863 148.924 180.993 149.381 180.993 149.904V155H179.481V153.628L179.803 153.67C179.626 153.978 179.397 154.244 179.117 154.468C178.847 154.692 178.534 154.865 178.179 154.986C177.834 155.107 177.447 155.168 177.017 155.168ZM182.143 155V144.402H183.725V155H182.143ZM184.875 155V144.402H186.457V155H184.875ZM191.26 155.168C190.532 155.168 189.865 154.995 189.258 154.65C188.661 154.305 188.185 153.833 187.83 153.236C187.476 152.639 187.298 151.962 187.298 151.206C187.298 150.441 187.476 149.764 187.83 149.176C188.185 148.579 188.661 148.112 189.258 147.776C189.856 147.431 190.523 147.258 191.26 147.258C192.007 147.258 192.674 147.431 193.262 147.776C193.86 148.112 194.331 148.579 194.676 149.176C195.031 149.764 195.208 150.441 195.208 151.206C195.208 151.971 195.031 152.653 194.676 153.25C194.322 153.847 193.846 154.319 193.248 154.664C192.651 155 191.988 155.168 191.26 155.168ZM191.26 153.698C191.708 153.698 192.105 153.591 192.45 153.376C192.796 153.161 193.066 152.867 193.262 152.494C193.468 152.111 193.57 151.682 193.57 151.206C193.57 150.73 193.468 150.305 193.262 149.932C193.066 149.559 192.796 149.265 192.45 149.05C192.105 148.835 191.708 148.728 191.26 148.728C190.822 148.728 190.425 148.835 190.07 149.05C189.725 149.265 189.45 149.559 189.244 149.932C189.048 150.305 188.95 150.73 188.95 151.206C188.95 151.682 189.048 152.111 189.244 152.494C189.45 152.867 189.725 153.161 190.07 153.376C190.425 153.591 190.822 153.698 191.26 153.698ZM197.75 155L195.146 147.426H196.826L198.814 153.46H198.226L200.256 147.426H201.698L203.714 153.46H203.126L205.128 147.426H206.808L204.19 155H202.762L200.718 148.826H201.236L199.192 155H197.75ZM207.193 155V147.426H208.775V155H207.193ZM207.193 146.39V144.57H208.775V146.39H207.193ZM209.924 155V147.426H211.436V148.91L211.254 148.714C211.441 148.238 211.74 147.879 212.15 147.636C212.561 147.384 213.037 147.258 213.578 147.258C214.138 147.258 214.633 147.379 215.062 147.622C215.492 147.865 215.828 148.201 216.07 148.63C216.313 149.059 216.434 149.554 216.434 150.114V155H214.866V150.534C214.866 150.151 214.796 149.829 214.656 149.568C214.516 149.297 214.316 149.092 214.054 148.952C213.802 148.803 213.513 148.728 213.186 148.728C212.86 148.728 212.566 148.803 212.304 148.952C212.052 149.092 211.856 149.297 211.716 149.568C211.576 149.839 211.506 150.161 211.506 150.534V155H209.924ZM221.082 158.08C220.531 158.08 220.022 157.991 219.556 157.814C219.089 157.637 218.688 157.389 218.352 157.072C218.016 156.764 217.764 156.4 217.596 155.98L219.052 155.378C219.182 155.733 219.42 156.027 219.766 156.26C220.12 156.493 220.554 156.61 221.068 156.61C221.469 156.61 221.828 156.531 222.146 156.372C222.463 156.223 222.715 155.999 222.902 155.7C223.088 155.411 223.182 155.061 223.182 154.65V152.942L223.462 153.264C223.2 153.749 222.836 154.118 222.37 154.37C221.912 154.622 221.394 154.748 220.816 154.748C220.116 154.748 219.486 154.585 218.926 154.258C218.366 153.931 217.922 153.483 217.596 152.914C217.278 152.345 217.12 151.705 217.12 150.996C217.12 150.277 217.278 149.638 217.596 149.078C217.922 148.518 218.361 148.075 218.912 147.748C219.462 147.421 220.092 147.258 220.802 147.258C221.38 147.258 221.894 147.384 222.342 147.636C222.799 147.879 223.172 148.233 223.462 148.7L223.252 149.092V147.426H224.75V154.65C224.75 155.303 224.591 155.887 224.274 156.4C223.966 156.923 223.536 157.333 222.986 157.632C222.435 157.931 221.8 158.08 221.082 158.08ZM220.998 153.278C221.418 153.278 221.791 153.18 222.118 152.984C222.444 152.779 222.701 152.508 222.888 152.172C223.084 151.827 223.182 151.439 223.182 151.01C223.182 150.581 223.084 150.193 222.888 149.848C222.692 149.503 222.43 149.232 222.104 149.036C221.777 148.831 221.408 148.728 220.998 148.728C220.568 148.728 220.186 148.831 219.85 149.036C219.514 149.232 219.248 149.503 219.052 149.848C218.865 150.184 218.772 150.571 218.772 151.01C218.772 151.43 218.865 151.813 219.052 152.158C219.248 152.503 219.514 152.779 219.85 152.984C220.186 153.18 220.568 153.278 220.998 153.278ZM227.649 155V144.402H229.231V148.91L228.979 148.714C229.165 148.238 229.464 147.879 229.875 147.636C230.285 147.384 230.761 147.258 231.303 147.258C231.863 147.258 232.357 147.379 232.787 147.622C233.216 147.865 233.552 148.201 233.795 148.63C234.037 149.059 234.159 149.549 234.159 150.1V155H232.591V150.534C232.591 150.151 232.516 149.829 232.367 149.568C232.227 149.297 232.031 149.092 231.779 148.952C231.527 148.803 231.237 148.728 230.911 148.728C230.593 148.728 230.304 148.803 230.043 148.952C229.791 149.092 229.59 149.297 229.441 149.568C229.301 149.839 229.231 150.161 229.231 150.534V155H227.649ZM237.854 155.168C237.284 155.168 236.785 155.042 236.356 154.79C235.926 154.529 235.59 154.169 235.348 153.712C235.114 153.245 234.998 152.709 234.998 152.102V147.426H236.58V151.962C236.58 152.307 236.65 152.611 236.79 152.872C236.93 153.133 237.126 153.339 237.378 153.488C237.63 153.628 237.919 153.698 238.246 153.698C238.582 153.698 238.876 153.623 239.128 153.474C239.38 153.325 239.576 153.115 239.716 152.844C239.865 152.573 239.94 152.256 239.94 151.892V147.426H241.508V155H240.01V153.516L240.178 153.712C240 154.179 239.706 154.538 239.296 154.79C238.885 155.042 238.404 155.168 237.854 155.168ZM242.655 155V147.426H244.167V149.064L243.971 148.812C244.13 148.299 244.419 147.911 244.839 147.65C245.259 147.389 245.74 147.258 246.281 147.258C246.888 147.258 247.424 147.421 247.891 147.748C248.367 148.065 248.684 148.49 248.843 149.022L248.395 149.064C248.619 148.457 248.96 148.005 249.417 147.706C249.884 147.407 250.416 147.258 251.013 147.258C251.536 147.258 252.007 147.379 252.427 147.622C252.856 147.865 253.197 148.201 253.449 148.63C253.701 149.059 253.827 149.549 253.827 150.1V155H252.245V150.534C252.245 150.151 252.175 149.829 252.035 149.568C251.904 149.297 251.718 149.092 251.475 148.952C251.242 148.803 250.966 148.728 250.649 148.728C250.332 148.728 250.052 148.803 249.809 148.952C249.566 149.092 249.375 149.297 249.235 149.568C249.095 149.839 249.025 150.161 249.025 150.534V155H247.457V150.534C247.457 150.151 247.387 149.829 247.247 149.568C247.116 149.297 246.93 149.092 246.687 148.952C246.454 148.803 246.174 148.728 245.847 148.728C245.53 148.728 245.25 148.803 245.007 148.952C244.764 149.092 244.573 149.297 244.433 149.568C244.302 149.839 244.237 150.161 244.237 150.534V155H242.655ZM257.088 155.168C256.575 155.168 256.122 155.079 255.73 154.902C255.347 154.715 255.049 154.463 254.834 154.146C254.619 153.819 254.512 153.437 254.512 152.998C254.512 152.587 254.601 152.219 254.778 151.892C254.965 151.565 255.249 151.29 255.632 151.066C256.015 150.842 256.495 150.683 257.074 150.59L259.706 150.156V151.402L257.382 151.808C256.962 151.883 256.654 152.018 256.458 152.214C256.262 152.401 256.164 152.643 256.164 152.942C256.164 153.231 256.271 153.469 256.486 153.656C256.71 153.833 256.995 153.922 257.34 153.922C257.769 153.922 258.143 153.829 258.46 153.642C258.787 153.455 259.039 153.208 259.216 152.9C259.393 152.583 259.482 152.233 259.482 151.85V149.904C259.482 149.531 259.342 149.227 259.062 148.994C258.791 148.751 258.427 148.63 257.97 148.63C257.55 148.63 257.181 148.742 256.864 148.966C256.556 149.181 256.327 149.461 256.178 149.806L254.862 149.148C255.002 148.775 255.231 148.448 255.548 148.168C255.865 147.879 256.234 147.655 256.654 147.496C257.083 147.337 257.536 147.258 258.012 147.258C258.609 147.258 259.137 147.37 259.594 147.594C260.061 147.818 260.42 148.131 260.672 148.532C260.933 148.924 261.064 149.381 261.064 149.904V155H259.552V153.628L259.874 153.67C259.697 153.978 259.468 154.244 259.188 154.468C258.917 154.692 258.605 154.865 258.25 154.986C257.905 155.107 257.517 155.168 257.088 155.168ZM262.214 155V147.426H263.726V148.91L263.544 148.714C263.731 148.238 264.029 147.879 264.44 147.636C264.851 147.384 265.327 147.258 265.868 147.258C266.428 147.258 266.923 147.379 267.352 147.622C267.781 147.865 268.117 148.201 268.36 148.63C268.603 149.059 268.724 149.554 268.724 150.114V155H267.156V150.534C267.156 150.151 267.086 149.829 266.946 149.568C266.806 149.297 266.605 149.092 266.344 148.952C266.092 148.803 265.803 148.728 265.476 148.728C265.149 148.728 264.855 148.803 264.594 148.952C264.342 149.092 264.146 149.297 264.006 149.568C263.866 149.839 263.796 150.161 263.796 150.534V155H262.214ZM272.517 155.168C271.742 155.168 271.061 154.977 270.473 154.594C269.894 154.211 269.488 153.698 269.255 153.054L270.473 152.48C270.678 152.909 270.958 153.25 271.313 153.502C271.677 153.754 272.078 153.88 272.517 153.88C272.89 153.88 273.194 153.796 273.427 153.628C273.66 153.46 273.777 153.231 273.777 152.942C273.777 152.755 273.726 152.606 273.623 152.494C273.52 152.373 273.39 152.275 273.231 152.2C273.082 152.125 272.928 152.069 272.769 152.032L271.579 151.696C270.926 151.509 270.436 151.229 270.109 150.856C269.792 150.473 269.633 150.03 269.633 149.526C269.633 149.069 269.75 148.672 269.983 148.336C270.216 147.991 270.538 147.725 270.949 147.538C271.36 147.351 271.822 147.258 272.335 147.258C273.026 147.258 273.642 147.431 274.183 147.776C274.724 148.112 275.107 148.583 275.331 149.19L274.113 149.764C273.964 149.4 273.726 149.111 273.399 148.896C273.082 148.681 272.722 148.574 272.321 148.574C271.976 148.574 271.7 148.658 271.495 148.826C271.29 148.985 271.187 149.195 271.187 149.456C271.187 149.633 271.234 149.783 271.327 149.904C271.42 150.016 271.542 150.109 271.691 150.184C271.84 150.249 271.994 150.305 272.153 150.352L273.385 150.716C274.01 150.893 274.491 151.173 274.827 151.556C275.163 151.929 275.331 152.377 275.331 152.9C275.331 153.348 275.21 153.745 274.967 154.09C274.734 154.426 274.407 154.692 273.987 154.888C273.567 155.075 273.077 155.168 272.517 155.168ZM281.204 155.084C280.411 155.084 279.795 154.86 279.356 154.412C278.918 153.964 278.698 153.334 278.698 152.522V148.854H277.368V147.426H277.578C277.933 147.426 278.208 147.323 278.404 147.118C278.6 146.913 278.698 146.633 278.698 146.278V145.69H280.28V147.426H282.002V148.854H280.28V152.452C280.28 152.713 280.322 152.937 280.406 153.124C280.49 153.301 280.626 153.441 280.812 153.544C280.999 153.637 281.242 153.684 281.54 153.684C281.615 153.684 281.699 153.679 281.792 153.67C281.886 153.661 281.974 153.651 282.058 153.642V155C281.928 155.019 281.783 155.037 281.624 155.056C281.466 155.075 281.326 155.084 281.204 155.084ZM286.419 155.168C285.691 155.168 285.024 154.995 284.417 154.65C283.82 154.305 283.344 153.833 282.989 153.236C282.635 152.639 282.457 151.962 282.457 151.206C282.457 150.441 282.635 149.764 282.989 149.176C283.344 148.579 283.82 148.112 284.417 147.776C285.015 147.431 285.682 147.258 286.419 147.258C287.166 147.258 287.833 147.431 288.421 147.776C289.019 148.112 289.49 148.579 289.835 149.176C290.19 149.764 290.367 150.441 290.367 151.206C290.367 151.971 290.19 152.653 289.835 153.25C289.481 153.847 289.005 154.319 288.407 154.664C287.81 155 287.147 155.168 286.419 155.168ZM286.419 153.698C286.867 153.698 287.264 153.591 287.609 153.376C287.955 153.161 288.225 152.867 288.421 152.494C288.627 152.111 288.729 151.682 288.729 151.206C288.729 150.73 288.627 150.305 288.421 149.932C288.225 149.559 287.955 149.265 287.609 149.05C287.264 148.835 286.867 148.728 286.419 148.728C285.981 148.728 285.584 148.835 285.229 149.05C284.884 149.265 284.609 149.559 284.403 149.932C284.207 150.305 284.109 150.73 284.109 151.206C284.109 151.682 284.207 152.111 284.403 152.494C284.609 152.867 284.884 153.161 285.229 153.376C285.584 153.591 285.981 153.698 286.419 153.698ZM293.813 155V148.854H292.413V147.426H293.813V147.034C293.813 146.465 293.93 145.989 294.163 145.606C294.396 145.214 294.718 144.915 295.129 144.71C295.549 144.505 296.03 144.402 296.571 144.402C296.674 144.402 296.79 144.411 296.921 144.43C297.052 144.439 297.159 144.453 297.243 144.472V145.844C297.168 145.825 297.084 145.816 296.991 145.816C296.898 145.807 296.823 145.802 296.767 145.802C296.347 145.802 296.011 145.9 295.759 146.096C295.507 146.283 295.381 146.595 295.381 147.034V147.426H297.117V148.854H295.381V155H293.813ZM301.259 155.168C300.531 155.168 299.864 154.995 299.257 154.65C298.66 154.305 298.184 153.833 297.829 153.236C297.474 152.639 297.297 151.962 297.297 151.206C297.297 150.441 297.474 149.764 297.829 149.176C298.184 148.579 298.66 148.112 299.257 147.776C299.854 147.431 300.522 147.258 301.259 147.258C302.006 147.258 302.673 147.431 303.261 147.776C303.858 148.112 304.33 148.579 304.675 149.176C305.03 149.764 305.207 150.441 305.207 151.206C305.207 151.971 305.03 152.653 304.675 153.25C304.32 153.847 303.844 154.319 303.247 154.664C302.65 155 301.987 155.168 301.259 155.168ZM301.259 153.698C301.707 153.698 302.104 153.591 302.449 153.376C302.794 153.161 303.065 152.867 303.261 152.494C303.466 152.111 303.569 151.682 303.569 151.206C303.569 150.73 303.466 150.305 303.261 149.932C303.065 149.559 302.794 149.265 302.449 149.05C302.104 148.835 301.707 148.728 301.259 148.728C300.82 148.728 300.424 148.835 300.069 149.05C299.724 149.265 299.448 149.559 299.243 149.932C299.047 150.305 298.949 150.73 298.949 151.206C298.949 151.682 299.047 152.111 299.243 152.494C299.448 152.867 299.724 153.161 300.069 153.376C300.424 153.591 300.82 153.698 301.259 153.698ZM309.649 155.168C308.893 155.168 308.221 154.995 307.633 154.65C307.055 154.295 306.593 153.819 306.247 153.222C305.911 152.625 305.743 151.948 305.743 151.192C305.743 150.445 305.911 149.773 306.247 149.176C306.583 148.579 307.045 148.112 307.633 147.776C308.221 147.431 308.893 147.258 309.649 147.258C310.163 147.258 310.643 147.351 311.091 147.538C311.539 147.715 311.927 147.963 312.253 148.28C312.589 148.597 312.837 148.966 312.995 149.386L311.609 150.03C311.451 149.638 311.194 149.325 310.839 149.092C310.494 148.849 310.097 148.728 309.649 148.728C309.22 148.728 308.833 148.835 308.487 149.05C308.151 149.255 307.885 149.549 307.689 149.932C307.493 150.305 307.395 150.73 307.395 151.206C307.395 151.682 307.493 152.111 307.689 152.494C307.885 152.867 308.151 153.161 308.487 153.376C308.833 153.591 309.22 153.698 309.649 153.698C310.107 153.698 310.503 153.581 310.839 153.348C311.185 153.105 311.441 152.783 311.609 152.382L312.995 153.04C312.846 153.441 312.603 153.805 312.267 154.132C311.941 154.449 311.553 154.701 311.105 154.888C310.657 155.075 310.172 155.168 309.649 155.168ZM316.544 155.168C315.974 155.168 315.475 155.042 315.046 154.79C314.616 154.529 314.28 154.169 314.038 153.712C313.804 153.245 313.688 152.709 313.688 152.102V147.426H315.27V151.962C315.27 152.307 315.34 152.611 315.48 152.872C315.62 153.133 315.816 153.339 316.068 153.488C316.32 153.628 316.609 153.698 316.936 153.698C317.272 153.698 317.566 153.623 317.818 153.474C318.07 153.325 318.266 153.115 318.406 152.844C318.555 152.573 318.63 152.256 318.63 151.892V147.426H320.198V155H318.7V153.516L318.868 153.712C318.69 154.179 318.396 154.538 317.986 154.79C317.575 155.042 317.094 155.168 316.544 155.168ZM324.145 155.168C323.37 155.168 322.689 154.977 322.101 154.594C321.522 154.211 321.116 153.698 320.883 153.054L322.101 152.48C322.306 152.909 322.586 153.25 322.941 153.502C323.305 153.754 323.706 153.88 324.145 153.88C324.518 153.88 324.821 153.796 325.055 153.628C325.288 153.46 325.405 153.231 325.405 152.942C325.405 152.755 325.353 152.606 325.251 152.494C325.148 152.373 325.017 152.275 324.859 152.2C324.709 152.125 324.555 152.069 324.397 152.032L323.207 151.696C322.553 151.509 322.063 151.229 321.737 150.856C321.419 150.473 321.261 150.03 321.261 149.526C321.261 149.069 321.377 148.672 321.611 148.336C321.844 147.991 322.166 147.725 322.577 147.538C322.987 147.351 323.449 147.258 323.963 147.258C324.653 147.258 325.269 147.431 325.811 147.776C326.352 148.112 326.735 148.583 326.959 149.19L325.741 149.764C325.591 149.4 325.353 149.111 325.027 148.896C324.709 148.681 324.35 148.574 323.949 148.574C323.603 148.574 323.328 148.658 323.123 148.826C322.917 148.985 322.815 149.195 322.815 149.456C322.815 149.633 322.861 149.783 322.955 149.904C323.048 150.016 323.169 150.109 323.319 150.184C323.468 150.249 323.622 150.305 323.781 150.352L325.013 150.716C325.638 150.893 326.119 151.173 326.455 151.556C326.791 151.929 326.959 152.377 326.959 152.9C326.959 153.348 326.837 153.745 326.595 154.09C326.361 154.426 326.035 154.692 325.615 154.888C325.195 155.075 324.705 155.168 324.145 155.168ZM333.21 155.168C332.482 155.168 331.815 154.995 331.208 154.65C330.611 154.305 330.135 153.833 329.78 153.236C329.425 152.639 329.248 151.962 329.248 151.206C329.248 150.441 329.425 149.764 329.78 149.176C330.135 148.579 330.611 148.112 331.208 147.776C331.805 147.431 332.473 147.258 333.21 147.258C333.957 147.258 334.624 147.431 335.212 147.776C335.809 148.112 336.281 148.579 336.626 149.176C336.981 149.764 337.158 150.441 337.158 151.206C337.158 151.971 336.981 152.653 336.626 153.25C336.271 153.847 335.795 154.319 335.198 154.664C334.601 155 333.938 155.168 333.21 155.168ZM333.21 153.698C333.658 153.698 334.055 153.591 334.4 153.376C334.745 153.161 335.016 152.867 335.212 152.494C335.417 152.111 335.52 151.682 335.52 151.206C335.52 150.73 335.417 150.305 335.212 149.932C335.016 149.559 334.745 149.265 334.4 149.05C334.055 148.835 333.658 148.728 333.21 148.728C332.771 148.728 332.375 148.835 332.02 149.05C331.675 149.265 331.399 149.559 331.194 149.932C330.998 150.305 330.9 150.73 330.9 151.206C330.9 151.682 330.998 152.111 331.194 152.494C331.399 152.867 331.675 153.161 332.02 153.376C332.375 153.591 332.771 153.698 333.21 153.698ZM338.003 155V147.426H339.515V148.91L339.333 148.714C339.519 148.238 339.818 147.879 340.229 147.636C340.639 147.384 341.115 147.258 341.657 147.258C342.217 147.258 342.711 147.379 343.141 147.622C343.57 147.865 343.906 148.201 344.149 148.63C344.391 149.059 344.513 149.554 344.513 150.114V155H342.945V150.534C342.945 150.151 342.875 149.829 342.735 149.568C342.595 149.297 342.394 149.092 342.133 148.952C341.881 148.803 341.591 148.728 341.265 148.728C340.938 148.728 340.644 148.803 340.383 148.952C340.131 149.092 339.935 149.297 339.795 149.568C339.655 149.839 339.585 150.161 339.585 150.534V155H338.003ZM27.522 176.168C26.766 176.168 26.094 175.995 25.506 175.65C24.9273 175.295 24.4653 174.819 24.12 174.222C23.784 173.625 23.616 172.948 23.616 172.192C23.616 171.445 23.784 170.773 24.12 170.176C24.456 169.579 24.918 169.112 25.506 168.776C26.094 168.431 26.766 168.258 27.522 168.258C28.0353 168.258 28.516 168.351 28.964 168.538C29.412 168.715 29.7993 168.963 30.126 169.28C30.462 169.597 30.7093 169.966 30.868 170.386L29.482 171.03C29.3233 170.638 29.0667 170.325 28.712 170.092C28.3667 169.849 27.97 169.728 27.522 169.728C27.0927 169.728 26.7053 169.835 26.36 170.05C26.024 170.255 25.758 170.549 25.562 170.932C25.366 171.305 25.268 171.73 25.268 172.206C25.268 172.682 25.366 173.111 25.562 173.494C25.758 173.867 26.024 174.161 26.36 174.376C26.7053 174.591 27.0927 174.698 27.522 174.698C27.9793 174.698 28.376 174.581 28.712 174.348C29.0573 174.105 29.314 173.783 29.482 173.382L30.868 174.04C30.7187 174.441 30.476 174.805 30.14 175.132C29.8133 175.449 29.426 175.701 28.978 175.888C28.53 176.075 28.0447 176.168 27.522 176.168ZM35.3682 176.168C34.6402 176.168 33.9729 175.995 33.3662 175.65C32.7689 175.305 32.2929 174.833 31.9382 174.236C31.5836 173.639 31.4062 172.962 31.4062 172.206C31.4062 171.441 31.5836 170.764 31.9382 170.176C32.2929 169.579 32.7689 169.112 33.3662 168.776C33.9636 168.431 34.6309 168.258 35.3682 168.258C36.1149 168.258 36.7822 168.431 37.3702 168.776C37.9676 169.112 38.4389 169.579 38.7842 170.176C39.1389 170.764 39.3162 171.441 39.3162 172.206C39.3162 172.971 39.1389 173.653 38.7842 174.25C38.4296 174.847 37.9536 175.319 37.3562 175.664C36.7589 176 36.0962 176.168 35.3682 176.168ZM35.3682 174.698C35.8162 174.698 36.2129 174.591 36.5582 174.376C36.9036 174.161 37.1742 173.867 37.3702 173.494C37.5756 173.111 37.6782 172.682 37.6782 172.206C37.6782 171.73 37.5756 171.305 37.3702 170.932C37.1742 170.559 36.9036 170.265 36.5582 170.05C36.2129 169.835 35.8162 169.728 35.3682 169.728C34.9296 169.728 34.5329 169.835 34.1782 170.05C33.8329 170.265 33.5576 170.559 33.3522 170.932C33.1562 171.305 33.0582 171.73 33.0582 172.206C33.0582 172.682 33.1562 173.111 33.3522 173.494C33.5576 173.867 33.8329 174.161 34.1782 174.376C34.5329 174.591 34.9296 174.698 35.3682 174.698ZM40.1607 176V168.426H41.6727V170.064L41.4767 169.812C41.6354 169.299 41.9247 168.911 42.3447 168.65C42.7647 168.389 43.2454 168.258 43.7867 168.258C44.3934 168.258 44.9301 168.421 45.3967 168.748C45.8727 169.065 46.1901 169.49 46.3487 170.022L45.9007 170.064C46.1247 169.457 46.4654 169.005 46.9227 168.706C47.3894 168.407 47.9214 168.258 48.5187 168.258C49.0414 168.258 49.5127 168.379 49.9327 168.622C50.3621 168.865 50.7027 169.201 50.9547 169.63C51.2067 170.059 51.3327 170.549 51.3327 171.1V176H49.7507V171.534C49.7507 171.151 49.6807 170.829 49.5407 170.568C49.4101 170.297 49.2234 170.092 48.9807 169.952C48.7474 169.803 48.4721 169.728 48.1547 169.728C47.8374 169.728 47.5574 169.803 47.3147 169.952C47.0721 170.092 46.8807 170.297 46.7407 170.568C46.6007 170.839 46.5307 171.161 46.5307 171.534V176H44.9627V171.534C44.9627 171.151 44.8927 170.829 44.7527 170.568C44.6221 170.297 44.4354 170.092 44.1927 169.952C43.9594 169.803 43.6794 169.728 43.3527 169.728C43.0354 169.728 42.7554 169.803 42.5127 169.952C42.2701 170.092 42.0787 170.297 41.9387 170.568C41.8081 170.839 41.7427 171.161 41.7427 171.534V176H40.1607ZM52.326 178.8V168.426H53.838V169.994L53.656 169.63C53.936 169.201 54.3093 168.865 54.776 168.622C55.2426 168.379 55.7746 168.258 56.372 168.258C57.0906 168.258 57.7346 168.431 58.304 168.776C58.8826 169.121 59.3353 169.593 59.662 170.19C59.998 170.787 60.166 171.459 60.166 172.206C60.166 172.953 59.998 173.625 59.662 174.222C59.3353 174.819 58.8873 175.295 58.318 175.65C57.7486 175.995 57.1 176.168 56.372 176.168C55.784 176.168 55.2473 176.047 54.762 175.804C54.286 175.561 53.9173 175.211 53.656 174.754L53.908 174.46V178.8H52.326ZM56.218 174.698C56.666 174.698 57.0626 174.591 57.408 174.376C57.7533 174.161 58.024 173.867 58.22 173.494C58.4253 173.111 58.528 172.682 58.528 172.206C58.528 171.73 58.4253 171.305 58.22 170.932C58.024 170.559 57.7533 170.265 57.408 170.05C57.0626 169.835 56.666 169.728 56.218 169.728C55.7793 169.728 55.3826 169.835 55.028 170.05C54.6826 170.265 54.4073 170.559 54.202 170.932C54.006 171.305 53.908 171.73 53.908 172.206C53.908 172.682 54.006 173.111 54.202 173.494C54.4073 173.867 54.6826 174.161 55.028 174.376C55.3826 174.591 55.7793 174.698 56.218 174.698ZM61.0049 176V165.402H62.5869V176H61.0049ZM67.2925 176.168C66.5365 176.168 65.8645 175.995 65.2765 175.65C64.6978 175.295 64.2452 174.819 63.9185 174.222C63.5918 173.615 63.4285 172.939 63.4285 172.192C63.4285 171.427 63.5918 170.75 63.9185 170.162C64.2545 169.574 64.7025 169.112 65.2625 168.776C65.8225 168.431 66.4572 168.258 67.1665 168.258C67.7358 168.258 68.2445 168.356 68.6925 168.552C69.1405 168.748 69.5185 169.019 69.8265 169.364C70.1345 169.7 70.3678 170.087 70.5265 170.526C70.6945 170.965 70.7785 171.431 70.7785 171.926C70.7785 172.047 70.7738 172.173 70.7645 172.304C70.7552 172.435 70.7365 172.556 70.7085 172.668H64.6745V171.408H69.8125L69.0565 171.982C69.1498 171.525 69.1172 171.119 68.9585 170.764C68.8092 170.4 68.5758 170.115 68.2585 169.91C67.9505 169.695 67.5865 169.588 67.1665 169.588C66.7465 169.588 66.3732 169.695 66.0465 169.91C65.7198 170.115 65.4678 170.414 65.2905 170.806C65.1132 171.189 65.0432 171.655 65.0805 172.206C65.0338 172.719 65.1038 173.167 65.2905 173.55C65.4865 173.933 65.7572 174.231 66.1025 174.446C66.4572 174.661 66.8585 174.768 67.3065 174.768C67.7638 174.768 68.1512 174.665 68.4685 174.46C68.7952 174.255 69.0518 173.989 69.2385 173.662L70.5265 174.292C70.3772 174.647 70.1438 174.969 69.8265 175.258C69.5185 175.538 69.1452 175.762 68.7065 175.93C68.2772 176.089 67.8058 176.168 67.2925 176.168ZM70.7297 176L73.3757 172.206L70.7297 168.426H72.5917L74.7617 171.59H73.8657L76.0357 168.426H77.8977L75.2377 172.206L77.8837 176H76.0217L73.8797 172.822H74.7477L72.5917 176H70.7297ZM78.6839 178.058V177.288C78.9919 177.213 79.2299 177.069 79.3979 176.854C79.5659 176.649 79.6686 176.364 79.7059 176H78.9639V174.18H80.5739V175.37C80.5739 176.117 80.4152 176.719 80.0979 177.176C79.7806 177.633 79.3092 177.927 78.6839 178.058ZM87.5169 176.168C86.7609 176.168 86.0889 175.995 85.5009 175.65C84.9223 175.295 84.4603 174.819 84.1149 174.222C83.7789 173.625 83.6109 172.948 83.6109 172.192C83.6109 171.445 83.7789 170.773 84.1149 170.176C84.4509 169.579 84.9129 169.112 85.5009 168.776C86.0889 168.431 86.7609 168.258 87.5169 168.258C88.0303 168.258 88.5109 168.351 88.9589 168.538C89.4069 168.715 89.7943 168.963 90.1209 169.28C90.4569 169.597 90.7043 169.966 90.8629 170.386L89.4769 171.03C89.3183 170.638 89.0616 170.325 88.7069 170.092C88.3616 169.849 87.9649 169.728 87.5169 169.728C87.0876 169.728 86.7003 169.835 86.3549 170.05C86.0189 170.255 85.7529 170.549 85.5569 170.932C85.3609 171.305 85.2629 171.73 85.2629 172.206C85.2629 172.682 85.3609 173.111 85.5569 173.494C85.7529 173.867 86.0189 174.161 86.3549 174.376C86.7003 174.591 87.0876 174.698 87.5169 174.698C87.9743 174.698 88.3709 174.581 88.7069 174.348C89.0523 174.105 89.3089 173.783 89.4769 173.382L90.8629 174.04C90.7136 174.441 90.4709 174.805 90.1349 175.132C89.8083 175.449 89.4209 175.701 88.9729 175.888C88.5249 176.075 88.0396 176.168 87.5169 176.168ZM91.7092 176V168.426H93.2212V169.952L93.0812 169.728C93.2492 169.233 93.5198 168.879 93.8932 168.664C94.2665 168.44 94.7145 168.328 95.2372 168.328H95.6992V169.77H95.0412C94.5185 169.77 94.0938 169.933 93.7672 170.26C93.4498 170.577 93.2912 171.035 93.2912 171.632V176H91.7092ZM99.6374 176.168C98.8814 176.168 98.2094 175.995 97.6214 175.65C97.0428 175.295 96.5901 174.819 96.2634 174.222C95.9368 173.615 95.7734 172.939 95.7734 172.192C95.7734 171.427 95.9368 170.75 96.2634 170.162C96.5994 169.574 97.0474 169.112 97.6074 168.776C98.1674 168.431 98.8021 168.258 99.5114 168.258C100.081 168.258 100.589 168.356 101.037 168.552C101.485 168.748 101.863 169.019 102.171 169.364C102.479 169.7 102.713 170.087 102.871 170.526C103.039 170.965 103.123 171.431 103.123 171.926C103.123 172.047 103.119 172.173 103.109 172.304C103.1 172.435 103.081 172.556 103.053 172.668H97.0194V171.408H102.157L101.401 171.982C101.495 171.525 101.462 171.119 101.303 170.764C101.154 170.4 100.921 170.115 100.603 169.91C100.295 169.695 99.9314 169.588 99.5114 169.588C99.0914 169.588 98.7181 169.695 98.3914 169.91C98.0648 170.115 97.8128 170.414 97.6354 170.806C97.4581 171.189 97.3881 171.655 97.4254 172.206C97.3788 172.719 97.4488 173.167 97.6354 173.55C97.8314 173.933 98.1021 174.231 98.4474 174.446C98.8021 174.661 99.2034 174.768 99.6514 174.768C100.109 174.768 100.496 174.665 100.813 174.46C101.14 174.255 101.397 173.989 101.583 173.662L102.871 174.292C102.722 174.647 102.489 174.969 102.171 175.258C101.863 175.538 101.49 175.762 101.051 175.93C100.622 176.089 100.151 176.168 99.6374 176.168ZM106.167 176.168C105.654 176.168 105.201 176.079 104.809 175.902C104.426 175.715 104.128 175.463 103.913 175.146C103.698 174.819 103.591 174.437 103.591 173.998C103.591 173.587 103.68 173.219 103.857 172.892C104.044 172.565 104.328 172.29 104.711 172.066C105.094 171.842 105.574 171.683 106.153 171.59L108.785 171.156V172.402L106.461 172.808C106.041 172.883 105.733 173.018 105.537 173.214C105.341 173.401 105.243 173.643 105.243 173.942C105.243 174.231 105.35 174.469 105.565 174.656C105.789 174.833 106.074 174.922 106.419 174.922C106.848 174.922 107.222 174.829 107.539 174.642C107.866 174.455 108.118 174.208 108.295 173.9C108.472 173.583 108.561 173.233 108.561 172.85V170.904C108.561 170.531 108.421 170.227 108.141 169.994C107.87 169.751 107.506 169.63 107.049 169.63C106.629 169.63 106.26 169.742 105.943 169.966C105.635 170.181 105.406 170.461 105.257 170.806L103.941 170.148C104.081 169.775 104.31 169.448 104.627 169.168C104.944 168.879 105.313 168.655 105.733 168.496C106.162 168.337 106.615 168.258 107.091 168.258C107.688 168.258 108.216 168.37 108.673 168.594C109.14 168.818 109.499 169.131 109.751 169.532C110.012 169.924 110.143 170.381 110.143 170.904V176H108.631V174.628L108.953 174.67C108.776 174.978 108.547 175.244 108.267 175.468C107.996 175.692 107.684 175.865 107.329 175.986C106.984 176.107 106.596 176.168 106.167 176.168ZM114.432 176.084C113.639 176.084 113.023 175.86 112.584 175.412C112.145 174.964 111.926 174.334 111.926 173.522V169.854H110.596V168.426H110.806C111.161 168.426 111.436 168.323 111.632 168.118C111.828 167.913 111.926 167.633 111.926 167.278V166.69H113.508V168.426H115.23V169.854H113.508V173.452C113.508 173.713 113.55 173.937 113.634 174.124C113.718 174.301 113.853 174.441 114.04 174.544C114.227 174.637 114.469 174.684 114.768 174.684C114.843 174.684 114.927 174.679 115.02 174.67C115.113 174.661 115.202 174.651 115.286 174.642V176C115.155 176.019 115.011 176.037 114.852 176.056C114.693 176.075 114.553 176.084 114.432 176.084ZM116.13 176V168.426H117.712V176H116.13ZM116.13 167.39V165.57H117.712V167.39H116.13ZM121.06 176L118.092 168.426H119.814L122.096 174.6H121.466L123.748 168.426H125.484L122.502 176H121.06ZM129.278 176.168C128.522 176.168 127.85 175.995 127.262 175.65C126.683 175.295 126.231 174.819 125.904 174.222C125.577 173.615 125.414 172.939 125.414 172.192C125.414 171.427 125.577 170.75 125.904 170.162C126.24 169.574 126.688 169.112 127.248 168.776C127.808 168.431 128.443 168.258 129.152 168.258C129.721 168.258 130.23 168.356 130.678 168.552C131.126 168.748 131.504 169.019 131.812 169.364C132.12 169.7 132.353 170.087 132.512 170.526C132.68 170.965 132.764 171.431 132.764 171.926C132.764 172.047 132.759 172.173 132.75 172.304C132.741 172.435 132.722 172.556 132.694 172.668H126.66V171.408H131.798L131.042 171.982C131.135 171.525 131.103 171.119 130.944 170.764C130.795 170.4 130.561 170.115 130.244 169.91C129.936 169.695 129.572 169.588 129.152 169.588C128.732 169.588 128.359 169.695 128.032 169.91C127.705 170.115 127.453 170.414 127.276 170.806C127.099 171.189 127.029 171.655 127.066 172.206C127.019 172.719 127.089 173.167 127.276 173.55C127.472 173.933 127.743 174.231 128.088 174.446C128.443 174.661 128.844 174.768 129.292 174.768C129.749 174.768 130.137 174.665 130.454 174.46C130.781 174.255 131.037 173.989 131.224 173.662L132.512 174.292C132.363 174.647 132.129 174.969 131.812 175.258C131.504 175.538 131.131 175.762 130.692 175.93C130.263 176.089 129.791 176.168 129.278 176.168ZM138.911 176.168C138.155 176.168 137.483 175.995 136.895 175.65C136.317 175.295 135.864 174.819 135.537 174.222C135.211 173.615 135.047 172.939 135.047 172.192C135.047 171.427 135.211 170.75 135.537 170.162C135.873 169.574 136.321 169.112 136.881 168.776C137.441 168.431 138.076 168.258 138.785 168.258C139.355 168.258 139.863 168.356 140.311 168.552C140.759 168.748 141.137 169.019 141.445 169.364C141.753 169.7 141.987 170.087 142.145 170.526C142.313 170.965 142.397 171.431 142.397 171.926C142.397 172.047 142.393 172.173 142.383 172.304C142.374 172.435 142.355 172.556 142.327 172.668H136.293V171.408H141.431L140.675 171.982C140.769 171.525 140.736 171.119 140.577 170.764C140.428 170.4 140.195 170.115 139.877 169.91C139.569 169.695 139.205 169.588 138.785 169.588C138.365 169.588 137.992 169.695 137.665 169.91C137.339 170.115 137.087 170.414 136.909 170.806C136.732 171.189 136.662 171.655 136.699 172.206C136.653 172.719 136.723 173.167 136.909 173.55C137.105 173.933 137.376 174.231 137.721 174.446C138.076 174.661 138.477 174.768 138.925 174.768C139.383 174.768 139.77 174.665 140.087 174.46C140.414 174.255 140.671 173.989 140.857 173.662L142.145 174.292C141.996 174.647 141.763 174.969 141.445 175.258C141.137 175.538 140.764 175.762 140.325 175.93C139.896 176.089 139.425 176.168 138.911 176.168ZM143.241 176V168.426H144.753V169.91L144.571 169.714C144.758 169.238 145.057 168.879 145.467 168.636C145.878 168.384 146.354 168.258 146.895 168.258C147.455 168.258 147.95 168.379 148.379 168.622C148.809 168.865 149.145 169.201 149.387 169.63C149.63 170.059 149.751 170.554 149.751 171.114V176H148.183V171.534C148.183 171.151 148.113 170.829 147.973 170.568C147.833 170.297 147.633 170.092 147.371 169.952C147.119 169.803 146.83 169.728 146.503 169.728C146.177 169.728 145.883 169.803 145.621 169.952C145.369 170.092 145.173 170.297 145.033 170.568C144.893 170.839 144.823 171.161 144.823 171.534V176H143.241ZM154.244 176.168C153.516 176.168 152.863 175.995 152.284 175.65C151.715 175.295 151.262 174.819 150.926 174.222C150.6 173.625 150.436 172.953 150.436 172.206C150.436 171.459 150.604 170.787 150.94 170.19C151.276 169.593 151.729 169.121 152.298 168.776C152.868 168.431 153.512 168.258 154.23 168.258C154.837 168.258 155.374 168.379 155.84 168.622C156.307 168.865 156.676 169.201 156.946 169.63L156.708 169.994V165.402H158.276V176H156.778V174.46L156.96 174.754C156.699 175.211 156.326 175.561 155.84 175.804C155.355 176.047 154.823 176.168 154.244 176.168ZM154.398 174.698C154.837 174.698 155.229 174.591 155.574 174.376C155.929 174.161 156.204 173.867 156.4 173.494C156.606 173.111 156.708 172.682 156.708 172.206C156.708 171.73 156.606 171.305 156.4 170.932C156.204 170.559 155.929 170.265 155.574 170.05C155.229 169.835 154.837 169.728 154.398 169.728C153.96 169.728 153.563 169.835 153.208 170.05C152.854 170.265 152.578 170.559 152.382 170.932C152.186 171.305 152.088 171.73 152.088 172.206C152.088 172.682 152.186 173.111 152.382 173.494C152.578 173.867 152.849 174.161 153.194 174.376C153.549 174.591 153.95 174.698 154.398 174.698ZM162.979 176.168C162.223 176.168 161.551 175.995 160.963 175.65C160.385 175.295 159.932 174.819 159.605 174.222C159.279 173.615 159.115 172.939 159.115 172.192C159.115 171.427 159.279 170.75 159.605 170.162C159.941 169.574 160.389 169.112 160.949 168.776C161.509 168.431 162.144 168.258 162.853 168.258C163.423 168.258 163.931 168.356 164.379 168.552C164.827 168.748 165.205 169.019 165.513 169.364C165.821 169.7 166.055 170.087 166.213 170.526C166.381 170.965 166.465 171.431 166.465 171.926C166.465 172.047 166.461 172.173 166.451 172.304C166.442 172.435 166.423 172.556 166.395 172.668H160.361V171.408H165.499L164.743 171.982C164.837 171.525 164.804 171.119 164.645 170.764C164.496 170.4 164.263 170.115 163.945 169.91C163.637 169.695 163.273 169.588 162.853 169.588C162.433 169.588 162.06 169.695 161.733 169.91C161.407 170.115 161.155 170.414 160.977 170.806C160.8 171.189 160.73 171.655 160.767 172.206C160.721 172.719 160.791 173.167 160.977 173.55C161.173 173.933 161.444 174.231 161.789 174.446C162.144 174.661 162.545 174.768 162.993 174.768C163.451 174.768 163.838 174.665 164.155 174.46C164.482 174.255 164.739 173.989 164.925 173.662L166.213 174.292C166.064 174.647 165.831 174.969 165.513 175.258C165.205 175.538 164.832 175.762 164.393 175.93C163.964 176.089 163.493 176.168 162.979 176.168ZM169.509 176.168C168.995 176.168 168.543 176.079 168.151 175.902C167.768 175.715 167.469 175.463 167.255 175.146C167.04 174.819 166.933 174.437 166.933 173.998C166.933 173.587 167.021 173.219 167.199 172.892C167.385 172.565 167.67 172.29 168.053 172.066C168.435 171.842 168.916 171.683 169.495 171.59L172.127 171.156V172.402L169.803 172.808C169.383 172.883 169.075 173.018 168.879 173.214C168.683 173.401 168.585 173.643 168.585 173.942C168.585 174.231 168.692 174.469 168.907 174.656C169.131 174.833 169.415 174.922 169.761 174.922C170.19 174.922 170.563 174.829 170.881 174.642C171.207 174.455 171.459 174.208 171.637 173.9C171.814 173.583 171.903 173.233 171.903 172.85V170.904C171.903 170.531 171.763 170.227 171.483 169.994C171.212 169.751 170.848 169.63 170.391 169.63C169.971 169.63 169.602 169.742 169.285 169.966C168.977 170.181 168.748 170.461 168.599 170.806L167.283 170.148C167.423 169.775 167.651 169.448 167.969 169.168C168.286 168.879 168.655 168.655 169.075 168.496C169.504 168.337 169.957 168.258 170.433 168.258C171.03 168.258 171.557 168.37 172.015 168.594C172.481 168.818 172.841 169.131 173.093 169.532C173.354 169.924 173.485 170.381 173.485 170.904V176H171.973V174.628L172.295 174.67C172.117 174.978 171.889 175.244 171.609 175.468C171.338 175.692 171.025 175.865 170.671 175.986C170.325 176.107 169.938 176.168 169.509 176.168ZM176.696 176L173.728 168.426H175.45L177.732 174.6H177.102L179.384 168.426H181.12L178.138 176H176.696ZM185.012 176.168C184.284 176.168 183.617 175.995 183.01 175.65C182.413 175.305 181.937 174.833 181.582 174.236C181.228 173.639 181.05 172.962 181.05 172.206C181.05 171.441 181.228 170.764 181.582 170.176C181.937 169.579 182.413 169.112 183.01 168.776C183.608 168.431 184.275 168.258 185.012 168.258C185.759 168.258 186.426 168.431 187.014 168.776C187.612 169.112 188.083 169.579 188.428 170.176C188.783 170.764 188.96 171.441 188.96 172.206C188.96 172.971 188.783 173.653 188.428 174.25C188.074 174.847 187.598 175.319 187 175.664C186.403 176 185.74 176.168 185.012 176.168ZM185.012 174.698C185.46 174.698 185.857 174.591 186.202 174.376C186.548 174.161 186.818 173.867 187.014 173.494C187.22 173.111 187.322 172.682 187.322 172.206C187.322 171.73 187.22 171.305 187.014 170.932C186.818 170.559 186.548 170.265 186.202 170.05C185.857 169.835 185.46 169.728 185.012 169.728C184.574 169.728 184.177 169.835 183.822 170.05C183.477 170.265 183.202 170.559 182.996 170.932C182.8 171.305 182.702 171.73 182.702 172.206C182.702 172.682 182.8 173.111 182.996 173.494C183.202 173.867 183.477 174.161 183.822 174.376C184.177 174.591 184.574 174.698 185.012 174.698ZM189.805 176V168.426H191.317V169.952L191.177 169.728C191.345 169.233 191.616 168.879 191.989 168.664C192.362 168.44 192.81 168.328 193.333 168.328H193.795V169.77H193.137C192.614 169.77 192.19 169.933 191.863 170.26C191.546 170.577 191.387 171.035 191.387 171.632V176H189.805ZM196.977 176.168C196.202 176.168 195.521 175.977 194.933 175.594C194.354 175.211 193.948 174.698 193.715 174.054L194.933 173.48C195.138 173.909 195.418 174.25 195.773 174.502C196.137 174.754 196.538 174.88 196.977 174.88C197.35 174.88 197.654 174.796 197.887 174.628C198.12 174.46 198.237 174.231 198.237 173.942C198.237 173.755 198.186 173.606 198.083 173.494C197.98 173.373 197.85 173.275 197.691 173.2C197.542 173.125 197.388 173.069 197.229 173.032L196.039 172.696C195.386 172.509 194.896 172.229 194.569 171.856C194.252 171.473 194.093 171.03 194.093 170.526C194.093 170.069 194.21 169.672 194.443 169.336C194.676 168.991 194.998 168.725 195.409 168.538C195.82 168.351 196.282 168.258 196.795 168.258C197.486 168.258 198.102 168.431 198.643 168.776C199.184 169.112 199.567 169.583 199.791 170.19L198.573 170.764C198.424 170.4 198.186 170.111 197.859 169.896C197.542 169.681 197.182 169.574 196.781 169.574C196.436 169.574 196.16 169.658 195.955 169.826C195.75 169.985 195.647 170.195 195.647 170.456C195.647 170.633 195.694 170.783 195.787 170.904C195.88 171.016 196.002 171.109 196.151 171.184C196.3 171.249 196.454 171.305 196.613 171.352L197.845 171.716C198.47 171.893 198.951 172.173 199.287 172.556C199.623 172.929 199.791 173.377 199.791 173.9C199.791 174.348 199.67 174.745 199.427 175.09C199.194 175.426 198.867 175.692 198.447 175.888C198.027 176.075 197.537 176.168 196.977 176.168ZM201.341 176V174.18H202.951V176H201.341Z" fill="#2A3342"/>
<path opacity="0.4" d="M27 46.76V43.24C27 41.16 28.7 39.44 30.8 39.44C34.42 39.44 35.9 36.88 34.08 33.74C33.04 31.94 33.66 29.6 35.48 28.56L38.94 26.58C40.52 25.64 42.56 26.2 43.5 27.78L43.72 28.16C45.52 31.3 48.48 31.3 50.3 28.16L50.52 27.78C51.46 26.2 53.5 25.64 55.08 26.58L58.54 28.56C60.36 29.6 60.98 31.94 59.94 33.74C58.12 36.88 59.6 39.44 63.22 39.44C65.3 39.44 67.02 41.14 67.02 43.24V46.76C67.02 48.84 65.32 50.56 63.22 50.56C59.6 50.56 58.12 53.12 59.94 56.26C60.98 58.08 60.36 60.4 58.54 61.44L55.08 63.42C53.5 64.36 51.46 63.8 50.52 62.22L50.3 61.84C48.5 58.7 45.54 58.7 43.72 61.84L43.5 62.22C42.56 63.8 40.52 64.36 38.94 63.42L35.48 61.44C33.66 60.4 33.04 58.06 34.08 56.26C35.9 53.12 34.42 50.56 30.8 50.56C28.7 50.56 27 48.84 27 46.76Z" fill="#009FA8"/>
<path d="M47 51.5C50.5898 51.5 53.5 48.5898 53.5 45C53.5 41.4101 50.5898 38.5 47 38.5C43.4101 38.5 40.5 41.4101 40.5 45C40.5 48.5898 43.4101 51.5 47 51.5Z" fill="#009FA8"/>
<rect x="22" y="143" width="324" height="15" rx="7.5" fill="#E6EBEF"/>
<rect x="22" y="164" width="183" height="15" rx="7.5" fill="#E6EBEF"/>
</svg>
