<svg width="80" height="80" viewBox="0 0 80 80" fill="none" xmlns="http://www.w3.org/2000/svg">
<rect width="80" height="80" rx="40" fill="#009FA8"/>
<path opacity="0.4" d="M48.0001 23.3333H30.3501C26.4834 23.3333 23.3501 26.4666 23.3501 30.3166V40.6166V40.9333C23.3501 44.7999 26.4834 47.9166 30.3334 47.9166H36.3334C37.2501 47.9166 38.0001 48.6666 38.0001 49.5833V50.9499C38.0001 51.8666 37.2501 52.6166 36.3334 52.6166H32.5834C31.9334 52.6166 31.4001 53.1499 31.4001 53.7999C31.4001 54.4499 31.9334 54.9833 32.5834 54.9833H45.8001C46.4501 54.9833 46.9834 54.4499 46.9834 53.7999C46.9834 53.1499 46.4501 52.6166 45.8001 52.6166H42.0501C41.1334 52.6166 40.3834 51.8666 40.3834 50.9499V49.5833C40.3834 48.6666 41.1334 47.9166 42.0501 47.9166H48.0001C51.8668 47.9166 54.9834 44.7833 54.9834 40.9333V40.6166V30.3166C54.9834 26.4666 51.8501 23.3333 48.0001 23.3333Z" fill="white"/>
<path d="M52.7334 35.8333H43.9167C41.0334 35.8333 39.9834 36.8833 39.9834 39.7999V52.6833C39.9834 55.6166 41.0167 56.6499 43.9167 56.6499H52.7334C55.6167 56.6499 56.6667 55.5999 56.6667 52.6833V39.7999C56.6667 36.8666 55.6334 35.8333 52.7334 35.8333ZM48.3334 53.8666C47.3167 53.8666 46.5001 53.0499 46.5001 52.0333C46.5001 51.0166 47.3167 50.1999 48.3334 50.1999C49.3501 50.1999 50.1667 51.0166 50.1667 52.0333C50.1667 53.0499 49.3501 53.8666 48.3334 53.8666Z" fill="white"/>
<path opacity="0.4" d="M50.1667 52.0333C50.1667 53.0499 49.35 53.8666 48.3333 53.8666C47.3167 53.8666 46.5 53.0499 46.5 52.0333C46.5 51.0166 47.3167 50.2 48.3333 50.2C49.35 50.2 50.1667 51.0333 50.1667 52.0333Z" fill="white"/>
</svg>
