<svg width="80" height="80" viewBox="0 0 80 80" fill="none" xmlns="http://www.w3.org/2000/svg">
<rect width="80" height="80" rx="40" fill="#8F11AE"/>
<path d="M41.9833 47.1499H38.0166V49.5166H41.9833V47.1499Z" fill="white"/>
<path d="M33.2498 24.5166C33.2498 25.1833 32.7164 25.7166 32.0664 25.7166H30.4831C27.6331 25.7166 25.3164 28.0333 25.3164 30.8666V40.6666C23.8998 41.3833 22.9331 42.8499 22.9331 44.5499V30.8666C22.9331 26.7166 26.3164 23.3333 30.4831 23.3333H32.0664C32.7164 23.3333 33.2498 23.8666 33.2498 24.5166Z" fill="white"/>
<path d="M57.0667 30.8666V44.5499C57.0667 42.8499 56.1 41.3833 54.6833 40.6666V30.8666C54.6833 28.0333 52.3667 25.7166 49.5167 25.7166H47.9333C47.2833 25.7166 46.75 25.1833 46.75 24.5166C46.75 23.8666 47.2833 23.3333 47.9333 23.3333H49.5167C53.6833 23.3333 57.0667 26.7166 57.0667 30.8666Z" fill="white"/>
<path opacity="0.4" d="M38.0164 44.55V52.3C38.0164 54.7167 36.0498 56.6667 33.6498 56.6667H27.2998C24.8998 56.6667 22.9331 54.7167 22.9331 52.3V44.55C22.9331 42.85 23.8998 41.3833 25.3164 40.6667C25.9164 40.35 26.5831 40.1833 27.2998 40.1833H33.6498C36.0498 40.1833 38.0164 42.1333 38.0164 44.55Z" fill="white"/>
<path opacity="0.4" d="M57.0667 44.55V52.3C57.0667 54.7167 55.1001 56.6667 52.7001 56.6667H46.3501C43.9501 56.6667 41.9834 54.7167 41.9834 52.3V44.55C41.9834 42.1333 43.9501 40.1833 46.3501 40.1833H52.7001C53.4167 40.1833 54.0834 40.35 54.6834 40.6667C56.1001 41.3833 57.0667 42.85 57.0667 44.55Z" fill="white"/>
</svg>
