<svg width="1240" height="800" viewBox="0 0 1240 800" fill="none" xmlns="http://www.w3.org/2000/svg">
<g clip-path="url(#clip0_25_26)">
<path d="M0 32C0 14.3269 14.3269 0 32 0H1208C1225.67 0 1240 14.3269 1240 32V768C1240 785.673 1225.67 800 1208 800H32C14.3269 800 0 785.673 0 768V32Z" fill="white"/>
<g filter="url(#filter0_f_25_26)">
<circle cx="410" cy="410" r="410" transform="matrix(-1 0 0 1 1953 277)" fill="#0A2540"/>
</g>
<g filter="url(#filter1_f_25_26)">
<ellipse cx="506.5" cy="591.5" rx="506.5" ry="591.5" transform="matrix(-1 0 0 1 1292 263)" fill="#11A5AE"/>
</g>
<g filter="url(#filter2_f_25_26)">
<circle cx="410" cy="410" r="410" transform="matrix(-1 0 0 1 1953 277)" fill="#0A2540"/>
</g>
<g filter="url(#filter3_f_25_26)">
<ellipse cx="506.5" cy="591.5" rx="506.5" ry="591.5" transform="matrix(-1 0 0 1 1292 263)" fill="#11A5AE"/>
</g>
<g filter="url(#filter4_f_25_26)">
<ellipse cx="506.5" cy="591.5" rx="506.5" ry="591.5" transform="matrix(-1 0 0 1 1292 263)" fill="#11A5AE"/>
</g>
<g filter="url(#filter5_f_25_26)">
<ellipse cx="506.5" cy="591.5" rx="506.5" ry="591.5" transform="matrix(-1 0 0 1 1292 263)" fill="#11A5AE"/>
</g>
<g filter="url(#filter6_f_25_26)">
<circle cx="410" cy="410" r="410" transform="matrix(-1 0 0 1 1798 277)" fill="#0A2540"/>
</g>
<g filter="url(#filter7_f_25_26)">
<circle cx="410" cy="410" r="410" transform="matrix(-1 0 0 1 1458 277)" fill="#0A2540"/>
</g>
<path opacity="0.2" fill-rule="evenodd" clip-rule="evenodd" d="M0 901L1236.91 901V897.91L1240 897.91V357.09L1236.91 357.09V354L0 354L0 901ZM1190.52 403.446H1236.91V357.09L1190.52 357.09V403.446ZM1187.43 403.446V357.09H1141.05V403.446H1187.43ZM1187.43 406.537V452.893H1141.05V406.537H1187.43ZM1190.52 452.893V406.537H1236.91V452.893H1190.52ZM1187.43 455.983H1141.05V502.339H1187.43V455.983ZM1190.52 502.339V455.983H1236.91V502.339H1190.52ZM1187.43 505.429H1141.05V551.785H1187.43V505.429ZM1190.52 551.785V505.429H1236.91V551.785H1190.52ZM1187.43 554.876H1141.05V601.232H1187.43V554.876ZM1190.52 601.232V554.876H1236.91V601.232H1190.52ZM1187.43 604.322H1141.05V650.678L1187.43 650.678V604.322ZM1190.52 650.678V604.322H1236.91V650.678H1190.52ZM1187.43 653.768L1141.05 653.768V700.124L1187.43 700.124V653.768ZM1190.52 700.124V653.768H1236.91V700.124H1190.52ZM1187.43 703.215L1141.05 703.215V749.571L1187.43 749.571V703.215ZM1190.52 749.571V703.215H1236.91V749.571H1190.52ZM1187.43 752.661L1141.05 752.661V799.017H1187.43V752.661ZM1190.52 799.017V752.661H1236.91V799.017H1190.52ZM1187.43 802.107H1141.05V848.463H1187.43V802.107ZM1190.52 848.463V802.107H1236.91V848.463H1190.52ZM1190.52 851.554H1236.91V897.91L1190.52 897.91V851.554ZM1187.43 851.554H1141.05V897.91H1187.43V851.554ZM3.09227 897.91H49.4763V851.554H3.09227L3.09227 897.91ZM3.09227 848.463H49.4763L49.4763 802.107H3.09227L3.09227 848.463ZM3.09227 799.017H49.4763V752.661H3.09227L3.09227 799.017ZM3.09227 749.571H49.4763L49.4763 703.215H3.09227L3.09227 749.571ZM3.09227 700.124H49.4763V653.768H3.09227L3.09227 700.124ZM3.09227 650.678H49.4763L49.4763 604.322H3.09227L3.09227 650.678ZM3.09227 601.232H49.4763V554.876H3.09227L3.09227 601.232ZM3.09227 551.785H49.4763V505.429H3.09227L3.09227 551.785ZM3.09227 502.339H49.4763L49.4763 455.983H3.09227L3.09227 502.339ZM3.09227 452.893H49.4763V406.537H3.09227L3.09227 452.893ZM3.09227 403.446H49.4763L49.4763 357.09H3.09227L3.09227 403.446ZM1137.96 357.09H1091.57V403.446H1137.96V357.09ZM1042.09 357.09H1088.48V403.446H1042.09V357.09ZM1042.09 406.537H1088.48V452.893H1042.09V406.537ZM1091.57 452.893V406.537H1137.96V452.893H1091.57ZM1137.96 455.983H1091.57V502.339H1137.96V455.983ZM1088.48 502.339V455.983H1042.09V502.339H1088.48ZM1042.09 505.429H1088.48V551.785H1042.09V505.429ZM1091.57 551.785V505.429H1137.96V551.785H1091.57ZM1137.96 554.876H1091.57V601.232H1137.96V554.876ZM1088.48 601.232V554.876H1042.09V601.232H1088.48ZM1042.09 604.322H1088.48V650.678H1042.09V604.322ZM1091.57 650.678V604.322H1137.96V650.678H1091.57ZM1137.96 653.768H1091.57V700.124H1137.96V653.768ZM1088.48 700.124V653.768H1042.09V700.124H1088.48ZM1042.09 703.215H1088.48V749.571H1042.09V703.215ZM1091.57 749.571V703.215H1137.96V749.571H1091.57ZM1137.96 752.661H1091.57V799.017H1137.96V752.661ZM1088.48 799.017V752.661H1042.09V799.017L1088.48 799.017ZM1042.09 802.107L1088.48 802.107V848.463H1042.09V802.107ZM1091.57 848.463V802.107H1137.96V848.463H1091.57ZM1137.96 851.554H1091.57V897.91H1137.96V851.554ZM1042.09 851.554H1088.48V897.91H1042.09V851.554ZM1039 851.554V897.91H992.618V851.554H1039ZM989.526 851.554V897.91H943.142V851.554L989.526 851.554ZM989.526 848.463L943.142 848.463V802.107H989.526V848.463ZM992.618 848.463V802.107H1039V848.463H992.618ZM992.618 799.017H1039V752.661H992.618V799.017ZM989.526 799.017V752.661H943.142V799.017H989.526ZM989.526 749.571H943.142V703.215H989.526V749.571ZM992.618 749.571V703.215H1039V749.571H992.618ZM992.618 700.124H1039V653.768H992.618V700.124ZM989.526 700.124V653.768H943.142V700.124H989.526ZM989.526 650.678H943.142V604.322H989.526V650.678ZM992.618 650.678V604.322H1039V650.678H992.618ZM992.618 601.232H1039V554.876H992.618V601.232ZM989.526 601.232V554.876H943.142V601.232H989.526ZM989.526 551.785H943.142V505.429H989.526V551.785ZM992.618 551.785V505.429H1039V551.785H992.618ZM992.618 502.339H1039V455.983H992.618V502.339ZM989.526 502.339V455.983H943.142V502.339H989.526ZM989.526 452.893H943.142V406.537H989.526V452.893ZM992.618 452.893V406.537H1039V452.893H992.618ZM992.618 403.446H1039V357.09H992.618V403.446ZM989.526 357.09H943.142V403.446H989.526V357.09ZM940.05 357.09L893.666 357.09V403.446H940.05V357.09ZM844.19 357.09H890.574V403.446H844.19V357.09ZM844.19 406.537H890.574V452.893H844.19V406.537ZM893.666 452.893V406.537H940.05V452.893H893.666ZM940.05 455.983H893.666V502.339H940.05V455.983ZM890.574 502.339V455.983H844.19V502.339H890.574ZM844.19 505.429H890.574V551.785H844.19V505.429ZM893.666 551.785V505.429H940.05V551.785H893.666ZM940.05 554.876H893.666V601.232H940.05V554.876ZM890.574 601.232V554.876H844.19V601.232H890.574ZM844.19 604.322H890.574V650.678H844.19V604.322ZM893.666 650.678V604.322H940.05V650.678H893.666ZM940.05 653.768H893.666V700.124H940.05V653.768ZM890.574 700.124V653.768H844.19V700.124H890.574ZM844.19 703.215H890.574V749.571H844.19V703.215ZM893.666 749.571V703.215H940.05V749.571H893.666ZM940.05 752.661H893.666V799.017H940.05V752.661ZM890.574 799.017V752.661H844.19V799.017H890.574ZM844.19 802.107H890.574V848.463H844.19V802.107ZM893.666 848.463V802.107H940.05V848.463H893.666ZM940.05 851.554H893.666V897.91L940.05 897.91V851.554ZM890.574 897.91V851.554H844.19V897.91H890.574ZM841.097 851.554V897.91H794.713V851.554H841.097ZM791.621 851.554V897.91H745.237V851.554H791.621ZM791.621 848.463H745.237V802.107H791.621V848.463ZM794.713 848.463V802.107H841.097V848.463H794.713ZM794.713 799.017H841.097V752.661H794.713V799.017ZM791.621 799.017V752.661H745.237V799.017H791.621ZM791.621 749.571H745.237V703.215H791.621V749.571ZM794.713 749.571V703.215H841.097V749.571H794.713ZM794.713 700.124H841.097V653.768H794.713V700.124ZM791.621 700.124V653.768H745.237V700.124H791.621ZM791.621 650.678H745.237V604.322H791.621V650.678ZM794.713 650.678V604.322H841.097V650.678H794.713ZM794.713 601.232H841.097V554.876H794.713V601.232ZM791.621 601.232V554.876H745.237V601.232H791.621ZM791.621 551.785H745.237V505.429H791.621V551.785ZM794.713 551.785V505.429H841.097V551.785H794.713ZM794.713 502.339H841.097V455.983H794.713V502.339ZM791.621 502.339V455.983H745.237V502.339H791.621ZM791.621 452.893H745.237V406.537H791.621V452.893ZM794.713 452.893V406.537H841.097V452.893H794.713ZM794.713 403.446H841.097V357.09H794.713V403.446ZM791.621 403.446V357.09H745.237V403.446H791.621ZM742.145 357.09H695.761V403.446H742.145V357.09ZM646.284 357.09H692.668V403.446H646.284V357.09ZM646.284 406.537H692.668V452.893H646.284V406.537ZM695.761 452.893V406.537H742.145V452.893H695.761ZM742.145 455.983H695.761V502.339H742.145V455.983ZM692.668 502.339V455.983H646.284V502.339H692.668ZM646.284 505.429H692.668V551.785H646.284V505.429ZM695.761 551.785V505.429H742.145V551.785H695.761ZM742.145 554.876H695.761V601.232H742.145V554.876ZM692.668 601.232V554.876H646.284V601.232H692.668ZM646.284 604.322H692.668V650.678H646.284V604.322ZM695.761 650.678V604.322H742.145V650.678H695.761ZM742.145 653.768H695.761V700.124H742.145V653.768ZM692.668 700.124V653.768H646.284V700.124H692.668ZM646.284 703.215H692.668V749.571H646.284V703.215ZM695.761 749.571V703.215H742.145V749.571H695.761ZM742.145 752.661H695.761V799.017H742.145V752.661ZM692.668 799.017V752.661H646.284V799.017H692.668ZM646.284 802.107H692.668V848.463H646.284V802.107ZM695.761 848.463V802.107H742.145V848.463H695.761ZM742.145 851.554H695.761V897.91H742.145V851.554ZM692.668 897.91V851.554H646.284V897.91H692.668ZM643.192 851.554V897.91H596.808V851.554H643.192ZM593.716 851.554V897.91H547.332V851.554H593.716ZM593.716 848.463H547.332V802.107H593.716V848.463ZM596.808 848.463V802.107H643.192V848.463H596.808ZM596.808 799.017H643.192V752.661H596.808V799.017ZM593.716 799.017V752.661H547.332V799.017H593.716ZM593.716 749.571H547.332V703.215H593.716V749.571ZM596.808 749.571V703.215H643.192V749.571H596.808ZM596.808 700.124H643.192V653.768H596.808V700.124ZM593.716 700.124V653.768H547.332V700.124H593.716ZM593.716 650.678H547.332V604.322H593.716V650.678ZM596.808 650.678V604.322H643.192V650.678H596.808ZM596.808 601.232H643.192V554.876H596.808V601.232ZM593.716 601.232V554.876H547.332V601.232H593.716ZM593.716 551.785H547.332V505.429H593.716V551.785ZM596.808 551.785V505.429H643.192V551.785H596.808ZM596.808 502.339H643.192V455.983H596.808V502.339ZM593.716 502.339V455.983H547.332V502.339H593.716ZM593.716 452.893H547.332V406.537H593.716V452.893ZM596.808 452.893V406.537H643.192V452.893H596.808ZM596.808 403.446H643.192V357.09H596.808V403.446ZM593.716 403.446V357.09H547.332V403.446H593.716ZM544.239 357.09H497.855V403.446H544.239V357.09ZM448.379 357.09H494.763V403.446L448.379 403.446V357.09ZM448.379 406.537L494.763 406.537L494.763 452.893L448.379 452.893L448.379 406.537ZM497.855 452.893L497.855 406.537H544.239V452.893H497.855ZM544.239 455.983H497.855V502.339H544.239V455.983ZM494.763 502.339V455.983L448.379 455.983V502.339L494.763 502.339ZM448.379 505.429L494.763 505.429V551.785H448.379V505.429ZM497.855 551.785V505.429H544.239V551.785H497.855ZM544.239 554.876H497.855V601.232H544.239V554.876ZM494.763 601.232V554.876H448.379V601.232H494.763ZM448.379 604.322H494.763V650.678H448.379V604.322ZM497.855 650.678V604.322H544.239V650.678H497.855ZM544.239 653.768H497.855V700.124H544.239V653.768ZM494.763 700.124V653.768H448.379V700.124H494.763ZM448.379 703.215H494.763V749.571H448.379V703.215ZM497.855 749.571V703.215H544.239V749.571H497.855ZM544.239 752.661H497.855V799.017H544.239V752.661ZM494.763 799.017V752.661H448.379V799.017H494.763ZM448.379 802.107H494.763V848.463H448.379V802.107ZM497.855 848.463V802.107H544.239V848.463H497.855ZM544.239 851.554H497.855V897.91H544.239V851.554ZM494.763 897.91V851.554H448.379V897.91H494.763ZM445.287 851.554V897.91H398.903V851.554H445.287ZM395.81 851.554V897.91H349.426V851.554H395.81ZM395.81 848.463H349.426V802.107H395.81V848.463ZM398.903 848.463V802.107H445.287V848.463H398.903ZM398.903 799.017H445.287V752.661H398.903V799.017ZM395.81 799.017V752.661H349.426V799.017H395.81ZM395.81 749.571H349.426V703.215H395.81V749.571ZM398.903 749.571V703.215H445.287V749.571H398.903ZM398.903 700.124H445.287V653.768H398.903V700.124ZM395.81 700.124V653.768H349.426V700.124H395.81ZM395.81 650.678H349.426V604.322H395.81V650.678ZM398.903 650.678V604.322H445.287V650.678H398.903ZM398.903 601.232H445.287V554.876H398.903V601.232ZM395.81 601.232V554.876H349.426V601.232H395.81ZM395.81 551.785H349.426V505.429H395.81V551.785ZM398.903 551.785V505.429H445.287V551.785H398.903ZM398.903 502.339H445.287V455.983H398.903V502.339ZM395.81 502.339V455.983H349.426V502.339H395.81ZM395.81 452.893H349.426L349.426 406.537H395.81L395.81 452.893ZM398.903 452.893L398.903 406.537H445.287L445.287 452.893H398.903ZM398.903 403.446H445.287V357.09H398.903V403.446ZM395.81 403.446V357.09H349.426V403.446H395.81ZM346.334 357.09H299.95V403.446H346.334V357.09ZM250.474 357.09H296.858V403.446H250.474V357.09ZM250.474 406.537H296.858L296.858 452.893H250.474V406.537ZM299.95 452.893L299.95 406.537H346.334L346.334 452.893H299.95ZM346.334 455.983H299.95V502.339H346.334V455.983ZM296.858 502.339V455.983H250.474V502.339H296.858ZM250.474 505.429H296.858V551.785H250.474V505.429ZM299.95 551.785V505.429H346.334V551.785H299.95ZM346.334 554.876H299.95V601.232H346.334V554.876ZM296.858 601.232V554.876H250.474V601.232H296.858ZM250.474 604.322H296.858V650.678H250.474V604.322ZM299.95 650.678V604.322H346.334V650.678H299.95ZM346.334 653.768H299.95V700.124H346.334V653.768ZM296.858 700.124V653.768H250.474L250.474 700.124H296.858ZM250.474 703.215H296.858V749.571H250.474V703.215ZM299.95 749.571V703.215H346.334V749.571H299.95ZM346.334 752.661H299.95V799.017H346.334V752.661ZM296.858 799.017V752.661H250.474V799.017H296.858ZM250.474 802.107H296.858V848.463H250.474V802.107ZM299.95 848.463V802.107H346.334V848.463H299.95ZM346.334 851.554H299.95V897.91H346.334V851.554ZM296.858 897.91V851.554H250.474V897.91H296.858ZM247.382 851.554V897.91H200.998V851.554H247.382ZM197.905 851.554V897.91H151.521V851.554H197.905ZM197.905 848.463H151.521V802.107H197.905V848.463ZM200.998 848.463V802.107H247.382V848.463H200.998ZM200.998 799.017H247.382V752.661H200.998V799.017ZM197.905 799.017V752.661H151.521V799.017H197.905ZM197.905 749.571H151.521V703.215H197.905V749.571ZM200.998 749.571V703.215H247.382V749.571H200.998ZM200.998 700.124H247.382L247.382 653.768H200.998L200.998 700.124ZM197.905 700.124L197.905 653.768H151.521L151.521 700.124H197.905ZM197.905 650.678H151.521V604.322H197.905V650.678ZM200.998 650.678V604.322H247.382V650.678H200.998ZM200.998 601.232H247.382V554.876H200.998V601.232ZM197.905 601.232V554.876H151.521V601.232H197.905ZM197.905 551.785H151.521V505.429H197.905V551.785ZM200.998 551.785V505.429H247.382V551.785H200.998ZM200.998 502.339H247.382V455.983H200.998V502.339ZM197.905 502.339V455.983H151.521V502.339H197.905ZM197.905 452.893H151.521V406.537H197.905V452.893ZM200.998 452.893V406.537H247.382V452.893H200.998ZM200.998 403.446H247.382V357.09H200.998V403.446ZM197.905 403.446V357.09H151.521V403.446H197.905ZM148.429 357.09H102.045V403.446H148.429V357.09ZM52.5686 357.09H98.9526V403.446H52.5686L52.5686 357.09ZM52.5686 406.537H98.9526V452.893H52.5686V406.537ZM102.045 452.893V406.537H148.429V452.893H102.045ZM148.429 455.983H102.045V502.339H148.429V455.983ZM98.9526 502.339V455.983H52.5686L52.5686 502.339H98.9526ZM52.5686 505.429H98.9526V551.785H52.5686V505.429ZM102.045 551.785V505.429H148.429V551.785H102.045ZM148.429 554.876H102.045V601.232H148.429V554.876ZM98.9526 601.232V554.876H52.5686V601.232H98.9526ZM52.5686 604.322H98.9526V650.678H52.5686L52.5686 604.322ZM102.045 650.678V604.322H148.429V650.678H102.045ZM148.429 653.768H102.045V700.124H148.429L148.429 653.768ZM98.9526 700.124V653.768H52.5686V700.124H98.9526ZM52.5686 703.215H98.9526V749.571H52.5686L52.5686 703.215ZM102.045 749.571V703.215H148.429V749.571H102.045ZM148.429 752.661H102.045L102.045 799.017H148.429V752.661ZM98.9526 799.017L98.9526 752.661H52.5686V799.017H98.9526ZM52.5686 802.107H98.9526V848.463H52.5686L52.5686 802.107ZM102.045 848.463V802.107H148.429V848.463H102.045ZM148.429 851.554H102.045V897.91H148.429V851.554ZM98.9526 897.91V851.554H52.5686V897.91H98.9526Z" fill="url(#paint0_radial_25_26)"/>
<path opacity="0.2" fill-rule="evenodd" clip-rule="evenodd" d="M0 -150L1236.91 -150V-146.91L1240 -146.91V393.91L1236.91 393.91V397L0 397L0 -150ZM1190.52 347.554H1236.91V393.91L1190.52 393.91V347.554ZM1187.43 347.554V393.91H1141.05V347.554H1187.43ZM1187.43 344.463V298.107H1141.05V344.463H1187.43ZM1190.52 298.107V344.463H1236.91V298.107H1190.52ZM1187.43 295.017H1141.05V248.661H1187.43V295.017ZM1190.52 248.661V295.017H1236.91V248.661H1190.52ZM1187.43 245.571H1141.05V199.215H1187.43V245.571ZM1190.52 199.215V245.571H1236.91V199.215H1190.52ZM1187.43 196.124H1141.05V149.768H1187.43V196.124ZM1190.52 149.768V196.124H1236.91V149.768H1190.52ZM1187.43 146.678H1141.05V100.322L1187.43 100.322V146.678ZM1190.52 100.322V146.678H1236.91V100.322H1190.52ZM1187.43 97.2316L1141.05 97.2316V50.8757L1187.43 50.8757V97.2316ZM1190.52 50.8757V97.2316H1236.91V50.8757H1190.52ZM1187.43 47.7853L1141.05 47.7853V1.42937L1187.43 1.42937V47.7853ZM1190.52 1.42937V47.7853H1236.91V1.42937H1190.52ZM1187.43 -1.66103L1141.05 -1.66103V-48.017H1187.43V-1.66103ZM1190.52 -48.017V-1.66103H1236.91V-48.017H1190.52ZM1187.43 -51.1074H1141.05V-97.4633H1187.43V-51.1074ZM1190.52 -97.4633V-51.1074H1236.91V-97.4633L1190.52 -97.4633ZM1190.52 -100.554L1236.91 -100.554V-146.91L1190.52 -146.91V-100.554ZM1187.43 -100.554H1141.05V-146.91L1187.43 -146.91V-100.554ZM3.09227 -146.91H49.4763V-100.554H3.09227L3.09227 -146.91ZM3.09227 -97.4632H49.4763L49.4763 -51.1073H3.09227L3.09227 -97.4632ZM3.09227 -48.0169H49.4763V-1.66096H3.09227L3.09227 -48.0169ZM3.09227 1.42943H49.4763L49.4763 47.7853H3.09227L3.09227 1.42943ZM3.09227 50.8757H49.4763V97.2317H3.09227L3.09227 50.8757ZM3.09227 100.322H49.4763L49.4763 146.678H3.09227L3.09227 100.322ZM3.09227 149.768H49.4763V196.124H3.09227L3.09227 149.768ZM3.09227 199.215H49.4763V245.571H3.09227L3.09227 199.215ZM3.09227 248.661H49.4763L49.4763 295.017H3.09227L3.09227 248.661ZM3.09227 298.107H49.4763V344.463H3.09227L3.09227 298.107ZM3.09227 347.554H49.4763L49.4763 393.91H3.09227L3.09227 347.554ZM1137.96 393.91H1091.57V347.554H1137.96V393.91ZM1042.09 393.91H1088.48V347.554H1042.09V393.91ZM1042.09 344.463H1088.48V298.107H1042.09V344.463ZM1091.57 298.107V344.463H1137.96V298.107H1091.57ZM1137.96 295.017H1091.57V248.661H1137.96V295.017ZM1088.48 248.661V295.017H1042.09V248.661H1088.48ZM1042.09 245.571H1088.48V199.215H1042.09V245.571ZM1091.57 199.215V245.571H1137.96V199.215H1091.57ZM1137.96 196.124H1091.57V149.768H1137.96V196.124ZM1088.48 149.768V196.124H1042.09V149.768H1088.48ZM1042.09 146.678H1088.48V100.322H1042.09V146.678ZM1091.57 100.322V146.678H1137.96V100.322H1091.57ZM1137.96 97.2316H1091.57V50.8757H1137.96V97.2316ZM1088.48 50.8757V97.2316H1042.09V50.8757H1088.48ZM1042.09 47.7853H1088.48V1.42938H1042.09V47.7853ZM1091.57 1.42938V47.7853H1137.96V1.42938H1091.57ZM1137.96 -1.66101H1091.57V-48.0169H1137.96V-1.66101ZM1088.48 -48.0169V-1.66101H1042.09V-48.0169L1088.48 -48.0169ZM1042.09 -51.1073L1088.48 -51.1073V-97.4633H1042.09V-51.1073ZM1091.57 -97.4633V-51.1073H1137.96V-97.4633L1091.57 -97.4633ZM1137.96 -100.554L1091.57 -100.554V-146.91H1137.96V-100.554ZM1042.09 -100.554H1088.48V-146.91H1042.09V-100.554ZM1039 -100.554V-146.91H992.618V-100.554H1039ZM989.526 -100.554V-146.91H943.142V-100.554H989.526ZM989.526 -97.4633H943.142V-51.1073H989.526V-97.4633ZM992.618 -97.4633V-51.1073H1039V-97.4633H992.618ZM992.618 -48.0169H1039V-1.66101H992.618V-48.0169ZM989.526 -48.0169V-1.66101H943.142V-48.0169H989.526ZM989.526 1.42938H943.142V47.7853H989.526V1.42938ZM992.618 1.42938V47.7853H1039V1.42938H992.618ZM992.618 50.8757H1039V97.2316H992.618V50.8757ZM989.526 50.8757V97.2316H943.142V50.8757H989.526ZM989.526 100.322H943.142V146.678H989.526V100.322ZM992.618 100.322V146.678H1039V100.322H992.618ZM992.618 149.768H1039V196.124H992.618V149.768ZM989.526 149.768V196.124H943.142V149.768H989.526ZM989.526 199.215H943.142V245.571H989.526V199.215ZM992.618 199.215V245.571H1039V199.215H992.618ZM992.618 248.661H1039V295.017H992.618V248.661ZM989.526 248.661V295.017H943.142V248.661H989.526ZM989.526 298.107H943.142V344.463H989.526V298.107ZM992.618 298.107V344.463H1039V298.107H992.618ZM992.618 347.554H1039V393.91H992.618V347.554ZM989.526 393.91H943.142V347.554H989.526V393.91ZM940.05 393.91L893.666 393.91V347.554H940.05V393.91ZM844.19 393.91H890.574V347.554H844.19V393.91ZM844.19 344.463H890.574V298.107H844.19V344.463ZM893.666 298.107V344.463H940.05V298.107H893.666ZM940.05 295.017H893.666V248.661H940.05V295.017ZM890.574 248.661V295.017H844.19V248.661H890.574ZM844.19 245.571H890.574V199.215H844.19V245.571ZM893.666 199.215V245.571H940.05V199.215H893.666ZM940.05 196.124H893.666V149.768H940.05V196.124ZM890.574 149.768V196.124H844.19V149.768H890.574ZM844.19 146.678H890.574V100.322H844.19V146.678ZM893.666 100.322V146.678H940.05V100.322H893.666ZM940.05 97.2317H893.666V50.8757H940.05V97.2317ZM890.574 50.8757V97.2317H844.19V50.8757H890.574ZM844.19 47.7853H890.574V1.42938H844.19V47.7853ZM893.666 1.42938V47.7853H940.05V1.42938H893.666ZM940.05 -1.66101H893.666V-48.0169H940.05V-1.66101ZM890.574 -48.0169V-1.66101H844.19V-48.0169H890.574ZM844.19 -51.1073H890.574V-97.4633H844.19V-51.1073ZM893.666 -97.4633V-51.1073H940.05V-97.4633H893.666ZM940.05 -100.554H893.666V-146.91H940.05V-100.554ZM890.574 -146.91V-100.554H844.19V-146.91H890.574ZM841.097 -100.554V-146.91H794.713V-100.554H841.097ZM791.621 -100.554V-146.91H745.237V-100.554L791.621 -100.554ZM791.621 -97.4633L745.237 -97.4633V-51.1073H791.621V-97.4633ZM794.713 -97.4633V-51.1073L841.097 -51.1073V-97.4633H794.713ZM794.713 -48.0169L841.097 -48.0169V-1.66101H794.713V-48.0169ZM791.621 -48.0169V-1.66101H745.237V-48.0169H791.621ZM791.621 1.42938H745.237V47.7853H791.621V1.42938ZM794.713 1.42938V47.7853H841.097V1.42938H794.713ZM794.713 50.8757H841.097V97.2317H794.713V50.8757ZM791.621 50.8757V97.2317H745.237V50.8757H791.621ZM791.621 100.322H745.237V146.678H791.621V100.322ZM794.713 100.322V146.678H841.097V100.322H794.713ZM794.713 149.768H841.097V196.124H794.713V149.768ZM791.621 149.768V196.124H745.237V149.768H791.621ZM791.621 199.215H745.237V245.571H791.621V199.215ZM794.713 199.215V245.571H841.097V199.215H794.713ZM794.713 248.661H841.097V295.017H794.713V248.661ZM791.621 248.661V295.017H745.237V248.661H791.621ZM791.621 298.107H745.237V344.463H791.621V298.107ZM794.713 298.107V344.463H841.097V298.107H794.713ZM794.713 347.554H841.097V393.91H794.713V347.554ZM791.621 347.554V393.91H745.237V347.554H791.621ZM742.145 393.91H695.761V347.554H742.145V393.91ZM646.284 393.91H692.668V347.554H646.284V393.91ZM646.284 344.463H692.668V298.107H646.284V344.463ZM695.761 298.107V344.463H742.145V298.107H695.761ZM742.145 295.017H695.761V248.661H742.145V295.017ZM692.668 248.661V295.017H646.284V248.661H692.668ZM646.284 245.571H692.668V199.215H646.284V245.571ZM695.761 199.215V245.571H742.145V199.215H695.761ZM742.145 196.124H695.761V149.768H742.145V196.124ZM692.668 149.768V196.124H646.284V149.768H692.668ZM646.284 146.678H692.668V100.322H646.284V146.678ZM695.761 100.322V146.678H742.145V100.322L695.761 100.322ZM742.145 97.2317L695.761 97.2317V50.8757L742.145 50.8757V97.2317ZM692.668 50.8757V97.2317H646.284V50.8757H692.668ZM646.284 47.7853H692.668V1.4294H646.284V47.7853ZM695.761 1.4294V47.7853L742.145 47.7853V1.4294L695.761 1.4294ZM742.145 -1.661L695.761 -1.661V-48.0169H742.145V-1.661ZM692.668 -48.0169V-1.661H646.284V-48.0169H692.668ZM646.284 -51.1073H692.668V-97.4633H646.284V-51.1073ZM695.761 -97.4633V-51.1073H742.145V-97.4633H695.761ZM742.145 -100.554H695.761V-146.91H742.145V-100.554ZM692.668 -146.91V-100.554H646.284V-146.91L692.668 -146.91ZM643.192 -100.554V-146.91H596.808V-100.554L643.192 -100.554ZM593.716 -100.554V-146.91H547.332V-100.554H593.716ZM593.716 -97.4633H547.332V-51.1073L593.716 -51.1073V-97.4633ZM596.808 -97.4633V-51.1073H643.192V-97.4633L596.808 -97.4633ZM596.808 -48.0169H643.192V-1.661H596.808V-48.0169ZM593.716 -48.0169V-1.661H547.332V-48.0169L593.716 -48.0169ZM593.716 1.4294H547.332V47.7853H593.716V1.4294ZM596.808 1.4294V47.7853H643.192V1.4294H596.808ZM596.808 50.8757H643.192V97.2317H596.808V50.8757ZM593.716 50.8757V97.2317H547.332V50.8757H593.716ZM593.716 100.322H547.332V146.678H593.716V100.322ZM596.808 100.322V146.678H643.192V100.322H596.808ZM596.808 149.768H643.192V196.124H596.808V149.768ZM593.716 149.768V196.124H547.332V149.768H593.716ZM593.716 199.215H547.332V245.571H593.716V199.215ZM596.808 199.215V245.571H643.192V199.215H596.808ZM596.808 248.661H643.192V295.017H596.808V248.661ZM593.716 248.661V295.017H547.332V248.661H593.716ZM593.716 298.107H547.332V344.463H593.716V298.107ZM596.808 298.107V344.463H643.192V298.107H596.808ZM596.808 347.554H643.192V393.91H596.808V347.554ZM593.716 347.554V393.91H547.332V347.554H593.716ZM544.239 393.91H497.855V347.554H544.239V393.91ZM448.379 393.91H494.763V347.554L448.379 347.554V393.91ZM448.379 344.463L494.763 344.463L494.763 298.107L448.379 298.107L448.379 344.463ZM497.855 298.107L497.855 344.463H544.239V298.107H497.855ZM544.239 295.017H497.855V248.661H544.239V295.017ZM494.763 248.661V295.017L448.379 295.017V248.661L494.763 248.661ZM448.379 245.571L494.763 245.571V199.215L448.379 199.215V245.571ZM497.855 199.215V245.571H544.239V199.215H497.855ZM544.239 196.124H497.855V149.768H544.239V196.124ZM494.763 149.768V196.124L448.379 196.124V149.768L494.763 149.768ZM448.379 146.678L494.763 146.678V100.322H448.379V146.678ZM497.855 100.322V146.678H544.239V100.322H497.855ZM544.239 97.2317H497.855V50.8757H544.239V97.2317ZM494.763 50.8757V97.2317H448.379V50.8757H494.763ZM448.379 47.7853H494.763V1.42941H448.379V47.7853ZM497.855 1.42941V47.7853H544.239V1.42941H497.855ZM544.239 -1.66098H497.855V-48.0169H544.239V-1.66098ZM494.763 -48.0169V-1.66098H448.379V-48.0169H494.763ZM448.379 -51.1073H494.763V-97.4633H448.379V-51.1073ZM497.855 -97.4633V-51.1073H544.239V-97.4633H497.855ZM544.239 -100.554H497.855V-146.91H544.239V-100.554ZM494.763 -146.91V-100.554H448.379V-146.91H494.763ZM445.287 -100.554V-146.91H398.903V-100.554H445.287ZM395.81 -100.554V-146.91H349.426V-100.554H395.81ZM395.81 -97.4632H349.426V-51.1073H395.81V-97.4632ZM398.903 -97.4633V-51.1073H445.287V-97.4633H398.903ZM398.903 -48.0169H445.287V-1.66098H398.903V-48.0169ZM395.81 -48.0169V-1.66098H349.426V-48.0169H395.81ZM395.81 1.42941H349.426V47.7853H395.81V1.42941ZM398.903 1.42941V47.7853H445.287V1.42941H398.903ZM398.903 50.8757H445.287V97.2317H398.903V50.8757ZM395.81 50.8757V97.2317H349.426V50.8757H395.81ZM395.81 100.322H349.426V146.678H395.81V100.322ZM398.903 100.322V146.678H445.287V100.322H398.903ZM398.903 149.768H445.287V196.124H398.903V149.768ZM395.81 149.768V196.124H349.426V149.768H395.81ZM395.81 199.215H349.426V245.571H395.81V199.215ZM398.903 199.215V245.571H445.287V199.215H398.903ZM398.903 248.661H445.287V295.017H398.903V248.661ZM395.81 248.661V295.017H349.426V248.661H395.81ZM395.81 298.107H349.426L349.426 344.463H395.81L395.81 298.107ZM398.903 298.107L398.903 344.463H445.287L445.287 298.107H398.903ZM398.903 347.554H445.287V393.91H398.903V347.554ZM395.81 347.554V393.91H349.426V347.554H395.81ZM346.334 393.91H299.95V347.554H346.334V393.91ZM250.474 393.91H296.858V347.554H250.474V393.91ZM250.474 344.463H296.858L296.858 298.107H250.474V344.463ZM299.95 298.107L299.95 344.463H346.334L346.334 298.107H299.95ZM346.334 295.017H299.95V248.661H346.334V295.017ZM296.858 248.661V295.017H250.474V248.661H296.858ZM250.474 245.571H296.858V199.215H250.474V245.571ZM299.95 199.215V245.571H346.334V199.215H299.95ZM346.334 196.124H299.95V149.768H346.334V196.124ZM296.858 149.768V196.124H250.474V149.768H296.858ZM250.474 146.678H296.858V100.322H250.474V146.678ZM299.95 100.322V146.678H346.334V100.322H299.95ZM346.334 97.2317H299.95V50.8757H346.334V97.2317ZM296.858 50.8757V97.2317H250.474L250.474 50.8757H296.858ZM250.474 47.7853H296.858V1.42943H250.474V47.7853ZM299.95 1.42943V47.7853H346.334V1.42943H299.95ZM346.334 -1.66096H299.95V-48.0169H346.334V-1.66096ZM296.858 -48.0169V-1.66096H250.474V-48.0169H296.858ZM250.474 -51.1073H296.858V-97.4632L250.474 -97.4632V-51.1073ZM299.95 -97.4632V-51.1073H346.334V-97.4632H299.95ZM346.334 -100.554H299.95V-146.91H346.334V-100.554ZM296.858 -146.91V-100.554L250.474 -100.554V-146.91H296.858ZM247.382 -100.554V-146.91L200.998 -146.91V-100.554H247.382ZM197.905 -100.554V-146.91H151.521V-100.554L197.905 -100.554ZM197.905 -97.4632L151.521 -97.4632V-51.1073H197.905V-97.4632ZM200.998 -97.4632V-51.1073H247.382V-97.4632H200.998ZM200.998 -48.0169H247.382V-1.66096L200.998 -1.66096V-48.0169ZM197.905 -48.0169V-1.66096H151.521V-48.0169H197.905ZM197.905 1.42943H151.521V47.7853H197.905V1.42943ZM200.998 1.42943V47.7853L247.382 47.7853V1.42943L200.998 1.42943ZM200.998 50.8757L247.382 50.8757L247.382 97.2317L200.998 97.2317L200.998 50.8757ZM197.905 50.8757L197.905 97.2317H151.521L151.521 50.8757H197.905ZM197.905 100.322H151.521V146.678H197.905V100.322ZM200.998 100.322V146.678H247.382V100.322L200.998 100.322ZM200.998 149.768H247.382V196.124H200.998V149.768ZM197.905 149.768V196.124H151.521V149.768H197.905ZM197.905 199.215H151.521V245.571H197.905V199.215ZM200.998 199.215V245.571H247.382V199.215H200.998ZM200.998 248.661H247.382V295.017H200.998V248.661ZM197.905 248.661V295.017H151.521V248.661H197.905ZM197.905 298.107H151.521V344.463H197.905V298.107ZM200.998 298.107V344.463H247.382V298.107H200.998ZM200.998 347.554H247.382V393.91H200.998V347.554ZM197.905 347.554V393.91H151.521V347.554H197.905ZM148.429 393.91H102.045V347.554H148.429V393.91ZM52.5686 393.91H98.9526V347.554H52.5686L52.5686 393.91ZM52.5686 344.463H98.9526V298.107H52.5686V344.463ZM102.045 298.107V344.463H148.429V298.107H102.045ZM148.429 295.017H102.045V248.661H148.429V295.017ZM98.9526 248.661V295.017H52.5686L52.5686 248.661H98.9526ZM52.5686 245.571H98.9526V199.215H52.5686V245.571ZM102.045 199.215V245.571H148.429V199.215H102.045ZM148.429 196.124H102.045V149.768H148.429V196.124ZM98.9526 149.768V196.124H52.5686V149.768H98.9526ZM52.5686 146.678H98.9526V100.322H52.5686L52.5686 146.678ZM102.045 100.322V146.678H148.429V100.322H102.045ZM148.429 97.2317H102.045V50.8757H148.429L148.429 97.2317ZM98.9526 50.8757V97.2317H52.5686V50.8757H98.9526ZM52.5686 47.7853H98.9526V1.42943H52.5686L52.5686 47.7853ZM102.045 1.42943V47.7853H148.429V1.42943H102.045ZM148.429 -1.66096H102.045L102.045 -48.0169L148.429 -48.0169V-1.66096ZM98.9526 -48.0169L98.9526 -1.66096H52.5686V-48.0169H98.9526ZM52.5686 -51.1073H98.9526V-97.4632H52.5686L52.5686 -51.1073ZM102.045 -97.4632V-51.1073L148.429 -51.1073V-97.4632H102.045ZM148.429 -100.554H102.045V-146.91H148.429V-100.554ZM98.9526 -146.91V-100.554H52.5686V-146.91H98.9526Z" fill="url(#paint1_radial_25_26)"/>
</g>
<defs>
<filter id="filter0_f_25_26" x="513" y="-343" width="2060" height="2060" filterUnits="userSpaceOnUse" color-interpolation-filters="sRGB">
<feFlood flood-opacity="0" result="BackgroundImageFix"/>
<feBlend mode="normal" in="SourceGraphic" in2="BackgroundImageFix" result="shape"/>
<feGaussianBlur stdDeviation="310" result="effect1_foregroundBlur_25_26"/>
</filter>
<filter id="filter1_f_25_26" x="-341" y="-357" width="2253" height="2423" filterUnits="userSpaceOnUse" color-interpolation-filters="sRGB">
<feFlood flood-opacity="0" result="BackgroundImageFix"/>
<feBlend mode="normal" in="SourceGraphic" in2="BackgroundImageFix" result="shape"/>
<feGaussianBlur stdDeviation="310" result="effect1_foregroundBlur_25_26"/>
</filter>
<filter id="filter2_f_25_26" x="513" y="-343" width="2060" height="2060" filterUnits="userSpaceOnUse" color-interpolation-filters="sRGB">
<feFlood flood-opacity="0" result="BackgroundImageFix"/>
<feBlend mode="normal" in="SourceGraphic" in2="BackgroundImageFix" result="shape"/>
<feGaussianBlur stdDeviation="310" result="effect1_foregroundBlur_25_26"/>
</filter>
<filter id="filter3_f_25_26" x="-341" y="-357" width="2253" height="2423" filterUnits="userSpaceOnUse" color-interpolation-filters="sRGB">
<feFlood flood-opacity="0" result="BackgroundImageFix"/>
<feBlend mode="normal" in="SourceGraphic" in2="BackgroundImageFix" result="shape"/>
<feGaussianBlur stdDeviation="310" result="effect1_foregroundBlur_25_26"/>
</filter>
<filter id="filter4_f_25_26" x="-341" y="-357" width="2253" height="2423" filterUnits="userSpaceOnUse" color-interpolation-filters="sRGB">
<feFlood flood-opacity="0" result="BackgroundImageFix"/>
<feBlend mode="normal" in="SourceGraphic" in2="BackgroundImageFix" result="shape"/>
<feGaussianBlur stdDeviation="310" result="effect1_foregroundBlur_25_26"/>
</filter>
<filter id="filter5_f_25_26" x="-341" y="-357" width="2253" height="2423" filterUnits="userSpaceOnUse" color-interpolation-filters="sRGB">
<feFlood flood-opacity="0" result="BackgroundImageFix"/>
<feBlend mode="normal" in="SourceGraphic" in2="BackgroundImageFix" result="shape"/>
<feGaussianBlur stdDeviation="310" result="effect1_foregroundBlur_25_26"/>
</filter>
<filter id="filter6_f_25_26" x="358" y="-343" width="2060" height="2060" filterUnits="userSpaceOnUse" color-interpolation-filters="sRGB">
<feFlood flood-opacity="0" result="BackgroundImageFix"/>
<feBlend mode="normal" in="SourceGraphic" in2="BackgroundImageFix" result="shape"/>
<feGaussianBlur stdDeviation="310" result="effect1_foregroundBlur_25_26"/>
</filter>
<filter id="filter7_f_25_26" x="18" y="-343" width="2060" height="2060" filterUnits="userSpaceOnUse" color-interpolation-filters="sRGB">
<feFlood flood-opacity="0" result="BackgroundImageFix"/>
<feBlend mode="normal" in="SourceGraphic" in2="BackgroundImageFix" result="shape"/>
<feGaussianBlur stdDeviation="310" result="effect1_foregroundBlur_25_26"/>
</filter>
<radialGradient id="paint0_radial_25_26" cx="0" cy="0" r="1" gradientUnits="userSpaceOnUse" gradientTransform="translate(618.454 901) rotate(-89.8381) scale(547.002 586.817)">
<stop stop-color="white"/>
<stop offset="1" stop-color="white" stop-opacity="0"/>
</radialGradient>
<radialGradient id="paint1_radial_25_26" cx="0" cy="0" r="1" gradientUnits="userSpaceOnUse" gradientTransform="translate(618.454 -150) rotate(89.8381) scale(547.002 586.817)">
<stop stop-color="white"/>
<stop offset="1" stop-color="white" stop-opacity="0"/>
</radialGradient>
<clipPath id="clip0_25_26">
<path d="M0 32C0 14.3269 14.3269 0 32 0H1208C1225.67 0 1240 14.3269 1240 32V768C1240 785.673 1225.67 800 1208 800H32C14.3269 800 0 785.673 0 768V32Z" fill="white"/>
</clipPath>
</defs>
</svg>
