<svg width="80" height="80" viewBox="0 0 80 80" fill="none" xmlns="http://www.w3.org/2000/svg">
<rect width="80" height="80" rx="40" fill="#009FA8"/>
<path opacity="0.4" d="M54.1666 31.6666V44.9999H30.5833C27.9666 44.9999 25.8333 47.1333 25.8333 49.7499V31.6666C25.8333 24.9999 27.5 23.3333 34.1666 23.3333H45.8333C52.5 23.3333 54.1666 24.9999 54.1666 31.6666Z" fill="white"/>
<path d="M54.1666 45V50.8333C54.1666 54.05 51.55 56.6667 48.3333 56.6667H31.6666C28.45 56.6667 25.8333 54.05 25.8333 50.8333V49.75C25.8333 47.1333 27.9666 45 30.5833 45H54.1666Z" fill="white"/>
<path d="M46.6666 32.9167H33.3333C32.65 32.9167 32.0833 32.3501 32.0833 31.6667C32.0833 30.9834 32.65 30.4167 33.3333 30.4167H46.6666C47.35 30.4167 47.9166 30.9834 47.9166 31.6667C47.9166 32.3501 47.35 32.9167 46.6666 32.9167Z" fill="white"/>
<path d="M41.6666 38.75H33.3333C32.65 38.75 32.0833 38.1833 32.0833 37.5C32.0833 36.8167 32.65 36.25 33.3333 36.25H41.6666C42.35 36.25 42.9166 36.8167 42.9166 37.5C42.9166 38.1833 42.35 38.75 41.6666 38.75Z" fill="white"/>
</svg>
