<svg width="80" height="80" viewBox="0 0 80 80" fill="none" xmlns="http://www.w3.org/2000/svg">
<rect width="80" height="80" rx="40" fill="#0089C3"/>
<path opacity="0.4" d="M49.2167 32.9499C49.1001 32.9333 48.9834 32.9333 48.8667 32.9499C46.2834 32.8666 44.2334 30.7499 44.2334 28.1499C44.2334 25.4999 46.3834 23.3333 49.0501 23.3333C51.7001 23.3333 53.8667 25.4833 53.8667 28.1499C53.8501 30.7499 51.8001 32.8666 49.2167 32.9499Z" fill="white"/>
<path opacity="0.4" d="M54.6501 44.4999C52.7834 45.7499 50.1668 46.2166 47.7501 45.8999C48.3834 44.5333 48.7168 43.0166 48.7334 41.4166C48.7334 39.7499 48.3667 38.1666 47.6667 36.7833C50.1334 36.4499 52.7501 36.9166 54.6334 38.1666C57.2667 39.8999 57.2668 42.7499 54.6501 44.4999Z" fill="white"/>
<path opacity="0.4" d="M30.7332 32.9499C30.8499 32.9333 30.9666 32.9333 31.0833 32.9499C33.6666 32.8666 35.7166 30.7499 35.7166 28.1499C35.7166 25.4999 33.5666 23.3333 30.8999 23.3333C28.2499 23.3333 26.0833 25.4833 26.0833 28.1499C26.0999 30.7499 28.1499 32.8666 30.7332 32.9499Z" fill="white"/>
<path opacity="0.4" d="M30.9166 41.4167C30.9166 43.0333 31.2666 44.5667 31.8999 45.95C29.5499 46.2 27.1 45.7 25.3 44.5167C22.6666 42.7667 22.6666 39.9167 25.3 38.1667C27.0833 36.9667 29.6 36.4833 31.9666 36.75C31.2833 38.15 30.9166 39.7334 30.9166 41.4167Z" fill="white"/>
<path d="M40.2 46.45C40.0667 46.4333 39.9167 46.4333 39.7667 46.45C36.7 46.35 34.25 43.8333 34.25 40.7333C34.25 37.5667 36.8 35 39.9833 35C43.15 35 45.7167 37.5667 45.7167 40.7333C45.7167 43.8333 43.2833 46.35 40.2 46.45Z" fill="white"/>
<path d="M34.7833 49.8999C32.2666 51.5832 32.2666 54.3499 34.7833 56.0166C37.6499 57.9332 42.3499 57.9332 45.2166 56.0166C47.7333 54.3332 47.7333 51.5666 45.2166 49.8999C42.3666 47.9832 37.6666 47.9832 34.7833 49.8999Z" fill="white"/>
</svg>
