<svg width="1920" height="1863" viewBox="0 0 1920 1863" fill="none" xmlns="http://www.w3.org/2000/svg">
<g filter="url(#filter0_f_459_257)">
<circle cx="410" cy="410" r="410" transform="matrix(-1 0 0 1 2219 423)" fill="#0A2540"/>
</g>
<g filter="url(#filter1_f_459_257)">
<ellipse cx="506.5" cy="591.5" rx="506.5" ry="591.5" transform="matrix(-1 0 0 1 1428 9)" fill="#11A5AE"/>
</g>
<g filter="url(#filter2_f_459_257)">
<circle cx="410" cy="410" r="410" transform="matrix(-1 0 0 1 2219 423)" fill="#0A2540"/>
</g>
<g filter="url(#filter3_f_459_257)">
<ellipse cx="506.5" cy="591.5" rx="506.5" ry="591.5" transform="matrix(-1 0 0 1 1428 9)" fill="#11A5AE"/>
</g>
<g filter="url(#filter4_f_459_257)">
<ellipse cx="506.5" cy="591.5" rx="506.5" ry="591.5" transform="matrix(-1 0 0 1 1428 9)" fill="#11A5AE"/>
</g>
<g filter="url(#filter5_f_459_257)">
<ellipse cx="506.5" cy="591.5" rx="506.5" ry="591.5" transform="matrix(-1 0 0 1 1428 9)" fill="#11A5AE"/>
</g>
<g filter="url(#filter6_f_459_257)">
<circle cx="410" cy="410" r="410" transform="matrix(-1 0 0 1 2064 423)" fill="#0A2540"/>
</g>
<g filter="url(#filter7_f_459_257)">
<circle cx="410" cy="410" r="410" transform="matrix(-1 0 0 1 1594 23)" fill="#0A2540"/>
</g>
<g filter="url(#filter8_f_459_257)">
<ellipse cx="865" cy="441" rx="865" ry="441" transform="matrix(-1 0 0 1 1745 -790)" fill="#11A5AE"/>
</g>
<defs>
<filter id="filter0_f_459_257" x="779" y="-197" width="2060" height="2060" filterUnits="userSpaceOnUse" color-interpolation-filters="sRGB">
<feFlood flood-opacity="0" result="BackgroundImageFix"/>
<feBlend mode="normal" in="SourceGraphic" in2="BackgroundImageFix" result="shape"/>
<feGaussianBlur stdDeviation="310" result="effect1_foregroundBlur_459_257"/>
</filter>
<filter id="filter1_f_459_257" x="-205" y="-611" width="2253" height="2423" filterUnits="userSpaceOnUse" color-interpolation-filters="sRGB">
<feFlood flood-opacity="0" result="BackgroundImageFix"/>
<feBlend mode="normal" in="SourceGraphic" in2="BackgroundImageFix" result="shape"/>
<feGaussianBlur stdDeviation="310" result="effect1_foregroundBlur_459_257"/>
</filter>
<filter id="filter2_f_459_257" x="779" y="-197" width="2060" height="2060" filterUnits="userSpaceOnUse" color-interpolation-filters="sRGB">
<feFlood flood-opacity="0" result="BackgroundImageFix"/>
<feBlend mode="normal" in="SourceGraphic" in2="BackgroundImageFix" result="shape"/>
<feGaussianBlur stdDeviation="310" result="effect1_foregroundBlur_459_257"/>
</filter>
<filter id="filter3_f_459_257" x="-205" y="-611" width="2253" height="2423" filterUnits="userSpaceOnUse" color-interpolation-filters="sRGB">
<feFlood flood-opacity="0" result="BackgroundImageFix"/>
<feBlend mode="normal" in="SourceGraphic" in2="BackgroundImageFix" result="shape"/>
<feGaussianBlur stdDeviation="310" result="effect1_foregroundBlur_459_257"/>
</filter>
<filter id="filter4_f_459_257" x="-205" y="-611" width="2253" height="2423" filterUnits="userSpaceOnUse" color-interpolation-filters="sRGB">
<feFlood flood-opacity="0" result="BackgroundImageFix"/>
<feBlend mode="normal" in="SourceGraphic" in2="BackgroundImageFix" result="shape"/>
<feGaussianBlur stdDeviation="310" result="effect1_foregroundBlur_459_257"/>
</filter>
<filter id="filter5_f_459_257" x="-205" y="-611" width="2253" height="2423" filterUnits="userSpaceOnUse" color-interpolation-filters="sRGB">
<feFlood flood-opacity="0" result="BackgroundImageFix"/>
<feBlend mode="normal" in="SourceGraphic" in2="BackgroundImageFix" result="shape"/>
<feGaussianBlur stdDeviation="310" result="effect1_foregroundBlur_459_257"/>
</filter>
<filter id="filter6_f_459_257" x="624" y="-197" width="2060" height="2060" filterUnits="userSpaceOnUse" color-interpolation-filters="sRGB">
<feFlood flood-opacity="0" result="BackgroundImageFix"/>
<feBlend mode="normal" in="SourceGraphic" in2="BackgroundImageFix" result="shape"/>
<feGaussianBlur stdDeviation="310" result="effect1_foregroundBlur_459_257"/>
</filter>
<filter id="filter7_f_459_257" x="154" y="-597" width="2060" height="2060" filterUnits="userSpaceOnUse" color-interpolation-filters="sRGB">
<feFlood flood-opacity="0" result="BackgroundImageFix"/>
<feBlend mode="normal" in="SourceGraphic" in2="BackgroundImageFix" result="shape"/>
<feGaussianBlur stdDeviation="310" result="effect1_foregroundBlur_459_257"/>
</filter>
<filter id="filter8_f_459_257" x="-605" y="-1410" width="2970" height="2122" filterUnits="userSpaceOnUse" color-interpolation-filters="sRGB">
<feFlood flood-opacity="0" result="BackgroundImageFix"/>
<feBlend mode="normal" in="SourceGraphic" in2="BackgroundImageFix" result="shape"/>
<feGaussianBlur stdDeviation="310" result="effect1_foregroundBlur_459_257"/>
</filter>
</defs>
</svg>
