<svg width="35" height="34" viewBox="0 0 35 34" fill="none" xmlns="http://www.w3.org/2000/svg">
<mask id="path-1-outside-1_25_18" maskUnits="userSpaceOnUse" x="0" y="0" width="35" height="34" fill="black">
<rect fill="white" width="35" height="34"/>
<path d="M1 10.3712C2.57924 9.9891 4.14527 9.55253 5.74431 9.25967C6.23005 9.17259 6.72068 9.11478 7.2135 9.08657C7.58767 9.06479 7.76376 8.92326 7.82869 8.54221C8.14233 6.54117 8.43287 4.53468 9.25936 2.6534C9.47065 2.17219 9.64123 1.67356 10.0011 1.27292C10.361 0.872275 10.7153 0.955017 10.8947 1.458C10.9574 1.64814 10.9687 1.85116 10.9277 2.04699C10.5976 3.88255 10.2927 5.72137 9.94828 7.55367C9.74138 8.65217 9.82392 8.80132 10.9641 8.72729C11.8379 8.67068 12.7051 8.49866 13.5789 8.4279C14.2524 8.37346 14.9325 8.39306 15.6104 8.38544C16.4204 8.37673 16.5051 8.31141 16.6009 7.50141C16.8239 5.66631 17.3174 3.87342 18.0657 2.17981C18.2252 1.81509 18.3958 1.458 18.7062 1.17929C18.9516 0.961549 19.1464 0.975702 19.35 1.22066C19.5987 1.51243 19.6284 1.84014 19.5635 2.19288C19.2212 4.04368 18.8855 5.89448 18.5257 7.74528C18.4431 8.16552 18.5202 8.3212 18.9868 8.34298C20.6156 8.4181 22.241 8.52806 23.8665 8.64564C24.3232 8.6783 24.518 8.53677 24.5774 8.06754C24.8338 6.03274 25.2597 4.03932 26.1709 2.17219C26.3382 1.82816 26.4945 1.48304 26.7531 1.19235C27.0117 0.90167 27.2153 0.951751 27.398 1.26639C27.5544 1.51377 27.6099 1.81073 27.5532 2.09707C27.1416 4.19283 26.9193 6.32125 26.4604 8.41157C26.3503 8.89495 26.6728 9.00818 27.0569 9.05064C28.514 9.20116 29.952 9.49735 31.3489 9.93467C32.0433 10.1524 32.7553 10.3353 33.3991 10.6968C33.6336 10.8375 33.8377 11.0224 34 11.2411V11.5677C33.5312 11.8802 33.0602 11.8693 32.5 11.7626C30.759 11.436 29.0004 11.1943 27.2495 10.921C27.1041 10.9073 26.9597 10.8851 26.8169 10.8546C26.3899 10.736 26.1798 10.9221 26.1478 11.326C26.0803 12.1411 26.0249 12.9533 25.9817 13.7626C25.7715 17.2802 25.9894 20.7836 26.3305 24.2849C26.5803 26.8455 26.5858 29.4203 26.6849 31.9897C26.6849 32.0169 26.6497 32.0441 26.5968 32.1192C26.4681 31.8841 26.3844 31.6435 26.2271 31.466C26.0532 31.2711 26.117 31.5107 26.0873 31.5749C26.1423 31.6925 26.1831 31.8024 25.9773 31.7992C25.2751 30.4143 25.0638 28.9054 24.8767 27.3964C24.5323 24.6278 24.1438 21.8636 23.9556 19.0787C23.7895 16.4363 23.8631 13.7845 24.1757 11.1551C24.2219 10.749 24.0954 10.5814 23.708 10.5367C22.033 10.3397 20.347 10.3048 18.6632 10.2439C18.3496 10.233 18.2021 10.4017 18.1702 10.7044C17.8136 14.1882 17.6618 17.6873 18.0338 21.1788C18.376 24.3872 18.7414 27.5891 18.6071 30.8237C18.9098 31.2864 18.5422 31.7469 18.661 32.2488C18.3573 32.2107 18.3067 32.0311 18.2528 31.846C18.2009 31.7567 18.1701 31.6569 18.1625 31.5542C18.1592 31.6357 18.177 31.7166 18.2142 31.7894C18.2484 31.8586 18.2581 31.9372 18.2417 32.0125C18.2098 32.0888 18.1669 32.1475 18.069 32.1214C17.3459 30.7115 17.0785 29.1819 16.8474 27.6381C16.23 23.4611 15.9064 19.2468 15.8789 15.0255C15.8701 13.6613 16.011 12.3124 16.1299 10.9591C16.1882 10.2918 16.1431 10.2068 15.4817 10.246C13.7087 10.3549 11.9358 10.4747 10.1618 10.5726C9.69736 10.5988 9.51577 10.8329 9.48496 11.2542C9.21591 14.7432 9.19494 18.2465 9.42223 21.7384C9.573 23.9431 9.67205 26.152 9.80081 28.3588C9.85583 29.281 9.93397 30.202 9.9901 31.1242C10.0099 31.4562 9.9901 31.7904 9.9901 32.2183C9.62583 31.7502 9.54989 31.2613 9.3474 30.8269C9.28759 30.7791 9.23857 30.7195 9.2035 30.6518C9.16843 30.5841 9.1481 30.5099 9.1438 30.4339C9.11519 30.3838 9.16471 30.3109 9.09758 30.2706C9.12739 30.3526 9.14157 30.4394 9.1394 30.5265C9.12729 30.656 9.1394 30.8052 8.94791 30.8139C8.39765 29.5074 8.21057 28.1161 8.10382 26.7388C7.78687 22.6442 7.40829 18.5496 7.36757 14.4365C7.34359 13.4792 7.38108 12.5214 7.47982 11.5688C7.55796 10.9156 7.50183 10.8916 6.84703 10.933C5.16618 11.0337 3.48065 11.0315 1.80007 10.9265C1.51834 10.9058 1.51834 10.8993 1.44021 10.687C1.471 10.6434 1.50807 10.6045 1.55026 10.5716C1.59648 10.5302 1.60748 10.5171 1.60198 10.552C1.58988 10.6227 1.72194 10.5443 1.66031 10.5672C1.47432 10.516 1.28063 10.5672 1.10455 10.4943C1.07153 10.4806 1.0355 10.4758 1 10.4801V10.3712Z"/>
</mask>
<path d="M1 10.3712C2.57924 9.9891 4.14527 9.55253 5.74431 9.25967C6.23005 9.17259 6.72068 9.11478 7.2135 9.08657C7.58767 9.06479 7.76376 8.92326 7.82869 8.54221C8.14233 6.54117 8.43287 4.53468 9.25936 2.6534C9.47065 2.17219 9.64123 1.67356 10.0011 1.27292C10.361 0.872275 10.7153 0.955017 10.8947 1.458C10.9574 1.64814 10.9687 1.85116 10.9277 2.04699C10.5976 3.88255 10.2927 5.72137 9.94828 7.55367C9.74138 8.65217 9.82392 8.80132 10.9641 8.72729C11.8379 8.67068 12.7051 8.49866 13.5789 8.4279C14.2524 8.37346 14.9325 8.39306 15.6104 8.38544C16.4204 8.37673 16.5051 8.31141 16.6009 7.50141C16.8239 5.66631 17.3174 3.87342 18.0657 2.17981C18.2252 1.81509 18.3958 1.458 18.7062 1.17929C18.9516 0.961549 19.1464 0.975702 19.35 1.22066C19.5987 1.51243 19.6284 1.84014 19.5635 2.19288C19.2212 4.04368 18.8855 5.89448 18.5257 7.74528C18.4431 8.16552 18.5202 8.3212 18.9868 8.34298C20.6156 8.4181 22.241 8.52806 23.8665 8.64564C24.3232 8.6783 24.518 8.53677 24.5774 8.06754C24.8338 6.03274 25.2597 4.03932 26.1709 2.17219C26.3382 1.82816 26.4945 1.48304 26.7531 1.19235C27.0117 0.90167 27.2153 0.951751 27.398 1.26639C27.5544 1.51377 27.6099 1.81073 27.5532 2.09707C27.1416 4.19283 26.9193 6.32125 26.4604 8.41157C26.3503 8.89495 26.6728 9.00818 27.0569 9.05064C28.514 9.20116 29.952 9.49735 31.3489 9.93467C32.0433 10.1524 32.7553 10.3353 33.3991 10.6968C33.6336 10.8375 33.8377 11.0224 34 11.2411V11.5677C33.5312 11.8802 33.0602 11.8693 32.5 11.7626C30.759 11.436 29.0004 11.1943 27.2495 10.921C27.1041 10.9073 26.9597 10.8851 26.8169 10.8546C26.3899 10.736 26.1798 10.9221 26.1478 11.326C26.0803 12.1411 26.0249 12.9533 25.9817 13.7626C25.7715 17.2802 25.9894 20.7836 26.3305 24.2849C26.5803 26.8455 26.5858 29.4203 26.6849 31.9897C26.6849 32.0169 26.6497 32.0441 26.5968 32.1192C26.4681 31.8841 26.3844 31.6435 26.2271 31.466C26.0532 31.2711 26.117 31.5107 26.0873 31.5749C26.1423 31.6925 26.1831 31.8024 25.9773 31.7992C25.2751 30.4143 25.0638 28.9054 24.8767 27.3964C24.5323 24.6278 24.1438 21.8636 23.9556 19.0787C23.7895 16.4363 23.8631 13.7845 24.1757 11.1551C24.2219 10.749 24.0954 10.5814 23.708 10.5367C22.033 10.3397 20.347 10.3048 18.6632 10.2439C18.3496 10.233 18.2021 10.4017 18.1702 10.7044C17.8136 14.1882 17.6618 17.6873 18.0338 21.1788C18.376 24.3872 18.7414 27.5891 18.6071 30.8237C18.9098 31.2864 18.5422 31.7469 18.661 32.2488C18.3573 32.2107 18.3067 32.0311 18.2528 31.846C18.2009 31.7567 18.1701 31.6569 18.1625 31.5542C18.1592 31.6357 18.177 31.7166 18.2142 31.7894C18.2484 31.8586 18.2581 31.9372 18.2417 32.0125C18.2098 32.0888 18.1669 32.1475 18.069 32.1214C17.3459 30.7115 17.0785 29.1819 16.8474 27.6381C16.23 23.4611 15.9064 19.2468 15.8789 15.0255C15.8701 13.6613 16.011 12.3124 16.1299 10.9591C16.1882 10.2918 16.1431 10.2068 15.4817 10.246C13.7087 10.3549 11.9358 10.4747 10.1618 10.5726C9.69736 10.5988 9.51577 10.8329 9.48496 11.2542C9.21591 14.7432 9.19494 18.2465 9.42223 21.7384C9.573 23.9431 9.67205 26.152 9.80081 28.3588C9.85583 29.281 9.93397 30.202 9.9901 31.1242C10.0099 31.4562 9.9901 31.7904 9.9901 32.2183C9.62583 31.7502 9.54989 31.2613 9.3474 30.8269C9.28759 30.7791 9.23857 30.7195 9.2035 30.6518C9.16843 30.5841 9.1481 30.5099 9.1438 30.4339C9.11519 30.3838 9.16471 30.3109 9.09758 30.2706C9.12739 30.3526 9.14157 30.4394 9.1394 30.5265C9.12729 30.656 9.1394 30.8052 8.94791 30.8139C8.39765 29.5074 8.21057 28.1161 8.10382 26.7388C7.78687 22.6442 7.40829 18.5496 7.36757 14.4365C7.34359 13.4792 7.38108 12.5214 7.47982 11.5688C7.55796 10.9156 7.50183 10.8916 6.84703 10.933C5.16618 11.0337 3.48065 11.0315 1.80007 10.9265C1.51834 10.9058 1.51834 10.8993 1.44021 10.687C1.471 10.6434 1.50807 10.6045 1.55026 10.5716C1.59648 10.5302 1.60748 10.5171 1.60198 10.552C1.58988 10.6227 1.72194 10.5443 1.66031 10.5672C1.47432 10.516 1.28063 10.5672 1.10455 10.4943C1.07153 10.4806 1.0355 10.4758 1 10.4801V10.3712Z" fill="#009FA8"/>
<path d="M1 10.3712C2.57924 9.9891 4.14527 9.55253 5.74431 9.25967C6.23005 9.17259 6.72068 9.11478 7.2135 9.08657C7.58767 9.06479 7.76376 8.92326 7.82869 8.54221C8.14233 6.54117 8.43287 4.53468 9.25936 2.6534C9.47065 2.17219 9.64123 1.67356 10.0011 1.27292C10.361 0.872275 10.7153 0.955017 10.8947 1.458C10.9574 1.64814 10.9687 1.85116 10.9277 2.04699C10.5976 3.88255 10.2927 5.72137 9.94828 7.55367C9.74138 8.65217 9.82392 8.80132 10.9641 8.72729C11.8379 8.67068 12.7051 8.49866 13.5789 8.4279C14.2524 8.37346 14.9325 8.39306 15.6104 8.38544C16.4204 8.37673 16.5051 8.31141 16.6009 7.50141C16.8239 5.66631 17.3174 3.87342 18.0657 2.17981C18.2252 1.81509 18.3958 1.458 18.7062 1.17929C18.9516 0.961549 19.1464 0.975702 19.35 1.22066C19.5987 1.51243 19.6284 1.84014 19.5635 2.19288C19.2212 4.04368 18.8855 5.89448 18.5257 7.74528C18.4431 8.16552 18.5202 8.3212 18.9868 8.34298C20.6156 8.4181 22.241 8.52806 23.8665 8.64564C24.3232 8.6783 24.518 8.53677 24.5774 8.06754C24.8338 6.03274 25.2597 4.03932 26.1709 2.17219C26.3382 1.82816 26.4945 1.48304 26.7531 1.19235C27.0117 0.90167 27.2153 0.951751 27.398 1.26639C27.5544 1.51377 27.6099 1.81073 27.5532 2.09707C27.1416 4.19283 26.9193 6.32125 26.4604 8.41157C26.3503 8.89495 26.6728 9.00818 27.0569 9.05064C28.514 9.20116 29.952 9.49735 31.3489 9.93467C32.0433 10.1524 32.7553 10.3353 33.3991 10.6968C33.6336 10.8375 33.8377 11.0224 34 11.2411V11.5677C33.5312 11.8802 33.0602 11.8693 32.5 11.7626C30.759 11.436 29.0004 11.1943 27.2495 10.921C27.1041 10.9073 26.9597 10.8851 26.8169 10.8546C26.3899 10.736 26.1798 10.9221 26.1478 11.326C26.0803 12.1411 26.0249 12.9533 25.9817 13.7626C25.7715 17.2802 25.9894 20.7836 26.3305 24.2849C26.5803 26.8455 26.5858 29.4203 26.6849 31.9897C26.6849 32.0169 26.6497 32.0441 26.5968 32.1192C26.4681 31.8841 26.3844 31.6435 26.2271 31.466C26.0532 31.2711 26.117 31.5107 26.0873 31.5749C26.1423 31.6925 26.1831 31.8024 25.9773 31.7992C25.2751 30.4143 25.0638 28.9054 24.8767 27.3964C24.5323 24.6278 24.1438 21.8636 23.9556 19.0787C23.7895 16.4363 23.8631 13.7845 24.1757 11.1551C24.2219 10.749 24.0954 10.5814 23.708 10.5367C22.033 10.3397 20.347 10.3048 18.6632 10.2439C18.3496 10.233 18.2021 10.4017 18.1702 10.7044C17.8136 14.1882 17.6618 17.6873 18.0338 21.1788C18.376 24.3872 18.7414 27.5891 18.6071 30.8237C18.9098 31.2864 18.5422 31.7469 18.661 32.2488C18.3573 32.2107 18.3067 32.0311 18.2528 31.846C18.2009 31.7567 18.1701 31.6569 18.1625 31.5542C18.1592 31.6357 18.177 31.7166 18.2142 31.7894C18.2484 31.8586 18.2581 31.9372 18.2417 32.0125C18.2098 32.0888 18.1669 32.1475 18.069 32.1214C17.3459 30.7115 17.0785 29.1819 16.8474 27.6381C16.23 23.4611 15.9064 19.2468 15.8789 15.0255C15.8701 13.6613 16.011 12.3124 16.1299 10.9591C16.1882 10.2918 16.1431 10.2068 15.4817 10.246C13.7087 10.3549 11.9358 10.4747 10.1618 10.5726C9.69736 10.5988 9.51577 10.8329 9.48496 11.2542C9.21591 14.7432 9.19494 18.2465 9.42223 21.7384C9.573 23.9431 9.67205 26.152 9.80081 28.3588C9.85583 29.281 9.93397 30.202 9.9901 31.1242C10.0099 31.4562 9.9901 31.7904 9.9901 32.2183C9.62583 31.7502 9.54989 31.2613 9.3474 30.8269C9.28759 30.7791 9.23857 30.7195 9.2035 30.6518C9.16843 30.5841 9.1481 30.5099 9.1438 30.4339C9.11519 30.3838 9.16471 30.3109 9.09758 30.2706C9.12739 30.3526 9.14157 30.4394 9.1394 30.5265C9.12729 30.656 9.1394 30.8052 8.94791 30.8139C8.39765 29.5074 8.21057 28.1161 8.10382 26.7388C7.78687 22.6442 7.40829 18.5496 7.36757 14.4365C7.34359 13.4792 7.38108 12.5214 7.47982 11.5688C7.55796 10.9156 7.50183 10.8916 6.84703 10.933C5.16618 11.0337 3.48065 11.0315 1.80007 10.9265C1.51834 10.9058 1.51834 10.8993 1.44021 10.687C1.471 10.6434 1.50807 10.6045 1.55026 10.5716C1.59648 10.5302 1.60748 10.5171 1.60198 10.552C1.58988 10.6227 1.72194 10.5443 1.66031 10.5672C1.47432 10.516 1.28063 10.5672 1.10455 10.4943C1.07153 10.4806 1.0355 10.4758 1 10.4801V10.3712Z" stroke="#009FA8" mask="url(#path-1-outside-1_25_18)"/>
<path d="M18.0586 32.1246C18.0982 32.0789 18.1378 32.0342 18.1763 31.9885C18.4416 32.0527 18.4053 32.2966 18.4735 32.4784C18.4966 32.6515 18.5483 32.8246 18.4856 32.9999H18.3755C18.3887 32.6689 18.0751 32.449 18.0586 32.1246Z" fill="#009FA8"/>
<path d="M25.9756 31.8002C26.0108 31.725 26.0471 31.651 26.0856 31.5759C26.2188 31.7174 26.2243 31.8905 26.2221 32.0919C26.035 32.0614 26.013 31.9275 25.9756 31.8002Z" fill="#009FA8"/>
<path d="M1.10254 10.4943L1.68691 10.4649C1.68691 10.6554 1.54715 10.6554 1.4382 10.6826L1.10254 10.4943Z" fill="#009FA8"/>
</svg>
