<svg width="64" height="64" viewBox="0 0 64 64" fill="none" xmlns="http://www.w3.org/2000/svg">
<path opacity="0.4" d="M45.3332 54.6666H18.6666C10.6666 54.6666 5.33325 50.6666 5.33325 41.3333V22.6666C5.33325 13.3333 10.6666 9.33325 18.6666 9.33325H45.3332C53.3332 9.33325 58.6666 13.3333 58.6666 22.6666V41.3333C58.6666 50.6666 53.3332 54.6666 45.3332 54.6666Z" fill="#0089C3"/>
<path d="M32 40C36.4183 40 40 36.4183 40 32C40 27.5817 36.4183 24 32 24C27.5817 24 24 27.5817 24 32C24 36.4183 27.5817 40 32 40Z" fill="#0089C3"/>
<path d="M50.6667 20.6667H42.6667C41.5734 20.6667 40.6667 19.7601 40.6667 18.6667C40.6667 17.5734 41.5734 16.6667 42.6667 16.6667H50.6667C51.7601 16.6667 52.6667 17.5734 52.6667 18.6667C52.6667 19.7601 51.7601 20.6667 50.6667 20.6667Z" fill="#0089C3"/>
<path d="M21.3333 47.3333H13.3333C12.2399 47.3333 11.3333 46.4266 11.3333 45.3333C11.3333 44.2399 12.2399 43.3333 13.3333 43.3333H21.3333C22.4266 43.3333 23.3333 44.2399 23.3333 45.3333C23.3333 46.4266 22.4266 47.3333 21.3333 47.3333Z" fill="#0089C3"/>
</svg>
