<svg width="64" height="64" viewBox="0 0 64 64" fill="none" xmlns="http://www.w3.org/2000/svg">
<path d="M33.3867 4H30.72C28.5067 4 26.72 5.78667 26.72 8V10.6667C26.72 12.88 28.5067 14.6667 30.72 14.6667H33.3867C35.6 14.6667 37.3867 12.88 37.3867 10.6667V8C37.3867 5.78667 35.6 4 33.3867 4Z" fill="#2A3342"/>
<path d="M11.3867 28.4534H8.72003C6.5067 28.4534 4.72003 30.24 4.72003 32.4534V35.12C4.72003 37.3334 6.5067 39.12 8.72003 39.12H11.3867C13.6 39.12 15.3867 37.3334 15.3867 35.12V32.4534C15.3867 30.24 13.5734 28.4534 11.3867 28.4534Z" fill="#2A3342"/>
<path d="M55.28 28.4534H52.6133C50.4 28.4534 48.6133 30.24 48.6133 32.4534V35.12C48.6133 37.3334 50.4 39.12 52.6133 39.12H55.28C57.4933 39.12 59.28 37.3334 59.28 35.12V32.4534C59.28 30.24 57.4933 28.4534 55.28 28.4534Z" fill="#2A3342"/>
<path d="M10 31.7868C8.90667 31.7868 8 30.8801 8 29.7868C8 18.4001 16.5333 8.8268 27.84 7.49347C28.9067 7.3868 29.92 8.16006 30.0533 9.2534C30.1867 10.3467 29.3867 11.3334 28.2933 11.4668C19.0133 12.5601 12 20.4268 12 29.7868C12 30.8801 11.0933 31.7868 10 31.7868Z" fill="#2A3342"/>
<path d="M54 31.7866C52.9067 31.7866 52 30.8799 52 29.7866C52 20.4799 45.04 12.6133 35.8133 11.4933C34.72 11.36 33.9467 10.3733 34.08 9.27992C34.2133 8.18659 35.2267 7.41335 36.32 7.54669C47.5467 8.90669 56.0267 18.48 56.0267 29.8133C56 30.88 55.12 31.7866 54 31.7866Z" fill="#2A3342"/>
<path d="M35.44 58.6934H28.5867C26.1334 58.6934 24.32 56.7199 24.7733 54.5866L25.8934 49.6533H38.1334L39.2534 54.5866C39.76 56.8533 38.0533 58.6934 35.44 58.6934Z" fill="#2A3342"/>
<path opacity="0.4" d="M42.8534 45.4665L38.1334 49.6532H25.8934L21.1734 45.4665C18.4267 43.2265 18.4267 41.4932 20.5067 38.8532L28.8267 28.3466C29.4133 27.6266 30.08 27.1199 30.8 26.8799C31.5734 26.6133 32.4267 26.6133 33.2 26.8799C33.92 27.1466 34.5867 27.6266 35.1734 28.3466L43.4933 38.8532C45.5733 41.4932 45.4934 43.1465 42.8534 45.4665Z" fill="#2A3342"/>
</svg>
