<svg width="48" height="48" viewBox="0 0 48 48" fill="none" xmlns="http://www.w3.org/2000/svg">
<path opacity="0.4" d="M35.0601 15.54C34.9201 15.52 34.7801 15.52 34.6401 15.54C31.5401 15.44 29.0801 12.9 29.0801 9.78C29.0801 6.6 31.6601 4 34.8601 4C38.0401 4 40.6401 6.58 40.6401 9.78C40.6201 12.9 38.1601 15.44 35.0601 15.54Z" fill="#009FA8"/>
<path opacity="0.4" d="M41.5802 29.4001C39.3402 30.9001 36.2002 31.46 33.3002 31.08C34.0602 29.44 34.4602 27.6201 34.4802 25.7001C34.4802 23.7001 34.0402 21.8001 33.2002 20.1401C36.1602 19.7401 39.3002 20.3001 41.5602 21.8001C44.7202 23.8801 44.7202 27.3001 41.5802 29.4001Z" fill="#009FA8"/>
<path opacity="0.4" d="M12.8798 15.54C13.0198 15.52 13.1598 15.52 13.2998 15.54C16.3998 15.44 18.8598 12.9 18.8598 9.78C18.8598 6.6 16.2798 4 13.0798 4C9.8998 4 7.2998 6.58 7.2998 9.78C7.3198 12.9 9.7798 15.44 12.8798 15.54Z" fill="#009FA8"/>
<path opacity="0.4" d="M13.1002 25.7C13.1002 27.64 13.5202 29.48 14.2802 31.14C11.4602 31.44 8.52023 30.84 6.36023 29.42C3.20023 27.32 3.20023 23.8999 6.36023 21.7999C8.50023 20.3599 11.5202 19.78 14.3602 20.1C13.5402 21.78 13.1002 23.68 13.1002 25.7Z" fill="#009FA8"/>
<path d="M24.2396 31.74C24.0796 31.72 23.8996 31.72 23.7196 31.74C20.0396 31.62 17.0996 28.6 17.0996 24.88C17.0996 21.08 20.1596 18 23.9796 18C27.7796 18 30.8596 21.08 30.8596 24.88C30.8596 28.6 27.9396 31.62 24.2396 31.74Z" fill="#009FA8"/>
<path d="M17.7396 35.88C14.7196 37.9 14.7196 41.22 17.7396 43.22C21.1796 45.52 26.8196 45.52 30.2596 43.22C33.2796 41.2 33.2796 37.88 30.2596 35.88C26.8396 33.58 21.1996 33.58 17.7396 35.88Z" fill="#009FA8"/>
</svg>
