<svg width="375" height="345" viewBox="0 0 375 345" fill="none" xmlns="http://www.w3.org/2000/svg">
<path opacity="0.2" fill-rule="evenodd" clip-rule="evenodd" d="M-202 3.39892e-05L576.055 0V1.94396L578 1.94399V342.137L576.055 342.137V344.081L-202 344.081L-202 3.39892e-05ZM546.878 312.977H576.055V342.137L546.878 342.137V312.977ZM544.933 312.977V342.137H515.756V312.977H544.933ZM544.933 311.033V281.874H515.756V311.033H544.933ZM546.878 281.874V311.033H576.055V281.874H546.878ZM544.933 279.93H515.756V250.771H544.933V279.93ZM546.878 250.771V279.93H576.055V250.771H546.878ZM544.933 248.827H515.756V219.667H544.933V248.827ZM546.878 219.667V248.827H576.055V219.667H546.878ZM544.933 217.723H515.756V188.564H544.933V217.723ZM546.878 188.564V217.723H576.055V188.564H546.878ZM544.933 186.62H515.756V157.461H544.933V186.62ZM546.878 157.461V186.62H576.055V157.461H546.878ZM544.933 155.517H515.756V126.357H544.933V155.517ZM546.878 126.357V155.517H576.055V126.357H546.878ZM544.933 124.413H515.756V95.254H544.933V124.413ZM546.878 95.254V124.413H576.055V95.254H546.878ZM544.933 93.31H515.756V64.1506H544.933V93.31ZM546.878 64.1506V93.31H576.055V64.1506H546.878ZM544.933 62.2067H515.756V33.0473H544.933V62.2067ZM546.878 33.0473V62.2067L576.055 62.2067V33.0473L546.878 33.0473ZM546.878 31.1033H576.055V1.94396L546.878 1.94399V31.1033ZM544.933 31.1033L515.756 31.1033V1.94399L544.933 1.94399V31.1033ZM-200.055 1.94399L-170.878 1.94399V31.1034L-200.055 31.1034V1.94399ZM-200.055 33.0473H-170.878V62.2067H-200.055V33.0473ZM-200.055 64.1507H-170.878V93.31H-200.055V64.1507ZM-200.055 95.254H-170.878V124.413H-200.055V95.254ZM-200.055 126.357H-170.878V155.517H-200.055V126.357ZM-200.055 157.461H-170.878V186.62H-200.055V157.461ZM-200.055 188.564H-170.878V217.723H-200.055V188.564ZM-200.055 219.667H-170.878V248.827H-200.055L-200.055 219.667ZM-200.055 250.771H-170.878L-170.878 279.93H-200.055V250.771ZM-200.055 281.874H-170.878V311.033H-200.055V281.874ZM-200.055 312.977H-170.878V342.137H-200.055V312.977ZM513.81 342.137H484.633V312.977H513.81V342.137ZM453.511 342.137H482.688V312.977H453.511V342.137ZM453.511 311.033H482.688V281.874H453.511V311.033ZM484.633 281.874V311.033H513.81V281.874H484.633ZM513.81 279.93H484.633V250.771L513.81 250.771V279.93ZM482.688 250.771V279.93H453.511V250.771H482.688ZM453.511 248.827H482.688V219.667H453.511V248.827ZM484.633 219.667V248.827L513.81 248.827V219.667L484.633 219.667ZM513.81 217.723L484.633 217.723V188.564L513.81 188.564V217.723ZM482.688 188.564V217.723H453.511V188.564H482.688ZM453.511 186.62H482.688V157.461H453.511V186.62ZM484.633 157.461V186.62L513.81 186.62V157.461L484.633 157.461ZM513.81 155.517L484.633 155.517V126.357H513.81V155.517ZM482.688 126.357V155.517H453.511V126.357H482.688ZM453.511 124.413H482.688V95.254H453.511V124.413ZM484.633 95.254V124.413H513.81V95.254H484.633ZM513.81 93.31H484.633V64.1506H513.81V93.31ZM482.688 64.1506V93.31H453.511V64.1506H482.688ZM453.511 62.2067H482.688V33.0473H453.511V62.2067ZM484.633 33.0473V62.2067H513.81V33.0473H484.633ZM513.81 31.1033H484.633V1.94399L513.81 1.94399V31.1033ZM453.511 31.1033L482.688 31.1033V1.94399L453.511 1.94399V31.1033ZM451.566 31.1033V1.94399L422.389 1.94399V31.1033H451.566ZM420.444 31.1033V1.94399L391.267 1.94399V31.1033L420.444 31.1033ZM420.444 33.0473H391.267V62.2067H420.444V33.0473ZM422.389 33.0473V62.2067L451.566 62.2067V33.0473L422.389 33.0473ZM422.389 64.1506H451.566V93.31H422.389V64.1506ZM420.444 64.1506V93.31H391.267V64.1506H420.444ZM420.444 95.254H391.267V124.413H420.444V95.254ZM422.389 95.254V124.413H451.566V95.254H422.389ZM422.389 126.357H451.566V155.517H422.389V126.357ZM420.444 126.357V155.517H391.267V126.357H420.444ZM420.444 157.461H391.267V186.62H420.444V157.461ZM422.389 157.461V186.62H451.566V157.461H422.389ZM422.389 188.564H451.566V217.723H422.389V188.564ZM420.444 188.564V217.723H391.267V188.564H420.444ZM420.444 219.667H391.267V248.827H420.444V219.667ZM422.389 219.667V248.827H451.566V219.667H422.389ZM422.389 250.771H451.566V279.93H422.389V250.771ZM420.444 250.771V279.93H391.267V250.771H420.444ZM420.444 281.874H391.267V311.033H420.444V281.874ZM422.389 281.874V311.033H451.566V281.874H422.389ZM422.389 312.977H451.566V342.137H422.389V312.977ZM420.444 342.137H391.267V312.977H420.444V342.137ZM389.322 342.137H360.145V312.977H389.322V342.137ZM329.022 342.137H358.2V312.977H329.022V342.137ZM329.022 311.033H358.2V281.874H329.022V311.033ZM360.145 281.874V311.033H389.322V281.874H360.145ZM389.322 279.93H360.145V250.771H389.322V279.93ZM358.2 250.771V279.93H329.022V250.771H358.2ZM329.022 248.827H358.2V219.667H329.022V248.827ZM360.145 219.667V248.827H389.322V219.667H360.145ZM389.322 217.723H360.145V188.564H389.322V217.723ZM358.2 188.564V217.723H329.022V188.564H358.2ZM329.022 186.62H358.2V157.461H329.022V186.62ZM360.145 157.461V186.62H389.322V157.461H360.145ZM389.322 155.517H360.145V126.357L389.322 126.357V155.517ZM358.2 126.357V155.517H329.022V126.357H358.2ZM329.022 124.413H358.2V95.254H329.022V124.413ZM360.145 95.254V124.413L389.322 124.413V95.254L360.145 95.254ZM389.322 93.31L360.145 93.31V64.1506L389.322 64.1506V93.31ZM358.2 64.1506V93.31H329.022V64.1506H358.2ZM329.022 62.2067H358.2V33.0473H329.022V62.2067ZM360.145 33.0473V62.2067H389.322V33.0473H360.145ZM389.322 31.1033H360.145V1.94399L389.322 1.94399V31.1033ZM358.2 1.94399V31.1033L329.022 31.1033V1.94399L358.2 1.94399ZM327.077 31.1033V1.94399L297.9 1.94399V31.1033H327.077ZM295.955 31.1033V1.94399L266.778 1.94399V31.1033L295.955 31.1033ZM295.955 33.0473H266.778V62.2067H295.955V33.0473ZM297.9 33.0473V62.2067L327.077 62.2067V33.0473L297.9 33.0473ZM297.9 64.1506H327.077V93.31H297.9V64.1506ZM295.955 64.1506V93.31H266.778V64.1506H295.955ZM295.955 95.254H266.778V124.413H295.955V95.254ZM297.9 95.254V124.413H327.077V95.254H297.9ZM297.9 126.357H327.077V155.517H297.9V126.357ZM295.955 126.357V155.517H266.778V126.357H295.955ZM295.955 157.461H266.778V186.62H295.955V157.461ZM297.9 157.461V186.62H327.077V157.461H297.9ZM297.9 188.564H327.077V217.723H297.9V188.564ZM295.955 188.564V217.723H266.778V188.564H295.955ZM295.955 219.667H266.778V248.827H295.955V219.667ZM297.9 219.667V248.827H327.077V219.667H297.9ZM297.9 250.771H327.077V279.93H297.9V250.771ZM295.955 250.771V279.93H266.778V250.771H295.955ZM295.955 281.874H266.778V311.033H295.955V281.874ZM297.9 281.874V311.033H327.077V281.874H297.9ZM297.9 312.977H327.077V342.137H297.9V312.977ZM295.955 312.977V342.137H266.778V312.977H295.955ZM264.833 342.137L235.656 342.137V312.977L264.833 312.977V342.137ZM204.534 342.137H233.711V312.977H204.534V342.137ZM204.534 311.033H233.711V281.874H204.534V311.033ZM235.656 281.874V311.033L264.833 311.033V281.874L235.656 281.874ZM264.833 279.93L235.656 279.93V250.771H264.833V279.93ZM233.711 250.771V279.93H204.534V250.771H233.711ZM204.534 248.827H233.711V219.667H204.534V248.827ZM235.656 219.667V248.827H264.833V219.667H235.656ZM264.833 217.723H235.656V188.564H264.833V217.723ZM233.711 188.564V217.723H204.534V188.564H233.711ZM204.534 186.62H233.711V157.461H204.534V186.62ZM235.656 157.461V186.62H264.833V157.461H235.656ZM264.833 155.517H235.656V126.357H264.833V155.517ZM233.711 126.357V155.517H204.534V126.357H233.711ZM204.534 124.413H233.711V95.254H204.534V124.413ZM235.656 95.254V124.413H264.833V95.254H235.656ZM264.833 93.31H235.656V64.1506H264.833V93.31ZM233.711 64.1506V93.31H204.534V64.1506H233.711ZM204.534 62.2067H233.711V33.0473H204.534V62.2067ZM235.656 33.0473V62.2067H264.833V33.0473H235.656ZM264.833 31.1033H235.656V1.94399L264.833 1.94399V31.1033ZM233.711 1.94399V31.1033L204.534 31.1033V1.94399L233.711 1.94399ZM202.589 31.1033V1.94399L173.411 1.94399V31.1033L202.589 31.1033ZM171.466 31.1033V1.94399L142.289 1.94399V31.1033H171.466ZM171.466 33.0473H142.289V62.2067H171.466V33.0473ZM173.411 33.0473V62.2067H202.589V33.0473H173.411ZM173.411 64.1506H202.589V93.31H173.411V64.1506ZM171.466 64.1506V93.31L142.289 93.31V64.1506L171.466 64.1506ZM171.466 95.254L142.289 95.254V124.413L171.466 124.413V95.254ZM173.411 95.254V124.413H202.589V95.254H173.411ZM173.411 126.357H202.589V155.517H173.411V126.357ZM171.466 126.357V155.517H142.289V126.357L171.466 126.357ZM171.466 157.461H142.289V186.62H171.466V157.461ZM173.411 157.461V186.62H202.589V157.461H173.411ZM173.411 188.564H202.589V217.723H173.411V188.564ZM171.466 188.564V217.723H142.289V188.564H171.466ZM171.466 219.667H142.289V248.827H171.466V219.667ZM173.411 219.667V248.827H202.589V219.667H173.411ZM173.411 250.771H202.589V279.93H173.411V250.771ZM171.466 250.771V279.93H142.289V250.771H171.466ZM171.466 281.874H142.289V311.033H171.466V281.874ZM173.411 281.874V311.033H202.589V281.874H173.411ZM173.411 312.977H202.589V342.137H173.411V312.977ZM171.466 312.977V342.137H142.289V312.977H171.466ZM140.344 342.137H111.167V312.977H140.344V342.137ZM80.0449 342.137H109.222V312.977H80.0449V342.137ZM80.0449 311.033H109.222V281.874H80.0449V311.033ZM111.167 281.874V311.033H140.344V281.874H111.167ZM140.344 279.93H111.167V250.771H140.344V279.93ZM109.222 250.771V279.93H80.0449V250.771H109.222ZM80.0449 248.827H109.222V219.667H80.0449V248.827ZM111.167 219.667V248.827H140.344V219.667H111.167ZM140.344 217.723H111.167V188.564H140.344V217.723ZM109.222 188.564V217.723H80.0449V188.564H109.222ZM80.0449 186.62H109.222V157.461H80.0449V186.62ZM111.167 157.461V186.62H140.344V157.461H111.167ZM140.344 155.517H111.167V126.357H140.344V155.517ZM109.222 126.357V155.517H80.0449V126.357H109.222ZM80.0449 124.413H109.222V95.254H80.0449V124.413ZM111.167 95.254V124.413H140.344V95.254H111.167ZM140.344 93.31H111.167V64.1507H140.344V93.31ZM109.222 64.1507V93.31H80.0449V64.1507H109.222ZM80.0449 62.2067L109.222 62.2067V33.0473L80.0449 33.0473V62.2067ZM111.167 33.0473V62.2067H140.344V33.0473H111.167ZM140.344 31.1034L111.167 31.1034V1.94399L140.344 1.94399V31.1034ZM109.222 1.94399V31.1034H80.0449V1.94399L109.222 1.94399ZM78.0998 31.1034V1.94399L48.9227 1.94399V31.1034L78.0998 31.1034ZM46.9776 31.1034V1.94399L17.8005 1.94399V31.1034H46.9776ZM46.9776 33.0473H17.8005V62.2067H46.9776V33.0473ZM48.9227 33.0473V62.2067H78.0998V33.0473H48.9227ZM48.9227 64.1507H78.0998V93.31H48.9227V64.1507ZM46.9776 64.1507V93.31H17.8005V64.1507H46.9776ZM46.9776 95.254H17.8005V124.413H46.9776V95.254ZM48.9227 95.254V124.413H78.0998V95.254H48.9227ZM48.9227 126.357H78.0998V155.517H48.9227V126.357ZM46.9776 126.357V155.517L17.8005 155.517V126.357H46.9776ZM46.9776 157.461L17.8005 157.461V186.62L46.9776 186.62V157.461ZM48.9227 157.461V186.62H78.0998V157.461H48.9227ZM48.9227 188.564H78.0998V217.723H48.9227V188.564ZM46.9776 188.564V217.723L17.8005 217.723V188.564L46.9776 188.564ZM46.9776 219.667L17.8005 219.667L17.8005 248.827L46.9776 248.827L46.9776 219.667ZM48.9227 219.667L48.9227 248.827H78.0998V219.667H48.9227ZM48.9227 250.771H78.0998V279.93H48.9227V250.771ZM46.9776 250.771V279.93H17.8005V250.771L46.9776 250.771ZM46.9776 281.874H17.8005V311.033H46.9776V281.874ZM48.9227 281.874V311.033H78.0998V281.874H48.9227ZM48.9227 312.977H78.0998V342.137H48.9227V312.977ZM46.9776 312.977V342.137H17.8005V312.977H46.9776ZM15.8554 342.137H-13.3217V312.977H15.8554V342.137ZM-44.4439 342.137H-15.2668V312.977H-44.4439V342.137ZM-44.4439 311.033H-15.2668V281.874H-44.4439V311.033ZM-13.3217 281.874V311.033H15.8554V281.874H-13.3217ZM15.8554 279.93H-13.3217V250.771H15.8554V279.93ZM-15.2668 250.771V279.93H-44.4439V250.771H-15.2668ZM-44.4439 248.827H-15.2668L-15.2668 219.667H-44.4439L-44.4439 248.827ZM-13.3217 219.667L-13.3217 248.827H15.8554L15.8554 219.667H-13.3217ZM15.8554 217.723H-13.3217V188.564H15.8554V217.723ZM-15.2668 188.564V217.723H-44.4439V188.564H-15.2668ZM-44.4439 186.62H-15.2668V157.461H-44.4439V186.62ZM-13.3217 157.461V186.62H15.8554V157.461H-13.3217ZM15.8554 155.517H-13.3217V126.357H15.8554V155.517ZM-15.2668 126.357V155.517H-44.4439V126.357H-15.2668ZM-44.4439 124.413H-15.2668V95.254H-44.4439V124.413ZM-13.3217 95.254V124.413H15.8554V95.254H-13.3217ZM15.8554 93.31H-13.3217V64.1507H15.8554V93.31ZM-15.2668 64.1507V93.31H-44.4439V64.1507H-15.2668ZM-44.4439 62.2067L-15.2668 62.2067V33.0473L-44.4439 33.0473V62.2067ZM-13.3217 33.0473V62.2067H15.8554V33.0473H-13.3217ZM15.8554 31.1034L-13.3217 31.1034V1.94399L15.8554 1.94399V31.1034ZM-15.2668 1.94399V31.1034H-44.4439V1.94399L-15.2668 1.94399ZM-46.389 31.1034V1.94399L-75.5661 1.94399V31.1034L-46.389 31.1034ZM-77.5112 31.1034V1.94399L-106.688 1.94399V31.1034H-77.5112ZM-77.5112 33.0473H-106.688V62.2067H-77.5112V33.0473ZM-75.5661 33.0473V62.2067H-46.389V33.0473H-75.5661ZM-75.5661 64.1507H-46.389V93.31H-75.5661V64.1507ZM-77.5112 64.1507V93.31L-106.688 93.31V64.1507L-77.5112 64.1507ZM-77.5112 95.254L-106.688 95.254L-106.688 124.413L-77.5112 124.413L-77.5112 95.254ZM-75.5661 95.254L-75.5661 124.413H-46.389V95.254H-75.5661ZM-75.5661 126.357H-46.389V155.517H-75.5661V126.357ZM-77.5112 126.357V155.517H-106.688V126.357L-77.5112 126.357ZM-77.5112 157.461H-106.688V186.62H-77.5112V157.461ZM-75.5661 157.461V186.62H-46.389V157.461H-75.5661ZM-75.5661 188.564H-46.389V217.723H-75.5661V188.564ZM-77.5112 188.564V217.723H-106.688V188.564H-77.5112ZM-77.5112 219.667H-106.688V248.827H-77.5112V219.667ZM-75.5661 219.667V248.827H-46.389L-46.389 219.667H-75.5661ZM-75.5661 250.771H-46.389V279.93H-75.5661V250.771ZM-77.5112 250.771V279.93H-106.688V250.771H-77.5112ZM-77.5112 281.874H-106.688V311.033H-77.5112V281.874ZM-75.5661 281.874V311.033H-46.389V281.874H-75.5661ZM-75.5661 312.977H-46.389V342.137H-75.5661V312.977ZM-77.5112 312.977V342.137H-106.688V312.977H-77.5112ZM-108.633 342.137H-137.81V312.977H-108.633V342.137ZM-168.933 342.137H-139.756V312.977H-168.933V342.137ZM-168.933 311.033H-139.756L-139.756 281.874H-168.933L-168.933 311.033ZM-137.81 281.874V311.033H-108.633V281.874H-137.81ZM-108.633 279.93H-137.81V250.771H-108.633V279.93ZM-139.756 250.771V279.93H-168.933V250.771H-139.756ZM-168.933 248.827H-139.756V219.667H-168.933V248.827ZM-137.81 219.667V248.827H-108.633V219.667H-137.81ZM-108.633 217.723H-137.81V188.564H-108.633V217.723ZM-139.756 188.564V217.723H-168.933V188.564H-139.756ZM-168.933 186.62H-139.756V157.461H-168.933V186.62ZM-137.81 157.461V186.62H-108.633V157.461H-137.81ZM-108.633 155.517H-137.81V126.357H-108.633V155.517ZM-139.756 126.357V155.517H-168.933V126.357H-139.756ZM-168.933 124.413H-139.756V95.254H-168.933V124.413ZM-137.81 95.254V124.413H-108.633L-108.633 95.254H-137.81ZM-108.633 93.31H-137.81V64.1507H-108.633V93.31ZM-139.756 64.1507V93.31H-168.933V64.1507H-139.756ZM-168.933 62.2067L-139.756 62.2067V33.0473L-168.933 33.0473V62.2067ZM-137.81 33.0473V62.2067H-108.633V33.0473H-137.81ZM-108.633 31.1034L-137.81 31.1034V1.94399L-108.633 1.94399V31.1034ZM-139.756 1.94399V31.1034H-168.933V1.94399L-139.756 1.94399Z" fill="url(#paint0_radial_967_1215)"/>
<defs>
<radialGradient id="paint0_radial_967_1215" cx="0" cy="0" r="1" gradientUnits="userSpaceOnUse" gradientTransform="translate(187.027 -1.28972e-05) rotate(89.8559) scale(386.685 414.831)">
<stop stop-color="#7A8597"/>
<stop offset="1" stop-color="#7A8597" stop-opacity="0"/>
</radialGradient>
</defs>
</svg>
