<svg width="1200" height="529" viewBox="0 0 1200 529" fill="none" xmlns="http://www.w3.org/2000/svg">
<path opacity="0.2" fill-rule="evenodd" clip-rule="evenodd" d="M0 5.22561e-05L1197.01 0V2.9887L1200 2.98875V526.011H1197.01V529L0 529L0 5.22561e-05ZM1152.12 481.181H1197.01V526.011H1152.12V481.181ZM1149.13 481.181V526.011H1104.24V481.181H1149.13ZM1149.13 478.192V433.362H1104.24V478.192H1149.13ZM1152.12 433.362V478.192H1197.01V433.362H1152.12ZM1149.13 430.373H1104.24V385.542H1149.13V430.373ZM1152.12 385.542V430.373H1197.01V385.542H1152.12ZM1149.13 382.554H1104.24V337.723H1149.13V382.554ZM1152.12 337.723V382.554H1197.01V337.723H1152.12ZM1149.13 334.734H1104.24V289.904H1149.13V334.734ZM1152.12 289.904V334.734H1197.01V289.904H1152.12ZM1149.13 286.915H1104.24V242.085H1149.13V286.915ZM1152.12 242.085V286.915H1197.01V242.085L1152.12 242.085ZM1149.13 239.096H1104.24V194.266H1149.13V239.096ZM1152.12 194.266V239.096L1197.01 239.096V194.266L1152.12 194.266ZM1149.13 191.277H1104.24V146.446H1149.13V191.277ZM1152.12 146.446V191.277L1197.01 191.277V146.446L1152.12 146.446ZM1149.13 143.458H1104.24V98.6271H1149.13V143.458ZM1152.12 98.6271V143.458L1197.01 143.458V98.6271H1152.12ZM1149.13 95.6384H1104.24V50.8079H1149.13V95.6384ZM1152.12 50.8079V95.6384H1197.01V50.8079H1152.12ZM1152.12 47.8192H1197.01V2.9887L1152.12 2.98875V47.8192ZM1149.13 47.8192H1104.24V2.98875L1149.13 2.98875V47.8192ZM2.99252 2.98875L47.8803 2.98875V47.8193H2.99252L2.99252 2.98875ZM2.99252 50.808H47.8803L47.8803 95.6385H2.99252L2.99252 50.808ZM2.99252 98.6272H47.8803V143.458H2.99252L2.99252 98.6272ZM2.99252 146.446H47.8803L47.8803 191.277H2.99252L2.99252 146.446ZM2.99252 194.266H47.8803V239.096H2.99252L2.99252 194.266ZM2.99252 242.085H47.8803V286.915H2.99252L2.99252 242.085ZM2.99252 289.904H47.8803L47.8803 334.734H2.99252L2.99252 289.904ZM2.99252 337.723H47.8803V382.554H2.99252L2.99252 337.723ZM2.99252 385.542H47.8803L47.8803 430.373H2.99252L2.99252 385.542ZM2.99252 433.362H47.8803V478.192H2.99252L2.99252 433.362ZM2.99252 481.181H47.8803L47.8803 526.011H2.99252L2.99252 481.181ZM1101.25 526.011H1056.36V481.181H1101.25V526.011ZM1008.48 526.011H1053.37V481.181H1008.48V526.011ZM1008.48 478.192H1053.37V433.362H1008.48V478.192ZM1056.36 433.362V478.192H1101.25V433.362H1056.36ZM1101.25 430.373H1056.36V385.542H1101.25V430.373ZM1053.37 385.542V430.373H1008.48V385.542H1053.37ZM1008.48 382.554H1053.37V337.723H1008.48V382.554ZM1056.36 337.723V382.554H1101.25V337.723H1056.36ZM1101.25 334.734H1056.36V289.904H1101.25V334.734ZM1053.37 289.904V334.734H1008.48V289.904H1053.37ZM1008.48 286.915H1053.37V242.085H1008.48V286.915ZM1056.36 242.085V286.915H1101.25V242.085H1056.36ZM1101.25 239.096H1056.36V194.266H1101.25V239.096ZM1053.37 194.266V239.096H1008.48V194.266H1053.37ZM1008.48 191.277H1053.37V146.446H1008.48V191.277ZM1056.36 146.446V191.277H1101.25V146.446H1056.36ZM1101.25 143.458H1056.36V98.6271H1101.25V143.458ZM1053.37 98.6271V143.458H1008.48V98.6271L1053.37 98.6271ZM1008.48 95.6384L1053.37 95.6384V50.8079H1008.48V95.6384ZM1056.36 50.8079V95.6384H1101.25V50.8079H1056.36ZM1101.25 47.8192H1056.36V2.98875L1101.25 2.98875V47.8192ZM1008.48 47.8192H1053.37V2.98875L1008.48 2.98875V47.8192ZM1005.49 47.8192V2.98875L960.599 2.98875V47.8192L1005.49 47.8192ZM957.606 47.8192V2.98875L912.718 2.98875V47.8192H957.606ZM957.606 50.8079H912.718V95.6384H957.606V50.8079ZM960.599 50.8079V95.6384H1005.49V50.8079L960.599 50.8079ZM960.599 98.6271H1005.49V143.458H960.599V98.6271ZM957.606 98.6271V143.458H912.718V98.6271H957.606ZM957.606 146.446H912.718V191.277H957.606V146.446ZM960.599 146.446V191.277H1005.49V146.446H960.599ZM960.599 194.266H1005.49V239.096H960.599V194.266ZM957.606 194.266V239.096H912.718V194.266H957.606ZM957.606 242.085H912.718V286.915H957.606V242.085ZM960.599 242.085V286.915H1005.49V242.085H960.599ZM960.599 289.904H1005.49V334.734H960.599V289.904ZM957.606 289.904V334.734H912.718V289.904H957.606ZM957.606 337.723H912.718V382.554H957.606V337.723ZM960.599 337.723V382.554H1005.49V337.723H960.599ZM960.599 385.542H1005.49V430.373H960.599V385.542ZM957.606 385.542V430.373H912.718V385.542H957.606ZM957.606 433.362H912.718V478.192H957.606V433.362ZM960.599 433.362V478.192H1005.49V433.362H960.599ZM960.599 481.181H1005.49V526.011H960.599V481.181ZM957.606 526.011L912.718 526.011V481.181H957.606V526.011ZM909.726 526.011H864.838V481.181H909.726V526.011ZM816.958 526.011H861.845V481.181H816.958V526.011ZM816.958 478.192H861.845V433.362H816.958V478.192ZM864.838 433.362V478.192H909.726V433.362H864.838ZM909.726 430.373H864.838V385.542H909.726V430.373ZM861.845 385.542V430.373H816.958V385.542H861.845ZM816.958 382.554H861.845V337.723H816.958V382.554ZM864.838 337.723V382.554H909.726V337.723H864.838ZM909.726 334.734H864.838V289.904H909.726V334.734ZM861.845 289.904V334.734H816.958V289.904H861.845ZM816.958 286.915H861.845V242.085H816.958V286.915ZM864.838 242.085V286.915H909.726V242.085H864.838ZM909.726 239.096H864.838V194.266H909.726V239.096ZM861.845 194.266V239.096H816.958V194.266H861.845ZM816.958 191.277H861.845V146.446H816.958V191.277ZM864.838 146.446V191.277H909.726V146.446H864.838ZM909.726 143.458H864.838V98.6271H909.726V143.458ZM861.845 98.6271V143.458H816.958V98.6271H861.845ZM816.958 95.6384H861.845V50.8079H816.958V95.6384ZM864.838 50.8079V95.6384H909.726V50.8079L864.838 50.8079ZM909.726 47.8192L864.838 47.8192V2.98875L909.726 2.98875V47.8192ZM861.845 2.98875V47.8192H816.958V2.98875L861.845 2.98875ZM813.965 47.8192V2.98875L769.077 2.98875V47.8192H813.965ZM766.085 47.8192V2.98875L721.197 2.98875V47.8192L766.085 47.8192ZM766.085 50.8079L721.197 50.8079V95.6384H766.085V50.8079ZM769.077 50.8079V95.6384L813.965 95.6384V50.8079H769.077ZM769.077 98.6271L813.965 98.6271V143.458H769.077V98.6271ZM766.085 98.6271V143.458H721.197V98.6271H766.085ZM766.085 146.446H721.197V191.277H766.085V146.446ZM769.077 146.446V191.277H813.965V146.446H769.077ZM769.077 194.266H813.965V239.096H769.077V194.266ZM766.085 194.266V239.096H721.197V194.266H766.085ZM766.085 242.085H721.197V286.915H766.085V242.085ZM769.077 242.085V286.915H813.965V242.085H769.077ZM769.077 289.904H813.965V334.734H769.077V289.904ZM766.085 289.904V334.734H721.197V289.904H766.085ZM766.085 337.723H721.197V382.554H766.085V337.723ZM769.077 337.723V382.554H813.965V337.723H769.077ZM769.077 385.542H813.965V430.373H769.077V385.542ZM766.085 385.542V430.373H721.197V385.542H766.085ZM766.085 433.362H721.197V478.192H766.085V433.362ZM769.077 433.362V478.192H813.965V433.362H769.077ZM769.077 481.181H813.965V526.011H769.077V481.181ZM766.085 481.181V526.011H721.197V481.181H766.085ZM718.204 526.011H673.317V481.181H718.204V526.011ZM625.436 526.011H670.324V481.181H625.436V526.011ZM625.436 478.192H670.324V433.362H625.436V478.192ZM673.317 433.362V478.192H718.204V433.362H673.317ZM718.204 430.373H673.317V385.542H718.204V430.373ZM670.324 385.542V430.373H625.436V385.542H670.324ZM625.436 382.554H670.324V337.723H625.436V382.554ZM673.317 337.723V382.554H718.204V337.723H673.317ZM718.204 334.734H673.317V289.904H718.204V334.734ZM670.324 289.904V334.734H625.436V289.904H670.324ZM625.436 286.915H670.324V242.085H625.436V286.915ZM673.317 242.085V286.915H718.204V242.085L673.317 242.085ZM718.204 239.096L673.317 239.096V194.266L718.204 194.266V239.096ZM670.324 194.266V239.096H625.436V194.266H670.324ZM625.436 191.277H670.324V146.446H625.436V191.277ZM673.317 146.446V191.277L718.204 191.277V146.446L673.317 146.446ZM718.204 143.458L673.317 143.458V98.6271H718.204V143.458ZM670.324 98.6271V143.458H625.436V98.6271H670.324ZM625.436 95.6384H670.324V50.8079L625.436 50.8079V95.6384ZM673.317 50.8079V95.6384H718.204V50.8079H673.317ZM718.204 47.8192H673.317V2.98875L718.204 2.98875V47.8192ZM670.324 2.98875V47.8192L625.436 47.8192V2.98875L670.324 2.98875ZM622.444 47.8192V2.98875L577.556 2.98875V47.8192H622.444ZM574.564 47.8192V2.98875L529.676 2.98875V47.8192H574.564ZM574.564 50.8079H529.676V95.6384H574.564V50.8079ZM577.556 50.8079V95.6384L622.444 95.6384V50.8079H577.556ZM577.556 98.6271L622.444 98.6271V143.458H577.556V98.6271ZM574.564 98.6271V143.458H529.676V98.6271H574.564ZM574.564 146.446H529.676V191.277H574.564V146.446ZM577.556 146.446V191.277H622.444V146.446H577.556ZM577.556 194.266H622.444V239.096H577.556V194.266ZM574.564 194.266V239.096H529.676V194.266H574.564ZM574.564 242.085H529.676V286.915H574.564V242.085ZM577.556 242.085V286.915H622.444V242.085H577.556ZM577.556 289.904H622.444V334.734H577.556V289.904ZM574.564 289.904V334.734H529.676V289.904H574.564ZM574.564 337.723H529.676V382.554H574.564V337.723ZM577.556 337.723V382.554H622.444V337.723H577.556ZM577.556 385.542H622.444V430.373H577.556V385.542ZM574.564 385.542V430.373H529.676V385.542H574.564ZM574.564 433.362H529.676V478.192H574.564V433.362ZM577.556 433.362V478.192H622.444V433.362H577.556ZM577.556 481.181H622.444V526.011H577.556V481.181ZM574.564 481.181V526.011H529.676V481.181H574.564ZM526.683 526.011H481.796V481.181H526.683V526.011ZM433.915 526.011H478.803V481.181L433.915 481.181V526.011ZM433.915 478.192L478.803 478.192L478.803 433.362L433.915 433.362L433.915 478.192ZM481.796 433.362L481.796 478.192H526.683V433.362H481.796ZM526.683 430.373H481.796V385.542H526.683V430.373ZM478.803 385.542V430.373L433.915 430.373V385.542L478.803 385.542ZM433.915 382.554L478.803 382.554V337.723L433.915 337.723V382.554ZM481.796 337.723V382.554H526.683V337.723H481.796ZM526.683 334.734H481.796V289.904H526.683V334.734ZM478.803 289.904V334.734L433.915 334.734V289.904L478.803 289.904ZM433.915 286.915L478.803 286.915V242.085H433.915V286.915ZM481.796 242.085V286.915H526.683V242.085H481.796ZM526.683 239.096H481.796V194.266H526.683V239.096ZM478.803 194.266V239.096H433.915V194.266H478.803ZM433.915 191.277H478.803V146.446H433.915V191.277ZM481.796 146.446V191.277H526.683V146.446H481.796ZM526.683 143.458H481.796V98.6272H526.683V143.458ZM478.803 98.6272V143.458H433.915V98.6272H478.803ZM433.915 95.6384H478.803V50.8079H433.915V95.6384ZM481.796 50.8079V95.6384H526.683V50.8079L481.796 50.8079ZM526.683 47.8192L481.796 47.8192V2.98875L526.683 2.98875V47.8192ZM478.803 2.98875V47.8192H433.915V2.98875L478.803 2.98875ZM430.923 47.8192V2.98875L386.035 2.98875V47.8192L430.923 47.8192ZM383.042 47.8192V2.98875L338.155 2.98875V47.8192H383.042ZM383.042 50.8079H338.155V95.6384L383.042 95.6384V50.8079ZM386.035 50.8079V95.6384H430.923V50.8079L386.035 50.8079ZM386.035 98.6272H430.923V143.458H386.035V98.6272ZM383.042 98.6272V143.458H338.155V98.6272L383.042 98.6272ZM383.042 146.446H338.155V191.277H383.042V146.446ZM386.035 146.446V191.277H430.923V146.446H386.035ZM386.035 194.266H430.923V239.096H386.035V194.266ZM383.042 194.266V239.096H338.155V194.266H383.042ZM383.042 242.085H338.155V286.915H383.042V242.085ZM386.035 242.085V286.915H430.923V242.085H386.035ZM386.035 289.904H430.923V334.734H386.035V289.904ZM383.042 289.904V334.734H338.155V289.904H383.042ZM383.042 337.723H338.155V382.554H383.042V337.723ZM386.035 337.723V382.554H430.923V337.723H386.035ZM386.035 385.542H430.923V430.373H386.035V385.542ZM383.042 385.542V430.373H338.155V385.542H383.042ZM383.042 433.362H338.155L338.155 478.192H383.042L383.042 433.362ZM386.035 433.362L386.035 478.192H430.923L430.923 433.362H386.035ZM386.035 481.181H430.923V526.011H386.035V481.181ZM383.042 481.181V526.011H338.155V481.181H383.042ZM335.162 526.011H290.274V481.181H335.162V526.011ZM242.394 526.011H287.282V481.181H242.394V526.011ZM242.394 478.192H287.282L287.282 433.362H242.394V478.192ZM290.274 433.362L290.274 478.192H335.162L335.162 433.362H290.274ZM335.162 430.373H290.274V385.542H335.162V430.373ZM287.282 385.542V430.373H242.394V385.542H287.282ZM242.394 382.554H287.282V337.723H242.394V382.554ZM290.274 337.723V382.554H335.162V337.723H290.274ZM335.162 334.734H290.274V289.904H335.162V334.734ZM287.282 289.904V334.734H242.394V289.904H287.282ZM242.394 286.915H287.282V242.085H242.394V286.915ZM290.274 242.085V286.915H335.162V242.085H290.274ZM335.162 239.096H290.274V194.266H335.162V239.096ZM287.282 194.266V239.096H242.394L242.394 194.266H287.282ZM242.394 191.277H287.282V146.446H242.394V191.277ZM290.274 146.446V191.277H335.162V146.446H290.274ZM335.162 143.458H290.274V98.6272H335.162V143.458ZM287.282 98.6272V143.458H242.394V98.6272H287.282ZM242.394 95.6385H287.282V50.8079H242.394V95.6385ZM290.274 50.8079V95.6384H335.162V50.8079H290.274ZM335.162 47.8192H290.274V2.98875L335.162 2.98875V47.8192ZM287.282 2.98875V47.8193H242.394V2.98875L287.282 2.98875ZM239.401 47.8193V2.98875L194.514 2.98875V47.8193H239.401ZM191.521 47.8193V2.98875L146.633 2.98875V47.8193L191.521 47.8193ZM191.521 50.808L146.633 50.808V95.6385H191.521V50.808ZM194.514 50.8079V95.6385H239.401V50.8079H194.514ZM194.514 98.6272H239.401V143.458L194.514 143.458V98.6272ZM191.521 98.6272V143.458H146.633V98.6272H191.521ZM191.521 146.446H146.633V191.277H191.521V146.446ZM194.514 146.446V191.277L239.401 191.277V146.446L194.514 146.446ZM194.514 194.266L239.401 194.266L239.401 239.096L194.514 239.096L194.514 194.266ZM191.521 194.266L191.521 239.096H146.633L146.633 194.266H191.521ZM191.521 242.085H146.633V286.915H191.521V242.085ZM194.514 242.085V286.915H239.401V242.085L194.514 242.085ZM194.514 289.904H239.401V334.734H194.514V289.904ZM191.521 289.904V334.734H146.633V289.904H191.521ZM191.521 337.723H146.633V382.554H191.521V337.723ZM194.514 337.723V382.554H239.401V337.723H194.514ZM194.514 385.542H239.401V430.373H194.514V385.542ZM191.521 385.542V430.373H146.633V385.542H191.521ZM191.521 433.362H146.633V478.192H191.521V433.362ZM194.514 433.362V478.192H239.401V433.362H194.514ZM194.514 481.181H239.401V526.011H194.514V481.181ZM191.521 481.181V526.011H146.633V481.181H191.521ZM143.641 526.011H98.7531V481.181H143.641V526.011ZM50.8728 526.011H95.7606V481.181H50.8728L50.8728 526.011ZM50.8728 478.192H95.7606V433.362H50.8728V478.192ZM98.7531 433.362V478.192H143.641V433.362H98.7531ZM143.641 430.373H98.7531V385.542H143.641V430.373ZM95.7606 385.542V430.373H50.8728L50.8728 385.542H95.7606ZM50.8728 382.554H95.7606L95.7606 337.723H50.8728V382.554ZM98.7531 337.723L98.7531 382.554H143.641V337.723H98.7531ZM143.641 334.734H98.7531V289.904H143.641V334.734ZM95.7606 289.904V334.734H50.8728L50.8728 289.904H95.7606ZM50.8728 286.915H95.7606V242.085H50.8728V286.915ZM98.7531 242.085V286.915H143.641V242.085H98.7531ZM143.641 239.096H98.7531V194.266H143.641L143.641 239.096ZM95.7606 194.266V239.096H50.8728V194.266H95.7606ZM50.8728 191.277H95.7606V146.446H50.8728L50.8728 191.277ZM98.7531 146.446V191.277H143.641V146.446H98.7531ZM143.641 143.458H98.7531L98.7531 98.6272L143.641 98.6272V143.458ZM95.7606 98.6272L95.7606 143.458H50.8728V98.6272H95.7606ZM50.8728 95.6385H95.7606V50.808L50.8728 50.808L50.8728 95.6385ZM98.7531 50.808V95.6385L143.641 95.6385V50.808H98.7531ZM143.641 47.8193H98.7531V2.98875L143.641 2.98875V47.8193ZM95.7606 2.98875V47.8193L50.8728 47.8193V2.98875L95.7606 2.98875Z" fill="url(#paint0_radial_653_586)"/>
<defs>
<radialGradient id="paint0_radial_653_586" cx="0" cy="0" r="1" gradientUnits="userSpaceOnUse" gradientTransform="translate(598.504 -1.98285e-05) rotate(89.8558) scale(594.502 638.202)">
<stop stop-color="#7A8597"/>
<stop offset="1" stop-color="#7A8597" stop-opacity="0"/>
</radialGradient>
</defs>
</svg>
