<svg width="64" height="64" viewBox="0 0 64 64" fill="none" xmlns="http://www.w3.org/2000/svg">
<path opacity="0.4" d="M56 5.33325V37.5999C56 42.6666 53.3334 45.3333 48.2667 45.3333H15.7333C10.6667 45.3333 8 42.6666 8 37.5999V5.33325H56Z" fill="#2A3342"/>
<path d="M58.6667 7.33325H5.33337C4.24004 7.33325 3.33337 6.42659 3.33337 5.33325C3.33337 4.23992 4.24004 3.33325 5.33337 3.33325H58.6667C59.76 3.33325 60.6667 4.23992 60.6667 5.33325C60.6667 6.42659 59.76 7.33325 58.6667 7.33325Z" fill="#2A3342"/>
<path d="M44.4533 59.5732C44.1067 60.2666 43.3866 60.6666 42.6666 60.6666C42.3733 60.6666 42.0533 60.5866 41.7867 60.4533L32 55.5732L22.2133 60.4533C21.9466 60.5866 21.6266 60.6666 21.3333 60.6666C20.6133 60.6666 19.8933 60.2666 19.5466 59.5732C19.0399 58.5599 19.44 57.3599 20.4533 56.8799L30 52.1066V45.3333H34V52.1066L43.5466 56.8799C44.5599 57.3599 44.96 58.5599 44.4533 59.5732Z" fill="#2A3342"/>
</svg>
