<svg width="24" height="24" viewBox="0 0 24 24" fill="none" xmlns="http://www.w3.org/2000/svg">
<path opacity="0.4" d="M20.6201 8.45C19.5701 3.83 15.5401 1.75 12.0001 1.75C12.0001 1.75 12.0001 1.75 11.9901 1.75C8.4601 1.75 4.4201 3.82 3.3701 8.44C2.2001 13.6 5.3601 17.97 8.2201 20.72C9.2801 21.74 10.6401 22.25 12.0001 22.25C13.3601 22.25 14.7201 21.74 15.7701 20.72C18.6301 17.97 21.7901 13.61 20.6201 8.45Z" fill="#8F11AE"/>
<path d="M11.9996 13.4599C13.7393 13.4599 15.1496 12.0496 15.1496 10.3099C15.1496 8.57022 13.7393 7.15991 11.9996 7.15991C10.2599 7.15991 8.84961 8.57022 8.84961 10.3099C8.84961 12.0496 10.2599 13.4599 11.9996 13.4599Z" fill="#8F11AE"/>
</svg>
