<svg width="88" height="80" viewBox="0 0 88 80" fill="none" xmlns="http://www.w3.org/2000/svg">
<g clip-path="url(#clip0_227_3468)">
<path d="M18.4843 30.1123C19.1898 30.302 19.8953 30.3494 20.6008 30.3494C22.6703 30.3494 24.6457 29.6381 26.2919 28.2628C29.1139 25.9866 30.8071 22.1455 30.7131 18.3043V18.2095L30.619 18.1621C30.5249 18.1146 28.2203 16.9291 27.4207 16.9291C27.4207 16.9291 27.4207 16.9291 27.3737 16.9291H27.2796L27.2326 17.024C27.2326 17.0714 27.1855 17.2136 27.1855 17.4033C26.8093 21.2445 25.4453 24.2794 23.2347 26.4134C20.883 28.6422 20.0834 28.5474 19.8483 28.4525C19.5661 28.3103 19.3779 27.7886 19.7542 26.0815C19.9894 25.133 24.0343 13.8941 25.3512 11.4756C25.5864 11.0488 27.1855 7.16029 27.3737 4.45727C27.4677 3.03462 27.0915 0.473863 24.9279 0.0944914C21.4474 -0.521988 19.1428 1.84909 19.0957 1.84909L19.0487 1.94393L19.519 3.03462L19.6601 2.93978C19.6601 2.93978 21.8707 1.61198 22.6703 1.56456C23.0936 1.51714 23.5169 1.70682 23.7991 2.03877C24.1283 2.41814 24.4105 3.22431 24.0343 4.83664C23.1877 8.15614 21.6356 11.9024 20.2716 15.2219C19.472 17.1662 18.7195 19.0157 18.2021 20.4857C16.697 24.8959 16.3208 27.6938 17.0733 29.069C17.3555 29.5906 17.8258 29.9226 18.4843 30.1123Z" fill="#F8D44C"/>
<path d="M87.6238 27.4098C87.4357 27.2675 85.3662 25.7974 85.2722 25.75L85.084 25.6078L85.037 25.8449C85.037 25.8923 84.4726 31.3932 82.309 35.1869C80.1455 38.9806 76.8531 43.3434 74.3603 44.4815C73.3256 44.9557 72.3379 44.4815 71.9146 44.1496C71.4443 43.8176 71.2091 43.0114 71.2561 41.7785C71.6324 34.2385 77.0413 23.379 78.6404 21.1027C80.1925 18.8739 81.5565 19.4904 81.8387 19.6327C81.7446 19.6801 81.6976 19.7275 81.6976 19.8223C81.1802 21.6718 78.8756 25.3707 78.8756 25.4181L78.8285 25.4655L78.9226 26.1294L78.9696 26.1768C79.0167 26.2242 79.8633 27.2675 80.5688 27.3624C80.6158 27.3624 80.6629 27.3624 80.7099 27.3624C81.2743 27.3624 81.5095 27.0304 81.7446 26.7459C81.7917 26.6985 81.7917 26.651 81.8387 26.6036C82.1679 26.2242 84.5196 21.4821 85.3192 19.3956C86.8243 15.4596 86.495 11.8081 86.495 11.7607V11.6184L84.99 11.5236V11.6659C84.99 11.7133 84.6607 15.8389 83.4849 18.6368C83.3438 18.9213 83.1556 19.3481 82.8734 19.8223C82.4972 19.6801 82.262 19.6327 82.1209 19.6327C82.1209 19.5852 82.215 18.7791 80.898 18.1152C80.851 18.0678 80.7569 18.0678 80.7099 18.0203C79.6752 17.4513 77.8879 16.5028 75.5362 20.6285C75.0659 21.4347 74.5014 22.5728 73.937 23.948H73.7019L73.6548 23.9954C73.5137 24.1851 73.4197 24.3748 73.2786 24.5645C71.9146 26.5562 69.9392 28.6902 69.1396 28.7376C68.9985 28.7376 68.9985 28.6902 68.9515 28.6902C68.8574 28.4056 69.9392 26.3191 70.8328 24.5171C73.0904 20.1069 74.7366 16.6451 74.2663 15.507C73.89 14.606 73.4667 14.1318 72.9493 13.9895C72.3379 13.8472 71.8205 14.1792 71.4443 14.4637C70.7387 14.9854 68.34 17.4987 67.5875 18.3523C67.5875 18.1152 67.5875 17.7832 67.6345 17.4513C67.7286 16.7399 67.1172 15.8864 66.3646 14.7957L66.2235 14.606C65.9413 14.1792 65.518 13.8947 65.0006 13.7998C65.7532 12.7091 66.5528 11.6659 67.3994 10.7174C72.3849 5.16911 74.9718 3.69905 76.3358 3.60421C76.5709 3.60421 76.712 3.60421 76.9002 3.65163C77.4646 3.84131 77.8408 4.41037 77.9819 5.40622V5.54849L78.123 5.50106C78.6874 5.40622 78.8285 5.26396 79.0637 5.02685L79.2048 4.88459V4.78974C78.9696 3.3671 78.5463 2.65578 77.6057 2.08672C75.7243 0.996026 72.9964 1.75477 69.8921 4.22068C66.882 6.63918 63.7778 10.4329 61.1909 14.9854C58.8863 19.0162 56.2524 24.8964 55.5469 28.4056V28.4531L55.5939 28.5005C55.9231 29.1169 57.5223 30.0654 58.6981 29.9231H58.7922V29.8283C59.0744 28.0737 62.9782 17.0719 65.3299 16.8348C65.471 16.8822 65.518 18.0678 65.1888 19.2059C64.8595 20.2491 62.7901 24.6119 62.4138 25.181H62.3668L62.3197 25.3232C62.2257 25.5603 63.4485 27.1252 63.9659 27.4098C64.3422 27.5995 64.5303 27.4098 64.5773 27.3149C65.518 25.8449 69.9862 19.9172 70.5036 19.3956C70.7858 19.111 70.8799 19.111 70.8799 19.0636C70.9269 19.111 70.8799 19.3481 70.8328 19.5378C70.5506 20.012 66.6939 25.8923 67.2112 28.1685C67.3053 28.6902 67.9638 29.0695 68.293 29.3066C69.1866 29.7809 70.5036 30.1128 71.3502 29.8283C71.4443 29.7809 71.5854 29.7334 71.7265 29.6386C70.5977 32.9107 69.8451 35.756 69.6099 37.5105C69.1396 41.5888 69.4688 42.8218 69.8451 43.6753C70.2684 44.6712 73.1845 47.0423 75.1599 47.0423C75.3481 47.0423 75.5832 46.9948 75.7714 46.9474C80.2866 45.5722 83.2967 42.5372 86.1658 36.4673C87.9531 32.4839 88.3764 28.0737 87.6238 27.4098Z" fill="#F8D44C"/>
<path d="M48.3977 29.5909C50.232 29.5909 51.7841 28.927 52.6307 28.3105C54.0417 27.2672 54.8883 25.7023 55.2646 23.4261C55.6409 21.1973 53.6655 19.7746 51.9252 18.4942C50.7964 17.6881 49.7617 16.8819 49.5735 16.0757C49.3384 14.9376 51.3608 13.5624 51.4078 13.5624L51.596 13.4201L49.1973 12.0449L49.1032 12.1398C49.0562 12.1872 47.8803 13.7047 47.6922 14.2263C46.5163 17.3561 48.6799 18.9685 51.4078 21.0076C51.8312 21.3395 52.2545 21.6241 52.6778 22.0034C53.3833 22.5725 53.7595 23.2364 53.6655 23.8529C53.5714 24.6116 52.8659 25.3229 51.596 25.8446C49.4324 26.7456 46.2812 26.0817 43.8825 24.2322L43.6473 24.0426V24.3271C43.6473 25.1332 43.6003 25.7971 43.6003 26.5085C43.6003 26.8878 43.6003 27.3146 43.5532 27.7414V27.8363L43.6003 27.8837C45.2464 29.1641 46.8926 29.5909 48.3977 29.5909Z" fill="#F8D44C"/>
<path d="M41.4837 26.7461L41.4366 26.9832C41.4366 27.0306 40.6371 31.9625 38.4735 35.7562C36.357 39.455 34.993 41.5416 33.6761 42.8694L33.2998 43.2488L33.8172 43.1065C34.8989 42.822 35.8396 42.8694 36.6392 43.3436C36.9214 43.4859 37.2036 43.7704 37.4388 44.1498L37.5328 44.292L37.6739 44.1498C39.7904 41.8261 43.5061 36.752 44.0705 28.6904V28.5955L44.0235 28.5481C43.8353 28.4058 41.7659 26.9358 41.6718 26.8884L41.4837 26.7461Z" fill="#F8D44C"/>
<path d="M26.7621 45.003C26.9032 45.4772 27.6087 46.1411 28.5494 46.7102L28.6435 46.7576L28.7375 46.6627C29.1608 46.1885 29.5841 45.7143 30.1015 45.2875L30.3837 45.0504H30.0074C29.5841 45.0504 29.2079 44.9081 28.9257 44.5762C28.4083 44.0546 28.1731 43.0587 28.2672 41.6835C28.7375 32.9105 33.7701 24.1375 35.0871 22.2407C36.6392 20.0119 38.0032 20.6284 38.2854 20.7706C38.1913 20.818 38.1443 20.8655 38.1443 20.9603C37.6269 22.8097 35.3222 26.5086 35.3222 26.556C35.2282 26.6983 35.1811 27.0302 35.4163 27.2674C35.4633 27.3148 36.3099 28.3581 37.0154 28.4529C37.0625 28.4529 37.1095 28.4529 37.1095 28.4529C37.768 28.4529 38.2383 27.8364 38.5205 27.457L38.5676 27.4096C38.8498 27.0777 41.0133 23.0468 41.8129 20.818C43.1769 17.0717 43.2239 15.5068 42.7065 12.9461V12.8987L42.6595 12.8512C42.2832 12.4244 40.9663 12.6615 40.6841 12.709H40.543V12.8512C40.543 12.8987 40.6841 17.1666 39.5082 19.917C39.4142 20.1541 39.2731 20.4387 39.0849 20.818C38.8027 20.7232 38.6146 20.6758 38.5205 20.6758C38.5205 20.6284 38.6146 19.8222 37.2976 19.1583C37.2506 19.1109 37.1565 19.1109 37.1095 19.0634C36.0748 18.4944 34.2875 17.546 31.9358 21.6716C29.7723 25.4179 24.6926 39.1227 26.7621 45.003Z" fill="#F8D44C"/>
<path d="M34.1936 62.6911C34.4758 62.0272 35.1343 60.1777 36.8275 55.0562C36.9216 54.7243 39.0381 47.2791 36.5923 45.0977C35.6987 44.339 34.3817 44.2916 32.6415 45.0977C26.7152 47.6585 25.022 55.7201 25.022 55.815L24.975 56.0047L25.1631 55.9572C25.2572 55.9572 27.5148 55.5779 28.1733 55.1036L28.2203 55.0562V55.0088C29.6784 50.8357 32.5945 47.5162 34.0995 47.5162H34.1466C34.5228 47.5162 34.805 47.8007 34.9461 48.3224C35.8868 51.9264 30.8542 62.7859 30.4309 63.7344C22.8115 65.7735 19.6602 68.761 19.2369 70.895C18.3433 75.6846 22.2 77.202 22.2 77.202H22.247H22.2941C26.4801 76.5382 31.5597 67.3858 32.0301 66.5796C44.3529 61.553 60.2032 65.2044 60.3443 65.2518H60.4384L63.1193 61.6478L62.9312 61.6004C50.8435 58.4231 36.4512 62.0746 34.1936 62.6911ZM27.0445 68.6662C26.1508 69.7569 23.7051 72.5547 22.9055 72.9815C21.9648 73.4557 21.1182 73.598 20.8831 73.3135C20.836 73.2661 20.836 72.8393 20.9301 72.4599C21.2593 70.9898 24.3165 69.7569 26.339 68.9507C26.5741 68.8559 26.8093 68.761 27.0445 68.6662Z" fill="#F8D44C"/>
<path d="M77.4174 54.7717L77.3233 54.6768L77.2293 54.7242C70.6445 57.9489 65.4238 58.518 64.4361 57.9015C64.3891 57.8541 64.342 57.8066 64.342 57.7592C64.342 57.2376 65.2357 55.6252 66.0823 54.0603C66.6467 53.0645 67.2111 52.0212 67.5873 51.2151C68.1047 50.0769 69.0924 47.8956 67.117 45.0503C66.4115 44.007 65.5649 43.4379 64.5772 43.3431C63.3073 43.2482 61.8963 43.9596 60.3912 45.5245C59.5446 46.3781 58.8861 47.7059 58.0395 49.2234C57.5221 50.2192 56.9107 51.3573 56.2052 52.448L56.1582 52.4954C56.0171 52.6851 55.923 52.8748 55.7819 53.0645C54.4179 55.0562 52.4425 57.1902 51.6429 57.2376C51.5489 57.2376 51.5018 57.1902 51.4548 57.1902C51.3607 56.9056 52.4425 54.8191 53.3362 53.0171C55.5938 48.6069 57.2399 45.1451 56.7696 44.007C56.3933 43.106 55.97 42.6318 55.4527 42.4895C54.8412 42.3472 54.3239 42.6792 53.9476 42.9637C53.2421 43.4854 50.8434 45.9987 50.0908 46.8523C50.0908 46.6152 50.0908 46.2832 50.1379 45.9513C50.2319 45.24 49.6205 44.3864 48.868 43.2957L48.7268 43.106C48.3976 42.6792 48.0213 42.3947 47.504 42.2998C48.2565 41.2091 49.0561 40.1659 49.9027 39.2174C55.6878 32.7681 58.2276 31.8197 59.3565 32.1516C59.9209 32.3413 60.2971 32.9104 60.4382 33.9062V34.0485L60.5793 34.0011C61.1437 33.9062 61.2848 33.764 61.52 33.5268L61.6611 33.3846V33.2897C61.4259 31.8671 61.0026 31.1558 60.062 30.5867C58.1806 29.496 55.4527 30.2548 52.3484 32.7207C49.3383 35.1392 46.2341 38.9329 43.6472 43.4854C41.3426 47.5162 38.7087 53.3964 38.0032 56.9056V56.9531L38.0502 57.0005C38.3794 57.6169 39.9786 58.5654 41.1544 58.4231H41.2485V58.3283C41.5307 56.5737 45.4345 45.5719 47.7862 45.3348C47.9273 45.3822 47.9743 46.5678 47.6451 47.7059C47.3158 48.7491 45.2464 53.1119 44.8701 53.681H44.8231L44.776 53.8232C44.682 54.1078 45.9048 55.6252 46.4222 55.9098C46.7985 56.0995 46.9866 55.9098 47.0336 55.8149C47.9743 54.3449 52.4425 48.4172 52.9599 47.8956C53.2421 47.611 53.3362 47.611 53.3362 47.5636C53.3832 47.611 53.3362 47.8481 53.2891 48.0378C53.0069 48.512 49.1502 54.3923 49.6675 56.6685C49.7146 56.9056 49.9497 57.1902 50.326 57.4273C51.5018 58.1386 53.7595 58.5654 54.7472 58.2809C57.0518 57.617 59.1213 53.9655 60.9556 50.7408C62.1314 48.7017 63.2132 46.7574 64.0128 46.4255C64.6713 46.141 65.1886 46.0935 65.5179 46.2832C65.753 46.4255 65.9412 46.6626 66.0352 47.042C66.1763 47.611 64.295 51.9738 63.0251 54.5346C61.8963 56.7634 62.5547 58.0437 63.2603 58.7551C64.2009 59.6087 65.753 60.0354 67.6814 60.0354C71.2089 60.0354 75.9123 58.6602 79.8161 56.1943L80.0983 56.0046L79.7691 55.9098C78.0759 55.4356 77.4174 54.8191 77.4174 54.7717Z" fill="#F8D44C"/>
<path d="M8.37199 47.1368C7.24319 46.3307 6.20845 45.5245 6.02031 44.7183C5.78514 43.5802 7.80759 42.205 7.85462 42.205L8.04276 42.0627L5.64404 40.6875L5.54997 40.7823C5.50294 40.8298 4.3271 42.3473 4.13896 42.8689C2.96312 45.9987 5.12667 47.611 7.85462 49.6502C8.27793 49.9821 8.70123 50.2666 9.12453 50.646C9.83004 51.2151 10.2063 51.879 10.1122 52.4954C10.0182 53.2542 9.31267 53.9655 8.04276 54.4871C5.87921 55.3882 2.72795 54.7242 0.329236 52.8748L0.0940674 52.6851V52.9697C0.0940674 53.7284 0.0470337 54.4397 0.0470337 55.1036C0.0470337 55.5304 0 55.9098 0 56.384V56.4788H0.0470337C1.64618 57.7592 3.33939 58.2334 4.79743 58.2334C6.63175 58.2334 8.18386 57.5695 9.03047 56.9531C10.4415 55.9572 11.2881 54.3449 11.6644 52.0686C12.0406 49.8398 10.1122 48.4172 8.37199 47.1368Z" fill="#F8D44C"/>
<path d="M24.0812 52.0689C24.3164 50.5514 23.2816 48.8442 22.1058 47.7535C24.2223 46.8051 25.0689 45.7144 25.7274 43.1536C26.2918 40.9723 24.4575 39.597 22.8583 38.3641C21.8236 37.6053 20.8829 36.8466 20.6948 36.0404C20.4126 34.8549 22.0587 32.9106 22.0587 32.9106L22.1998 32.7683L19.0015 31.3457L18.9545 31.4405C18.9545 31.488 18.4371 32.057 18.1079 32.4838C17.3083 33.6219 16.9791 34.6652 17.2143 35.7085C17.5905 37.4631 19.3308 39.1702 23.0464 41.3516C23.799 41.7784 24.2223 42.5372 24.1282 43.2485C24.0342 44.1021 23.3286 44.8608 22.1528 45.2876C21.2592 45.6196 20.6007 45.6196 19.8011 45.667C19.2837 45.7144 18.6723 45.7144 17.9198 45.8567H17.8727L17.8257 45.9041C17.8257 45.9041 17.4494 48.702 17.4965 48.7968C17.5435 48.8442 17.5905 48.8916 17.6846 48.8916C19.66 49.3659 21.1181 49.9823 21.6825 50.5514C22.1528 51.0256 22.7172 51.7844 22.5761 52.5431C22.435 53.2544 21.7295 53.8709 20.5066 54.3925C18.3431 55.2935 15.1918 54.6296 12.7931 52.7802L12.5579 52.5905V52.875C12.5579 53.6338 12.5109 54.3451 12.5109 55.009C12.5109 55.4358 12.4639 55.8152 12.4639 56.2894V56.3842L12.5109 56.4317C14.11 57.712 15.8033 58.1862 17.2613 58.1862C19.0956 58.1862 20.6477 57.5223 21.4943 56.9059C22.8583 55.91 23.7049 54.3451 24.0812 52.0689Z" fill="#F8D44C"/>
<path d="M67.5875 73.2188L72.7141 64.3036C73.0434 63.7345 73.0904 63.9716 72.9963 64.351C72.8552 65.1097 72.573 67.386 72.8552 69.6622C72.9023 70.1838 72.9963 70.5158 72.573 70.9426C71.162 72.4126 69.2807 73.3136 67.9637 73.8353C67.6345 73.9775 67.0701 74.1672 67.5875 73.2188Z" fill="#F8D44C"/>
<path d="M78.5462 74.3091H68.3399C67.6814 74.3091 67.8696 74.1669 68.2458 74.0246C68.9513 73.7875 71.0679 72.8865 72.8551 71.5113C73.2784 71.1793 73.5136 70.9422 74.078 71.1319C76.0064 71.6535 77.7937 72.8391 78.8284 73.6927C79.1577 73.9298 79.628 74.3091 78.5462 74.3091Z" fill="#F8D44C"/>
<path d="M73.984 64.2087L79.0636 73.1239C79.3928 73.693 79.1577 73.5981 78.8755 73.361C78.3111 72.8394 76.4767 71.4642 74.4073 70.6106C73.9369 70.4209 73.6077 70.3261 73.4666 69.757C72.9492 67.8127 73.0903 65.6788 73.2785 64.3035C73.3725 63.8767 73.4666 63.2603 73.984 64.2087Z" fill="#F8D44C"/>
<path d="M84.4255 79.526H6.34961V60.4626H7.10215V78.7673H83.6259V42.7744H84.4255V79.526Z" fill="#F8D44C" stroke="#F8D44C" stroke-width="2" stroke-miterlimit="10"/>
<path d="M84.4254 10.7177H83.6258V3.22511H80.0513V2.41895H84.4254V10.7177Z" fill="#F8D44C" stroke="#F8D44C" stroke-width="2" stroke-miterlimit="10"/>
<path d="M70.3152 2.41895H29.6311V3.17769H70.3152V2.41895Z" fill="#F8D44C" stroke="#F8D44C" stroke-width="2" stroke-miterlimit="10"/>
<path d="M7.10215 38.2221H6.34961V2.41895H17.0733V3.22511H7.10215V38.2221Z" fill="#F8D44C" stroke="#F8D44C" stroke-width="2" stroke-miterlimit="10"/>
</g>
<defs>
<clipPath id="clip0_227_3468">
<rect width="88" height="80" fill="white"/>
</clipPath>
</defs>
</svg>
