<svg width="381" height="60" viewBox="0 0 381 60" fill="none" xmlns="http://www.w3.org/2000/svg">
<path fill-rule="evenodd" clip-rule="evenodd" d="M379.89 1.11729C379.666 1.23082 379.334 1.3991 378.897 1.61844L378.785 1.39502L378.561 0.948196L378.448 0.724782C378.884 0.506163 379.215 0.338588 379.437 0.225751C379.548 0.169333 379.632 0.126599 379.688 0.0980112L379.751 0.065797L379.766 0.0577555L379.77 0.05577L379.771 0.0552885L379.771 0.0551758L379.886 0.277531L379.886 0.277559L380 0.4999L380.114 0.722462L380.114 0.722326L380.228 0.944657L380.228 0.944709L380.228 0.944853L380.227 0.945397L380.223 0.947508L380.207 0.955801L380.143 0.988522C380.086 1.01745 380.002 1.06053 379.89 1.11729ZM377.128 2.5008C376.368 2.87715 375.476 3.31658 374.458 3.81337L374.348 3.58869L374.129 3.13935L374.019 2.91467C375.035 2.41879 375.926 1.98025 376.684 1.60477L376.795 1.82878L377.017 2.2768L377.128 2.5008ZM372.604 4.71373C371.774 5.11506 370.882 5.54418 369.93 5.99897L369.822 5.77339L369.607 5.32224L369.499 5.09666C370.449 4.64256 371.34 4.21413 372.169 3.81346L372.278 4.03853L372.495 4.48866L372.604 4.71373ZM0.391442 5.72511L0.499982 5.4999L0.608531 5.2747L0.717076 5.04949L0.717084 5.04949L0.717131 5.04952L0.717352 5.04962L0.718295 5.05008L0.722184 5.05195L0.737954 5.05953L0.801263 5.08992C0.857513 5.11687 0.941752 5.15717 1.05338 5.21037C1.27663 5.31675 1.60944 5.47472 2.047 5.68072L1.94051 5.90691L1.72753 6.35928L1.62104 6.58547C1.18204 6.37878 0.847825 6.22015 0.6232 6.11311C0.510888 6.05959 0.425972 6.01897 0.369053 5.99169L0.304747 5.96083L0.288482 5.953L0.284347 5.95101L0.283281 5.9505L0.282999 5.95037L0.282921 5.95033L0.282898 5.95032L0.391442 5.72511ZM368.141 6.85031C367.265 7.26575 366.346 7.6991 365.387 8.14903L365.281 7.92267L365.068 7.46997L364.962 7.24361C365.921 6.79431 366.838 6.36158 367.713 5.94674L367.82 6.17263L368.034 6.62442L368.141 6.85031ZM6.08223 8.65232C5.05942 8.1848 4.16267 7.77109 3.39943 7.41668L3.50472 7.18993L3.71531 6.73644L3.8206 6.50969C4.58207 6.86329 5.477 7.27617 6.49795 7.74282L6.39402 7.97019L6.18616 8.42494L6.08223 8.65232ZM363.616 8.97638C362.729 9.38965 361.81 9.81517 360.862 10.252L360.757 10.025L360.548 9.57084L360.443 9.34378C361.39 8.9075 362.308 8.48255 363.194 8.06983L363.3 8.29647L363.511 8.74974L363.616 8.97638ZM10.6308 10.7081C9.67474 10.2806 8.77848 9.87705 7.94477 9.49957L8.04788 9.27182L8.25411 8.81634L8.35723 8.58859C9.18955 8.96544 10.0844 9.36831 11.039 9.79516L10.937 10.0234L10.7329 10.4798L10.6308 10.7081ZM359.071 11.0745C358.173 11.4852 357.252 11.9048 356.307 12.3327L356.204 12.105L355.997 11.6496L355.894 11.4218C356.838 10.9944 357.758 10.5753 358.655 10.1652L358.759 10.3925L358.967 10.8471L359.071 11.0745ZM15.1931 12.728C14.2295 12.3055 13.307 11.8984 12.4271 11.5081L12.5284 11.2795L12.7312 10.8225L12.8326 10.594C13.7112 10.9838 14.6325 11.3903 15.5947 11.8122L15.4943 12.0411L15.2935 12.499L15.1931 12.728ZM354.512 13.1429C353.604 13.5517 352.675 13.9673 351.728 14.3893L351.626 14.1609L351.423 13.7041L351.321 13.4758C352.267 13.0544 353.195 12.6392 354.102 12.2309L354.205 12.4589L354.41 12.9149L354.512 13.1429ZM19.7364 14.7021C18.7846 14.2923 17.8625 13.8929 16.9714 13.505L17.0712 13.2758L17.2707 12.8173L17.3705 12.5881C18.2605 12.9755 19.1813 13.3743 20.1319 13.7836L20.033 14.0133L19.8353 14.4725L19.7364 14.7021ZM349.937 15.184C349.031 15.5849 348.109 15.9909 347.171 16.4017L347.071 16.1727L346.87 15.7147L346.77 15.4857C347.707 15.0754 348.628 14.6699 349.533 14.2695L349.634 14.4981L349.836 14.9554L349.937 15.184ZM24.309 16.6535C23.3607 16.2524 22.4357 15.8589 21.5349 15.4738L21.6332 15.2439L21.8297 14.7842L21.928 14.5543C22.8277 14.939 23.7515 15.3319 24.6986 15.7325L24.6012 15.9628L24.4064 16.4233L24.309 16.6535ZM345.341 17.2004C344.44 17.5923 343.526 17.988 342.598 18.3874L342.499 18.1577L342.302 17.6985L342.203 17.4689C343.129 17.0701 344.042 16.6748 344.942 16.2834L345.042 16.5126L345.241 16.9711L345.341 17.2004ZM28.9047 18.5805C27.954 18.1854 27.0223 17.796 26.1105 17.4129L26.2073 17.1824L26.4009 16.7215L26.4978 16.491C27.4085 16.8736 28.339 17.2624 29.2885 17.6571L29.1926 17.8879L29.0007 18.3496L28.9047 18.5805ZM340.726 19.1906C339.828 19.5745 338.919 19.9615 337.998 20.3511L337.901 20.1208L337.706 19.6604L337.609 19.4301C338.528 19.041 339.436 18.6546 340.333 18.2711L340.432 18.501L340.628 18.9607L340.726 19.1906ZM33.4779 20.4647C32.5367 20.0803 31.6111 19.7002 30.7017 19.3248L30.7971 19.0937L30.9879 18.6315L31.0833 18.4005C31.9915 18.7754 32.9159 19.155 33.856 19.5389L33.7615 19.7704L33.5724 20.2332L33.4779 20.4647ZM336.147 21.1318C335.231 21.5167 334.305 21.9039 333.369 22.2931L333.273 22.0623L333.081 21.6006L332.985 21.3698C333.92 20.981 334.845 20.5943 335.76 20.2099L335.857 20.4404L336.05 20.9013L336.147 21.1318ZM38.0652 22.3218C37.1348 21.9485 36.2174 21.5783 35.3134 21.2117L35.4074 20.98L35.5953 20.5167L35.6893 20.285C36.5921 20.6512 37.5083 21.0208 38.4376 21.3937L38.3445 21.6257L38.1583 22.0898L38.0652 22.3218ZM331.535 23.0532C330.611 23.4345 329.679 23.8174 328.737 24.2019L328.643 23.9704L328.454 23.5075L328.359 23.2761C329.299 22.8921 330.231 22.5097 331.153 22.1289L331.248 22.36L331.439 22.8221L331.535 23.0532ZM42.6789 24.1566C41.7558 23.7928 40.8438 23.4314 39.9432 23.0726L40.0357 22.8404L40.2207 22.3759L40.3132 22.1436C41.2127 22.5019 42.1237 22.8629 43.0456 23.2263L42.9539 23.4588L42.7706 23.924L42.6789 24.1566ZM47.3213 25.9694C46.3827 25.6063 45.4541 25.245 44.5357 24.8857L44.6268 24.6529L44.809 24.1873L44.9001 23.9544C45.8173 24.3133 46.7447 24.6741 47.6821 25.0368L47.5919 25.27L47.4115 25.7363L47.3213 25.9694ZM326.889 24.9537C325.973 25.325 325.049 25.6976 324.117 26.0711L324.024 25.839L323.838 25.3749L323.745 25.1429C324.676 24.7699 325.599 24.3978 326.514 24.0269L326.607 24.2586L326.795 24.722L326.889 24.9537ZM51.966 27.7495C51.0221 27.3912 50.087 27.0341 49.161 26.6785L49.2506 26.4451L49.4298 25.9784L49.5195 25.745C50.4443 26.1001 51.3782 26.4567 52.3209 26.8146L52.2322 27.0483L52.0547 27.5158L51.966 27.7495ZM322.243 26.8192C321.323 27.1854 320.395 27.5523 319.46 27.9198L319.369 27.6871L319.186 27.2218L319.094 26.9891C320.028 26.6222 320.954 26.2557 321.874 25.89L321.966 26.1223L322.151 26.5869L322.243 26.8192ZM56.5972 29.4906C55.6632 29.1429 54.7367 28.7959 53.8181 28.4499L53.9062 28.2159L54.0825 27.748L54.1706 27.5141C55.088 27.8596 56.0133 28.2062 56.9461 28.5534L56.8589 28.7877L56.6844 29.2563L56.5972 29.4906ZM317.602 28.6474C316.669 29.0114 315.729 29.3758 314.783 29.7403L314.693 29.507L314.513 29.0404L314.424 28.8071C315.368 28.4432 316.307 28.0793 317.239 27.7157L317.33 27.9486L317.511 28.4144L317.602 28.6474ZM61.2643 31.2106C60.3278 30.869 59.398 30.5277 58.4753 30.187L58.5619 29.9525L58.7351 29.4834L58.8217 29.2489C59.7432 29.5892 60.6717 29.93 61.607 30.2712L61.5213 30.506L61.3499 30.9758L61.2643 31.2106ZM312.925 30.4534C311.997 30.8078 311.064 31.1622 310.126 31.5163L310.038 31.2824L309.861 30.8146L309.773 30.5807C310.71 30.2271 311.642 29.8732 312.568 29.5193L312.657 29.7528L312.836 30.2199L312.925 30.4534ZM65.9513 32.9026C65.0034 32.5641 64.0617 32.2255 63.1263 31.8871L63.2114 31.652L63.3815 31.1818L63.4665 30.9467C64.4006 31.2847 65.3411 31.6228 66.2876 31.9608L66.2036 32.1963L66.0354 32.6672L65.9513 32.9026ZM308.242 32.2242C307.31 32.5727 306.373 32.9209 305.432 33.2685L305.345 33.034L305.172 32.5649L305.085 32.3304C306.026 31.9833 306.961 31.6356 307.892 31.2875L307.979 31.5217L308.154 31.99L308.242 32.2242ZM70.6169 34.5509C69.6768 34.2224 68.742 33.8936 67.8128 33.5646L67.8963 33.3289L68.0632 32.8576L68.1466 32.6219C69.0745 32.9505 70.008 33.2789 70.9468 33.6069L70.8643 33.8429L70.6994 34.3149L70.6169 34.5509ZM303.559 33.9569C302.619 34.3006 301.675 34.6437 300.727 34.9859L300.642 34.7507L300.472 34.2804L300.387 34.0452C301.334 33.7036 302.277 33.361 303.215 33.0178L303.301 33.2525L303.473 33.7221L303.559 33.9569ZM75.3184 36.1749C74.3755 35.853 73.4373 35.5304 72.5041 35.2073L72.5859 34.9711L72.7495 34.4986L72.8313 34.2623C73.7632 34.585 74.7 34.9071 75.6415 35.2285L75.5608 35.4651L75.3992 35.9383L75.3184 36.1749ZM298.842 35.6624C297.906 35.997 296.966 36.3305 296.022 36.6629L295.939 36.4271L295.773 35.9555L295.69 35.7197C296.632 35.3878 297.571 35.0548 298.506 34.7208L298.59 34.9562L298.758 35.427L298.842 35.6624ZM80.0304 37.7644C79.0807 37.448 78.1353 37.1305 77.1943 36.8123L77.2744 36.5755L77.4346 36.1019L77.5147 35.865C78.4543 36.1828 79.3983 36.4997 80.3466 36.8157L80.2675 37.0529L80.1095 37.5272L80.0304 37.7644ZM294.129 37.3261C293.185 37.6553 292.238 37.9831 291.287 38.3095L291.206 38.0731L291.043 37.6002L290.962 37.3637C291.911 37.0378 292.858 36.7105 293.8 36.3818L293.883 36.6179L294.047 37.09L294.129 37.3261ZM84.7402 39.3141C83.7953 39.0072 82.8541 38.699 81.9168 38.3898L81.9951 38.1524L82.1518 37.6776L82.2301 37.4402C83.1659 37.7489 84.1057 38.0566 85.0491 38.363L84.9719 38.6008L84.8175 39.0763L84.7402 39.3141ZM289.399 38.9541C288.453 39.2753 287.504 39.595 286.552 39.913L286.473 39.6759L286.314 39.2017L286.235 38.9645C287.186 38.6471 288.133 38.3279 289.077 38.0072L289.158 38.2439L289.319 38.7173L289.399 38.9541ZM89.48 40.833C88.5283 40.5322 87.5799 40.2299 86.6349 39.9262L86.7114 39.6882L86.8643 39.2122L86.9408 38.9742C87.8843 39.2773 88.8312 39.5792 89.7814 39.8795L89.7061 40.1179L89.5554 40.5947L89.48 40.833ZM284.644 40.5467C283.699 40.8591 282.75 41.1697 281.799 41.4783L281.722 41.2405L281.567 40.7649L281.49 40.5272C282.44 40.2191 283.387 39.909 284.331 39.5971L284.409 39.8345L284.566 40.3093L284.644 40.5467ZM94.2181 42.3095C93.2656 42.017 92.3159 41.7227 91.3692 41.4268L91.4438 41.1882L91.5929 40.711L91.6675 40.4724C92.6126 40.7678 93.5607 41.0616 94.5117 41.3536L94.4383 41.5926L94.2915 42.0705L94.2181 42.3095ZM279.895 42.0926C278.941 42.3984 277.985 42.7022 277.027 43.0036L276.952 42.7652L276.802 42.2882L276.727 42.0497C277.683 41.7488 278.637 41.4456 279.589 41.1404L279.666 41.3784L279.818 41.8546L279.895 42.0926ZM98.9733 43.7479C98.022 43.4646 97.0731 43.1793 96.1268 42.8922L96.1994 42.653L96.3446 42.1745L96.4171 41.9353C97.3618 42.2219 98.3091 42.5067 99.2587 42.7895L99.1873 43.0291L99.0446 43.5083L98.9733 43.7479ZM275.119 43.6001C274.165 43.8965 273.209 44.1905 272.251 44.482L272.178 44.2428L272.032 43.7645L271.96 43.5253C272.916 43.2344 273.87 42.9409 274.822 42.6451L274.896 42.8839L275.045 43.3614L275.119 43.6001ZM103.747 45.1464C102.788 44.8703 101.832 44.592 100.878 44.3115L100.949 44.0717L101.09 43.592L101.16 43.3521C102.112 43.6321 103.067 43.9099 104.023 44.1855L103.954 44.4258L103.816 44.9062L103.747 45.1464ZM270.333 45.0617C269.375 45.3494 268.415 45.6344 267.453 45.9168L267.383 45.6769L267.242 45.1972L267.171 44.9573C268.131 44.6755 269.089 44.391 270.046 44.1039L270.117 44.3433L270.261 44.8222L270.333 45.0617ZM108.522 46.4986C107.565 46.2323 106.609 45.9635 105.655 45.6924L105.723 45.4519L105.86 44.9709L105.928 44.7305C106.88 45.0011 107.834 45.2693 108.79 45.5351L108.723 45.776L108.589 46.2577L108.522 46.4986ZM265.532 46.4767C264.571 46.7548 263.608 47.03 262.645 47.3022L262.577 47.0616L262.441 46.5804L262.373 46.3398C263.334 46.0682 264.295 45.7936 265.254 45.5161L265.324 45.7562L265.463 46.2365L265.532 46.4767ZM113.318 47.8073C112.357 47.5501 111.398 47.2902 110.439 47.0278L110.506 46.7866L110.638 46.3044L110.704 46.0633C111.66 46.3253 112.618 46.5846 113.577 46.8412L113.512 47.0827L113.383 47.5658L113.318 47.8073ZM260.716 47.8425C259.752 48.1106 258.786 48.3756 257.819 48.6373L257.754 48.396L257.623 47.9133L257.558 47.672C258.522 47.4109 259.486 47.1465 260.449 46.879L260.516 47.1198L260.65 47.6016L260.716 47.8425ZM118.124 49.067C117.161 48.8199 116.199 48.5698 115.238 48.3169L115.302 48.0751L115.429 47.5916L115.493 47.3498C116.452 47.6023 117.411 47.8518 118.372 48.0984L118.31 48.3406L118.186 48.8249L118.124 49.067ZM255.886 49.1562C254.919 49.4134 253.951 49.6672 252.983 49.9175L252.92 49.6754L252.795 49.1913L252.733 48.9493C253.698 48.6996 254.664 48.4464 255.629 48.1898L255.693 48.4314L255.822 48.9146L255.886 49.1562ZM122.945 50.2768C121.979 50.0402 121.014 49.8002 120.05 49.5572L120.112 49.3148L120.234 48.8299L120.295 48.5875C121.257 48.83 122.22 49.0695 123.183 49.3056L123.123 49.5484L123.004 50.034L122.945 50.2768ZM251.041 50.4147C250.069 50.6609 249.097 50.9035 248.125 51.1422L248.066 50.8994L247.946 50.4138L247.887 50.171C248.856 49.9329 249.826 49.691 250.795 49.4453L250.856 49.6876L250.979 50.1723L251.041 50.4147ZM127.775 51.4323C126.809 51.2069 125.842 50.9781 124.876 50.7458L124.935 50.5027L125.051 50.0166L125.11 49.7735C126.074 50.0052 127.038 50.2336 128.002 50.4584L127.946 50.7019L127.832 51.1888L127.775 51.4323ZM244 52.1317C244.727 51.9615 245.454 51.789 246.182 51.6143L246.123 51.3712L246.006 50.8851L245.948 50.642C245.299 50.798 244.649 50.9522 244 51.1046V52.1317ZM132.626 52.5326C131.655 52.3187 130.685 52.101 129.715 51.8796L129.77 51.6359L129.882 51.1484L129.937 50.9047C130.905 51.1255 131.873 51.3427 132.841 51.556L132.787 51.8002L132.679 52.2884L132.626 52.5326ZM137.484 53.5715C136.512 53.3701 135.539 53.1646 134.566 52.9552L134.618 52.7108L134.724 52.222L134.776 51.9776C135.747 52.1865 136.717 52.3914 137.687 52.5923L137.636 52.8371L137.535 53.3267L137.484 53.5715ZM152 55.2496V56.2628L152.139 56.2854L152.179 56.0386L152.259 55.545L152.299 55.2982L152 55.2496ZM140 53.0636V54.0834C139.812 54.0458 139.624 54.008 139.435 53.9701L139.485 53.725L139.583 53.2349L139.633 52.9898L140 53.0636ZM231.505 54.8242C230.523 55.0165 229.543 55.2038 228.565 55.3859L228.519 55.1401L228.427 54.6486L228.382 54.4028C229.357 54.2212 230.334 54.0345 231.313 53.8428L231.361 54.0882L231.457 54.5788L231.505 54.8242ZM226.584 55.7478C225.594 55.9252 224.607 56.0971 223.621 56.2634L223.58 56.0169L223.497 55.5239L223.455 55.2773C224.437 55.1116 225.421 54.9403 226.407 54.7635L226.451 55.0096L226.54 55.5017L226.584 55.7478ZM221.653 56.5885C220.658 56.7491 219.666 56.9038 218.676 57.0524L218.639 56.8052L218.565 56.3108L218.528 56.0635C219.514 55.9154 220.503 55.7613 221.493 55.6013L221.533 55.8481L221.613 56.3417L221.653 56.5885ZM157.066 57.0416C156.084 56.8994 155.1 56.7516 154.114 56.5985L154.152 56.3515L154.229 55.8574L154.267 55.6104C155.25 55.7629 156.231 55.9102 157.209 56.052L157.173 56.2994L157.102 56.7942L157.066 57.0416ZM161.992 57.7107C161.006 57.5859 160.018 57.4552 159.027 57.3188L159.061 57.0711L159.129 56.5758L159.164 56.3281C160.151 56.4641 161.135 56.5943 162.117 56.7186L162.086 56.9667L162.023 57.4627L161.992 57.7107ZM216.69 57.343C215.699 57.4842 214.71 57.6191 213.724 57.7476L213.691 57.4997L213.627 57.0039L213.594 56.756C214.576 56.628 215.561 56.4936 216.549 56.353L216.584 56.6005L216.655 57.0955L216.69 57.343ZM166.924 58.2871C165.942 58.1822 164.957 58.0709 163.97 57.9535L164 57.7053L164.059 57.2088L164.088 56.9605C165.072 57.0774 166.052 57.1883 167.03 57.2928L167.003 57.5414L166.95 58.0386L166.924 58.2871ZM211.732 57.9987C210.73 58.1208 209.731 58.236 208.736 58.3442L208.709 58.0956L208.655 57.5986L208.628 57.35C209.619 57.2423 210.613 57.1276 211.611 57.006L211.641 57.2542L211.702 57.7505L211.732 57.9987ZM171.887 58.7657C170.897 58.6809 169.903 58.5893 168.906 58.4909L168.931 58.2421L168.98 57.7446L169.004 57.4958C169.997 57.5937 170.987 57.685 171.973 57.7694L171.951 58.0185L171.909 58.5166L171.887 58.7657ZM206.75 58.5511C205.748 58.6509 204.75 58.7433 203.756 58.8282L203.735 58.5791L203.692 58.081L203.671 57.8319C204.66 57.7474 205.654 57.6554 206.651 57.556L206.676 57.8048L206.725 58.3023L206.75 58.5511ZM176.841 59.1336C175.853 59.0717 174.86 59.0025 173.863 58.9261L173.882 58.6768L173.921 58.1783L173.94 57.929C174.932 58.0051 175.92 58.074 176.904 58.1356L176.888 58.3851L176.857 58.8841L176.841 59.1336ZM201.749 58.9897C200.748 59.0651 199.752 59.1327 198.76 59.1922L198.745 58.9427L198.715 58.4436L198.7 58.194C199.687 58.1349 200.678 58.0676 201.674 57.9925L201.693 58.2418L201.73 58.7404L201.749 58.9897ZM181.808 59.3829C180.822 59.346 179.832 59.3012 178.837 59.2487L178.85 58.9991L178.876 58.4998L178.889 58.2501C179.879 58.3023 180.865 58.3469 181.845 58.3836L181.836 58.6334L181.817 59.1331L181.808 59.3829ZM196.759 59.3015C195.748 59.3512 194.741 59.3922 193.739 59.4243L193.731 59.1745L193.715 58.6747L193.707 58.4249C194.703 58.3929 195.704 58.3521 196.71 58.3027L196.723 58.5524L196.747 59.0518L196.759 59.3015ZM186.796 59.5017C185.801 59.492 184.801 59.4736 183.796 59.4467L183.803 59.1968L183.816 58.697L183.823 58.4471C184.822 58.4738 185.817 58.4921 186.806 58.5018L186.804 58.7517L186.799 59.2517L186.796 59.5017ZM191.743 59.4766C191.246 59.4866 190.75 59.4944 190.256 59.4999C189.765 59.5053 189.272 59.5085 188.779 59.5095L188.778 59.2595L188.777 58.7595L188.777 58.5095C189.267 58.5085 189.757 58.5053 190.244 58.4999C190.736 58.4945 191.229 58.4868 191.723 58.4768L191.728 58.7267L191.738 59.2266L191.743 59.4766Z" fill="#2A3342" fill-opacity="0.2"/>
</svg>
