<svg width="1200" height="529" viewBox="0 0 1200 529" fill="none" xmlns="http://www.w3.org/2000/svg">
<path opacity="0.2" fill-rule="evenodd" clip-rule="evenodd" d="M0 529L1197.01 529V526.011L1200 526.011V2.98871H1197.01V6.10352e-05L0 0L0 529ZM1152.12 47.8192H1197.01V2.98871H1152.12V47.8192ZM1149.13 47.8192V2.98871H1104.24V47.8192H1149.13ZM1149.13 50.8079V95.6385H1104.24V50.8079H1149.13ZM1152.12 95.6385V50.8079H1197.01V95.6385H1152.12ZM1149.13 98.6271H1104.24V143.458H1149.13V98.6271ZM1152.12 143.458V98.6271H1197.01V143.458H1152.12ZM1149.13 146.446H1104.24V191.277H1149.13V146.446ZM1152.12 191.277V146.446H1197.01V191.277H1152.12ZM1149.13 194.266H1104.24V239.096H1149.13V194.266ZM1152.12 239.096V194.266H1197.01V239.096H1152.12ZM1149.13 242.085H1104.24V286.915H1149.13V242.085ZM1152.12 286.915V242.085H1197.01V286.915L1152.12 286.915ZM1149.13 289.904H1104.24V334.734H1149.13V289.904ZM1152.12 334.734V289.904L1197.01 289.904V334.734L1152.12 334.734ZM1149.13 337.723H1104.24V382.554H1149.13V337.723ZM1152.12 382.554V337.723L1197.01 337.723V382.554L1152.12 382.554ZM1149.13 385.542H1104.24V430.373H1149.13V385.542ZM1152.12 430.373V385.542L1197.01 385.542V430.373H1152.12ZM1149.13 433.362H1104.24V478.192H1149.13V433.362ZM1152.12 478.192V433.362H1197.01V478.192H1152.12ZM1152.12 481.181H1197.01V526.011L1152.12 526.011V481.181ZM1149.13 481.181H1104.24V526.011H1149.13V481.181ZM2.99252 526.011H47.8803V481.181H2.99252L2.99252 526.011ZM2.99252 478.192H47.8803L47.8803 433.362H2.99252L2.99252 478.192ZM2.99252 430.373H47.8803V385.542H2.99252L2.99252 430.373ZM2.99252 382.554H47.8803L47.8803 337.723H2.99252L2.99252 382.554ZM2.99252 334.734H47.8803V289.904H2.99252L2.99252 334.734ZM2.99252 286.915H47.8803V242.085H2.99252L2.99252 286.915ZM2.99252 239.096H47.8803L47.8803 194.266H2.99252L2.99252 239.096ZM2.99252 191.277H47.8803V146.446H2.99252L2.99252 191.277ZM2.99252 143.458H47.8803L47.8803 98.6271H2.99252L2.99252 143.458ZM2.99252 95.6384H47.8803V50.8079H2.99252L2.99252 95.6384ZM2.99252 47.8192H47.8803L47.8803 2.98871H2.99252L2.99252 47.8192ZM1101.25 2.98871H1056.36V47.8192H1101.25V2.98871ZM1008.48 2.98871H1053.37V47.8192H1008.48V2.98871ZM1008.48 50.8079H1053.37V95.6384H1008.48V50.8079ZM1056.36 95.6384V50.8079H1101.25V95.6384H1056.36ZM1101.25 98.6271H1056.36V143.458H1101.25V98.6271ZM1053.37 143.458V98.6271H1008.48V143.458H1053.37ZM1008.48 146.446H1053.37V191.277H1008.48V146.446ZM1056.36 191.277V146.446H1101.25V191.277H1056.36ZM1101.25 194.266H1056.36V239.096H1101.25V194.266ZM1053.37 239.096V194.266H1008.48V239.096H1053.37ZM1008.48 242.085H1053.37V286.915H1008.48V242.085ZM1056.36 286.915V242.085H1101.25V286.915H1056.36ZM1101.25 289.904H1056.36V334.734H1101.25V289.904ZM1053.37 334.734V289.904H1008.48V334.734H1053.37ZM1008.48 337.723H1053.37V382.554H1008.48V337.723ZM1056.36 382.554V337.723H1101.25V382.554H1056.36ZM1101.25 385.542H1056.36V430.373H1101.25V385.542ZM1053.37 430.373V385.542H1008.48V430.373H1053.37ZM1008.48 433.362H1053.37V478.192H1008.48V433.362ZM1056.36 478.192V433.362H1101.25V478.192H1056.36ZM1101.25 481.181H1056.36V526.011H1101.25V481.181ZM1008.48 481.181H1053.37V526.011H1008.48V481.181ZM1005.49 481.181V526.011H960.599V481.181H1005.49ZM957.606 481.181V526.011L912.718 526.011V481.181H957.606ZM957.606 478.192H912.718V433.362H957.606V478.192ZM960.599 478.192V433.362H1005.49V478.192H960.599ZM960.599 430.373H1005.49V385.542H960.599V430.373ZM957.606 430.373V385.542H912.718V430.373H957.606ZM957.606 382.554H912.718V337.723H957.606V382.554ZM960.599 382.554V337.723H1005.49V382.554H960.599ZM960.599 334.734H1005.49V289.904H960.599V334.734ZM957.606 334.734V289.904H912.718V334.734H957.606ZM957.606 286.915H912.718V242.085H957.606V286.915ZM960.599 286.915V242.085H1005.49V286.915H960.599ZM960.599 239.096H1005.49V194.266H960.599V239.096ZM957.606 239.096V194.266H912.718V239.096H957.606ZM957.606 191.277H912.718V146.446H957.606V191.277ZM960.599 191.277V146.446H1005.49V191.277H960.599ZM960.599 143.458H1005.49V98.6271H960.599V143.458ZM957.606 143.458V98.6271H912.718V143.458H957.606ZM957.606 95.6384H912.718V50.8079H957.606V95.6384ZM960.599 95.6384V50.8079H1005.49V95.6384H960.599ZM960.599 47.8192H1005.49V2.98871H960.599V47.8192ZM957.606 2.98871L912.718 2.98871V47.8192H957.606V2.98871ZM909.726 2.98871H864.838V47.8192H909.726V2.98871ZM816.958 2.98871H861.845V47.8192H816.958V2.98871ZM816.958 50.8079H861.845V95.6384H816.958V50.8079ZM864.838 95.6384V50.8079H909.726V95.6384H864.838ZM909.726 98.6271H864.838V143.458H909.726V98.6271ZM861.845 143.458V98.6271H816.958V143.458H861.845ZM816.958 146.446H861.845V191.277H816.958V146.446ZM864.838 191.277V146.446H909.726V191.277H864.838ZM909.726 194.266H864.838V239.096H909.726V194.266ZM861.845 239.096V194.266H816.958V239.096H861.845ZM816.958 242.085H861.845V286.915H816.958V242.085ZM864.838 286.915V242.085H909.726V286.915H864.838ZM909.726 289.904H864.838V334.734H909.726V289.904ZM861.845 334.734V289.904H816.958V334.734H861.845ZM816.958 337.723H861.845V382.554H816.958V337.723ZM864.838 382.554V337.723H909.726V382.554H864.838ZM909.726 385.542H864.838V430.373H909.726V385.542ZM861.845 430.373V385.542H816.958V430.373H861.845ZM816.958 433.362H861.845V478.192H816.958V433.362ZM864.838 478.192V433.362H909.726V478.192H864.838ZM909.726 481.181H864.838V526.011H909.726V481.181ZM861.845 526.011V481.181H816.958V526.011H861.845ZM813.965 481.181V526.011H769.077V481.181H813.965ZM766.085 481.181V526.011H721.197V481.181H766.085ZM766.085 478.192H721.197V433.362H766.085V478.192ZM769.077 478.192V433.362H813.965V478.192H769.077ZM769.077 430.373H813.965V385.542H769.077V430.373ZM766.085 430.373V385.542H721.197V430.373H766.085ZM766.085 382.554H721.197V337.723H766.085V382.554ZM769.077 382.554V337.723H813.965V382.554H769.077ZM769.077 334.734H813.965V289.904H769.077V334.734ZM766.085 334.734V289.904H721.197V334.734H766.085ZM766.085 286.915H721.197V242.085H766.085V286.915ZM769.077 286.915V242.085H813.965V286.915H769.077ZM769.077 239.096H813.965V194.266H769.077V239.096ZM766.085 239.096V194.266H721.197V239.096H766.085ZM766.085 191.277H721.197V146.446H766.085V191.277ZM769.077 191.277V146.446H813.965V191.277H769.077ZM769.077 143.458H813.965V98.6271H769.077V143.458ZM766.085 143.458V98.6271H721.197V143.458H766.085ZM766.085 95.6384H721.197V50.8079H766.085V95.6384ZM769.077 95.6384V50.8079H813.965V95.6384H769.077ZM769.077 47.8192H813.965V2.98871H769.077V47.8192ZM766.085 47.8192V2.98871H721.197V47.8192H766.085ZM718.204 2.98871H673.317V47.8192H718.204V2.98871ZM625.436 2.98871H670.324V47.8192H625.436V2.98871ZM625.436 50.8079H670.324V95.6384H625.436V50.8079ZM673.317 95.6384V50.8079H718.204V95.6384H673.317ZM718.204 98.6271H673.317V143.458H718.204V98.6271ZM670.324 143.458V98.6271H625.436V143.458H670.324ZM625.436 146.446H670.324V191.277H625.436V146.446ZM673.317 191.277V146.446H718.204V191.277H673.317ZM718.204 194.266H673.317V239.096H718.204V194.266ZM670.324 239.096V194.266H625.436V239.096H670.324ZM625.436 242.085H670.324V286.915H625.436V242.085ZM673.317 286.915V242.085H718.204V286.915L673.317 286.915ZM718.204 289.904L673.317 289.904V334.734L718.204 334.734V289.904ZM670.324 334.734V289.904H625.436V334.734H670.324ZM625.436 337.723H670.324V382.554H625.436V337.723ZM673.317 382.554V337.723L718.204 337.723V382.554L673.317 382.554ZM718.204 385.542L673.317 385.542V430.373H718.204V385.542ZM670.324 430.373V385.542H625.436V430.373H670.324ZM625.436 433.362H670.324V478.192H625.436V433.362ZM673.317 478.192V433.362H718.204V478.192H673.317ZM718.204 481.181H673.317V526.011H718.204V481.181ZM670.324 526.011V481.181H625.436V526.011H670.324ZM622.444 481.181V526.011H577.556V481.181H622.444ZM574.564 481.181V526.011H529.676V481.181H574.564ZM574.564 478.192H529.676V433.362H574.564V478.192ZM577.556 478.192V433.362L622.444 433.362V478.192H577.556ZM577.556 430.373L622.444 430.373V385.542H577.556V430.373ZM574.564 430.373V385.542H529.676V430.373H574.564ZM574.564 382.554H529.676V337.723H574.564V382.554ZM577.556 382.554V337.723H622.444V382.554H577.556ZM577.556 334.734H622.444V289.904H577.556V334.734ZM574.564 334.734V289.904H529.676V334.734H574.564ZM574.564 286.915H529.676V242.085H574.564V286.915ZM577.556 286.915V242.085H622.444V286.915H577.556ZM577.556 239.096H622.444V194.266H577.556V239.096ZM574.564 239.096V194.266H529.676V239.096H574.564ZM574.564 191.277H529.676V146.446H574.564V191.277ZM577.556 191.277V146.446H622.444V191.277H577.556ZM577.556 143.458H622.444V98.6271H577.556V143.458ZM574.564 143.458V98.6271H529.676V143.458H574.564ZM574.564 95.6384H529.676V50.8079H574.564V95.6384ZM577.556 95.6384V50.8079H622.444V95.6384H577.556ZM577.556 47.8192H622.444V2.98871H577.556V47.8192ZM574.564 47.8192V2.98871H529.676V47.8192H574.564ZM526.683 2.98871H481.796V47.8192H526.683V2.98871ZM433.915 2.98871H478.803V47.8192L433.915 47.8192V2.98871ZM433.915 50.8079L478.803 50.8079L478.803 95.6384L433.915 95.6384L433.915 50.8079ZM481.796 95.6384L481.796 50.8079H526.683V95.6384H481.796ZM526.683 98.6271H481.796V143.458H526.683V98.6271ZM478.803 143.458V98.6271L433.915 98.6271V143.458L478.803 143.458ZM433.915 146.446L478.803 146.446V191.277L433.915 191.277V146.446ZM481.796 191.277V146.446H526.683V191.277H481.796ZM526.683 194.266H481.796V239.096H526.683V194.266ZM478.803 239.096V194.266L433.915 194.266V239.096L478.803 239.096ZM433.915 242.085L478.803 242.085V286.915H433.915V242.085ZM481.796 286.915V242.085H526.683V286.915H481.796ZM526.683 289.904H481.796V334.734H526.683V289.904ZM478.803 334.734V289.904H433.915V334.734H478.803ZM433.915 337.723H478.803V382.554H433.915V337.723ZM481.796 382.554V337.723H526.683V382.554H481.796ZM526.683 385.542H481.796V430.373H526.683V385.542ZM478.803 430.373V385.542H433.915V430.373H478.803ZM433.915 433.362H478.803V478.192H433.915V433.362ZM481.796 478.192V433.362H526.683V478.192L481.796 478.192ZM526.683 481.181L481.796 481.181V526.011H526.683V481.181ZM478.803 526.011V481.181H433.915V526.011H478.803ZM430.923 481.181V526.011H386.035V481.181H430.923ZM383.042 481.181V526.011H338.155V481.181H383.042ZM383.042 478.192H338.155V433.362H383.042V478.192ZM386.035 478.192V433.362H430.923V478.192H386.035ZM386.035 430.373H430.923V385.542H386.035V430.373ZM383.042 430.373V385.542H338.155V430.373H383.042ZM383.042 382.554H338.155V337.723H383.042V382.554ZM386.035 382.554V337.723H430.923V382.554H386.035ZM386.035 334.734H430.923V289.904H386.035V334.734ZM383.042 334.734V289.904H338.155V334.734H383.042ZM383.042 286.915H338.155V242.085H383.042V286.915ZM386.035 286.915V242.085H430.923V286.915H386.035ZM386.035 239.096H430.923V194.266H386.035V239.096ZM383.042 239.096V194.266H338.155V239.096H383.042ZM383.042 191.277H338.155V146.446H383.042V191.277ZM386.035 191.277V146.446H430.923V191.277H386.035ZM386.035 143.458H430.923V98.6271H386.035V143.458ZM383.042 143.458V98.6271H338.155V143.458H383.042ZM383.042 95.6384H338.155L338.155 50.8079H383.042L383.042 95.6384ZM386.035 95.6384L386.035 50.8079H430.923L430.923 95.6384H386.035ZM386.035 47.8192H430.923V2.98871H386.035V47.8192ZM383.042 47.8192V2.98871H338.155V47.8192H383.042ZM335.162 2.98871H290.274V47.8192H335.162V2.98871ZM242.394 2.98871H287.282V47.8192H242.394V2.98871ZM242.394 50.8079H287.282L287.282 95.6384H242.394V50.8079ZM290.274 95.6384L290.274 50.8079H335.162L335.162 95.6384H290.274ZM335.162 98.6271H290.274V143.458H335.162V98.6271ZM287.282 143.458V98.6271H242.394V143.458H287.282ZM242.394 146.446H287.282V191.277H242.394V146.446ZM290.274 191.277V146.446H335.162V191.277H290.274ZM335.162 194.266H290.274V239.096H335.162V194.266ZM287.282 239.096V194.266H242.394V239.096H287.282ZM242.394 242.085H287.282V286.915H242.394V242.085ZM290.274 286.915V242.085H335.162V286.915H290.274ZM335.162 289.904H290.274V334.734H335.162V289.904ZM287.282 334.734V289.904H242.394L242.394 334.734H287.282ZM242.394 337.723H287.282V382.554H242.394V337.723ZM290.274 382.554V337.723H335.162V382.554H290.274ZM335.162 385.542H290.274V430.373H335.162V385.542ZM287.282 430.373V385.542H242.394V430.373H287.282ZM242.394 433.362H287.282V478.192H242.394V433.362ZM290.274 478.192V433.362H335.162V478.192H290.274ZM335.162 481.181H290.274V526.011H335.162V481.181ZM287.282 526.011V481.181H242.394V526.011H287.282ZM239.401 481.181V526.011H194.514V481.181H239.401ZM191.521 481.181V526.011H146.633V481.181H191.521ZM191.521 478.192H146.633V433.362H191.521V478.192ZM194.514 478.192V433.362H239.401V478.192H194.514ZM194.514 430.373H239.401V385.542H194.514V430.373ZM191.521 430.373V385.542H146.633V430.373H191.521ZM191.521 382.554H146.633V337.723H191.521V382.554ZM194.514 382.554V337.723H239.401V382.554H194.514ZM194.514 334.734H239.401L239.401 289.904H194.514L194.514 334.734ZM191.521 334.734L191.521 289.904H146.633L146.633 334.734H191.521ZM191.521 286.915H146.633V242.085H191.521V286.915ZM194.514 286.915V242.085H239.401V286.915H194.514ZM194.514 239.096H239.401V194.266H194.514V239.096ZM191.521 239.096V194.266H146.633V239.096H191.521ZM191.521 191.277H146.633V146.446H191.521V191.277ZM194.514 191.277V146.446H239.401V191.277H194.514ZM194.514 143.458H239.401V98.6271H194.514V143.458ZM191.521 143.458V98.6271H146.633V143.458H191.521ZM191.521 95.6384H146.633V50.8079H191.521V95.6384ZM194.514 95.6384V50.8079H239.401V95.6384H194.514ZM194.514 47.8192H239.401V2.98871H194.514V47.8192ZM191.521 47.8192V2.98871H146.633V47.8192H191.521ZM143.641 2.98871H98.7531V47.8192H143.641V2.98871ZM50.8728 2.98871H95.7606V47.8192H50.8728L50.8728 2.98871ZM50.8728 50.8079H95.7606V95.6384H50.8728V50.8079ZM98.7531 95.6384V50.8079H143.641V95.6384H98.7531ZM143.641 98.6271H98.7531V143.458H143.641V98.6271ZM95.7606 143.458V98.6271H50.8728L50.8728 143.458H95.7606ZM50.8728 146.446H95.7606L95.7606 191.277H50.8728V146.446ZM98.7531 191.277L98.7531 146.446H143.641V191.277H98.7531ZM143.641 194.266H98.7531V239.096H143.641V194.266ZM95.7606 239.096V194.266H50.8728L50.8728 239.096H95.7606ZM50.8728 242.085H95.7606V286.915H50.8728V242.085ZM98.7531 286.915V242.085H143.641V286.915H98.7531ZM143.641 289.904H98.7531V334.734H143.641L143.641 289.904ZM95.7606 334.734V289.904H50.8728V334.734H95.7606ZM50.8728 337.723H95.7606V382.554H50.8728L50.8728 337.723ZM98.7531 382.554V337.723H143.641V382.554H98.7531ZM143.641 385.542H98.7531L98.7531 430.373H143.641V385.542ZM95.7606 430.373L95.7606 385.542H50.8728V430.373H95.7606ZM50.8728 433.362H95.7606V478.192H50.8728L50.8728 433.362ZM98.7531 478.192V433.362H143.641V478.192H98.7531ZM143.641 481.181H98.7531V526.011H143.641V481.181ZM95.7606 526.011V481.181H50.8728V526.011H95.7606Z" fill="url(#paint0_radial_170_3489)"/>
<defs>
<radialGradient id="paint0_radial_170_3489" cx="0" cy="0" r="1" gradientUnits="userSpaceOnUse" gradientTransform="translate(598.504 529) rotate(-89.8558) scale(594.502 638.202)">
<stop stop-color="#7A8597"/>
<stop offset="1" stop-color="#7A8597" stop-opacity="0"/>
</radialGradient>
</defs>
</svg>
