<svg width="106" height="17" viewBox="0 0 106 17" fill="none" xmlns="http://www.w3.org/2000/svg">
<path id="Vector 2" d="M0.869405 15.7868C0.75167 15.8589 0.714696 16.0128 0.786822 16.1306C0.858948 16.2483 1.01286 16.2853 1.1306 16.2131L0.869405 15.7868ZM104.929 7.39495L105.169 7.46604L105.311 6.98668L105.071 6.91559L104.929 7.39495ZM2.43278 15.4396L2.64937 15.3148L2.39965 14.8816L2.18306 15.0065L2.43278 15.4396ZM3.97573 14.0107L3.75537 14.1288L3.9915 14.5695L4.21186 14.4514L3.97573 14.0107ZM6.9222 13.0697L7.14708 12.9605L6.92863 12.5107L6.70375 12.6199L6.9222 13.0697ZM8.55664 11.7471L8.32926 11.851L8.53709 12.3057L8.76447 12.2018L8.55664 11.7471ZM11.5584 10.9795L11.789 10.8829L11.5959 10.4217L11.3653 10.5183L11.5584 10.9795ZM13.2601 9.74675L13.0276 9.83876L13.2116 10.3037L13.4441 10.2117L13.2601 9.74675ZM16.2984 9.12819L16.5334 9.0427L16.3624 8.57284L16.1275 8.65833L16.2984 9.12819ZM18.0564 7.97581L17.82 8.05712L17.9826 8.52994L18.219 8.44862L18.0564 7.97581ZM21.1184 7.4928L21.3568 7.41754L21.2062 6.94073L20.9678 7.016L21.1184 7.4928ZM22.9283 6.41486L22.6887 6.48619L22.8313 6.9654L23.0709 6.89407L22.9283 6.41486ZM26.0074 6.05823L26.2487 5.99266L26.1175 5.51017L25.8763 5.57574L26.0074 6.05823ZM27.8533 5.05495L27.611 5.11675L27.7346 5.60123L27.9769 5.53943L27.8533 5.05495ZM30.9446 4.81859L31.1882 4.76236L31.0757 4.27517L30.8321 4.3314L30.9446 4.81859ZM32.8227 3.88769L32.5783 3.94025L32.6834 4.42907L32.9278 4.37651L32.8227 3.88769ZM35.9216 3.76758L36.1671 3.72048L36.0729 3.22943L35.8274 3.27654L35.9216 3.76758ZM37.8464 2.90464L37.6002 2.94811L37.6871 3.4405L37.9333 3.39702L37.8464 2.90464ZM40.9453 2.89899L41.1923 2.86089L41.1162 2.36673L40.8691 2.40483L40.9453 2.89899ZM42.8839 2.10901L42.6363 2.14355L42.7053 2.63875L42.9529 2.60422L42.8839 2.10901ZM45.9833 2.21475L46.2316 2.18555L46.1732 1.68897L45.9249 1.71817L45.9833 2.21475ZM47.9644 1.49313L47.7157 1.51877L47.767 2.01613L48.0156 1.99049L47.9644 1.49313ZM51.0528 1.70999L51.302 1.68965L51.2613 1.19131L51.0122 1.21165L51.0528 1.70999ZM53.0471 1.05999L52.7977 1.07681L52.8313 1.57568L53.0807 1.55886L53.0471 1.05999ZM56.1336 1.38551L56.3833 1.37398L56.3602 0.874508L56.1105 0.886037L56.1336 1.38551ZM58.1511 0.806218L57.9012 0.814232L57.9173 1.31398L58.1671 1.30596L58.1511 0.806218ZM61.2193 1.24024L61.4693 1.23749L61.4638 0.737517L61.2138 0.740268L61.2193 1.24024ZM63.2643 0.73213L63.0143 0.731364L63.0128 1.23136L63.2628 1.23213L63.2643 0.73213ZM66.3148 1.2735L66.5647 1.27951L66.5767 0.779659L66.3268 0.773649L66.3148 1.2735ZM68.3657 0.836913L68.1159 0.827418L68.0969 1.32706L68.3467 1.33655L68.3657 0.836913ZM71.4025 1.48479L71.6521 1.49952L71.6815 1.00039L71.4319 0.985657L71.4025 1.48479ZM73.4664 1.11992L73.217 1.10172L73.1806 1.60039L73.43 1.61859L73.4664 1.11992ZM76.4743 1.87269L76.7232 1.89608L76.77 1.39828L76.5211 1.37489L76.4743 1.87269ZM78.5585 1.58065L78.3099 1.5538L78.2562 2.05091L78.5048 2.07776L78.5585 1.58065ZM81.5338 2.4368L81.7818 2.46879L81.8458 1.97291L81.5978 1.94091L81.5338 2.4368ZM83.6291 2.21739L83.3816 2.18195L83.3108 2.67691L83.5583 2.71234L83.6291 2.21739ZM86.5739 3.17593L86.8206 3.21646L86.9017 2.72307L86.655 2.68254L86.5739 3.17593ZM88.6682 3.02753L88.4221 2.98362L88.3342 3.47584L88.5803 3.51976L88.6682 3.02753ZM91.5878 4.08843L91.833 4.1374L91.9309 3.64708L91.6858 3.59811L91.5878 4.08843ZM93.679 4.01039L93.4345 3.95809L93.3299 4.44702L93.5744 4.49932L93.679 4.01039ZM96.5609 5.17022L96.8042 5.2275L96.9188 4.7408L96.6754 4.68352L96.5609 5.17022ZM98.6551 5.16366L98.4126 5.1031L98.2915 5.5882L98.534 5.64876L98.6551 5.16366ZM101.493 6.41947L101.734 6.48492L101.865 6.00236L101.624 5.93691L101.493 6.41947ZM103.591 6.48455L103.35 6.41588L103.213 6.89664L103.453 6.96532L103.591 6.48455ZM1.1306 16.2131C1.54786 15.9575 1.98203 15.6995 2.43278 15.4396L2.18306 15.0065C1.7286 15.2685 1.2906 15.5288 0.869405 15.7868L1.1306 16.2131ZM4.21186 14.4514C5.06701 13.9932 5.971 13.5317 6.9222 13.0697L6.70375 12.6199C5.74684 13.0847 4.83694 13.5493 3.97573 14.0107L4.21186 14.4514ZM8.76447 12.2018C9.6599 11.7926 10.5916 11.3845 11.5584 10.9795L11.3653 10.5183C10.3936 10.9253 9.45701 11.3356 8.55664 11.7471L8.76447 12.2018ZM13.4441 10.2117C14.3672 9.84629 15.3189 9.48462 16.2984 9.12819L16.1275 8.65833C15.1436 9.01633 14.1875 9.37966 13.2601 9.74675L13.4441 10.2117ZM18.219 8.44862C19.1622 8.12421 20.1289 7.80519 21.1184 7.4928L20.9678 7.016C19.9743 7.32967 19.0036 7.65002 18.0564 7.97581L18.219 8.44862ZM23.0709 6.89407C24.0301 6.60852 25.0092 6.32957 26.0074 6.05823L25.8763 5.57574C24.8742 5.84812 23.8913 6.12817 22.9283 6.41486L23.0709 6.89407ZM27.9769 5.53943C28.9493 5.29136 29.9387 5.05078 30.9446 4.81859L30.8321 4.3314C29.8225 4.56445 28.8294 4.80593 27.8533 5.05495L27.9769 5.53943ZM32.9278 4.37651C33.911 4.16506 34.9091 3.96182 35.9216 3.76758L35.8274 3.27654C34.8113 3.47148 33.8095 3.67546 32.8227 3.88769L32.9278 4.37651ZM37.9333 3.39702C38.9244 3.222 39.9285 3.05576 40.9453 2.89899L40.8691 2.40483C39.8487 2.56215 38.841 2.72899 37.8464 2.90464L37.9333 3.39702ZM42.9529 2.60422C43.9516 2.46491 44.9619 2.33488 45.9833 2.21475L45.9249 1.71817C44.8999 1.83872 43.8861 1.96921 42.8839 2.10901L42.9529 2.60422ZM48.0156 1.99049C49.0179 1.88715 50.0304 1.79347 51.0528 1.70999L51.0122 1.21165C49.9861 1.29541 48.9701 1.38943 47.9644 1.49313L48.0156 1.99049ZM53.0807 1.55886C54.0892 1.49086 55.1069 1.4329 56.1336 1.38551L56.1105 0.886037C55.0803 0.933597 54.0591 0.991756 53.0471 1.05999L53.0807 1.55886ZM58.1671 1.30596C59.1763 1.27359 60.1938 1.25152 61.2193 1.24024L61.2138 0.740268C60.1848 0.751592 59.1638 0.773736 58.1511 0.806218L58.1671 1.30596ZM63.2628 1.23213C64.2728 1.23522 65.2902 1.24887 66.3148 1.2735L66.3268 0.773649C65.2987 0.748927 64.2778 0.735236 63.2643 0.73213L63.2628 1.23213ZM68.3467 1.33655C69.3587 1.37502 70.3773 1.42429 71.4025 1.48479L71.4319 0.985657C70.4033 0.92495 69.3811 0.875508 68.3657 0.836913L68.3467 1.33655ZM73.43 1.61859C74.4388 1.69221 75.4536 1.77678 76.4743 1.87269L76.5211 1.37489C75.4969 1.27864 74.4786 1.19378 73.4664 1.11992L73.43 1.61859ZM78.5048 2.07776C79.5091 2.18625 80.5189 2.30581 81.5338 2.4368L81.5978 1.94091C80.5794 1.80948 79.5662 1.68951 78.5585 1.58065L78.5048 2.07776ZM83.5583 2.71234C84.5587 2.85557 85.564 3.00999 86.5739 3.17593L86.655 2.68254C85.6416 2.51604 84.6329 2.3611 83.6291 2.21739L83.5583 2.71234ZM88.5803 3.51976C89.5785 3.69787 90.5811 3.88732 91.5878 4.08843L91.6858 3.59811C90.6756 3.39633 89.6697 3.20624 88.6682 3.02753L88.5803 3.51976ZM93.5744 4.49932C94.566 4.71146 95.5616 4.93499 96.5609 5.17022L96.6754 4.68352C95.6728 4.44751 94.6739 4.22324 93.679 4.01039L93.5744 4.49932ZM98.534 5.64876C99.517 5.89418 100.503 6.15099 101.493 6.41947L101.624 5.93691C100.631 5.66754 99.6413 5.40988 98.6551 5.16366L98.534 5.64876ZM103.453 6.96532C103.944 7.10562 104.436 7.24882 104.929 7.39495L105.071 6.91559C104.577 6.76898 104.083 6.62531 103.591 6.48455L103.453 6.96532ZM0.738809 15.5736C0.503339 15.7179 0.429392 16.0257 0.573644 16.2612C0.717896 16.4966 1.02572 16.5706 1.26119 16.4263L0.738809 15.5736ZM104.858 7.63462L105.337 7.77681L105.622 6.81809L105.142 6.67591L104.858 7.63462ZM2.55765 15.6562L2.99082 15.4065L2.49137 14.5402L2.0582 14.7899L2.55765 15.6562ZM3.85766 13.7903L3.41693 14.0265L3.8892 14.9079L4.32993 14.6718L3.85766 13.7903ZM7.03143 13.2946L7.48118 13.0761L7.04428 12.1766L6.59452 12.3951L7.03143 13.2946ZM8.45273 11.5197L7.99797 11.7275L8.41363 12.637L8.86839 12.4292L8.45273 11.5197ZM11.655 11.2101L12.1162 11.0169L11.7299 10.0946L11.2687 10.2877L11.655 11.2101ZM13.1681 9.5143L12.7032 9.69832L13.0712 10.6281L13.5361 10.4441L13.1681 9.5143ZM16.3839 9.36312L16.8538 9.19214L16.5118 8.25242L16.042 8.4234L16.3839 9.36312ZM17.9751 7.7394L17.5023 7.90203L17.8275 8.84766L18.3003 8.68503L17.9751 7.7394ZM21.1936 7.7312L21.6704 7.58067L21.3694 6.62707L20.8926 6.7776L21.1936 7.7312ZM22.8569 6.17525L22.3777 6.31791L22.663 7.27634L23.1422 7.13368L22.8569 6.17525ZM26.073 6.29948L26.5555 6.16834L26.2932 5.20335L25.8107 5.33449L26.073 6.29948ZM27.7915 4.81271L27.307 4.93631L27.5542 5.90527L28.0387 5.78167L27.7915 4.81271ZM31.0008 5.06219L31.488 4.94973L31.2631 3.97535L30.7759 4.08781L31.0008 5.06219ZM32.7701 3.64327L32.2813 3.7484L32.4915 4.72605L32.9804 4.62092L32.7701 3.64327ZM35.9687 4.0131L36.4597 3.9189L36.2713 2.93681L35.7803 3.03101L35.9687 4.0131ZM37.8029 2.65845L37.3105 2.7454L37.4844 3.73016L37.9768 3.64321L37.8029 2.65845ZM40.9834 3.14607L41.4775 3.06988L41.3251 2.08155L40.831 2.15775L40.9834 3.14607ZM42.8493 1.86141L42.3541 1.93048L42.4923 2.92089L42.9875 2.85182L42.8493 1.86141ZM46.0125 2.46304L46.5091 2.40464L46.3923 1.41148L45.8957 1.46988L46.0125 2.46304ZM47.9387 1.24444L47.4414 1.29573L47.5439 2.29045L48.0413 2.23917L47.9387 1.24444ZM51.0732 1.95916L51.5715 1.91848L51.4902 0.921791L50.9918 0.962477L51.0732 1.95916ZM53.0303 0.810556L52.5314 0.844193L52.5987 1.84193L53.0975 1.80829L53.0303 0.810556ZM56.1451 1.63524L56.6446 1.61218L56.5984 0.613245L56.099 0.636303L56.1451 1.63524ZM58.1431 0.556346L57.6433 0.572375L57.6754 1.57186L58.1751 1.55583L58.1431 0.556346ZM61.222 1.49022L61.722 1.48472L61.711 0.484781L61.211 0.490283L61.222 1.49022ZM63.2651 0.482131L62.7651 0.480599L62.7621 1.48059L63.2621 1.48213L63.2651 0.482131ZM66.3088 1.52343L66.8086 1.53545L66.8327 0.535741L66.3328 0.523722L66.3088 1.52343ZM68.3752 0.587094L67.8756 0.568103L67.8376 1.56738L68.3373 1.58637L68.3752 0.587094ZM71.3878 1.73435L71.8869 1.76381L71.9458 0.765549L71.4467 0.736092L71.3878 1.73435ZM73.4846 0.870579L72.9859 0.834189L72.9131 1.83154L73.4118 1.86793L73.4846 0.870579ZM76.4509 2.1216L76.9487 2.16838L77.0423 1.17276L76.5444 1.12598L76.4509 2.1216ZM78.5853 1.3321L78.0882 1.2784L77.9808 2.27262L78.4779 2.32632L78.5853 1.3321ZM81.5018 2.68474L81.9977 2.74874L82.1257 1.75696L81.6298 1.69296L81.5018 2.68474ZM83.6646 1.96991L83.1696 1.89905L83.0279 2.88895L83.5228 2.95982L83.6646 1.96991ZM86.5334 3.42262L87.0268 3.50368L87.1889 2.51691L86.6955 2.43585L86.5334 3.42262ZM88.7121 2.78142L88.2199 2.69359L88.0442 3.67804L88.5364 3.76587L88.7121 2.78142ZM91.5388 4.33358L92.0292 4.43153L92.2251 3.4509L91.7347 3.35296L91.5388 4.33358ZM93.7313 3.76592L93.2423 3.66132L93.0331 4.63919L93.5221 4.74379L93.7313 3.76592ZM96.5036 5.41357L96.9903 5.52813L97.2194 4.55474L96.7327 4.44017L96.5036 5.41357ZM98.7157 4.9211L98.2306 4.79998L97.9884 5.7702L98.4735 5.89132L98.7157 4.9211ZM101.428 6.66075L101.91 6.79166L102.172 5.82654L101.689 5.69563L101.428 6.66075ZM103.659 6.24417L103.179 6.10682L102.904 7.06835L103.385 7.2057L103.659 6.24417ZM1.26119 16.4263C1.67649 16.1719 2.10874 15.915 2.55765 15.6562L2.0582 14.7899C1.60188 15.053 1.16198 15.3144 0.738809 15.5736L1.26119 16.4263ZM4.32993 14.6718C5.18205 14.2152 6.08309 13.7552 7.03143 13.2946L6.59452 12.3951C5.63475 12.8612 4.72191 13.3273 3.85766 13.7903L4.32993 14.6718ZM8.86839 12.4292C9.76134 12.0211 10.6906 11.6141 11.655 11.2101L11.2687 10.2877C10.2946 10.6958 9.35557 11.1071 8.45273 11.5197L8.86839 12.4292ZM13.5361 10.4441C14.457 10.0796 15.4066 9.71876 16.3839 9.36312L16.042 8.4234C15.0559 8.78219 14.0977 9.14634 13.1681 9.5143L13.5361 10.4441ZM18.3003 8.68503C19.2415 8.36131 20.2062 8.04296 21.1936 7.7312L20.8926 6.7776C19.897 7.0919 18.9243 7.41292 17.9751 7.7394L18.3003 8.68503ZM23.1422 7.13368C24.0996 6.8487 25.0767 6.57029 26.073 6.29948L25.8107 5.33449C24.8067 5.6074 23.8219 5.88799 22.8569 6.17525L23.1422 7.13368ZM28.0387 5.78167C29.0092 5.53407 29.9968 5.29394 31.0008 5.06219L30.7759 4.08781C29.7644 4.32129 28.7694 4.56322 27.7915 4.81271L28.0387 5.78167ZM32.9804 4.62092C33.9618 4.40986 34.9581 4.20699 35.9687 4.0131L35.7803 3.03101C34.7623 3.22631 33.7588 3.43066 32.7701 3.64327L32.9804 4.62092ZM37.9768 3.64321C38.9661 3.4685 39.9684 3.30256 40.9834 3.14607L40.831 2.15775C39.8088 2.31535 38.7993 2.48248 37.8029 2.65845L37.9768 3.64321ZM42.9875 2.85182C43.9844 2.71276 44.9929 2.58296 46.0125 2.46304L45.8957 1.46988C44.8689 1.59065 43.8533 1.72136 42.8493 1.86141L42.9875 2.85182ZM48.0413 2.23917C49.0418 2.13602 50.0525 2.04249 51.0732 1.95916L50.9918 0.962477C49.964 1.04639 48.9462 1.14057 47.9387 1.24444L48.0413 2.23917ZM53.0975 1.80829C54.1043 1.74041 55.1202 1.68255 56.1451 1.63524L56.099 0.636303C55.067 0.683945 54.044 0.742204 53.0303 0.810556L53.0975 1.80829ZM58.1751 1.55583C59.1826 1.52352 60.1983 1.50149 61.222 1.49022L61.211 0.490283C60.1803 0.501627 59.1575 0.523808 58.1431 0.556346L58.1751 1.55583ZM63.2621 1.48213C64.2703 1.48522 65.2859 1.49884 66.3088 1.52343L66.3328 0.523722C65.3029 0.498957 64.2803 0.485242 63.2651 0.482131L63.2621 1.48213ZM68.3373 1.58637C69.3475 1.62477 70.3644 1.67396 71.3878 1.73435L71.4467 0.736092C70.4163 0.675281 69.3924 0.625754 68.3752 0.587094L68.3373 1.58637ZM73.4118 1.86793C74.4189 1.94142 75.432 2.02584 76.4509 2.1216L76.5444 1.12598C75.5186 1.02958 74.4985 0.944572 73.4846 0.870579L73.4118 1.86793ZM78.4779 2.32632C79.4806 2.43462 80.4886 2.55398 81.5018 2.68474L81.6298 1.69296C80.6097 1.56131 79.5948 1.44114 78.5853 1.3321L78.4779 2.32632ZM83.5228 2.95982C84.5216 3.1028 85.5251 3.25696 86.5334 3.42262L86.6955 2.43585C85.6805 2.26907 84.6701 2.11387 83.6646 1.96991L83.5228 2.95982ZM88.5364 3.76587C89.5329 3.94368 90.5338 4.13281 91.5388 4.33358L91.7347 3.35296C90.7229 3.15084 89.7153 2.96043 88.7121 2.78142L88.5364 3.76587ZM93.5221 4.74379C94.5121 4.95558 95.5059 5.17873 96.5036 5.41357L96.7327 4.44017C95.7284 4.20377 94.7279 3.97912 93.7313 3.76592L93.5221 4.74379ZM98.4735 5.89132C99.4548 6.13632 100.44 6.39271 101.428 6.66075L101.689 5.69563C100.695 5.42582 99.7035 5.16774 98.7157 4.9211L98.4735 5.89132ZM103.385 7.2057C103.875 7.34577 104.366 7.48873 104.858 7.63462L105.142 6.67591C104.647 6.52906 104.153 6.38516 103.659 6.24417L103.385 7.2057Z" fill="#2A3342" fill-opacity="0.2"/>
</svg>
